<svg width="288" height="282" viewBox="0 0 288 282" fill="none" xmlns="http://www.w3.org/2000/svg">
<mask id="path-1-outside-1_279_2" maskUnits="userSpaceOnUse" x="0" y="0" width="288" height="197" fill="black">
<rect fill="white" width="288" height="197"/>
<path d="M284 154H83.3633V187.75L44.3926 154H4V4H284V154Z"/>
</mask>
<path d="M284 154H83.3633V187.75L44.3926 154H4V4H284V154Z" fill="url(#paint0_linear_279_2)"/>
<path d="M284 154V158H288V154H284ZM83.3633 154V150H79.3633V154H83.3633ZM83.3633 187.75L80.7447 190.774L87.3633 196.506V187.75H83.3633ZM44.3926 154L47.0112 150.976L45.8839 150H44.3926V154ZM4 154H0V158H4V154ZM4 4V0H0V4H4ZM284 4H288V0H284V4ZM284 154V150H83.3633V154V158H284V154ZM83.3633 154H79.3633V187.75H83.3633H87.3633V154H83.3633ZM83.3633 187.75L85.9819 184.726L47.0112 150.976L44.3926 154L41.7739 157.024L80.7447 190.774L83.3633 187.75ZM44.3926 154V150H4V154V158H44.3926V154ZM4 154H8V4H4H0V154H4ZM4 4V8H284V4V0H4V4ZM284 4H280V154H284H288V4H284Z" fill="white" mask="url(#path-1-outside-1_279_2)"/>
<path d="M44.1 67.112H57.708V69.344H44.1V67.112ZM45.06 55.4H57.18V57.608H45.06V55.4ZM49.956 47.936H52.284V68.192H49.956V47.936ZM35.604 52.232H43.524V54.296H35.604V52.232ZM39.252 59.84L41.508 57.152V70.04H39.252V59.84ZM39.252 47.744H41.508V53.216H39.252V47.744ZM41.268 57.776C41.492 57.92 41.796 58.16 42.18 58.496C42.58 58.832 43.004 59.2 43.452 59.6C43.916 59.984 44.332 60.344 44.7 60.68C45.084 61 45.364 61.24 45.54 61.4L44.148 63.248C43.924 62.96 43.636 62.624 43.284 62.24C42.932 61.84 42.548 61.432 42.132 61.016C41.732 60.6 41.34 60.208 40.956 59.84C40.588 59.456 40.276 59.152 40.02 58.928L41.268 57.776ZM42.708 52.232H43.14L43.572 52.136L44.844 52.976C44.236 54.48 43.452 55.92 42.492 57.296C41.532 58.672 40.476 59.92 39.324 61.04C38.188 62.144 37.036 63.064 35.868 63.8C35.804 63.592 35.7 63.352 35.556 63.08C35.428 62.808 35.292 62.544 35.148 62.288C35.004 62.032 34.868 61.84 34.74 61.712C35.844 61.088 36.916 60.304 37.956 59.36C38.996 58.4 39.932 57.344 40.764 56.192C41.596 55.024 42.244 53.848 42.708 52.664V52.232ZM69.012 57.896L70.74 56.648C71.3 57.16 71.9 57.712 72.54 58.304C73.196 58.896 73.828 59.496 74.436 60.104C75.06 60.712 75.636 61.304 76.164 61.88C76.708 62.44 77.164 62.944 77.532 63.392L75.66 64.88C75.324 64.416 74.892 63.896 74.364 63.32C73.852 62.728 73.292 62.12 72.684 61.496C72.092 60.856 71.476 60.232 70.836 59.624C70.196 59 69.588 58.424 69.012 57.896ZM69.18 47.744H71.532V52.904C71.532 53.688 71.484 54.504 71.388 55.352C71.292 56.2 71.116 57.064 70.86 57.944C70.604 58.824 70.22 59.696 69.708 60.56C69.212 61.408 68.564 62.232 67.764 63.032C66.964 63.832 65.98 64.576 64.812 65.264C64.716 65.104 64.572 64.92 64.38 64.712C64.188 64.488 63.988 64.272 63.78 64.064C63.572 63.856 63.372 63.688 63.18 63.56C64.316 62.952 65.252 62.304 65.988 61.616C66.724 60.912 67.308 60.192 67.74 59.456C68.172 58.704 68.492 57.952 68.7 57.2C68.908 56.432 69.036 55.688 69.084 54.968C69.148 54.232 69.18 53.536 69.18 52.88V47.744ZM60.588 51.8H78.9V54.032H62.868V70.064H60.588V51.8ZM77.892 51.8H80.124V67.256C80.124 67.912 80.036 68.424 79.86 68.792C79.7 69.16 79.388 69.44 78.924 69.632C78.476 69.808 77.868 69.912 77.1 69.944C76.348 69.992 75.436 70.016 74.364 70.016C74.332 69.808 74.276 69.56 74.196 69.272C74.116 69 74.02 68.728 73.908 68.456C73.812 68.184 73.708 67.944 73.596 67.736C74.124 67.752 74.636 67.768 75.132 67.784C75.644 67.8 76.092 67.808 76.476 67.808C76.86 67.792 77.132 67.784 77.292 67.784C77.516 67.768 77.668 67.72 77.748 67.64C77.844 67.56 77.892 67.416 77.892 67.208V51.8ZM93.18 51.536C93.884 51.648 94.676 51.728 95.556 51.776C96.452 51.824 97.372 51.84 98.316 51.824C99.26 51.808 100.164 51.776 101.028 51.728C101.892 51.68 102.636 51.616 103.26 51.536V53.984C102.572 54.048 101.796 54.104 100.932 54.152C100.068 54.184 99.172 54.2 98.244 54.2C97.332 54.2 96.436 54.184 95.556 54.152C94.676 54.104 93.892 54.048 93.204 53.984L93.18 51.536ZM94.548 61.52C94.452 61.936 94.372 62.312 94.308 62.648C94.26 62.984 94.236 63.32 94.236 63.656C94.236 63.928 94.292 64.184 94.404 64.424C94.532 64.664 94.732 64.872 95.004 65.048C95.292 65.224 95.676 65.368 96.156 65.48C96.652 65.576 97.26 65.624 97.98 65.624C99.068 65.624 100.084 65.576 101.028 65.48C101.988 65.368 102.964 65.2 103.956 64.976L104.004 67.544C103.252 67.688 102.372 67.808 101.364 67.904C100.372 67.984 99.228 68.024 97.932 68.024C95.9 68.024 94.396 67.696 93.42 67.04C92.46 66.368 91.98 65.448 91.98 64.28C91.98 63.848 92.012 63.4 92.076 62.936C92.14 62.456 92.244 61.92 92.388 61.328L94.548 61.52ZM89.004 49.808C88.956 49.952 88.892 50.144 88.812 50.384C88.748 50.608 88.684 50.84 88.62 51.08C88.572 51.304 88.532 51.488 88.5 51.632C88.42 52.032 88.324 52.52 88.212 53.096C88.116 53.656 88.012 54.272 87.9 54.944C87.804 55.6 87.708 56.272 87.612 56.96C87.532 57.632 87.46 58.288 87.396 58.928C87.348 59.568 87.324 60.152 87.324 60.68C87.324 61.096 87.332 61.52 87.348 61.952C87.38 62.368 87.42 62.8 87.468 63.248C87.612 62.928 87.756 62.592 87.9 62.24C88.044 61.872 88.188 61.512 88.332 61.16C88.476 60.808 88.612 60.488 88.74 60.2L89.94 61.16C89.732 61.752 89.508 62.408 89.268 63.128C89.028 63.848 88.812 64.536 88.62 65.192C88.444 65.832 88.316 66.352 88.236 66.752C88.204 66.912 88.172 67.104 88.14 67.328C88.108 67.536 88.1 67.712 88.116 67.856C88.116 67.968 88.116 68.104 88.116 68.264C88.132 68.44 88.148 68.6 88.164 68.744L85.98 68.888C85.74 68.056 85.532 66.96 85.356 65.6C85.18 64.24 85.092 62.752 85.092 61.136C85.092 60.24 85.132 59.336 85.212 58.424C85.292 57.496 85.388 56.6 85.5 55.736C85.612 54.872 85.724 54.08 85.836 53.36C85.964 52.64 86.06 52.04 86.124 51.56C86.172 51.256 86.212 50.928 86.244 50.576C86.292 50.224 86.324 49.888 86.34 49.568L89.004 49.808ZM121.836 47.648H129.564V49.712H124.068V63.08H121.836V47.648ZM130.332 68L136.188 50.312H139.404L145.26 68H142.308L139.452 58.4C139.164 57.44 138.884 56.472 138.612 55.496C138.34 54.504 138.068 53.512 137.796 52.52H137.7C137.444 53.528 137.172 54.52 136.884 55.496C136.612 56.472 136.332 57.44 136.044 58.4L133.188 68H130.332ZM133.644 62.984V60.776H141.9V62.984H133.644ZM147.59 68V50.312H150.374V68H147.59ZM157.876 54.776H171.388V56.936H157.876V54.776ZM157.876 60.392H171.388V62.552H157.876V60.392ZM157.876 66.032H171.388V68.264H157.876V66.032ZM156.268 49.136H172.924V69.824H170.548V51.368H158.548V69.824H156.268V49.136ZM177.796 54.92H189.268V57.032H177.796V54.92ZM190.684 50.624H192.868V63.968H190.684V50.624ZM182.644 49.904H184.852V69.992H182.644V49.904ZM196.468 48.2H198.724V67.136C198.724 67.856 198.636 68.4 198.46 68.768C198.284 69.136 197.98 69.408 197.548 69.584C197.1 69.776 196.5 69.896 195.748 69.944C195.012 70.008 194.092 70.032 192.988 70.016C192.956 69.808 192.892 69.56 192.796 69.272C192.716 69 192.62 68.72 192.508 68.432C192.412 68.144 192.3 67.896 192.172 67.688C193.004 67.72 193.764 67.744 194.452 67.76C195.14 67.76 195.604 67.752 195.844 67.736C196.068 67.736 196.228 67.696 196.324 67.616C196.42 67.52 196.468 67.36 196.468 67.136V48.2ZM187.444 47.864L189.076 49.592C188.116 49.976 187.028 50.328 185.812 50.648C184.596 50.952 183.34 51.216 182.044 51.44C180.748 51.664 179.484 51.864 178.252 52.04C178.22 51.768 178.132 51.464 177.988 51.128C177.844 50.776 177.708 50.488 177.58 50.264C178.46 50.12 179.356 49.968 180.268 49.808C181.18 49.632 182.076 49.448 182.956 49.256C183.836 49.048 184.66 48.832 185.428 48.608C186.196 48.368 186.868 48.12 187.444 47.864ZM182.596 55.904L184.156 56.6C183.852 57.496 183.492 58.424 183.076 59.384C182.66 60.344 182.196 61.28 181.684 62.192C181.188 63.104 180.668 63.96 180.124 64.76C179.58 65.56 179.02 66.248 178.444 66.824C178.364 66.6 178.252 66.36 178.108 66.104C177.964 65.832 177.82 65.568 177.676 65.312C177.532 65.056 177.388 64.832 177.244 64.64C177.772 64.128 178.3 63.536 178.828 62.864C179.356 62.192 179.852 61.464 180.316 60.68C180.796 59.88 181.228 59.08 181.612 58.28C182.012 57.464 182.34 56.672 182.596 55.904ZM184.54 58.376C184.78 58.536 185.116 58.792 185.548 59.144C185.996 59.496 186.468 59.888 186.964 60.32C187.46 60.736 187.916 61.12 188.332 61.472C188.764 61.824 189.068 62.08 189.244 62.24L187.948 64.184C187.692 63.896 187.364 63.544 186.964 63.128C186.564 62.696 186.14 62.256 185.692 61.808C185.244 61.36 184.812 60.936 184.396 60.536C183.98 60.136 183.628 59.816 183.34 59.576L184.54 58.376ZM204.82 51.224C206.532 51.416 208.14 51.528 209.644 51.56C211.148 51.592 212.524 51.56 213.772 51.464C214.796 51.368 215.796 51.224 216.772 51.032C217.764 50.84 218.724 50.592 219.652 50.288L219.964 52.472C219.148 52.712 218.244 52.928 217.252 53.12C216.26 53.296 215.268 53.432 214.276 53.528C213.044 53.624 211.62 53.672 210.004 53.672C208.404 53.656 206.724 53.568 204.964 53.408L204.82 51.224ZM204.364 56.192C205.772 56.32 207.132 56.408 208.444 56.456C209.772 56.504 211.028 56.504 212.212 56.456C213.396 56.408 214.46 56.328 215.404 56.216C216.604 56.104 217.668 55.944 218.596 55.736C219.54 55.528 220.348 55.32 221.02 55.112L221.404 57.368C220.716 57.544 219.932 57.72 219.052 57.896C218.172 58.056 217.236 58.192 216.244 58.304C215.252 58.416 214.108 58.504 212.812 58.568C211.516 58.616 210.156 58.632 208.732 58.616C207.308 58.584 205.892 58.52 204.484 58.424L204.364 56.192ZM212.476 51.32C212.38 50.92 212.268 50.528 212.14 50.144C212.012 49.744 211.876 49.344 211.732 48.944L214.3 48.656C214.38 49.36 214.5 50.08 214.66 50.816C214.836 51.536 215.028 52.24 215.236 52.928C215.444 53.6 215.644 54.232 215.836 54.824C216.044 55.416 216.3 56.064 216.604 56.768C216.908 57.472 217.244 58.168 217.612 58.856C217.98 59.544 218.356 60.184 218.74 60.776C218.884 60.984 219.036 61.184 219.196 61.376C219.356 61.552 219.532 61.728 219.724 61.904L218.524 63.68C218.076 63.568 217.532 63.472 216.892 63.392C216.268 63.296 215.62 63.208 214.948 63.128C214.292 63.048 213.676 62.984 213.1 62.936L213.292 61.112C213.868 61.16 214.476 61.216 215.116 61.28C215.756 61.344 216.26 61.4 216.628 61.448C215.972 60.408 215.404 59.352 214.924 58.28C214.444 57.208 214.036 56.208 213.7 55.28C213.508 54.72 213.34 54.216 213.196 53.768C213.052 53.32 212.924 52.904 212.812 52.52C212.7 52.12 212.588 51.72 212.476 51.32ZM208.348 61.52C208.06 61.936 207.812 62.36 207.604 62.792C207.412 63.208 207.316 63.68 207.316 64.208C207.316 65.152 207.748 65.856 208.612 66.32C209.476 66.768 210.788 66.992 212.548 66.992C213.668 66.992 214.708 66.952 215.668 66.872C216.628 66.776 217.54 66.64 218.404 66.464L218.284 68.888C217.452 69.016 216.54 69.12 215.548 69.2C214.572 69.28 213.58 69.32 212.572 69.32C210.988 69.32 209.636 69.152 208.516 68.816C207.396 68.496 206.532 68 205.924 67.328C205.316 66.64 205.004 65.752 204.988 64.664C204.988 63.944 205.084 63.304 205.276 62.744C205.468 62.168 205.708 61.608 205.996 61.064L208.348 61.52ZM233.164 70.112H225.436V68.048H230.932V54.68H233.164V70.112ZM35.108 80.4H55.892V82.704H35.108V80.4ZM46.796 87.84L48.524 86.376C49.212 86.84 49.932 87.344 50.684 87.888C51.452 88.432 52.212 89 52.964 89.592C53.716 90.168 54.412 90.736 55.052 91.296C55.708 91.856 56.252 92.368 56.684 92.832L54.788 94.584C54.388 94.104 53.876 93.584 53.252 93.024C52.628 92.448 51.948 91.856 51.212 91.248C50.492 90.64 49.748 90.048 48.98 89.472C48.228 88.88 47.5 88.336 46.796 87.84ZM46.124 81.216L48.62 82.128C47.724 83.776 46.636 85.392 45.356 86.976C44.092 88.56 42.668 90.024 41.084 91.368C39.516 92.696 37.82 93.84 35.996 94.8C35.884 94.608 35.732 94.392 35.54 94.152C35.348 93.896 35.156 93.648 34.964 93.408C34.788 93.152 34.612 92.944 34.436 92.784C35.748 92.144 36.988 91.392 38.156 90.528C39.324 89.664 40.412 88.728 41.42 87.72C42.444 86.696 43.348 85.632 44.132 84.528C44.932 83.424 45.596 82.32 46.124 81.216ZM44.252 86.448L46.724 84V84.024V100.968H44.252V86.448ZM58.916 82.296H80.108V84.48H58.916V82.296ZM66.524 89.976H79.148V92.064H66.524V89.976ZM65.588 98.328H80.084V100.44H65.588V98.328ZM71.732 85.608H74.012V99.456H71.732V85.608ZM66.668 78.72L69.044 79.296C68.468 81.168 67.74 83.024 66.86 84.864C65.996 86.688 64.948 88.392 63.716 89.976C62.484 91.544 61.044 92.912 59.396 94.08C59.316 93.856 59.204 93.616 59.06 93.36C58.932 93.104 58.796 92.848 58.652 92.592C58.508 92.32 58.38 92.096 58.268 91.92C59.356 91.184 60.34 90.32 61.22 89.328C62.116 88.32 62.908 87.232 63.596 86.064C64.3 84.896 64.908 83.688 65.42 82.44C65.932 81.192 66.348 79.952 66.668 78.72ZM61.916 88.704H64.196V100.944H61.916V88.704ZM83.3 82.92C83.764 82.904 84.188 82.888 84.572 82.872C84.972 82.84 85.292 82.816 85.532 82.8C85.964 82.752 86.54 82.696 87.26 82.632C87.996 82.552 88.828 82.472 89.756 82.392C90.684 82.312 91.676 82.224 92.732 82.128C93.788 82.032 94.868 81.936 95.972 81.84C96.82 81.776 97.644 81.72 98.444 81.672C99.26 81.608 100.02 81.56 100.724 81.528C101.428 81.48 102.052 81.448 102.596 81.432V83.856C102.148 83.84 101.636 83.84 101.06 83.856C100.5 83.872 99.94 83.904 99.38 83.952C98.836 84 98.348 84.08 97.916 84.192C97.132 84.432 96.412 84.808 95.756 85.32C95.1 85.832 94.532 86.424 94.052 87.096C93.588 87.768 93.228 88.48 92.972 89.232C92.732 89.984 92.612 90.712 92.612 91.416C92.612 92.296 92.756 93.064 93.044 93.72C93.348 94.36 93.764 94.912 94.292 95.376C94.82 95.824 95.428 96.2 96.116 96.504C96.804 96.792 97.532 97.008 98.3 97.152C99.084 97.296 99.868 97.384 100.652 97.416L99.788 99.984C98.844 99.936 97.908 99.792 96.98 99.552C96.052 99.328 95.18 99.008 94.364 98.592C93.548 98.16 92.82 97.624 92.18 96.984C91.556 96.344 91.06 95.608 90.692 94.776C90.34 93.944 90.164 93 90.164 91.944C90.164 90.728 90.364 89.608 90.764 88.584C91.18 87.56 91.7 86.672 92.324 85.92C92.948 85.152 93.588 84.56 94.244 84.144C93.764 84.192 93.172 84.256 92.468 84.336C91.764 84.4 91.004 84.48 90.188 84.576C89.388 84.672 88.58 84.776 87.764 84.888C86.948 84.984 86.172 85.088 85.436 85.2C84.716 85.312 84.084 85.424 83.54 85.536L83.3 82.92ZM99.14 86.52C99.332 86.792 99.548 87.128 99.788 87.528C100.028 87.912 100.268 88.312 100.508 88.728C100.748 89.128 100.948 89.496 101.108 89.832L99.62 90.504C99.332 89.896 99.028 89.312 98.708 88.752C98.404 88.192 98.068 87.656 97.7 87.144L99.14 86.52ZM101.804 85.488C101.996 85.76 102.22 86.088 102.476 86.472C102.732 86.84 102.98 87.224 103.22 87.624C103.46 88.024 103.668 88.4 103.844 88.752L102.38 89.448C102.06 88.84 101.74 88.272 101.42 87.744C101.1 87.2 100.748 86.664 100.364 86.136L101.804 85.488ZM114.908 91.512H127.148V100.896H124.988V93.576H116.996V100.992H114.908V91.512ZM125.828 78.792L127.58 80.568C126.46 80.968 125.188 81.328 123.764 81.648C122.356 81.952 120.892 82.208 119.372 82.416C117.852 82.624 116.388 82.792 114.98 82.92C114.932 82.648 114.836 82.32 114.692 81.936C114.564 81.552 114.436 81.24 114.308 81C115.348 80.888 116.404 80.76 117.476 80.616C118.548 80.456 119.596 80.288 120.62 80.112C121.644 79.92 122.596 79.72 123.476 79.512C124.372 79.288 125.156 79.048 125.828 78.792ZM119.996 81.144H122.156V92.712H119.996V81.144ZM113.276 85.752H128.564V87.936H113.276V85.752ZM116.372 97.92H125.924V99.984H116.372V97.92ZM107.588 80.664L108.884 79.056C109.348 79.264 109.86 79.52 110.42 79.824C110.996 80.128 111.548 80.424 112.076 80.712C112.604 81 113.036 81.264 113.372 81.504L112.052 83.328C111.716 83.088 111.292 82.816 110.78 82.512C110.268 82.192 109.732 81.872 109.172 81.552C108.612 81.216 108.084 80.92 107.588 80.664ZM106.436 87.288L107.684 85.632C108.148 85.84 108.66 86.096 109.22 86.4C109.78 86.688 110.324 86.976 110.852 87.264C111.396 87.536 111.836 87.792 112.172 88.032L110.9 89.904C110.58 89.664 110.156 89.392 109.628 89.088C109.116 88.784 108.572 88.472 107.996 88.152C107.436 87.832 106.916 87.544 106.436 87.288ZM106.916 99.192C107.348 98.584 107.828 97.856 108.356 97.008C108.884 96.16 109.42 95.264 109.964 94.32C110.508 93.36 111.012 92.424 111.476 91.512L113.132 93.024C112.716 93.856 112.26 94.728 111.764 95.64C111.284 96.536 110.796 97.416 110.3 98.28C109.804 99.144 109.308 99.96 108.812 100.728L106.916 99.192ZM134.348 80.4H149.54V82.56H134.348V80.4ZM134.348 85.968H149.54V88.08H134.348V85.968ZM134.252 91.656H149.612V93.816H134.252V91.656ZM133.052 80.4H135.308V89.064C135.308 89.992 135.26 90.992 135.164 92.064C135.084 93.136 134.932 94.224 134.708 95.328C134.484 96.416 134.148 97.464 133.7 98.472C133.268 99.464 132.684 100.36 131.948 101.16C131.836 101 131.668 100.824 131.444 100.632C131.236 100.44 131.012 100.256 130.772 100.08C130.548 99.904 130.348 99.768 130.172 99.672C130.844 98.92 131.372 98.112 131.756 97.248C132.14 96.368 132.42 95.464 132.596 94.536C132.788 93.592 132.908 92.656 132.956 91.728C133.02 90.784 133.052 89.888 133.052 89.04V80.4ZM148.676 80.4H150.932V98.16C150.932 98.816 150.844 99.32 150.668 99.672C150.492 100.04 150.188 100.32 149.756 100.512C149.324 100.688 148.74 100.792 148.004 100.824C147.268 100.872 146.332 100.888 145.196 100.872C145.164 100.584 145.068 100.224 144.908 99.792C144.764 99.36 144.612 98.992 144.452 98.688C144.964 98.72 145.468 98.744 145.964 98.76C146.46 98.76 146.892 98.76 147.26 98.76C147.644 98.744 147.908 98.736 148.052 98.736C148.292 98.736 148.452 98.696 148.532 98.616C148.628 98.52 148.676 98.36 148.676 98.136V80.4ZM140.54 81.24H142.82V100.776H140.54V81.24ZM155.3 82.92C155.764 82.904 156.188 82.888 156.572 82.872C156.972 82.84 157.292 82.816 157.532 82.8C157.964 82.752 158.54 82.696 159.26 82.632C159.996 82.552 160.828 82.472 161.756 82.392C162.684 82.312 163.676 82.224 164.732 82.128C165.788 82.032 166.868 81.936 167.972 81.84C168.82 81.776 169.644 81.72 170.444 81.672C171.26 81.608 172.02 81.56 172.724 81.528C173.428 81.48 174.052 81.448 174.596 81.432V83.856C174.148 83.84 173.636 83.84 173.06 83.856C172.5 83.872 171.94 83.904 171.38 83.952C170.836 84 170.348 84.08 169.916 84.192C169.132 84.432 168.412 84.808 167.756 85.32C167.1 85.832 166.532 86.424 166.052 87.096C165.588 87.768 165.228 88.48 164.972 89.232C164.732 89.984 164.612 90.712 164.612 91.416C164.612 92.296 164.756 93.064 165.044 93.72C165.348 94.36 165.764 94.912 166.292 95.376C166.82 95.824 167.428 96.2 168.116 96.504C168.804 96.792 169.532 97.008 170.3 97.152C171.084 97.296 171.868 97.384 172.652 97.416L171.788 99.984C170.844 99.936 169.908 99.792 168.98 99.552C168.052 99.328 167.18 99.008 166.364 98.592C165.548 98.16 164.82 97.624 164.18 96.984C163.556 96.344 163.06 95.608 162.692 94.776C162.34 93.944 162.164 93 162.164 91.944C162.164 90.728 162.364 89.608 162.764 88.584C163.18 87.56 163.7 86.672 164.324 85.92C164.948 85.152 165.588 84.56 166.244 84.144C165.764 84.192 165.172 84.256 164.468 84.336C163.764 84.4 163.004 84.48 162.188 84.576C161.388 84.672 160.58 84.776 159.764 84.888C158.948 84.984 158.172 85.088 157.436 85.2C156.716 85.312 156.084 85.424 155.54 85.536L155.3 82.92ZM171.14 86.52C171.332 86.792 171.548 87.128 171.788 87.528C172.028 87.912 172.268 88.312 172.508 88.728C172.748 89.128 172.948 89.496 173.108 89.832L171.62 90.504C171.332 89.896 171.028 89.312 170.708 88.752C170.404 88.192 170.068 87.656 169.7 87.144L171.14 86.52ZM173.804 85.488C173.996 85.76 174.22 86.088 174.476 86.472C174.732 86.84 174.98 87.224 175.22 87.624C175.46 88.024 175.668 88.4 175.844 88.752L174.38 89.448C174.06 88.84 173.74 88.272 173.42 87.744C173.1 87.2 172.748 86.664 172.364 86.136L173.804 85.488ZM181.652 82.224C183.364 82.416 184.972 82.528 186.476 82.56C187.98 82.592 189.356 82.56 190.604 82.464C191.628 82.368 192.628 82.224 193.604 82.032C194.596 81.84 195.556 81.592 196.484 81.288L196.796 83.472C195.98 83.712 195.076 83.928 194.084 84.12C193.092 84.296 192.1 84.432 191.108 84.528C189.876 84.624 188.452 84.672 186.836 84.672C185.236 84.656 183.556 84.568 181.796 84.408L181.652 82.224ZM181.196 87.192C182.604 87.32 183.964 87.408 185.276 87.456C186.604 87.504 187.86 87.504 189.044 87.456C190.228 87.408 191.292 87.328 192.236 87.216C193.436 87.104 194.5 86.944 195.428 86.736C196.372 86.528 197.18 86.32 197.852 86.112L198.236 88.368C197.548 88.544 196.764 88.72 195.884 88.896C195.004 89.056 194.068 89.192 193.076 89.304C192.084 89.416 190.94 89.504 189.644 89.568C188.348 89.616 186.988 89.632 185.564 89.616C184.14 89.584 182.724 89.52 181.316 89.424L181.196 87.192ZM189.308 82.32C189.212 81.92 189.1 81.528 188.972 81.144C188.844 80.744 188.708 80.344 188.564 79.944L191.132 79.656C191.212 80.36 191.332 81.08 191.492 81.816C191.668 82.536 191.86 83.24 192.068 83.928C192.276 84.6 192.476 85.232 192.668 85.824C192.876 86.416 193.132 87.064 193.436 87.768C193.74 88.472 194.076 89.168 194.444 89.856C194.812 90.544 195.188 91.184 195.572 91.776C195.716 91.984 195.868 92.184 196.028 92.376C196.188 92.552 196.364 92.728 196.556 92.904L195.356 94.68C194.908 94.568 194.364 94.472 193.724 94.392C193.1 94.296 192.452 94.208 191.78 94.128C191.124 94.048 190.508 93.984 189.932 93.936L190.124 92.112C190.7 92.16 191.308 92.216 191.948 92.28C192.588 92.344 193.092 92.4 193.46 92.448C192.804 91.408 192.236 90.352 191.756 89.28C191.276 88.208 190.868 87.208 190.532 86.28C190.34 85.72 190.172 85.216 190.028 84.768C189.884 84.32 189.756 83.904 189.644 83.52C189.532 83.12 189.42 82.72 189.308 82.32ZM185.18 92.52C184.892 92.936 184.644 93.36 184.436 93.792C184.244 94.208 184.148 94.68 184.148 95.208C184.148 96.152 184.58 96.856 185.444 97.32C186.308 97.768 187.62 97.992 189.38 97.992C190.5 97.992 191.54 97.952 192.5 97.872C193.46 97.776 194.372 97.64 195.236 97.464L195.116 99.888C194.284 100.016 193.372 100.12 192.38 100.2C191.404 100.28 190.412 100.32 189.404 100.32C187.82 100.32 186.468 100.152 185.348 99.816C184.228 99.496 183.364 99 182.756 98.328C182.148 97.64 181.836 96.752 181.82 95.664C181.82 94.944 181.916 94.304 182.108 93.744C182.3 93.168 182.54 92.608 182.828 92.064L185.18 92.52ZM203.684 83.616C204.164 83.664 204.668 83.704 205.196 83.736C205.74 83.752 206.252 83.76 206.732 83.76C207.66 83.76 208.604 83.72 209.564 83.64C210.54 83.544 211.5 83.408 212.444 83.232C213.404 83.04 214.316 82.808 215.18 82.536L215.252 84.744C214.516 84.952 213.676 85.144 212.732 85.32C211.788 85.496 210.804 85.64 209.78 85.752C208.756 85.864 207.74 85.92 206.732 85.92C206.284 85.92 205.812 85.912 205.316 85.896C204.82 85.88 204.332 85.864 203.852 85.848L203.684 83.616ZM212.54 79.824C212.444 80.224 212.316 80.728 212.156 81.336C212.012 81.944 211.844 82.584 211.652 83.256C211.476 83.928 211.292 84.576 211.1 85.2C210.716 86.352 210.236 87.576 209.66 88.872C209.084 90.152 208.46 91.4 207.788 92.616C207.116 93.832 206.436 94.896 205.748 95.808L203.444 94.632C203.988 93.976 204.524 93.248 205.052 92.448C205.58 91.632 206.076 90.792 206.54 89.928C207.02 89.048 207.452 88.2 207.836 87.384C208.22 86.552 208.532 85.792 208.772 85.104C209.044 84.304 209.292 83.4 209.516 82.392C209.74 81.384 209.868 80.44 209.9 79.56L212.54 79.824ZM218.18 87.264C218.164 87.76 218.156 88.232 218.156 88.68C218.156 89.128 218.164 89.592 218.18 90.072C218.196 90.44 218.212 90.92 218.228 91.512C218.26 92.088 218.292 92.704 218.324 93.36C218.356 94.016 218.38 94.64 218.396 95.232C218.428 95.824 218.444 96.304 218.444 96.672C218.444 97.344 218.292 97.96 217.988 98.52C217.7 99.08 217.236 99.528 216.596 99.864C215.956 100.2 215.108 100.368 214.052 100.368C213.124 100.368 212.276 100.232 211.508 99.96C210.756 99.688 210.148 99.28 209.684 98.736C209.236 98.192 209.012 97.504 209.012 96.672C209.012 95.92 209.22 95.256 209.636 94.68C210.068 94.104 210.66 93.656 211.412 93.336C212.164 93 213.036 92.832 214.028 92.832C215.404 92.832 216.668 93.032 217.82 93.432C218.972 93.816 220.004 94.304 220.916 94.896C221.844 95.472 222.644 96.056 223.316 96.648L222.044 98.688C221.58 98.272 221.068 97.84 220.508 97.392C219.948 96.928 219.324 96.504 218.636 96.12C217.964 95.72 217.228 95.392 216.428 95.136C215.644 94.88 214.804 94.752 213.908 94.752C213.108 94.752 212.46 94.912 211.964 95.232C211.484 95.552 211.244 95.96 211.244 96.456C211.244 96.968 211.452 97.384 211.868 97.704C212.3 98.024 212.924 98.184 213.74 98.184C214.348 98.184 214.828 98.088 215.18 97.896C215.548 97.688 215.804 97.408 215.948 97.056C216.092 96.704 216.164 96.312 216.164 95.88C216.164 95.464 216.148 94.904 216.116 94.2C216.1 93.496 216.068 92.736 216.02 91.92C215.988 91.104 215.948 90.288 215.9 89.472C215.868 88.64 215.844 87.904 215.828 87.264H218.18ZM222.692 88.176C222.244 87.808 221.684 87.416 221.012 87C220.34 86.568 219.652 86.16 218.948 85.776C218.244 85.376 217.62 85.056 217.076 84.816L218.3 82.968C218.732 83.16 219.22 83.392 219.764 83.664C220.308 83.936 220.852 84.224 221.396 84.528C221.94 84.832 222.444 85.136 222.908 85.44C223.372 85.728 223.756 85.976 224.06 86.184L222.692 88.176ZM231.236 82.08C231.188 82.304 231.148 82.576 231.116 82.896C231.084 83.216 231.052 83.536 231.02 83.856C231.004 84.176 230.996 84.448 230.996 84.672C230.996 85.168 230.996 85.72 230.996 86.328C231.012 86.936 231.028 87.56 231.044 88.2C231.06 88.824 231.1 89.448 231.164 90.072C231.292 91.336 231.484 92.44 231.74 93.384C231.996 94.328 232.324 95.064 232.724 95.592C233.124 96.12 233.588 96.384 234.116 96.384C234.42 96.384 234.708 96.24 234.98 95.952C235.252 95.664 235.508 95.28 235.748 94.8C235.988 94.32 236.204 93.8 236.396 93.24C236.604 92.664 236.78 92.112 236.924 91.584L238.82 93.816C238.308 95.176 237.796 96.264 237.284 97.08C236.788 97.88 236.276 98.456 235.748 98.808C235.22 99.16 234.66 99.336 234.068 99.336C233.268 99.336 232.5 99.064 231.764 98.52C231.044 97.96 230.42 97.048 229.892 95.784C229.364 94.52 228.988 92.832 228.764 90.72C228.684 90.016 228.62 89.256 228.572 88.44C228.54 87.624 228.516 86.848 228.5 86.112C228.5 85.376 228.5 84.768 228.5 84.288C228.5 83.984 228.484 83.616 228.452 83.184C228.436 82.736 228.388 82.352 228.308 82.032L231.236 82.08ZM243.524 82.68C243.956 83.24 244.372 83.896 244.772 84.648C245.188 85.384 245.564 86.184 245.9 87.048C246.236 87.912 246.532 88.792 246.788 89.688C247.06 90.584 247.284 91.472 247.46 92.352C247.636 93.232 247.756 94.064 247.82 94.848L245.348 95.808C245.252 94.768 245.092 93.68 244.868 92.544C244.644 91.408 244.356 90.288 244.004 89.184C243.652 88.064 243.236 87.016 242.756 86.04C242.292 85.048 241.756 84.192 241.148 83.472L243.524 82.68Z" fill="white"/>
<mask id="mask0_279_2" style="mask-type:alpha" maskUnits="userSpaceOnUse" x="72" y="117" width="175" height="165">
<rect x="72" y="117" width="175" height="165" fill="#D9D9D9"/>
</mask>
<g mask="url(#mask0_279_2)">
<path d="M105.921 303.703L100.524 284.963C100.524 284.963 91.2309 209.408 91.8273 207.311C92.4238 205.214 96.9259 203.117 101.12 201.318C103.708 200.212 111.462 195.469 113.713 194.42C115.964 193.372 124.66 188.427 126.757 188.273C128.854 188.119 130.057 190.072 130.057 190.072C132.308 187.821 135.309 187.379 135.309 187.379L170.316 192.554C170.316 192.554 177.964 195.7 188.527 201.327C194.578 204.55 192.798 203.126 194.145 204.021C195.492 204.916 197.964 206.272 200.215 207.398C202.466 208.523 209.489 211.611 212.356 214.141C216.175 217.518 217.531 224.483 217.752 225.608C217.974 226.734 219.33 233.256 219.33 233.256C219.33 233.256 225.179 238.874 226.074 240.452C226.968 242.029 230.124 256.642 231.692 262.039C233.269 267.436 236.857 275.083 238.666 278.008C240.465 280.932 238.445 284.078 238.445 284.078L208.758 303.722H105.921V303.703Z" fill="#E6E6E6"/>
<path d="M130.058 190.072C130.058 190.072 127.96 195.921 129.904 201.164C131.856 206.407 135.002 211.505 135.002 211.505" fill="#DCDDDD"/>
<path d="M130.058 190.072C130.058 190.072 127.96 195.921 129.904 201.164C131.856 206.407 135.002 211.505 135.002 211.505" stroke="#727171" stroke-width="0.3" stroke-linecap="round" stroke-linejoin="round"/>
<path d="M176.983 178.086C176.242 179.202 172.789 182.28 172.183 189.928C171.634 196.951 176.233 202.819 176.233 202.819C176.233 202.819 163.342 214.064 157.791 213.612C152.241 213.16 135.752 192.477 135.752 192.477C135.752 192.477 138.301 181.53 136.801 168.187C136.801 168.187 159.734 169.688 166.334 172.679C172.933 175.681 176.973 178.076 176.973 178.076L176.983 178.086Z" fill="#F9D0BA"/>
<path d="M143.91 170.573C143.91 170.573 146.084 177.855 148.48 180.779C151.443 184.387 154.617 188.071 155.416 190.14C156.214 192.208 161.188 195.508 161.188 195.508L172.539 183.069L143.91 170.573Z" fill="#F7BB9E"/>
<path d="M136.974 184.175C136.974 184.175 135.733 185.07 134.839 186.138C133.665 187.542 131.414 194.795 131.857 197.941C132.251 200.673 144.151 223.049 144.449 226.205C144.449 226.205 150.298 221.26 152.847 220.356C155.397 219.461 158.696 213.612 158.696 213.612C158.696 213.612 153.598 208.966 148.355 204.021C143.112 199.076 136.676 191.967 136.532 187.927L136.984 184.175H136.974Z" fill="#E6E6E6"/>
<path d="M151.645 249.216C151.645 249.216 155.021 249.437 156.483 247.08L157.272 245.166C157.272 245.166 158.619 246.743 157.724 248.09C156.82 249.437 153.222 255.507 153.222 255.507L151.645 249.206V249.216Z" stroke="#727171" stroke-width="0.3" stroke-linecap="round" stroke-linejoin="round"/>
<path d="M195.723 241.568C195.723 241.568 206.064 227.85 213.712 224.704L195.723 241.568Z" fill="#DCDDDD"/>
<path d="M195.723 241.568C195.723 241.568 206.064 227.85 213.712 224.704" stroke="#727171" stroke-width="0.3" stroke-linecap="round" stroke-linejoin="round"/>
<path d="M194.366 244.271C194.366 244.271 197.291 228.754 203.813 223.578L194.366 244.271Z" fill="#DCDDDD"/>
<path d="M192.798 204.242C192.798 204.242 189.874 207.84 187.854 215.488" stroke="#727171" stroke-width="0.3" stroke-linecap="round" stroke-linejoin="round"/>
<path d="M205.612 254.16C205.612 254.16 216.627 245.166 221.803 244.944L205.612 254.16Z" fill="#DCDDDD"/>
<path d="M205.612 254.16C205.612 254.16 216.627 245.166 221.803 244.944" stroke="#727171" stroke-width="0.3" stroke-linecap="round" stroke-linejoin="round"/>
<path d="M161.39 225.599C161.39 225.599 166.488 242.087 167.989 250.784C169.49 259.48 170.692 303.703 170.692 303.703H146.103C146.103 303.703 145.805 271.168 146.998 262.78C148.201 254.381 155.993 222.001 155.993 222.001L161.39 225.599Z" fill="#7694BD"/>
<path d="M219.33 233.246C219.33 233.246 217.531 241.789 214.606 244.492C214.606 244.492 220.224 239.99 220.898 237.748" fill="#DCDDDD"/>
<path d="M144.111 173.285C144.111 173.285 148.998 178.278 152.923 181.212C156.319 183.752 160.956 183.434 162.967 183.117C164.977 182.8 168.113 182.848 172.635 183.184C176.685 183.483 179.811 171.804 180.427 168.793C181.042 165.782 180.879 164.146 180.735 161.886C180.523 158.605 179.08 154.555 180.965 149.447C182.129 146.282 178.782 140.308 177.493 137.48C176.329 134.931 171.211 128.687 171.211 128.687C171.211 128.687 168.373 127.177 164.506 126.706C160.639 126.234 147.507 127.812 143.024 130.669C138.542 133.517 132.981 141.126 133.443 145.407C133.905 149.688 134.684 154.276 134.684 154.276C134.684 154.276 134.53 153.805 136.079 167.898" fill="#F9D0BA"/>
<path d="M170.692 123.252C170.23 123.416 169.297 122.107 169.297 121.29C169.297 120.472 168.219 119.654 167.44 120.635C166.67 121.617 164.66 121.126 164.66 121.126C165.122 120.308 164.814 119.327 164.814 119.327C164.506 120.799 162.034 120.962 162.034 120.962C162.649 120.145 162.341 119 162.341 119C162.034 120.799 158.474 121.934 158.474 121.934C158.474 121.934 159.09 120.626 159.552 119.645C160.013 118.663 156.31 120.626 156.31 120.626V119.808C154.915 119.645 151.211 119.808 149.355 120.626C147.498 121.443 146.882 121.771 146.882 121.771L147.498 120.462C147.498 120.462 143.631 122.425 141.63 124.378C139.619 126.34 136.069 127.802 133.905 129.438C132.193 130.727 131.894 133.026 131.894 133.026C128.037 135.96 128.191 145.099 128.335 150.159C128.45 153.911 130.346 160.924 130.5 160.443C130.653 159.962 132.664 156.364 133.895 156.2C135.127 156.037 136.829 159.625 137.291 160.279C137.753 160.933 139.456 158.971 139.456 158.971C139.456 158.971 139.764 155.056 139.764 154.074C139.764 153.093 140.533 149.668 142.082 147.716C143.631 145.753 145.17 139.721 145.17 139.721C145.17 139.721 143.939 138.413 143.005 138.086C142.082 137.759 141.928 137.432 141.928 137.432L143.785 136.287L140.697 136.614L143.939 135.306C143.939 135.306 146.199 132.401 147.132 131.583C148.056 130.765 152.587 128.774 154.905 128.447C157.224 128.12 159.85 128.774 162.014 129.101C164.179 129.428 168.19 129.592 169.277 129.264C169.277 129.264 174.53 129.592 175.925 126.985C175.925 126.985 174.684 127.802 173.299 127.639C173.299 127.639 175.463 126.985 175.617 125.195C175.617 125.195 173.453 126.013 172.991 125.195C172.529 124.378 173.453 123.069 172.837 123.069C172.221 123.069 170.672 123.233 170.672 123.233L170.692 123.252Z" fill="#4F423C" stroke="#727171" stroke-width="0.3" stroke-linecap="round" stroke-linejoin="round"/>
<path d="M137.311 160.289C137.311 160.289 134.993 155.691 132.982 155.854C130.971 156.018 128.961 159.183 129.278 162.194C129.586 165.205 131.443 168.533 132.212 169.957C132.982 171.381 134.377 172.804 136.695 173.285C139.014 173.757 141.332 174.392 140.87 171.381" fill="#F9D0BA"/>
<path d="M139.629 168.687C139.629 168.687 139.168 167.581 136.234 167.263C133.3 166.946 132.366 166.311 131.597 164.57C130.827 162.829 130.048 159.337 131.597 158.394C133.146 157.441 135.464 159.029 135.464 159.029" fill="#F8C5AC"/>
<path d="M139.629 168.687C139.629 168.687 139.168 167.581 136.234 167.263C133.3 166.946 132.366 166.311 131.597 164.57C130.827 162.829 130.048 159.337 131.597 158.394C133.146 157.441 135.464 159.029 135.464 159.029" stroke="#727171" stroke-width="0.3" stroke-linecap="round" stroke-linejoin="round"/>
<path d="M135.454 161.395C135.454 161.395 132.674 159.808 132.366 163.935" stroke="#727171" stroke-width="0.3" stroke-linecap="round" stroke-linejoin="round"/>
<path d="M137.156 161.876C137.156 161.876 136.233 164.252 137.003 165.359C137.772 166.465 139.013 167.263 139.013 167.263" fill="#F9D0BA"/>
<path d="M137.156 161.876C137.156 161.876 136.233 164.252 137.003 165.359C137.772 166.465 139.013 167.263 139.013 167.263" stroke="#727171" stroke-width="0.3" stroke-linecap="round" stroke-linejoin="round"/>
<path d="M164.968 127.985C164.968 127.985 169.278 131.708 175.896 129.255C175.896 129.255 171.692 130.342 170.307 127.312" fill="#4F423C"/>
<path d="M164.968 127.985C164.968 127.985 169.278 131.708 175.896 129.255C175.896 129.255 171.692 130.342 170.307 127.312" stroke="#727171" stroke-width="0.3" stroke-linecap="round" stroke-linejoin="round"/>
<path d="M171.548 172.987C171.548 172.987 172.558 170.967 173.568 171.862C174.578 172.766 175.367 177.932 175.483 178.499C175.598 179.057 176.945 178.499 177.282 180.414C177.618 182.328 178.628 187.609 178.859 189.293C179.08 190.976 179.081 192.439 179.081 194.574C179.081 196.71 180.321 200.086 180.543 202.222C180.764 204.358 180.879 208.966 180.658 212.9C180.437 216.835 180.658 222.905 182.005 225.945C183.352 228.985 186.613 230.784 186.95 232.804C187.286 234.824 189.143 237.806 190.038 239.047C190.942 240.288 195.155 245.627 195.155 245.627L180.543 254.064C180.543 254.064 170.875 237.652 169.634 236.19C168.393 234.728 167.267 233.15 166.036 232.14C164.795 231.13 163.785 231.919 163.342 223.482C162.89 215.045 171.548 172.997 171.548 172.997V172.987Z" fill="#F9D0BA"/>
<path d="M185.526 250.341C185.526 250.341 179.677 243.145 176.377 237.45C173.078 231.755 173.078 231.303 173.53 229.803C173.982 228.302 172.779 224.704 173.078 223.059C173.376 221.414 175.03 220.51 175.329 219.615C175.627 218.72 174.28 217.97 174.28 215.719C174.28 213.468 174.126 207.321 174.876 204.772C175.627 202.222 175.925 196.672 175.781 195.479C175.627 194.276 175.03 188.283 175.483 185.888C175.935 183.492 174.28 180.491 174.28 180.491C174.28 180.491 171.509 174.834 171.25 176.316C169.374 186.801 163.419 216.2 163.794 223.107C164.246 231.544 165.257 230.755 166.498 231.765C167.738 232.775 168.854 234.353 170.095 235.815C171.173 237.085 178.628 249.677 180.552 252.929L185.535 250.36L185.526 250.341Z" fill="#F8C5AC"/>
<path d="M170.239 231.149C170.239 231.149 174.434 232.352 177.435 229.052" stroke="#727171" stroke-width="0.3" stroke-linecap="round" stroke-linejoin="round"/>
<path d="M175.482 178.49C175.482 178.49 174.136 178.49 174.241 182.203C174.357 185.916 173.789 188.725 173.683 190.072C173.568 191.419 174.02 192.092 173.905 193.333C173.789 194.574 173.452 197.605 173.347 198.057" stroke="#727171" stroke-width="0.3" stroke-linecap="round" stroke-linejoin="round"/>
<path d="M172.105 198.278C172.105 198.278 173 198.162 174.02 198.499C175.03 198.836 176.155 199.173 176.829 199.625" stroke="#727171" stroke-width="0.3" stroke-linecap="round" stroke-linejoin="round"/>
<path d="M135.791 241.904C135.791 241.904 146.431 229.649 147.931 225.599C149.432 221.549 151.943 208.956 152.837 205.512C153.732 202.068 155.088 198.018 155.983 194.42C156.887 190.823 157.147 189.793 158.042 188.446C158.936 187.1 163.621 182.136 163.621 182.136C163.621 182.136 165.209 177.816 165.719 176.893C166.69 175.132 167.97 174.94 167.97 174.94C167.97 174.94 169.085 171.092 170.221 171.188C171.471 171.304 172.885 172.477 172.616 177.48C172.472 180.183 171.414 182.28 171.414 182.28C171.414 182.28 172.933 179 174.117 179.731C174.646 180.058 175.752 181.809 174.001 186.359C174.001 186.359 173.27 190.746 172.597 192.035C172.154 192.872 172.087 197.47 171.192 199.567C171.192 199.567 171.567 205.06 171.115 208.956C170.663 212.852 169.162 225.3 167.97 227.85C166.767 230.399 164.824 230.245 163.92 230.995C163.025 231.746 157.811 244.223 156.464 247.07C155.117 249.918 151.183 255.276 151.183 255.276L135.781 241.895L135.791 241.904Z" fill="#F9D0BA"/>
<path d="M171.432 182.28C171.432 182.28 169.633 185.002 169.181 186.195C168.729 187.398 167.382 191.121 166.786 192.621C166.189 194.122 165.285 197.864 164.987 198.769C164.688 199.673 164.236 200.115 164.236 200.115" stroke="#727171" stroke-width="0.3" stroke-linecap="round" stroke-linejoin="round"/>
<path d="M167.989 174.93C167.989 174.93 166.613 178.865 165.699 180.741C164.631 182.934 164.391 184.377 163.64 186.022C162.89 187.667 161.822 191.602 160.928 193.555C160.119 195.296 159.61 196.335 158.85 197.095" stroke="#727171" stroke-width="0.3" stroke-linecap="round" stroke-linejoin="round"/>
<path d="M163.64 182.126C163.64 182.126 160.937 187.677 160.341 188.725C159.744 189.774 158.388 193.218 157.791 194.42C157.195 195.623 156.589 196.373 156.589 196.373" stroke="#727171" stroke-width="0.3" stroke-linecap="round" stroke-linejoin="round"/>
<path d="M234.626 281.144C234.626 281.144 232.154 276.873 230.355 273.948C228.556 271.024 220.235 263.607 217.762 261.135C215.29 258.662 211.692 256.411 209.22 255.738C206.748 255.064 202.919 252.592 202.919 252.592C202.919 252.592 194.819 241.346 193.703 239.548C192.577 237.749 188.855 237.181 188.855 237.181L191.904 241.568C191.904 241.568 187.854 246.06 187.181 248.763C187.181 248.763 179.485 248.985 177.686 249.216L175.666 245.791C175.666 245.791 173.924 248.1 174.819 249.446C175.723 250.793 182.919 264.511 183.14 265.416C183.14 265.416 182.688 271.264 183.362 274.631C184.035 278.008 189.884 292.621 191.452 295.997C193.03 299.374 198.869 302.741 204.949 305.444C211.019 308.138 218.446 308.138 222.265 307.243C226.084 306.348 232.606 300.952 234.857 295.997C237.108 291.053 238.455 284.078 238.455 284.078" fill="#E6E6E6"/>
<path d="M204.486 256.863C204.486 256.863 222.928 270.129 225.179 275.747C225.179 275.747 217.079 269.898 213.038 264.954" fill="#DCDDDD"/>
<path d="M187.171 248.763C187.171 248.763 184.477 255.738 186.276 257.758C188.075 259.778 193.02 264.28 194.145 266.301C195.271 268.321 196.618 273.948 197.743 276.642C198.869 279.345 205.391 294.853 205.391 294.853" stroke="#727171" stroke-width="0.3" stroke-linecap="round" stroke-linejoin="round"/>
<path d="M194.366 265.627C194.366 265.627 198.637 262.482 200.215 260.23C201.793 257.979 202.909 254.612 202.909 254.612" stroke="#727171" stroke-width="0.3" stroke-linecap="round" stroke-linejoin="round"/>
<path d="M183.13 264.732C183.13 264.732 187.632 267.878 190.999 266.753" stroke="#727171" stroke-width="0.3" stroke-linecap="round" stroke-linejoin="round"/>
<path d="M197.974 295.314C197.974 295.314 191.451 282.722 189.2 279.797C186.949 276.873 185.603 267.657 185.603 267.657C185.603 267.657 185.603 277.104 187.171 279.576C188.748 282.048 189.643 284.521 189.643 284.521" fill="#DCDDDD"/>
<path d="M203.813 260.904C203.813 260.904 207.19 267.878 207.863 274.622C208.537 281.365 205.391 266.974 205.391 266.974" fill="#DCDDDD"/>
<path d="M203.813 260.904C203.813 260.904 207.19 267.878 207.863 274.622C208.537 281.365 205.391 266.974 205.391 266.974" stroke="#727171" stroke-width="0.3" stroke-linecap="round" stroke-linejoin="round"/>
<path d="M190.345 257.989C191.144 258.114 191.932 257.316 192.125 256.18C192.308 255.055 191.807 254.035 191.009 253.91C190.21 253.775 189.412 254.583 189.239 255.719C189.056 256.844 189.556 257.864 190.345 257.989Z" fill="white" stroke="#727171" stroke-width="0.3" stroke-linecap="round" stroke-linejoin="round"/>
<path d="M202.486 280.48C203.284 280.605 204.083 279.797 204.266 278.672C204.448 277.546 203.948 276.527 203.159 276.402C202.361 276.276 201.562 277.085 201.389 278.21C201.206 279.336 201.707 280.355 202.496 280.49L202.486 280.48Z" fill="white" stroke="#727171" stroke-width="0.3" stroke-linecap="round" stroke-linejoin="round"/>
<path d="M91.8276 207.311C95.6467 208.215 105.546 216.152 107.345 218.634C109.143 221.106 114.319 235.728 114.319 235.728C114.319 235.728 114.992 236.623 117.013 238.422C119.033 240.221 117.013 244.492 117.013 244.492C117.013 244.492 119.485 246.512 121.063 249.215C122.64 251.919 117.917 254.391 117.917 254.391C117.917 254.391 123.535 253.939 124.891 253.939C126.248 253.939 128.268 250.341 128.268 250.341C129.846 248.09 138.609 235.95 138.609 235.95C139.504 234.824 139.85 235.497 139.85 235.497C139.85 235.497 146.488 241.231 149.518 243.703C152.558 246.176 154.463 249.552 154.915 251.457C155.367 253.371 155.136 254.833 153.568 257.19C151.991 259.547 150.981 262.135 149.518 264.607C148.056 267.08 147.161 267.869 147.161 267.869C147.161 267.869 147.161 270.225 145.815 272.255C144.468 274.275 142.101 277.989 140.081 281.029C138.061 284.059 134.011 290.244 132.328 293.958C130.644 297.671 123.785 307.339 120.861 309.359C117.936 311.379 116.811 310.148 116.811 310.148C116.811 310.148 114.338 310.148 112.318 310.369C110.298 310.591 103.545 308.349 102.535 308.234C102.535 308.234 102.65 309.465 100.062 308.455C97.4745 307.445 92.6453 304.742 89.8363 302.269C87.0273 299.797 81.6209 291.553 81.0629 285.627C80.7262 282.029 81.0629 280.23 82.4097 279.778C83.7565 279.326 79.9374 266.512 79.264 261.115C78.5906 255.719 78.8118 244.252 79.264 242.453C79.7161 240.654 80.8416 241.327 81.2842 239.307C81.7363 237.287 79.0331 230.986 80.1586 227.167C81.2842 223.347 83.5352 215.026 85.1033 211.871C86.6809 208.725 91.8469 207.301 91.8469 207.301L91.8276 207.311Z" fill="#E6E6E6"/>
<path d="M114.319 235.719C114.319 235.719 99.9272 224.252 96.7815 218.855C93.6358 213.458 93.6357 212.333 93.6357 212.333" fill="#DCDDDD"/>
<path d="M114.319 235.719C114.319 235.719 99.9272 224.252 96.7815 218.855C93.6358 213.458 93.6357 212.333 93.6357 212.333" stroke="#727171" stroke-width="0.3" stroke-linecap="round" stroke-linejoin="round"/>
<path d="M117.012 244.492C117.012 244.492 102.169 234.824 97.8975 229.87L117.012 244.492Z" fill="#DCDDDD"/>
<path d="M117.917 254.382C117.917 254.382 114.993 254.834 112.972 257.527C112.299 258.422 106.681 262.924 106.681 262.924L106.46 266.522C106.46 266.522 103.987 270.341 102.641 271.245C98.1096 274.266 94.9639 280.307 93.4247 283.386C91.1737 287.878 91.1737 298.229 93.8769 301.827" stroke="#727171" stroke-width="0.3" stroke-linecap="round" stroke-linejoin="round"/>
<path d="M117.407 257.142C117.407 257.142 124.151 257.816 128.874 255.122C128.874 255.122 125.728 258.047 123.699 258.499C121.678 258.951 118.975 258.277 118.975 258.277" fill="#DCDDDD"/>
<path d="M122.641 265.406C122.641 265.406 129.836 259.336 133.213 257.989L128.037 263.386" fill="#DCDDDD"/>
<path d="M147.152 267.878C147.152 267.878 139.735 264.28 138.378 261.808C137.032 259.336 129.836 254.612 129.836 254.612" stroke="#727171" stroke-width="0.3" stroke-linecap="round" stroke-linejoin="round"/>
<path d="M103.304 273.275C103.304 273.275 97.0029 290.812 97.0029 294.41C97.0029 298.008 98.8019 304.309 102.4 307.003C102.4 307.003 99.0231 300.48 99.0231 296.43" fill="#DCDDDD"/>
<path d="M82.6113 279.124C82.6113 279.124 92.0581 270.35 96.0985 261.135L82.6113 279.124Z" fill="#DCDDDD"/>
<path d="M82.6113 279.124C82.6113 279.124 92.0581 270.35 96.0985 261.135" stroke="#727171" stroke-width="0.3" stroke-linecap="round" stroke-linejoin="round"/>
<path d="M81.0342 239.99C81.0342 239.99 86.431 235.267 90.0288 235.719" stroke="#727171" stroke-width="0.3" stroke-linecap="round" stroke-linejoin="round"/>
<path d="M133.203 260.23C133.203 260.23 136.801 269.225 136.801 272.823L133.203 260.23Z" fill="#DCDDDD"/>
<path d="M133.203 260.23C133.203 260.23 136.801 269.225 136.801 272.823" stroke="#727171" stroke-width="0.3" stroke-linecap="round" stroke-linejoin="round"/>
<path d="M150.192 257.787C151.154 257.787 151.942 256.873 151.952 255.728C151.952 254.584 151.182 253.66 150.22 253.65C149.258 253.65 148.47 254.564 148.46 255.709C148.46 256.854 149.23 257.777 150.192 257.787Z" fill="white" stroke="#727171" stroke-width="0.3" stroke-linecap="round" stroke-linejoin="round"/>
<path d="M136.359 281.144C137.321 281.144 138.109 280.23 138.119 279.085C138.119 277.941 137.349 277.017 136.387 277.007C135.425 277.007 134.637 277.921 134.627 279.066C134.627 280.211 135.397 281.134 136.359 281.144Z" fill="white" stroke="#727171" stroke-width="0.3" stroke-linecap="round" stroke-linejoin="round"/>
</g>
<defs>
<linearGradient id="paint0_linear_279_2" x1="144" y1="-30" x2="144" y2="187.75" gradientUnits="userSpaceOnUse">
<stop stop-color="#383838"/>
<stop offset="1" stop-color="#9E9E9E"/>
</linearGradient>
</defs>
</svg>
