<svg width="288" height="282" viewBox="0 0 288 282" fill="none" xmlns="http://www.w3.org/2000/svg">
<mask id="path-1-outside-1_279_2" maskUnits="userSpaceOnUse" x="0" y="0" width="288" height="197" fill="black">
<rect fill="white" width="288" height="197"/>
<path d="M284 154H83.3633V187.75L44.3926 154H4V4H284V154Z"/>
</mask>
<path d="M284 154H83.3633V187.75L44.3926 154H4V4H284V154Z" fill="url(#paint0_linear_279_2)"/>
<path d="M284 154V158H288V154H284ZM83.3633 154V150H79.3633V154H83.3633ZM83.3633 187.75L80.7447 190.774L87.3633 196.506V187.75H83.3633ZM44.3926 154L47.0112 150.976L45.8839 150H44.3926V154ZM4 154H0V158H4V154ZM4 4V0H0V4H4ZM284 4H288V0H284V4ZM284 154V150H83.3633V154V158H284V154ZM83.3633 154H79.3633V187.75H83.3633H87.3633V154H83.3633ZM83.3633 187.75L85.9819 184.726L47.0112 150.976L44.3926 154L41.7739 157.024L80.7447 190.774L83.3633 187.75ZM44.3926 154V150H4V154V158H44.3926V154ZM4 154H8V4H4H0V154H4ZM4 4V8H284V4V0H4V4ZM284 4H280V154H284H288V4H284Z" fill="white" mask="url(#path-1-outside-1_279_2)"/>
<mask id="mask0_279_2" style="mask-type:alpha" maskUnits="userSpaceOnUse" x="95" y="119" width="161" height="163">
<rect x="95" y="119" width="161" height="163" fill="#D9D9D9"/>
</mask>
<g mask="url(#mask0_279_2)">
<path d="M136.131 196.644C136.131 196.644 147.944 200.068 150.801 203.503C153.658 206.927 162.23 226.552 162.23 226.552C162.23 226.552 165.279 233.219 167.944 228.082C170.609 222.935 172.513 209.987 174.226 205.792C175.938 201.598 179.748 195.316 179.748 195.316L171.561 170.554L136.131 196.653V196.644Z" fill="#FBDAC8" stroke="#727171" stroke-width="0.3" stroke-linecap="round" stroke-linejoin="round"/>
<path d="M141.845 196.451L135.179 214.162L162.798 232.641C162.798 232.641 151.561 195.499 141.845 196.451Z" fill="white" stroke="#727171" stroke-width="0.3" stroke-linecap="round" stroke-linejoin="round"/>
<path d="M122.98 203.503C122.98 203.503 125.077 202.743 128.117 203.888C131.167 205.032 139.353 210.747 140.123 211.507C140.883 212.267 141.643 214.556 141.643 214.556C141.643 214.556 138.593 221.415 134.976 222.935C131.359 224.465 121.835 224.272 120.691 221.03C119.546 217.788 122.98 203.503 122.98 203.503Z" fill="#4D4D4D" stroke="#727171" stroke-width="0.3" stroke-linecap="round" stroke-linejoin="round"/>
<path d="M121.028 211.68C121.028 211.68 125.289 204.58 125.693 202.801C126.088 201.021 125.337 199.203 124.577 197.394C123.827 195.576 122.009 191.247 121.614 188.794C121.22 186.35 120.556 182.05 120.229 180.761C119.892 179.472 119.844 178.222 120.874 177.664C121.893 177.106 125.664 175.23 127.742 174.701C129.82 174.172 142.576 198.77 142.576 198.77C142.576 198.77 143.452 202.579 142.297 205.456C140.633 209.583 136.333 211.853 134.092 221.809L132.456 226.908L117.112 219.972L121.037 211.68H121.028Z" fill="#FBDAC8"/>
<path d="M127.992 177.519C127.992 177.519 125.991 179.886 124.058 180.049C124.058 180.049 124.885 182.06 124.981 183.705" stroke="#727171" stroke-width="0.3" stroke-linecap="round" stroke-linejoin="round"/>
<path d="M124.174 184.099C124.174 184.099 126.338 182.81 128.445 182.858" stroke="#727171" stroke-width="0.3" stroke-linecap="round" stroke-linejoin="round"/>
<path d="M125.588 184.349C125.588 184.349 130.109 189.005 133.188 192.507C135.679 195.355 137.151 199.558 135.843 203.685" stroke="#727171" stroke-width="0.3" stroke-linecap="round" stroke-linejoin="round"/>
<path d="M175.458 178.308C175.458 178.308 179.979 181.636 181.46 182.175C184.606 183.32 189.839 183.599 189.839 183.599C189.839 183.599 184.702 192.459 181.268 204.455C177.843 216.451 171.359 234.931 167.742 237.403C164.125 239.876 163.365 238.163 163.365 238.163C163.365 238.163 165.847 222.165 165.847 216.066C165.847 209.967 170.801 201.781 172.514 199.876C174.226 197.971 174.996 189.4 174.996 189.4L175.477 178.298L175.458 178.308Z" fill="white"/>
<path d="M174.794 213.594C174.794 213.594 172.129 199.116 172.129 197.596C172.129 196.076 180.133 191.689 182.797 189.025C185.462 186.36 181.277 207.312 174.794 213.594Z" fill="#E6E6E6"/>
<path d="M180.123 305.878C180.123 305.878 158.978 239.501 163.557 236.451C168.127 233.401 171.561 229.784 171.561 228.832C171.561 227.88 173.466 211.122 174.034 209.977C174.601 208.832 178.988 191.593 181.845 186.168C183.981 182.118 186.799 180.646 186.799 180.646C186.799 180.646 202.037 181.213 206.424 181.983C210.801 182.743 216.708 184.455 217.66 186.937C217.66 186.937 220.132 193.796 221.277 197.981C222.422 202.175 226.606 212.459 229.088 217.221C231.57 221.983 234.803 237.605 234.803 237.605C234.803 237.605 236.707 239.703 238.045 241.222C239.372 242.742 239.189 244.84 239.949 248.841C240.709 252.843 246.808 271.698 246.808 271.698C246.808 271.698 251.955 280.462 253.283 282.935C254.62 285.407 265 305.888 265 305.888H180.142L180.123 305.878Z" fill="#808080"/>
<path d="M171.744 229.409C171.744 229.409 170.407 239.5 168.694 243.502" stroke="#727171" stroke-width="0.3" stroke-linecap="round" stroke-linejoin="round"/>
<path d="M165.655 180.819C165.655 180.819 162.239 185.677 158.565 189.487C154.89 193.296 150.551 196.047 145.568 197.231C140.585 198.414 136.872 197.5 134.774 196.451C132.677 195.403 130.869 189.352 130.34 187.255C129.811 185.158 128.108 180.694 127.454 177.404C126.8 174.124 127.713 170.179 128.243 167.948C128.772 165.716 128.108 163.744 127.848 161.387C127.588 159.02 127.983 153.508 129.291 148.65C130.599 143.792 138.353 137.096 138.353 137.096C138.353 137.096 146.097 131.844 153.976 131.45C161.855 131.055 169.07 137.221 172.879 141.954C176.689 146.678 177.083 164.927 176.034 167.293" fill="#FCE4D6"/>
<path d="M185.433 148.756C185.433 148.756 188.685 151.603 189.705 154.653C190.724 157.702 189.705 165.235 188.483 167.264C187.261 169.304 181.162 169.506 181.162 169.506L185.433 148.756Z" fill="#6F6059" stroke="#727171" stroke-width="0.3" stroke-linecap="round" stroke-linejoin="round"/>
<path d="M185.231 156.076C185.231 156.076 189.503 162.387 189.503 165.639C189.503 168.89 188.079 170.526 185.837 172.151C183.596 173.777 178.517 173.575 178.517 173.575C178.517 173.575 181.98 158.52 185.231 156.076Z" fill="#655650" stroke="#727171" stroke-width="0.3" stroke-linecap="round" stroke-linejoin="round"/>
<path d="M181.97 161.367C181.97 161.367 185.635 168.486 185.433 170.728C185.231 172.969 184.827 174.393 183.394 175.201C181.97 176.009 177.295 176.009 177.295 176.009C177.295 176.009 176.487 164.821 181.97 161.358V161.367Z" fill="#6F6059" stroke="#727171" stroke-width="0.3" stroke-linecap="round" stroke-linejoin="round"/>
<path d="M137.035 139.338C137.035 139.338 130.34 144.061 129.031 149.968C129.031 149.968 129.551 144.456 130.349 141.964C131.138 139.472 136.256 135.663 138.622 135.663C140.989 135.663 137.045 139.338 137.045 139.338H137.035Z" fill="#655650" stroke="#727171" stroke-width="0.3" stroke-linecap="round" stroke-linejoin="round"/>
<path d="M163.817 154.884C163.817 154.884 167.473 164.196 167.107 165.744C166.251 169.313 168.252 169.602 168.252 169.602C168.252 169.602 170.734 161.531 174.409 162.224C178.084 162.926 163.827 154.884 163.827 154.884H163.817Z" fill="#796A62"/>
<path d="M176.102 179.309C175.621 176.201 184.404 172.517 185.626 164.638C186.386 159.732 187.28 151.295 183.856 144.013C179.825 135.432 171.821 130.141 166.53 127.909C161.499 125.793 148.983 126.726 146.223 128.563C143.462 130.401 138.344 133.162 136.766 134.21C135.188 135.259 132.505 135.403 133.265 138.241C135.891 147.996 147.666 153.123 147.666 153.123C139.392 146.562 137.468 138.597 137.468 138.597C137.468 138.597 144.991 155.047 166.877 163.974C166.877 163.974 154.226 156.009 147.011 146.293C147.011 146.293 161.056 159.819 169.984 164.013C169.984 164.013 164.866 159.944 161.316 155.874C161.316 155.874 171.427 163.618 171.6 165.196C171.773 166.774 175.275 164.494 175.102 166.774C174.928 169.054 174.188 174.556 174.188 175.518C174.188 176.48 174.168 179.145 176.092 179.318L176.102 179.309Z" fill="#796A62" stroke="#727171" stroke-width="0.3" stroke-linecap="round" stroke-linejoin="round"/>
<path d="M147.011 146.293C147.011 146.293 144.25 142.599 142.961 139.886" stroke="#727171" stroke-width="0.3" stroke-linecap="round" stroke-linejoin="round"/>
<path d="M151.389 142.31C151.389 142.31 156.102 155.884 172.812 163.455C172.812 163.455 165.53 158.453 160.951 149.737" stroke="#727171" stroke-width="0.3" stroke-linecap="round" stroke-linejoin="round"/>
<path d="M168.396 150.026C168.396 150.026 181.114 172.026 185.539 164.311C185.539 164.311 181.826 165.735 179.392 157.596" stroke="#727171" stroke-width="0.3" stroke-linecap="round" stroke-linejoin="round"/>
<path d="M185.529 164.311C185.529 164.311 183.528 172.315 176.958 169.737" stroke="#727171" stroke-width="0.3" stroke-linecap="round" stroke-linejoin="round"/>
<path d="M170.907 164.542C170.907 164.542 173.533 161.262 174.976 161.396C176.419 161.531 179.18 164.937 179.575 167.438C179.969 169.929 177.737 173.998 176.035 176.105C174.332 178.202 170.522 180.829 169.079 181.223C167.636 181.617 166.193 179.251 166.193 179.251" fill="#FBDAC8"/>
<path d="M170.907 164.542C170.907 164.542 173.533 161.262 174.976 161.396C176.419 161.531 179.18 164.937 179.575 167.438C179.969 169.929 177.737 173.998 176.035 176.105C174.332 178.202 170.522 180.829 169.079 181.223C167.636 181.617 166.193 179.251 166.193 179.251" stroke="#727171" stroke-width="0.3" stroke-linecap="round" stroke-linejoin="round"/>
<path d="M167.098 176.884C167.098 176.884 167.223 176.759 169.849 176.23C172.475 175.701 175.361 175.181 176.544 172.555C177.728 169.929 177.862 165.86 177.199 164.946C176.544 164.022 174.832 163.503 173.918 164.022C172.995 164.542 171.821 167.043 171.552 167.957C171.292 168.88 171.292 169.929 171.292 169.929" stroke="#727171" stroke-width="0.3" stroke-linecap="round" stroke-linejoin="round"/>
<path d="M172.485 167.563C172.485 167.563 174.717 170.189 174.852 171.767C174.986 173.344 171.571 175.047 171.571 175.047" stroke="#727171" stroke-width="0.3" stroke-linecap="round" stroke-linejoin="round"/>
<path d="M169.984 170.583C169.984 170.583 170.513 173.075 169.984 173.604C169.454 174.133 166.963 175.047 166.963 175.047" stroke="#727171" stroke-width="0.3" stroke-linecap="round" stroke-linejoin="round"/>
<path d="M108.319 282.55C108.319 282.55 118.988 282.935 122.037 282.165C125.087 281.405 132.898 273.401 134.611 271.881C136.323 270.361 137.853 267.312 139.373 265.782C140.892 264.262 153.658 251.689 153.658 251.689L150.609 210.929C150.609 210.929 140.7 216.259 139.565 217.211C138.42 218.164 117.468 238.923 117.468 238.923L108.329 282.54L108.319 282.55Z" fill="#737373" stroke="#727171" stroke-width="0.3" stroke-linecap="round" stroke-linejoin="round"/>
<path d="M119.556 277.028C119.556 277.028 125.655 271.506 127.175 269.601C128.695 267.697 133.649 260.27 133.274 257.413C132.899 254.556 133.274 241.79 133.274 241.79C133.274 241.79 136.516 236.268 138.036 233.786C139.556 231.314 141.653 214.547 141.653 214.547C141.653 214.547 138.796 217.404 136.891 218.164C134.986 218.924 133.649 218.548 130.802 217.211C127.945 215.874 124.895 215.691 124.895 215.691C124.895 215.691 124.135 207.88 123.375 206.36C122.615 204.84 122.99 203.503 122.99 203.503C122.99 203.503 112.899 219.501 112.322 221.213C111.754 222.925 111.754 231.497 111.754 231.497C111.754 231.497 107.752 234.546 107.56 235.874C107.368 237.201 105.27 247.87 105.27 247.87C105.27 247.87 100.316 261.396 99.7485 264.253C99.181 267.11 100.893 273.969 102.606 277.961C104.318 281.963 106.03 282.723 108.32 282.531C110.609 282.338 112.322 282.531 114.602 281.193" fill="#808080"/>
<path d="M111.745 231.497C111.745 231.497 110.792 244.83 108.888 253.594L111.745 231.497Z" fill="#737373"/>
<path d="M133.274 241.79C133.274 241.79 125.088 248.841 121.653 257.98L133.274 241.79Z" fill="#737373"/>
<path d="M143.259 228.409C143.259 228.409 143.153 212.045 143.067 208.803C142.97 205.561 142.509 200.424 142.605 198.847C142.701 197.269 143.904 195.605 146.963 192.824C150.022 190.044 154.938 185.042 156.602 184.946C156.602 184.946 158.362 182.445 159.103 181.704C159.103 181.704 159.103 179.578 159.478 178.827C159.853 178.087 161.335 176.884 161.979 176.692C162.624 176.509 165.5 177.154 165.5 177.154C165.5 177.154 167.078 176.134 168.184 176.134C169.291 176.134 169.945 176.317 170.965 176.778C171.984 177.24 171.984 177.702 171.984 177.702C171.984 177.702 172.629 177.144 173.283 177.327C173.927 177.51 175.043 178.529 175.505 179.366C175.688 179.703 175.409 182.05 175.409 182.05C175.409 182.05 176.246 182.791 176.525 183.628C176.804 184.465 175.784 188.082 175.409 190.391C175.043 192.709 174.11 194.47 172.254 195.306C170.397 196.143 167.059 198.731 164.375 200.501C161.691 202.262 157.699 204.397 156.679 205.879C155.659 207.36 159.363 219.51 159.363 219.51L143.249 228.399L143.259 228.409Z" fill="#FCE4D6"/>
<path d="M159.094 181.704C159.094 181.704 160.21 179.761 160.489 179.02" stroke="#727171" stroke-width="0.3" stroke-linecap="round" stroke-linejoin="round"/>
<path d="M165.491 177.163C165.491 177.163 166.328 177.721 166.136 178.741C165.953 179.761 164.558 183.464 164.192 184.398C163.817 185.321 163.548 186.62 163.548 186.62" stroke="#727171" stroke-width="0.3" stroke-linecap="round" stroke-linejoin="round"/>
<path d="M171.984 177.721C171.984 177.721 172.167 178.645 171.705 180.319C171.244 181.993 170.041 185.138 169.666 186.341C169.291 187.543 169.204 189.4 169.204 189.4" stroke="#727171" stroke-width="0.3" stroke-linecap="round" stroke-linejoin="round"/>
<path d="M175.409 182.079C175.409 182.079 174.11 186.62 173.928 187.457C173.745 188.294 173.928 190.516 174.024 190.795" stroke="#727171" stroke-width="0.3" stroke-linecap="round" stroke-linejoin="round"/>
<path d="M130.6 234.546C130.6 234.546 128.311 232.449 129.648 231.304C130.985 230.16 135.93 228.255 138.787 226.167C141.644 224.07 154.592 209.217 160.691 215.691C160.691 215.691 162.596 221.79 163.741 225.022C164.886 228.264 165.453 231.121 165.453 232.257C165.453 233.392 168.31 238.731 168.31 238.731C168.31 238.731 171.167 238.731 171.552 239.876C171.937 241.02 173.457 244.638 173.457 244.638C173.457 244.638 171.937 240.636 174.977 237.778C178.026 234.921 181.259 232.257 181.259 232.257C181.259 232.257 180.874 226.158 181.643 225.782C182.413 225.407 184.693 222.925 184.693 222.925C184.693 222.925 183.933 213.786 186.213 212.257C188.502 210.737 194.217 203.878 196.881 200.636C196.881 200.636 199.931 189.775 202.98 187.87C206.03 185.966 214.409 187.11 216.506 187.11C218.603 187.11 219.94 191.487 221.46 196.249C222.98 201.011 228.704 218.346 229.464 221.771C230.224 225.196 228.887 228.822 227.559 232.815C226.222 236.816 214.794 251.294 210.792 255.094C206.79 258.904 183.933 277.951 179.556 281.193C175.179 284.435 168.512 287.292 164.886 286.148C161.268 285.003 158.979 281.953 157.834 278.144C157.834 278.144 156.314 275.479 151.927 268.62C147.55 261.761 145.068 256.816 142.404 252.43C139.739 248.053 130.59 234.527 130.59 234.527L130.6 234.546Z" fill="#808080"/>
<path d="M168.319 238.741C168.319 238.741 164.894 239.693 162.22 241.598C159.555 243.502 156.313 246.927 156.313 246.927C156.313 246.927 162.413 238.741 164.5 237.596L168.31 238.741H168.319Z" fill="#737373"/>
<path d="M175.361 249.217C175.361 249.217 178.603 253.786 179.555 256.076C180.507 258.365 183.932 265.599 183.932 265.599C183.932 265.599 182.412 255.316 178.978 252.074C175.553 248.832 173.456 244.647 173.456 244.647L175.361 249.217Z" fill="#737373"/>
<path d="M174.033 244.262C174.033 244.262 178.227 243.31 179.555 244.07C180.892 244.83 183.557 248.832 183.557 248.832" stroke="#727171" stroke-width="0.3" stroke-linecap="round" stroke-linejoin="round"/>
<path d="M184.702 222.925C184.702 222.925 198.988 215.306 208.319 214.354C217.65 213.402 203.365 217.019 196.698 218.731L184.702 222.925Z" fill="#737373"/>
<path d="M181.268 232.266C181.268 232.266 186.222 240.838 187.367 241.598C188.511 242.358 193.293 242.579 193.841 242.742C196.506 243.502 189.464 241.79 187.559 240.078L181.277 232.266H181.268Z" fill="#737373"/>
</g>
<path d="M57.212 48.008L58.748 49.784C57.884 50.04 56.924 50.272 55.868 50.48C54.812 50.672 53.7 50.84 52.532 50.984C51.38 51.128 50.22 51.256 49.052 51.368C47.884 51.464 46.748 51.544 45.644 51.608C45.612 51.336 45.532 51.024 45.404 50.672C45.292 50.32 45.172 50.016 45.044 49.76C46.116 49.696 47.212 49.608 48.332 49.496C49.468 49.384 50.572 49.256 51.644 49.112C52.732 48.968 53.756 48.808 54.716 48.632C55.676 48.44 56.508 48.232 57.212 48.008ZM45.38 52.832L47.204 52.328C47.588 53.032 47.94 53.808 48.26 54.656C48.596 55.504 48.82 56.232 48.932 56.84L47.012 57.44C46.916 56.832 46.716 56.096 46.412 55.232C46.108 54.352 45.764 53.552 45.38 52.832ZM50.156 52.112L52.076 51.752C52.38 52.456 52.636 53.216 52.844 54.032C53.068 54.848 53.196 55.552 53.228 56.144L51.212 56.576C51.18 56 51.068 55.296 50.876 54.464C50.684 53.616 50.444 52.832 50.156 52.112ZM57.308 51.392L59.444 52.184C59.108 52.856 58.748 53.552 58.364 54.272C57.98 54.976 57.596 55.656 57.212 56.312C56.828 56.952 56.46 57.52 56.108 58.016L54.356 57.272C54.708 56.76 55.06 56.16 55.412 55.472C55.78 54.784 56.132 54.088 56.468 53.384C56.804 52.664 57.084 52 57.308 51.392ZM45.236 59.672H59.348V61.64H45.236V59.672ZM51.164 57.08H53.324V69.872H51.164V57.08ZM50.372 60.776L52.148 61.4C51.668 62.424 51.068 63.4 50.348 64.328C49.628 65.256 48.836 66.104 47.972 66.872C47.108 67.624 46.22 68.248 45.308 68.744C45.196 68.552 45.052 68.344 44.876 68.12C44.7 67.912 44.516 67.704 44.324 67.496C44.132 67.288 43.956 67.112 43.796 66.968C44.676 66.568 45.532 66.048 46.364 65.408C47.212 64.752 47.98 64.032 48.668 63.248C49.356 62.448 49.924 61.624 50.372 60.776ZM54.092 60.872C54.508 61.656 55.036 62.44 55.676 63.224C56.316 64.008 57.012 64.72 57.764 65.36C58.516 66 59.276 66.528 60.044 66.944C59.884 67.072 59.708 67.24 59.516 67.448C59.324 67.64 59.14 67.84 58.964 68.048C58.804 68.272 58.66 68.472 58.532 68.648C57.748 68.136 56.972 67.504 56.204 66.752C55.436 66 54.716 65.168 54.044 64.256C53.388 63.344 52.828 62.424 52.364 61.496L54.092 60.872ZM37.1 60.032C38.044 59.776 39.18 59.464 40.508 59.096C41.836 58.712 43.18 58.312 44.54 57.896L44.828 59.96C43.596 60.36 42.348 60.76 41.084 61.16C39.82 61.544 38.668 61.896 37.628 62.216L37.1 60.032ZM37.46 52.448H44.756V54.56H37.46V52.448ZM40.244 47.768H42.356V67.52C42.356 68.08 42.292 68.52 42.164 68.84C42.036 69.16 41.804 69.416 41.468 69.608C41.148 69.784 40.732 69.896 40.22 69.944C39.724 70.008 39.084 70.04 38.3 70.04C38.284 69.752 38.212 69.4 38.084 68.984C37.972 68.584 37.844 68.232 37.7 67.928C38.18 67.944 38.62 67.952 39.02 67.952C39.42 67.952 39.692 67.944 39.836 67.928C39.98 67.928 40.084 67.904 40.148 67.856C40.212 67.792 40.244 67.68 40.244 67.52V47.768ZM65.348 49.4H80.54V51.56H65.348V49.4ZM65.348 54.968H80.54V57.08H65.348V54.968ZM65.252 60.656H80.612V62.816H65.252V60.656ZM64.052 49.4H66.308V58.064C66.308 58.992 66.26 59.992 66.164 61.064C66.084 62.136 65.932 63.224 65.708 64.328C65.484 65.416 65.148 66.464 64.7 67.472C64.268 68.464 63.684 69.36 62.948 70.16C62.836 70 62.668 69.824 62.444 69.632C62.236 69.44 62.012 69.256 61.772 69.08C61.548 68.904 61.348 68.768 61.172 68.672C61.844 67.92 62.372 67.112 62.756 66.248C63.14 65.368 63.42 64.464 63.596 63.536C63.788 62.592 63.908 61.656 63.956 60.728C64.02 59.784 64.052 58.888 64.052 58.04V49.4ZM79.676 49.4H81.932V67.16C81.932 67.816 81.844 68.32 81.668 68.672C81.492 69.04 81.188 69.32 80.756 69.512C80.324 69.688 79.74 69.792 79.004 69.824C78.268 69.872 77.332 69.888 76.196 69.872C76.164 69.584 76.068 69.224 75.908 68.792C75.764 68.36 75.612 67.992 75.452 67.688C75.964 67.72 76.468 67.744 76.964 67.76C77.46 67.76 77.892 67.76 78.26 67.76C78.644 67.744 78.908 67.736 79.052 67.736C79.292 67.736 79.452 67.696 79.532 67.616C79.628 67.52 79.676 67.36 79.676 67.136V49.4ZM71.54 50.24H73.82V69.776H71.54V50.24ZM95.228 47.624H97.652V52.304H95.228V47.624ZM95.252 53H97.604V70.064H95.252V53ZM85.628 50.936H107.42V53.144H85.628V50.936ZM88.028 56.096H103.796V58.304H90.308V67.088H88.028V56.096ZM102.932 56.096H105.284V64.424C105.284 65.016 105.204 65.488 105.044 65.84C104.9 66.192 104.604 66.464 104.156 66.656C103.692 66.816 103.116 66.92 102.428 66.968C101.74 67.016 100.892 67.04 99.884 67.04C99.852 66.688 99.756 66.304 99.596 65.888C99.436 65.472 99.276 65.104 99.116 64.784C99.596 64.8 100.06 64.816 100.508 64.832C100.972 64.848 101.372 64.856 101.708 64.856C102.044 64.84 102.276 64.832 102.404 64.832C102.612 64.832 102.748 64.8 102.812 64.736C102.892 64.672 102.932 64.56 102.932 64.4V56.096ZM116.516 57.512H131.66V59.456H116.516V57.512ZM119.18 60.896H129.38V62.72H119.18V60.896ZM120.236 58.232L122.204 58.736C121.596 60.096 120.78 61.344 119.756 62.48C118.748 63.616 117.676 64.56 116.54 65.312C116.444 65.184 116.3 65.032 116.108 64.856C115.916 64.68 115.724 64.504 115.532 64.328C115.34 64.152 115.164 64.016 115.004 63.92C116.124 63.28 117.148 62.464 118.076 61.472C119.004 60.48 119.724 59.4 120.236 58.232ZM128.996 60.896H131.108C131.108 60.896 131.1 61.008 131.084 61.232C131.084 61.44 131.076 61.616 131.06 61.76C130.948 63.36 130.82 64.672 130.676 65.696C130.548 66.704 130.404 67.48 130.244 68.024C130.084 68.584 129.892 68.984 129.668 69.224C129.444 69.464 129.212 69.632 128.972 69.728C128.748 69.824 128.484 69.888 128.18 69.92C127.908 69.936 127.556 69.944 127.124 69.944C126.708 69.96 126.26 69.96 125.78 69.944C125.764 69.656 125.708 69.336 125.612 68.984C125.532 68.632 125.412 68.344 125.252 68.12C125.668 68.152 126.044 68.168 126.38 68.168C126.732 68.184 126.996 68.192 127.172 68.192C127.332 68.192 127.468 68.176 127.58 68.144C127.692 68.112 127.788 68.04 127.868 67.928C128.028 67.768 128.172 67.456 128.3 66.992C128.428 66.512 128.548 65.808 128.66 64.88C128.788 63.952 128.9 62.736 128.996 61.232V60.896ZM120.788 53.144V54.728H127.868V53.144H120.788ZM120.788 50.024V51.608H127.868V50.024H120.788ZM118.748 48.416H129.956V56.36H118.748V48.416ZM109.676 52.88H116.9V55.04H109.676V52.88ZM112.316 47.984H114.452V62.816H112.316V47.984ZM109.196 63.56C109.804 63.32 110.516 63.032 111.332 62.696C112.148 62.344 113.012 61.968 113.924 61.568C114.836 61.152 115.748 60.744 116.66 60.344L117.164 62.312C115.948 62.92 114.716 63.536 113.468 64.16C112.22 64.784 111.084 65.344 110.06 65.84L109.196 63.56ZM126.068 61.28L127.628 62.12C127.324 63.112 126.908 64.12 126.38 65.144C125.868 66.152 125.284 67.096 124.628 67.976C123.972 68.84 123.276 69.552 122.54 70.112C122.348 69.904 122.1 69.68 121.796 69.44C121.492 69.2 121.196 69 120.908 68.84C121.66 68.344 122.372 67.688 123.044 66.872C123.732 66.056 124.332 65.16 124.844 64.184C125.372 63.208 125.78 62.24 126.068 61.28ZM122.372 61.304L123.884 62.192C123.468 63.056 122.932 63.92 122.276 64.784C121.636 65.648 120.924 66.456 120.14 67.208C119.372 67.944 118.604 68.56 117.836 69.056C117.66 68.832 117.428 68.592 117.14 68.336C116.868 68.08 116.596 67.864 116.324 67.688C117.124 67.272 117.908 66.72 118.676 66.032C119.46 65.344 120.172 64.592 120.812 63.776C121.452 62.944 121.972 62.12 122.372 61.304ZM143.348 51.536C144.052 51.648 144.844 51.728 145.724 51.776C146.62 51.824 147.54 51.84 148.484 51.824C149.428 51.808 150.332 51.776 151.196 51.728C152.06 51.68 152.804 51.616 153.428 51.536V53.984C152.74 54.048 151.964 54.104 151.1 54.152C150.236 54.184 149.34 54.2 148.412 54.2C147.5 54.2 146.604 54.184 145.724 54.152C144.844 54.104 144.06 54.048 143.372 53.984L143.348 51.536ZM144.716 61.52C144.62 61.936 144.54 62.312 144.476 62.648C144.428 62.984 144.404 63.32 144.404 63.656C144.404 63.928 144.46 64.184 144.572 64.424C144.7 64.664 144.9 64.872 145.172 65.048C145.46 65.224 145.844 65.368 146.324 65.48C146.82 65.576 147.428 65.624 148.148 65.624C149.236 65.624 150.252 65.576 151.196 65.48C152.156 65.368 153.132 65.2 154.124 64.976L154.172 67.544C153.42 67.688 152.54 67.808 151.532 67.904C150.54 67.984 149.396 68.024 148.1 68.024C146.068 68.024 144.564 67.696 143.588 67.04C142.628 66.368 142.148 65.448 142.148 64.28C142.148 63.848 142.18 63.4 142.244 62.936C142.308 62.456 142.412 61.92 142.556 61.328L144.716 61.52ZM139.172 49.808C139.124 49.952 139.06 50.144 138.98 50.384C138.916 50.608 138.852 50.84 138.788 51.08C138.74 51.304 138.7 51.488 138.668 51.632C138.588 52.032 138.492 52.52 138.38 53.096C138.284 53.656 138.18 54.272 138.068 54.944C137.972 55.6 137.876 56.272 137.78 56.96C137.7 57.632 137.628 58.288 137.564 58.928C137.516 59.568 137.492 60.152 137.492 60.68C137.492 61.096 137.5 61.52 137.516 61.952C137.548 62.368 137.588 62.8 137.636 63.248C137.78 62.928 137.924 62.592 138.068 62.24C138.212 61.872 138.356 61.512 138.5 61.16C138.644 60.808 138.78 60.488 138.908 60.2L140.108 61.16C139.9 61.752 139.676 62.408 139.436 63.128C139.196 63.848 138.98 64.536 138.788 65.192C138.612 65.832 138.484 66.352 138.404 66.752C138.372 66.912 138.34 67.104 138.308 67.328C138.276 67.536 138.268 67.712 138.284 67.856C138.284 67.968 138.284 68.104 138.284 68.264C138.3 68.44 138.316 68.6 138.332 68.744L136.148 68.888C135.908 68.056 135.7 66.96 135.524 65.6C135.348 64.24 135.26 62.752 135.26 61.136C135.26 60.24 135.3 59.336 135.38 58.424C135.46 57.496 135.556 56.6 135.668 55.736C135.78 54.872 135.892 54.08 136.004 53.36C136.132 52.64 136.228 52.04 136.292 51.56C136.34 51.256 136.38 50.928 136.412 50.576C136.46 50.224 136.492 49.888 136.508 49.568L139.172 49.808ZM157.844 55.616H179.18V57.608H157.844V55.616ZM174.812 47.672L176.708 48.92C175.652 49.64 174.46 50.304 173.132 50.912C171.82 51.504 170.428 52.048 168.956 52.544C167.484 53.04 165.996 53.488 164.492 53.888C162.988 54.272 161.532 54.608 160.124 54.896C160.012 54.72 159.86 54.512 159.668 54.272C159.492 54.032 159.308 53.8 159.116 53.576C158.924 53.336 158.748 53.144 158.588 53C160.076 52.776 161.58 52.488 163.1 52.136C164.636 51.784 166.116 51.384 167.54 50.936C168.98 50.472 170.316 49.968 171.548 49.424C172.796 48.88 173.884 48.296 174.812 47.672ZM168.236 58.112H170.444V70.016H168.236V58.112ZM161.828 60.32H176.012V62.336H164.084V68.696H161.828V60.32ZM175.004 60.32H177.284V66.224C177.284 66.768 177.212 67.192 177.068 67.496C176.94 67.784 176.676 68.016 176.276 68.192C175.892 68.336 175.396 68.424 174.788 68.456C174.18 68.504 173.444 68.528 172.58 68.528C172.532 68.208 172.436 67.872 172.292 67.52C172.164 67.152 172.028 66.832 171.884 66.56C172.492 66.576 173.044 66.584 173.54 66.584C174.052 66.584 174.396 66.584 174.572 66.584C174.732 66.584 174.844 66.56 174.908 66.512C174.972 66.448 175.004 66.344 175.004 66.2V60.32ZM160.148 49.448L161.708 48.08C162.972 48.384 164.324 48.752 165.764 49.184C167.204 49.6 168.644 50.048 170.084 50.528C171.524 51.008 172.876 51.496 174.14 51.992C175.42 52.488 176.532 52.96 177.476 53.408L175.748 55.016C174.884 54.584 173.836 54.112 172.604 53.6C171.388 53.088 170.068 52.584 168.644 52.088C167.22 51.576 165.772 51.096 164.3 50.648C162.844 50.184 161.46 49.784 160.148 49.448ZM166.076 52.784L168.38 53.408C167.772 54.944 167.004 56.432 166.076 57.872C165.148 59.312 164.068 60.64 162.836 61.856C161.62 63.056 160.252 64.088 158.732 64.952C158.604 64.776 158.452 64.584 158.276 64.376C158.1 64.152 157.916 63.944 157.724 63.752C157.532 63.544 157.364 63.368 157.22 63.224C158.66 62.456 159.956 61.52 161.108 60.416C162.276 59.296 163.276 58.08 164.108 56.768C164.956 55.456 165.612 54.128 166.076 52.784ZM183.38 60.512H201.788V62.384H183.38V60.512ZM181.388 50.168H192.884V52.112H181.388V50.168ZM194.996 48.536H201.5V50.192H194.996V48.536ZM195.164 51.584H201.668V53.096H195.164V51.584ZM194.924 54.536H201.476V56.072H194.924V54.536ZM184.412 64.064H200.636V65.912H184.412V64.064ZM181.82 67.64H203.18V69.536H181.82V67.64ZM191.324 61.376H193.604V68.816H191.324V61.376ZM186.116 47.768H188.252V50.984H186.116V47.768ZM183.14 51.248H185.228V55.76C185.228 56.112 185.276 56.36 185.372 56.504C185.484 56.648 185.692 56.72 185.996 56.72C186.14 56.72 186.38 56.72 186.716 56.72C187.068 56.72 187.444 56.72 187.844 56.72C188.244 56.72 188.62 56.72 188.972 56.72C189.324 56.72 189.564 56.72 189.692 56.72C189.98 56.72 190.308 56.712 190.676 56.696C191.06 56.664 191.364 56.624 191.588 56.576C191.62 56.848 191.652 57.176 191.684 57.56C191.732 57.928 191.772 58.232 191.804 58.472C191.596 58.536 191.3 58.584 190.916 58.616C190.532 58.632 190.148 58.64 189.764 58.64C189.636 58.64 189.436 58.64 189.164 58.64C188.908 58.64 188.62 58.64 188.3 58.64C187.98 58.64 187.66 58.64 187.34 58.64C187.02 58.64 186.74 58.64 186.5 58.64C186.26 58.64 186.092 58.64 185.996 58.64C185.244 58.64 184.66 58.544 184.244 58.352C183.828 58.16 183.54 57.856 183.38 57.44C183.22 57.008 183.14 56.432 183.14 55.712V51.248ZM200.828 48.536H202.892C202.892 48.536 202.892 48.592 202.892 48.704C202.892 48.816 202.892 48.944 202.892 49.088C202.892 49.216 202.892 49.32 202.892 49.4C202.812 51.496 202.732 53.176 202.652 54.44C202.572 55.704 202.468 56.664 202.34 57.32C202.212 57.96 202.044 58.408 201.836 58.664C201.644 58.92 201.42 59.104 201.164 59.216C200.924 59.328 200.644 59.4 200.324 59.432C200.052 59.48 199.692 59.504 199.244 59.504C198.796 59.504 198.324 59.488 197.828 59.456C197.812 59.2 197.756 58.912 197.66 58.592C197.564 58.256 197.452 57.968 197.324 57.728C197.756 57.76 198.156 57.784 198.524 57.8C198.892 57.816 199.156 57.824 199.316 57.824C199.636 57.824 199.876 57.72 200.036 57.512C200.164 57.352 200.276 56.976 200.372 56.384C200.468 55.792 200.548 54.896 200.612 53.696C200.692 52.496 200.764 50.896 200.828 48.896V48.536ZM194.348 48.536H196.412C196.364 50.28 196.244 51.88 196.052 53.336C195.86 54.776 195.5 56.056 194.972 57.176C194.46 58.296 193.676 59.232 192.62 59.984C192.492 59.744 192.3 59.472 192.044 59.168C191.788 58.864 191.548 58.632 191.324 58.472C192.204 57.832 192.852 57.032 193.268 56.072C193.684 55.096 193.956 53.984 194.084 52.736C194.228 51.472 194.316 50.072 194.348 48.536ZM219.836 48.848C219.82 48.944 219.796 49.112 219.764 49.352C219.748 49.592 219.732 49.832 219.716 50.072C219.7 50.312 219.692 50.488 219.692 50.6C219.676 50.904 219.66 51.328 219.644 51.872C219.644 52.4 219.644 52.984 219.644 53.624C219.644 54.264 219.644 54.912 219.644 55.568C219.66 56.208 219.668 56.816 219.668 57.392C219.684 57.952 219.692 58.424 219.692 58.808L217.364 57.848C217.364 57.592 217.364 57.232 217.364 56.768C217.364 56.288 217.356 55.752 217.34 55.16C217.34 54.552 217.332 53.952 217.316 53.36C217.316 52.768 217.308 52.224 217.292 51.728C217.292 51.232 217.284 50.856 217.268 50.6C217.236 50.216 217.196 49.856 217.148 49.52C217.116 49.184 217.092 48.96 217.076 48.848H219.836ZM206.708 52.04C207.396 52.024 208.164 52.008 209.012 51.992C209.876 51.976 210.788 51.96 211.748 51.944C212.708 51.912 213.66 51.888 214.604 51.872C215.564 51.84 216.476 51.824 217.34 51.824C218.204 51.808 218.972 51.8 219.644 51.8C220.332 51.8 221.036 51.8 221.756 51.8C222.476 51.8 223.164 51.8 223.82 51.8C224.476 51.8 225.068 51.8 225.596 51.8C226.14 51.8 226.564 51.8 226.868 51.8L226.82 54.056C226.132 54.024 225.196 54 224.012 53.984C222.844 53.952 221.372 53.936 219.596 53.936C218.54 53.936 217.452 53.944 216.332 53.96C215.212 53.976 214.084 54.008 212.948 54.056C211.828 54.088 210.74 54.128 209.684 54.176C208.644 54.224 207.676 54.28 206.78 54.344L206.708 52.04ZM219.476 59.048C219.476 60.232 219.316 61.216 218.996 62C218.692 62.768 218.252 63.352 217.676 63.752C217.1 64.136 216.404 64.328 215.588 64.328C215.092 64.328 214.604 64.24 214.124 64.064C213.66 63.888 213.228 63.624 212.828 63.272C212.444 62.904 212.132 62.464 211.892 61.952C211.668 61.424 211.556 60.824 211.556 60.152C211.556 59.304 211.756 58.56 212.156 57.92C212.572 57.264 213.116 56.752 213.788 56.384C214.476 56.016 215.22 55.832 216.02 55.832C217.012 55.832 217.836 56.056 218.492 56.504C219.164 56.952 219.668 57.56 220.004 58.328C220.34 59.08 220.508 59.936 220.508 60.896C220.508 61.68 220.388 62.496 220.148 63.344C219.908 64.176 219.508 64.984 218.948 65.768C218.388 66.552 217.628 67.272 216.668 67.928C215.724 68.568 214.54 69.096 213.116 69.512L211.076 67.496C212.148 67.272 213.116 66.976 213.98 66.608C214.844 66.224 215.588 65.76 216.212 65.216C216.836 64.656 217.316 64 217.652 63.248C218.004 62.48 218.18 61.592 218.18 60.584C218.18 59.624 217.964 58.928 217.532 58.496C217.116 58.064 216.604 57.848 215.996 57.848C215.628 57.848 215.276 57.936 214.94 58.112C214.604 58.288 214.332 58.544 214.124 58.88C213.916 59.216 213.812 59.624 213.812 60.104C213.812 60.776 214.028 61.304 214.46 61.688C214.908 62.056 215.42 62.24 215.996 62.24C216.46 62.24 216.852 62.112 217.172 61.856C217.508 61.584 217.74 61.168 217.868 60.608C217.996 60.032 217.964 59.304 217.772 58.424L219.476 59.048ZM234.02 50.048C234.324 50.08 234.644 50.104 234.98 50.12C235.332 50.136 235.652 50.144 235.94 50.144C236.18 50.144 236.564 50.144 237.092 50.144C237.636 50.128 238.244 50.112 238.916 50.096C239.604 50.08 240.284 50.064 240.956 50.048C241.628 50.016 242.228 49.984 242.756 49.952C243.3 49.92 243.7 49.896 243.956 49.88C244.388 49.848 244.716 49.816 244.94 49.784C245.18 49.752 245.364 49.712 245.492 49.664L246.812 51.392C246.572 51.552 246.324 51.712 246.068 51.872C245.812 52.032 245.556 52.216 245.3 52.424C244.996 52.648 244.596 52.96 244.1 53.36C243.62 53.744 243.1 54.176 242.54 54.656C241.98 55.12 241.428 55.576 240.884 56.024C240.34 56.472 239.852 56.872 239.42 57.224C239.9 57.064 240.38 56.96 240.86 56.912C241.34 56.848 241.82 56.816 242.3 56.816C243.628 56.816 244.82 57.072 245.876 57.584C246.932 58.096 247.764 58.784 248.372 59.648C248.98 60.512 249.284 61.512 249.284 62.648C249.284 63.912 248.948 65.04 248.276 66.032C247.62 67.024 246.66 67.8 245.396 68.36C244.148 68.92 242.628 69.2 240.836 69.2C239.732 69.2 238.764 69.048 237.932 68.744C237.1 68.44 236.452 68.016 235.988 67.472C235.54 66.912 235.316 66.272 235.316 65.552C235.316 64.96 235.476 64.408 235.796 63.896C236.132 63.368 236.596 62.952 237.188 62.648C237.796 62.328 238.492 62.168 239.276 62.168C240.364 62.168 241.268 62.392 241.988 62.84C242.724 63.272 243.284 63.848 243.668 64.568C244.068 65.288 244.284 66.072 244.316 66.92L242.132 67.232C242.084 66.272 241.804 65.488 241.292 64.88C240.796 64.272 240.124 63.968 239.276 63.968C238.764 63.968 238.34 64.104 238.004 64.376C237.684 64.648 237.524 64.968 237.524 65.336C237.524 65.864 237.788 66.28 238.316 66.584C238.86 66.888 239.556 67.04 240.404 67.04C241.764 67.04 242.924 66.872 243.884 66.536C244.844 66.184 245.572 65.68 246.068 65.024C246.564 64.352 246.812 63.544 246.812 62.6C246.812 61.848 246.588 61.176 246.14 60.584C245.692 59.992 245.076 59.536 244.292 59.216C243.508 58.88 242.612 58.712 241.604 58.712C240.644 58.712 239.764 58.824 238.964 59.048C238.18 59.256 237.444 59.568 236.756 59.984C236.068 60.384 235.388 60.888 234.716 61.496C234.06 62.088 233.38 62.768 232.676 63.536L230.924 61.76C231.404 61.376 231.932 60.944 232.508 60.464C233.084 59.984 233.66 59.504 234.236 59.024C234.828 58.528 235.38 58.064 235.892 57.632C236.42 57.184 236.86 56.816 237.212 56.528C237.548 56.256 237.956 55.928 238.436 55.544C238.916 55.144 239.412 54.728 239.924 54.296C240.436 53.864 240.924 53.456 241.388 53.072C241.852 52.672 242.236 52.336 242.54 52.064C242.284 52.08 241.932 52.096 241.484 52.112C241.036 52.128 240.54 52.152 239.996 52.184C239.468 52.2 238.932 52.224 238.388 52.256C237.844 52.272 237.348 52.296 236.9 52.328C236.452 52.344 236.108 52.36 235.868 52.376C235.58 52.392 235.276 52.416 234.956 52.448C234.652 52.464 234.364 52.488 234.092 52.52L234.02 50.048ZM82.916 79.392H85.484C85.452 80.048 85.396 80.896 85.316 81.936C85.236 82.976 85.084 84.144 84.86 85.44C84.652 86.72 84.332 88.056 83.9 89.448C83.468 90.84 82.876 92.232 82.124 93.624C81.372 95 80.42 96.312 79.268 97.56C78.116 98.792 76.716 99.88 75.068 100.824C74.86 100.52 74.588 100.208 74.252 99.888C73.916 99.568 73.556 99.28 73.172 99.024C74.804 98.16 76.172 97.16 77.276 96.024C78.38 94.872 79.284 93.656 79.988 92.376C80.692 91.08 81.236 89.784 81.62 88.488C82.02 87.176 82.308 85.928 82.484 84.744C82.66 83.56 82.772 82.504 82.82 81.576C82.868 80.648 82.9 79.92 82.916 79.392ZM85.388 79.944C85.404 80.232 85.436 80.712 85.484 81.384C85.548 82.04 85.652 82.832 85.796 83.76C85.956 84.688 86.188 85.696 86.492 86.784C86.796 87.872 87.196 88.992 87.692 90.144C88.188 91.28 88.812 92.4 89.564 93.504C90.316 94.592 91.212 95.6 92.252 96.528C93.308 97.44 94.548 98.224 95.972 98.88C95.62 99.152 95.284 99.464 94.964 99.816C94.66 100.168 94.412 100.496 94.22 100.8C92.764 100.096 91.484 99.24 90.38 98.232C89.292 97.224 88.356 96.128 87.572 94.944C86.804 93.76 86.156 92.552 85.628 91.32C85.116 90.088 84.7 88.88 84.38 87.696C84.076 86.512 83.844 85.416 83.684 84.408C83.524 83.384 83.412 82.504 83.348 81.768C83.284 81.032 83.236 80.496 83.204 80.16L85.388 79.944ZM107.924 83.808H119.588V85.992H107.924V83.808ZM114.788 78.768H117.188V98.088C117.188 98.808 117.092 99.344 116.9 99.696C116.724 100.064 116.42 100.336 115.988 100.512C115.54 100.704 114.948 100.824 114.212 100.872C113.476 100.936 112.596 100.968 111.572 100.968C111.508 100.648 111.396 100.256 111.236 99.792C111.092 99.344 110.94 98.96 110.78 98.64C111.5 98.656 112.196 98.672 112.868 98.688C113.54 98.688 113.98 98.68 114.188 98.664C114.412 98.664 114.564 98.624 114.644 98.544C114.74 98.464 114.788 98.312 114.788 98.088V78.768ZM114.596 84.84L116.42 85.944C115.972 87 115.436 88.064 114.812 89.136C114.188 90.208 113.492 91.248 112.724 92.256C111.972 93.264 111.18 94.2 110.348 95.064C109.532 95.928 108.708 96.68 107.876 97.32C107.684 97.016 107.436 96.688 107.132 96.336C106.828 95.968 106.532 95.672 106.244 95.448C107.076 94.904 107.9 94.24 108.716 93.456C109.532 92.656 110.308 91.784 111.044 90.84C111.78 89.88 112.452 88.896 113.06 87.888C113.668 86.864 114.18 85.848 114.596 84.84ZM97.796 83.808H107.132V85.968H97.796V83.808ZM101.66 78.744H103.94V100.992H101.66V78.744ZM101.564 85.2L103.1 85.752C102.876 86.728 102.588 87.736 102.236 88.776C101.884 89.816 101.5 90.832 101.084 91.824C100.668 92.816 100.22 93.744 99.74 94.608C99.26 95.472 98.756 96.208 98.228 96.816C98.116 96.48 97.932 96.104 97.676 95.688C97.436 95.256 97.22 94.888 97.028 94.584C97.508 94.04 97.972 93.408 98.42 92.688C98.884 91.968 99.316 91.192 99.716 90.36C100.116 89.512 100.476 88.648 100.796 87.768C101.116 86.888 101.372 86.032 101.564 85.2ZM103.772 86.448C103.932 86.576 104.148 86.784 104.42 87.072C104.692 87.36 104.996 87.688 105.332 88.056C105.668 88.408 105.996 88.768 106.316 89.136C106.652 89.488 106.948 89.816 107.204 90.12C107.476 90.408 107.668 90.624 107.78 90.768L106.412 92.712C106.22 92.392 105.956 92 105.62 91.536C105.284 91.056 104.924 90.568 104.54 90.072C104.172 89.56 103.812 89.088 103.46 88.656C103.108 88.208 102.82 87.848 102.596 87.576L103.772 86.448ZM131.012 80.304C130.948 80.544 130.884 80.816 130.82 81.12C130.772 81.424 130.716 81.704 130.652 81.96C130.604 82.28 130.532 82.68 130.436 83.16C130.34 83.624 130.244 84.112 130.148 84.624C130.068 85.12 129.972 85.6 129.86 86.064C129.7 86.736 129.5 87.512 129.26 88.392C129.02 89.272 128.74 90.216 128.42 91.224C128.116 92.216 127.764 93.232 127.364 94.272C126.98 95.296 126.556 96.304 126.092 97.296C125.644 98.272 125.156 99.184 124.628 100.032L122.156 99.048C122.716 98.312 123.236 97.48 123.716 96.552C124.196 95.624 124.636 94.672 125.036 93.696C125.436 92.704 125.796 91.728 126.116 90.768C126.436 89.808 126.708 88.92 126.932 88.104C127.156 87.272 127.332 86.56 127.46 85.968C127.684 84.944 127.86 83.92 127.988 82.896C128.132 81.872 128.204 80.912 128.204 80.016L131.012 80.304ZM139.268 82.92C139.636 83.416 140.028 84.04 140.444 84.792C140.876 85.528 141.292 86.312 141.692 87.144C142.092 87.976 142.46 88.784 142.796 89.568C143.132 90.336 143.396 91 143.588 91.56L141.212 92.688C141.036 92.048 140.796 91.328 140.492 90.528C140.204 89.728 139.868 88.92 139.484 88.104C139.116 87.272 138.716 86.488 138.284 85.752C137.868 85.016 137.452 84.4 137.036 83.904L139.268 82.92ZM121.892 85.416C122.292 85.432 122.676 85.44 123.044 85.44C123.412 85.44 123.804 85.432 124.22 85.416C124.588 85.4 125.052 85.376 125.612 85.344C126.188 85.296 126.796 85.248 127.436 85.2C128.092 85.136 128.74 85.08 129.38 85.032C130.02 84.968 130.612 84.92 131.156 84.888C131.716 84.856 132.164 84.84 132.5 84.84C133.268 84.84 133.956 84.968 134.564 85.224C135.188 85.464 135.676 85.896 136.028 86.52C136.396 87.144 136.58 88.016 136.58 89.136C136.58 90.08 136.532 91.104 136.436 92.208C136.356 93.296 136.212 94.344 136.004 95.352C135.812 96.344 135.548 97.176 135.212 97.848C134.828 98.68 134.324 99.24 133.7 99.528C133.076 99.816 132.348 99.96 131.516 99.96C131.052 99.96 130.556 99.92 130.028 99.84C129.516 99.776 129.06 99.696 128.66 99.6L128.252 97.104C128.588 97.2 128.94 97.288 129.308 97.368C129.676 97.432 130.028 97.488 130.364 97.536C130.7 97.568 130.98 97.584 131.204 97.584C131.62 97.584 131.996 97.512 132.332 97.368C132.668 97.208 132.948 96.904 133.172 96.456C133.412 95.944 133.604 95.296 133.748 94.512C133.908 93.728 134.028 92.888 134.108 91.992C134.188 91.096 134.228 90.232 134.228 89.4C134.228 88.696 134.132 88.176 133.94 87.84C133.748 87.504 133.468 87.28 133.1 87.168C132.732 87.04 132.292 86.976 131.78 86.976C131.396 86.976 130.868 87.008 130.196 87.072C129.54 87.12 128.836 87.184 128.084 87.264C127.348 87.344 126.652 87.424 125.996 87.504C125.356 87.568 124.86 87.624 124.508 87.672C124.204 87.704 123.812 87.752 123.332 87.816C122.868 87.88 122.468 87.944 122.132 88.008L121.892 85.416ZM139.22 79.488C139.428 79.776 139.652 80.12 139.892 80.52C140.132 80.92 140.364 81.32 140.588 81.72C140.812 82.12 141.004 82.48 141.164 82.8L139.58 83.472C139.436 83.152 139.252 82.792 139.028 82.392C138.804 81.992 138.572 81.592 138.332 81.192C138.108 80.792 137.884 80.44 137.66 80.136L139.22 79.488ZM141.956 78.48C142.164 78.784 142.396 79.136 142.652 79.536C142.908 79.936 143.148 80.336 143.372 80.736C143.612 81.12 143.804 81.456 143.948 81.744L142.388 82.44C142.132 81.928 141.82 81.36 141.452 80.736C141.1 80.112 140.748 79.576 140.396 79.128L141.956 78.48ZM150.236 82.08C150.188 82.304 150.148 82.576 150.116 82.896C150.084 83.216 150.052 83.536 150.02 83.856C150.004 84.176 149.996 84.448 149.996 84.672C149.996 85.168 149.996 85.72 149.996 86.328C150.012 86.936 150.028 87.56 150.044 88.2C150.06 88.824 150.1 89.448 150.164 90.072C150.292 91.336 150.484 92.44 150.74 93.384C150.996 94.328 151.324 95.064 151.724 95.592C152.124 96.12 152.588 96.384 153.116 96.384C153.42 96.384 153.708 96.24 153.98 95.952C154.252 95.664 154.508 95.28 154.748 94.8C154.988 94.32 155.204 93.8 155.396 93.24C155.604 92.664 155.78 92.112 155.924 91.584L157.82 93.816C157.308 95.176 156.796 96.264 156.284 97.08C155.788 97.88 155.276 98.456 154.748 98.808C154.22 99.16 153.66 99.336 153.068 99.336C152.268 99.336 151.5 99.064 150.764 98.52C150.044 97.96 149.42 97.048 148.892 95.784C148.364 94.52 147.988 92.832 147.764 90.72C147.684 90.016 147.62 89.256 147.572 88.44C147.54 87.624 147.516 86.848 147.5 86.112C147.5 85.376 147.5 84.768 147.5 84.288C147.5 83.984 147.484 83.616 147.452 83.184C147.436 82.736 147.388 82.352 147.308 82.032L150.236 82.08ZM162.524 82.68C162.956 83.24 163.372 83.896 163.772 84.648C164.188 85.384 164.564 86.184 164.9 87.048C165.236 87.912 165.532 88.792 165.788 89.688C166.06 90.584 166.284 91.472 166.46 92.352C166.636 93.232 166.756 94.064 166.82 94.848L164.348 95.808C164.252 94.768 164.092 93.68 163.868 92.544C163.644 91.408 163.356 90.288 163.004 89.184C162.652 88.064 162.236 87.016 161.756 86.04C161.292 85.048 160.756 84.192 160.148 83.472L162.524 82.68ZM170.684 83.616C171.164 83.664 171.668 83.704 172.196 83.736C172.74 83.752 173.252 83.76 173.732 83.76C174.66 83.76 175.604 83.72 176.564 83.64C177.54 83.544 178.5 83.408 179.444 83.232C180.404 83.04 181.316 82.808 182.18 82.536L182.252 84.744C181.516 84.952 180.676 85.144 179.732 85.32C178.788 85.496 177.804 85.64 176.78 85.752C175.756 85.864 174.74 85.92 173.732 85.92C173.284 85.92 172.812 85.912 172.316 85.896C171.82 85.88 171.332 85.864 170.852 85.848L170.684 83.616ZM179.54 79.824C179.444 80.224 179.316 80.728 179.156 81.336C179.012 81.944 178.844 82.584 178.652 83.256C178.476 83.928 178.292 84.576 178.1 85.2C177.716 86.352 177.236 87.576 176.66 88.872C176.084 90.152 175.46 91.4 174.788 92.616C174.116 93.832 173.436 94.896 172.748 95.808L170.444 94.632C170.988 93.976 171.524 93.248 172.052 92.448C172.58 91.632 173.076 90.792 173.54 89.928C174.02 89.048 174.452 88.2 174.836 87.384C175.22 86.552 175.532 85.792 175.772 85.104C176.044 84.304 176.292 83.4 176.516 82.392C176.74 81.384 176.868 80.44 176.9 79.56L179.54 79.824ZM185.18 87.264C185.164 87.76 185.156 88.232 185.156 88.68C185.156 89.128 185.164 89.592 185.18 90.072C185.196 90.44 185.212 90.92 185.228 91.512C185.26 92.088 185.292 92.704 185.324 93.36C185.356 94.016 185.38 94.64 185.396 95.232C185.428 95.824 185.444 96.304 185.444 96.672C185.444 97.344 185.292 97.96 184.988 98.52C184.7 99.08 184.236 99.528 183.596 99.864C182.956 100.2 182.108 100.368 181.052 100.368C180.124 100.368 179.276 100.232 178.508 99.96C177.756 99.688 177.148 99.28 176.684 98.736C176.236 98.192 176.012 97.504 176.012 96.672C176.012 95.92 176.22 95.256 176.636 94.68C177.068 94.104 177.66 93.656 178.412 93.336C179.164 93 180.036 92.832 181.028 92.832C182.404 92.832 183.668 93.032 184.82 93.432C185.972 93.816 187.004 94.304 187.916 94.896C188.844 95.472 189.644 96.056 190.316 96.648L189.044 98.688C188.58 98.272 188.068 97.84 187.508 97.392C186.948 96.928 186.324 96.504 185.636 96.12C184.964 95.72 184.228 95.392 183.428 95.136C182.644 94.88 181.804 94.752 180.908 94.752C180.108 94.752 179.46 94.912 178.964 95.232C178.484 95.552 178.244 95.96 178.244 96.456C178.244 96.968 178.452 97.384 178.868 97.704C179.3 98.024 179.924 98.184 180.74 98.184C181.348 98.184 181.828 98.088 182.18 97.896C182.548 97.688 182.804 97.408 182.948 97.056C183.092 96.704 183.164 96.312 183.164 95.88C183.164 95.464 183.148 94.904 183.116 94.2C183.1 93.496 183.068 92.736 183.02 91.92C182.988 91.104 182.948 90.288 182.9 89.472C182.868 88.64 182.844 87.904 182.828 87.264H185.18ZM189.692 88.176C189.244 87.808 188.684 87.416 188.012 87C187.34 86.568 186.652 86.16 185.948 85.776C185.244 85.376 184.62 85.056 184.076 84.816L185.3 82.968C185.732 83.16 186.22 83.392 186.764 83.664C187.308 83.936 187.852 84.224 188.396 84.528C188.94 84.832 189.444 85.136 189.908 85.44C190.372 85.728 190.756 85.976 191.06 86.184L189.692 88.176ZM198.236 82.08C198.188 82.304 198.148 82.576 198.116 82.896C198.084 83.216 198.052 83.536 198.02 83.856C198.004 84.176 197.996 84.448 197.996 84.672C197.996 85.168 197.996 85.72 197.996 86.328C198.012 86.936 198.028 87.56 198.044 88.2C198.06 88.824 198.1 89.448 198.164 90.072C198.292 91.336 198.484 92.44 198.74 93.384C198.996 94.328 199.324 95.064 199.724 95.592C200.124 96.12 200.588 96.384 201.116 96.384C201.42 96.384 201.708 96.24 201.98 95.952C202.252 95.664 202.508 95.28 202.748 94.8C202.988 94.32 203.204 93.8 203.396 93.24C203.604 92.664 203.78 92.112 203.924 91.584L205.82 93.816C205.308 95.176 204.796 96.264 204.284 97.08C203.788 97.88 203.276 98.456 202.748 98.808C202.22 99.16 201.66 99.336 201.068 99.336C200.268 99.336 199.5 99.064 198.764 98.52C198.044 97.96 197.42 97.048 196.892 95.784C196.364 94.52 195.988 92.832 195.764 90.72C195.684 90.016 195.62 89.256 195.572 88.44C195.54 87.624 195.516 86.848 195.5 86.112C195.5 85.376 195.5 84.768 195.5 84.288C195.5 83.984 195.484 83.616 195.452 83.184C195.436 82.736 195.388 82.352 195.308 82.032L198.236 82.08ZM210.524 82.68C210.956 83.24 211.372 83.896 211.772 84.648C212.188 85.384 212.564 86.184 212.9 87.048C213.236 87.912 213.532 88.792 213.788 89.688C214.06 90.584 214.284 91.472 214.46 92.352C214.636 93.232 214.756 94.064 214.82 94.848L212.348 95.808C212.252 94.768 212.092 93.68 211.868 92.544C211.644 91.408 211.356 90.288 211.004 89.184C210.652 88.064 210.236 87.016 209.756 86.04C209.292 85.048 208.756 84.192 208.148 83.472L210.524 82.68Z" fill="white"/>
<defs>
<linearGradient id="paint0_linear_279_2" x1="144" y1="-30" x2="144" y2="187.75" gradientUnits="userSpaceOnUse">
<stop stop-color="#383838"/>
<stop offset="1" stop-color="#9E9E9E"/>
</linearGradient>
</defs>
</svg>
