<svg width="288" height="282" viewBox="0 0 288 282" fill="none" xmlns="http://www.w3.org/2000/svg">
<mask id="path-1-outside-1_279_2" maskUnits="userSpaceOnUse" x="0" y="0" width="288" height="197" fill="black">
<rect fill="white" width="288" height="197"/>
<path d="M284 154H83.3633V187.75L44.3926 154H4V4H284V154Z"/>
</mask>
<path d="M284 154H83.3633V187.75L44.3926 154H4V4H284V154Z" fill="url(#paint0_linear_279_2)"/>
<path d="M284 154V158H288V154H284ZM83.3633 154V150H79.3633V154H83.3633ZM83.3633 187.75L80.7447 190.774L87.3633 196.506V187.75H83.3633ZM44.3926 154L47.0112 150.976L45.8839 150H44.3926V154ZM4 154H0V158H4V154ZM4 4V0H0V4H4ZM284 4H288V0H284V4ZM284 154V150H83.3633V154V158H284V154ZM83.3633 154H79.3633V187.75H83.3633H87.3633V154H83.3633ZM83.3633 187.75L85.9819 184.726L47.0112 150.976L44.3926 154L41.7739 157.024L80.7447 190.774L83.3633 187.75ZM44.3926 154V150H4V154V158H44.3926V154ZM4 154H8V4H4H0V154H4ZM4 4V8H284V4V0H4V4ZM284 4H280V154H284H288V4H284Z" fill="white" mask="url(#path-1-outside-1_279_2)"/>
<path d="M54.144 51.368H67.464V53.48H54.144V51.368ZM54.6 56.768H65.064V58.832H54.6V56.768ZM59.592 47.744H61.848V57.896H59.592V47.744ZM57.288 58.352C58.184 60.736 59.56 62.784 61.416 64.496C63.288 66.192 65.6 67.392 68.352 68.096C68.192 68.24 68.016 68.424 67.824 68.648C67.632 68.888 67.456 69.128 67.296 69.368C67.136 69.624 67 69.848 66.888 70.04C64.008 69.192 61.616 67.824 59.712 65.936C57.808 64.048 56.32 61.72 55.248 58.952L57.288 58.352ZM64.848 56.768H65.256L65.664 56.672L67.128 57.296C66.616 59.04 65.928 60.6 65.064 61.976C64.216 63.336 63.216 64.536 62.064 65.576C60.928 66.616 59.672 67.496 58.296 68.216C56.936 68.952 55.496 69.544 53.976 69.992C53.912 69.784 53.808 69.552 53.664 69.296C53.536 69.056 53.392 68.808 53.232 68.552C53.072 68.296 52.92 68.096 52.776 67.952C54.168 67.6 55.504 67.112 56.784 66.488C58.08 65.848 59.256 65.08 60.312 64.184C61.384 63.272 62.304 62.232 63.072 61.064C63.856 59.88 64.448 58.568 64.848 57.128V56.768ZM45.792 60.224C46.464 60.064 47.232 59.88 48.096 59.672C48.976 59.448 49.896 59.208 50.856 58.952C51.832 58.68 52.792 58.424 53.736 58.184L54.024 60.248C52.712 60.632 51.384 61.016 50.04 61.4C48.712 61.768 47.496 62.104 46.392 62.408L45.792 60.224ZM46.08 52.472H53.808V54.584H46.08V52.472ZM49.056 47.744H51.288V67.4C51.288 67.992 51.216 68.448 51.072 68.768C50.928 69.088 50.68 69.336 50.328 69.512C49.976 69.688 49.52 69.8 48.96 69.848C48.4 69.912 47.704 69.936 46.872 69.92C46.824 69.632 46.736 69.288 46.608 68.888C46.48 68.504 46.344 68.16 46.2 67.856C46.728 67.872 47.216 67.88 47.664 67.88C48.128 67.88 48.44 67.872 48.6 67.856C48.904 67.856 49.056 67.704 49.056 67.4V47.744ZM76.752 57.704L78.624 57.968C78.544 59.088 78.424 60.192 78.264 61.28C78.12 62.368 77.928 63.392 77.688 64.352C77.464 65.296 77.184 66.136 76.848 66.872C76.736 66.76 76.584 66.64 76.392 66.512C76.216 66.384 76.024 66.256 75.816 66.128C75.608 65.984 75.432 65.872 75.288 65.792C75.608 65.136 75.864 64.376 76.056 63.512C76.248 62.632 76.4 61.704 76.512 60.728C76.624 59.736 76.704 58.728 76.752 57.704ZM76.296 52.952H85.296V55.064H76.296V52.952ZM79.752 48.104H81.864V69.656H79.752V48.104ZM82.728 58.088L84.432 57.752C84.624 58.52 84.8 59.336 84.96 60.2C85.12 61.048 85.264 61.88 85.392 62.696C85.52 63.512 85.6 64.248 85.632 64.904L83.832 65.264C83.8 64.608 83.728 63.872 83.616 63.056C83.504 62.224 83.368 61.376 83.208 60.512C83.064 59.648 82.904 58.84 82.728 58.088ZM86.04 49.088H91.776V51.128H86.04V49.088ZM85.464 55.784H92.136V57.824H85.464V55.784ZM82.32 49.016L83.832 48.344C84.216 48.856 84.584 49.424 84.936 50.048C85.304 50.656 85.56 51.184 85.704 51.632L84.144 52.376C83.984 51.928 83.728 51.392 83.376 50.768C83.04 50.128 82.688 49.544 82.32 49.016ZM87.936 56.384H90.096V67.472C90.096 68.032 90.032 68.48 89.904 68.816C89.792 69.168 89.544 69.432 89.16 69.608C88.776 69.784 88.296 69.896 87.72 69.944C87.16 69.992 86.464 70.016 85.632 70.016C85.6 69.696 85.52 69.328 85.392 68.912C85.28 68.496 85.152 68.128 85.008 67.808C85.568 67.824 86.08 67.84 86.544 67.856C87.024 67.856 87.352 67.848 87.528 67.832C87.688 67.832 87.792 67.808 87.84 67.76C87.904 67.696 87.936 67.592 87.936 67.448V56.384ZM73.848 47.744L75.912 48.488C75.496 49.16 75.016 49.848 74.472 50.552C73.928 51.24 73.344 51.896 72.72 52.52C72.112 53.144 71.496 53.696 70.872 54.176C70.792 54.016 70.672 53.832 70.512 53.624C70.368 53.416 70.216 53.208 70.056 53C69.912 52.792 69.776 52.616 69.648 52.472C70.192 52.072 70.728 51.608 71.256 51.08C71.8 50.552 72.296 50 72.744 49.424C73.192 48.832 73.56 48.272 73.848 47.744ZM72.456 57.632L74.256 55.832L74.544 55.928V70.04H72.456V57.632ZM74.472 52.688L76.512 53.36C76.048 54.368 75.496 55.376 74.856 56.384C74.216 57.376 73.536 58.312 72.816 59.192C72.096 60.056 71.36 60.816 70.608 61.472C70.544 61.312 70.432 61.104 70.272 60.848C70.128 60.592 69.968 60.336 69.792 60.08C69.632 59.808 69.48 59.592 69.336 59.432C70.344 58.616 71.304 57.608 72.216 56.408C73.144 55.208 73.896 53.968 74.472 52.688ZM106.824 51.584C106.664 52.816 106.456 54.12 106.2 55.496C105.96 56.856 105.632 58.208 105.216 59.552C104.736 61.184 104.192 62.568 103.584 63.704C102.992 64.824 102.344 65.68 101.64 66.272C100.936 66.864 100.192 67.16 99.408 67.16C98.608 67.16 97.864 66.888 97.176 66.344C96.488 65.784 95.928 65.008 95.496 64.016C95.064 63.008 94.848 61.84 94.848 60.512C94.848 59.168 95.12 57.896 95.664 56.696C96.224 55.496 96.992 54.432 97.968 53.504C98.944 52.576 100.08 51.848 101.376 51.32C102.672 50.792 104.072 50.528 105.576 50.528C107.016 50.528 108.312 50.76 109.464 51.224C110.632 51.688 111.624 52.336 112.44 53.168C113.272 53.984 113.904 54.944 114.336 56.048C114.768 57.152 114.984 58.328 114.984 59.576C114.984 61.256 114.632 62.752 113.928 64.064C113.24 65.36 112.224 66.424 110.88 67.256C109.536 68.072 107.888 68.624 105.936 68.912L104.52 66.656C104.936 66.608 105.32 66.56 105.672 66.512C106.024 66.448 106.352 66.384 106.656 66.32C107.424 66.144 108.152 65.872 108.84 65.504C109.544 65.136 110.168 64.672 110.712 64.112C111.256 63.536 111.68 62.864 111.984 62.096C112.304 61.328 112.464 60.464 112.464 59.504C112.464 58.544 112.312 57.656 112.008 56.84C111.704 56.008 111.256 55.288 110.664 54.68C110.072 54.072 109.344 53.6 108.48 53.264C107.616 52.912 106.64 52.736 105.552 52.736C104.24 52.736 103.072 52.968 102.048 53.432C101.024 53.896 100.152 54.512 99.432 55.28C98.728 56.032 98.192 56.848 97.824 57.728C97.456 58.608 97.272 59.456 97.272 60.272C97.272 61.184 97.384 61.944 97.608 62.552C97.832 63.144 98.112 63.584 98.448 63.872C98.784 64.16 99.128 64.304 99.48 64.304C99.832 64.304 100.192 64.128 100.56 63.776C100.928 63.408 101.296 62.832 101.664 62.048C102.048 61.264 102.424 60.264 102.792 59.048C103.16 57.896 103.464 56.672 103.704 55.376C103.96 54.064 104.144 52.784 104.256 51.536L106.824 51.584ZM123.12 57.152V65.816H120.936V59.264H118.032V57.152H123.12ZM123.12 64.904C123.632 65.752 124.36 66.376 125.304 66.776C126.264 67.176 127.416 67.408 128.76 67.472C129.448 67.488 130.28 67.504 131.256 67.52C132.248 67.52 133.28 67.52 134.352 67.52C135.44 67.504 136.496 67.48 137.52 67.448C138.544 67.4 139.44 67.352 140.208 67.304C140.128 67.464 140.04 67.68 139.944 67.952C139.848 68.208 139.76 68.472 139.68 68.744C139.6 69.032 139.536 69.288 139.488 69.512C138.784 69.544 137.96 69.568 137.016 69.584C136.088 69.616 135.12 69.632 134.112 69.632C133.104 69.648 132.128 69.648 131.184 69.632C130.256 69.616 129.44 69.6 128.736 69.584C127.216 69.52 125.92 69.272 124.848 68.84C123.792 68.424 122.896 67.744 122.16 66.8C121.648 67.296 121.12 67.792 120.576 68.288C120.048 68.784 119.48 69.296 118.872 69.824L117.768 67.568C118.28 67.2 118.832 66.784 119.424 66.32C120.016 65.856 120.584 65.384 121.128 64.904H123.12ZM118.2 49.616L119.928 48.344C120.408 48.712 120.896 49.128 121.392 49.592C121.904 50.04 122.368 50.496 122.784 50.96C123.2 51.408 123.536 51.832 123.792 52.232L121.92 53.648C121.696 53.248 121.376 52.816 120.96 52.352C120.56 51.872 120.112 51.392 119.616 50.912C119.136 50.432 118.664 50 118.2 49.616ZM133.416 47.984L135.888 48.488C135.52 49.272 135.128 50.072 134.712 50.888C134.312 51.704 133.944 52.392 133.608 52.952L131.736 52.424C131.944 52.024 132.152 51.568 132.36 51.056C132.584 50.528 132.784 50 132.96 49.472C133.152 48.928 133.304 48.432 133.416 47.984ZM128.232 51.368H139.224V53.288H128.232V64.4H126.024V53.072L127.728 51.368H128.232ZM127.248 55.376H138.6V57.248H127.248V55.376ZM127.248 59.36H138.528V61.232H127.248V59.36ZM126.024 63.416H139.632V65.36H126.024V63.416ZM131.952 52.208H134.136V64.232H131.952V52.208ZM128.04 47.816L130.32 48.464C129.856 49.584 129.296 50.68 128.64 51.752C128 52.824 127.304 53.824 126.552 54.752C125.816 55.664 125.048 56.464 124.248 57.152C124.136 56.992 123.976 56.8 123.768 56.576C123.576 56.352 123.368 56.128 123.144 55.904C122.92 55.68 122.72 55.504 122.544 55.376C123.696 54.48 124.752 53.368 125.712 52.04C126.688 50.696 127.464 49.288 128.04 47.816ZM151.896 57.032H154.176V62.336C154.176 62.88 154.104 63.312 153.96 63.632C153.816 63.936 153.528 64.176 153.096 64.352C152.68 64.496 152.16 64.584 151.536 64.616C150.912 64.648 150.144 64.664 149.232 64.664C149.2 64.36 149.112 64.016 148.968 63.632C148.824 63.248 148.68 62.904 148.536 62.6C148.952 62.616 149.36 62.632 149.76 62.648C150.16 62.648 150.512 62.648 150.816 62.648C151.12 62.648 151.328 62.648 151.44 62.648C151.616 62.632 151.736 62.6 151.8 62.552C151.864 62.504 151.896 62.416 151.896 62.288V57.032ZM146.976 57.8L149.328 58.544C148.912 59.232 148.424 59.92 147.864 60.608C147.32 61.296 146.752 61.944 146.16 62.552C145.568 63.144 144.976 63.664 144.384 64.112C144.24 63.968 144.04 63.808 143.784 63.632C143.544 63.44 143.296 63.256 143.04 63.08C142.784 62.904 142.552 62.768 142.344 62.672C143.24 62.064 144.104 61.328 144.936 60.464C145.768 59.6 146.448 58.712 146.976 57.8ZM157.176 58.904L159 57.752C159.608 58.232 160.216 58.776 160.824 59.384C161.448 59.976 162.024 60.576 162.552 61.184C163.08 61.776 163.496 62.32 163.8 62.816L161.832 64.136C161.544 63.64 161.144 63.088 160.632 62.48C160.136 61.856 159.584 61.232 158.976 60.608C158.368 59.984 157.768 59.416 157.176 58.904ZM157.656 61.208L159.984 61.904C159.44 63.216 158.728 64.352 157.848 65.312C156.984 66.256 155.944 67.048 154.728 67.688C153.512 68.328 152.12 68.848 150.552 69.248C149 69.664 147.248 69.984 145.296 70.208C145.216 69.84 145.072 69.448 144.864 69.032C144.656 68.632 144.44 68.296 144.216 68.024C146.6 67.816 148.68 67.472 150.456 66.992C152.248 66.496 153.736 65.784 154.92 64.856C156.12 63.928 157.032 62.712 157.656 61.208ZM142.272 55.112H163.776V57.248H142.272V55.112ZM153.264 50.312H161.448V52.376H153.264V50.312ZM151.896 47.744H154.224V56.264H151.896V47.744ZM145.704 49.52H147.984V55.928H145.704V49.52ZM175.848 51.536C176.552 51.648 177.344 51.728 178.224 51.776C179.12 51.824 180.04 51.84 180.984 51.824C181.928 51.808 182.832 51.776 183.696 51.728C184.56 51.68 185.304 51.616 185.928 51.536V53.984C185.24 54.048 184.464 54.104 183.6 54.152C182.736 54.184 181.84 54.2 180.912 54.2C180 54.2 179.104 54.184 178.224 54.152C177.344 54.104 176.56 54.048 175.872 53.984L175.848 51.536ZM177.216 61.52C177.12 61.936 177.04 62.312 176.976 62.648C176.928 62.984 176.904 63.32 176.904 63.656C176.904 63.928 176.96 64.184 177.072 64.424C177.2 64.664 177.4 64.872 177.672 65.048C177.96 65.224 178.344 65.368 178.824 65.48C179.32 65.576 179.928 65.624 180.648 65.624C181.736 65.624 182.752 65.576 183.696 65.48C184.656 65.368 185.632 65.2 186.624 64.976L186.672 67.544C185.92 67.688 185.04 67.808 184.032 67.904C183.04 67.984 181.896 68.024 180.6 68.024C178.568 68.024 177.064 67.696 176.088 67.04C175.128 66.368 174.648 65.448 174.648 64.28C174.648 63.848 174.68 63.4 174.744 62.936C174.808 62.456 174.912 61.92 175.056 61.328L177.216 61.52ZM171.672 49.808C171.624 49.952 171.56 50.144 171.48 50.384C171.416 50.608 171.352 50.84 171.288 51.08C171.24 51.304 171.2 51.488 171.168 51.632C171.088 52.032 170.992 52.52 170.88 53.096C170.784 53.656 170.68 54.272 170.568 54.944C170.472 55.6 170.376 56.272 170.28 56.96C170.2 57.632 170.128 58.288 170.064 58.928C170.016 59.568 169.992 60.152 169.992 60.68C169.992 61.096 170 61.52 170.016 61.952C170.048 62.368 170.088 62.8 170.136 63.248C170.28 62.928 170.424 62.592 170.568 62.24C170.712 61.872 170.856 61.512 171 61.16C171.144 60.808 171.28 60.488 171.408 60.2L172.608 61.16C172.4 61.752 172.176 62.408 171.936 63.128C171.696 63.848 171.48 64.536 171.288 65.192C171.112 65.832 170.984 66.352 170.904 66.752C170.872 66.912 170.84 67.104 170.808 67.328C170.776 67.536 170.768 67.712 170.784 67.856C170.784 67.968 170.784 68.104 170.784 68.264C170.8 68.44 170.816 68.6 170.832 68.744L168.648 68.888C168.408 68.056 168.2 66.96 168.024 65.6C167.848 64.24 167.76 62.752 167.76 61.136C167.76 60.24 167.8 59.336 167.88 58.424C167.96 57.496 168.056 56.6 168.168 55.736C168.28 54.872 168.392 54.08 168.504 53.36C168.632 52.64 168.728 52.04 168.792 51.56C168.84 51.256 168.88 50.928 168.912 50.576C168.96 50.224 168.992 49.888 169.008 49.568L171.672 49.808ZM209.712 48.008L211.248 49.784C210.384 50.04 209.424 50.272 208.368 50.48C207.312 50.672 206.2 50.84 205.032 50.984C203.88 51.128 202.72 51.256 201.552 51.368C200.384 51.464 199.248 51.544 198.144 51.608C198.112 51.336 198.032 51.024 197.904 50.672C197.792 50.32 197.672 50.016 197.544 49.76C198.616 49.696 199.712 49.608 200.832 49.496C201.968 49.384 203.072 49.256 204.144 49.112C205.232 48.968 206.256 48.808 207.216 48.632C208.176 48.44 209.008 48.232 209.712 48.008ZM197.88 52.832L199.704 52.328C200.088 53.032 200.44 53.808 200.76 54.656C201.096 55.504 201.32 56.232 201.432 56.84L199.512 57.44C199.416 56.832 199.216 56.096 198.912 55.232C198.608 54.352 198.264 53.552 197.88 52.832ZM202.656 52.112L204.576 51.752C204.88 52.456 205.136 53.216 205.344 54.032C205.568 54.848 205.696 55.552 205.728 56.144L203.712 56.576C203.68 56 203.568 55.296 203.376 54.464C203.184 53.616 202.944 52.832 202.656 52.112ZM209.808 51.392L211.944 52.184C211.608 52.856 211.248 53.552 210.864 54.272C210.48 54.976 210.096 55.656 209.712 56.312C209.328 56.952 208.96 57.52 208.608 58.016L206.856 57.272C207.208 56.76 207.56 56.16 207.912 55.472C208.28 54.784 208.632 54.088 208.968 53.384C209.304 52.664 209.584 52 209.808 51.392ZM197.736 59.672H211.848V61.64H197.736V59.672ZM203.664 57.08H205.824V69.872H203.664V57.08ZM202.872 60.776L204.648 61.4C204.168 62.424 203.568 63.4 202.848 64.328C202.128 65.256 201.336 66.104 200.472 66.872C199.608 67.624 198.72 68.248 197.808 68.744C197.696 68.552 197.552 68.344 197.376 68.12C197.2 67.912 197.016 67.704 196.824 67.496C196.632 67.288 196.456 67.112 196.296 66.968C197.176 66.568 198.032 66.048 198.864 65.408C199.712 64.752 200.48 64.032 201.168 63.248C201.856 62.448 202.424 61.624 202.872 60.776ZM206.592 60.872C207.008 61.656 207.536 62.44 208.176 63.224C208.816 64.008 209.512 64.72 210.264 65.36C211.016 66 211.776 66.528 212.544 66.944C212.384 67.072 212.208 67.24 212.016 67.448C211.824 67.64 211.64 67.84 211.464 68.048C211.304 68.272 211.16 68.472 211.032 68.648C210.248 68.136 209.472 67.504 208.704 66.752C207.936 66 207.216 65.168 206.544 64.256C205.888 63.344 205.328 62.424 204.864 61.496L206.592 60.872ZM189.6 60.032C190.544 59.776 191.68 59.464 193.008 59.096C194.336 58.712 195.68 58.312 197.04 57.896L197.328 59.96C196.096 60.36 194.848 60.76 193.584 61.16C192.32 61.544 191.168 61.896 190.128 62.216L189.6 60.032ZM189.96 52.448H197.256V54.56H189.96V52.448ZM192.744 47.768H194.856V67.52C194.856 68.08 194.792 68.52 194.664 68.84C194.536 69.16 194.304 69.416 193.968 69.608C193.648 69.784 193.232 69.896 192.72 69.944C192.224 70.008 191.584 70.04 190.8 70.04C190.784 69.752 190.712 69.4 190.584 68.984C190.472 68.584 190.344 68.232 190.2 67.928C190.68 67.944 191.12 67.952 191.52 67.952C191.92 67.952 192.192 67.944 192.336 67.928C192.48 67.928 192.584 67.904 192.648 67.856C192.712 67.792 192.744 67.68 192.744 67.52V47.768ZM217.848 49.4H233.04V51.56H217.848V49.4ZM217.848 54.968H233.04V57.08H217.848V54.968ZM217.752 60.656H233.112V62.816H217.752V60.656ZM216.552 49.4H218.808V58.064C218.808 58.992 218.76 59.992 218.664 61.064C218.584 62.136 218.432 63.224 218.208 64.328C217.984 65.416 217.648 66.464 217.2 67.472C216.768 68.464 216.184 69.36 215.448 70.16C215.336 70 215.168 69.824 214.944 69.632C214.736 69.44 214.512 69.256 214.272 69.08C214.048 68.904 213.848 68.768 213.672 68.672C214.344 67.92 214.872 67.112 215.256 66.248C215.64 65.368 215.92 64.464 216.096 63.536C216.288 62.592 216.408 61.656 216.456 60.728C216.52 59.784 216.552 58.888 216.552 58.04V49.4ZM232.176 49.4H234.432V67.16C234.432 67.816 234.344 68.32 234.168 68.672C233.992 69.04 233.688 69.32 233.256 69.512C232.824 69.688 232.24 69.792 231.504 69.824C230.768 69.872 229.832 69.888 228.696 69.872C228.664 69.584 228.568 69.224 228.408 68.792C228.264 68.36 228.112 67.992 227.952 67.688C228.464 67.72 228.968 67.744 229.464 67.76C229.96 67.76 230.392 67.76 230.76 67.76C231.144 67.744 231.408 67.736 231.552 67.736C231.792 67.736 231.952 67.696 232.032 67.616C232.128 67.52 232.176 67.36 232.176 67.136V49.4ZM224.04 50.24H226.32V69.776H224.04V50.24ZM35.136 80.832H54.96V82.704H35.136V80.832ZM35.952 98.472H54.216V100.368H35.952V98.472ZM39.984 84.072H49.968V85.704H39.984V84.072ZM39.984 87.12H49.968V88.752H39.984V87.12ZM33.96 90.192H56.04V92.088H33.96V90.192ZM39.168 94.512H50.856V96.36H39.168V94.512ZM38.664 78.744H40.92V91.224H38.664V78.744ZM49.152 78.768H51.456V91.248H49.152V78.768ZM43.8 92.736H46.104V99.552H43.8V92.736ZM40.008 90.72L41.904 91.44C41.424 92.272 40.824 93.072 40.104 93.84C39.384 94.592 38.6 95.272 37.752 95.88C36.92 96.488 36.064 96.992 35.184 97.392C35.088 97.216 34.952 97.024 34.776 96.816C34.6 96.608 34.416 96.4 34.224 96.192C34.048 95.984 33.88 95.808 33.72 95.664C34.552 95.344 35.36 94.936 36.144 94.44C36.944 93.928 37.68 93.352 38.352 92.712C39.024 92.056 39.576 91.392 40.008 90.72ZM50.088 90.72C50.52 91.376 51.064 92.008 51.72 92.616C52.376 93.208 53.104 93.744 53.904 94.224C54.704 94.704 55.512 95.096 56.328 95.4C56.184 95.528 56.008 95.696 55.8 95.904C55.608 96.112 55.424 96.328 55.248 96.552C55.088 96.776 54.952 96.976 54.84 97.152C53.992 96.784 53.152 96.304 52.32 95.712C51.504 95.104 50.752 94.432 50.064 93.696C49.376 92.96 48.792 92.2 48.312 91.416L50.088 90.72ZM59.616 80.352L60.768 78.816C61.2 78.96 61.656 79.136 62.136 79.344C62.632 79.552 63.096 79.768 63.528 79.992C63.96 80.216 64.32 80.432 64.608 80.64L63.384 82.392C63.112 82.184 62.76 81.952 62.328 81.696C61.896 81.44 61.44 81.2 60.96 80.976C60.496 80.736 60.048 80.528 59.616 80.352ZM57.84 84.336L58.968 82.752C59.4 82.88 59.856 83.048 60.336 83.256C60.832 83.448 61.296 83.648 61.728 83.856C62.176 84.064 62.544 84.264 62.832 84.456L61.656 86.184C61.384 85.992 61.032 85.784 60.6 85.56C60.168 85.32 59.704 85.096 59.208 84.888C58.728 84.664 58.272 84.48 57.84 84.336ZM58.488 91.608C58.936 91.224 59.424 90.768 59.952 90.24C60.496 89.696 61.056 89.12 61.632 88.512C62.224 87.904 62.776 87.296 63.288 86.688L64.512 88.2C63.824 89.048 63.096 89.92 62.328 90.816C61.576 91.696 60.824 92.536 60.072 93.336L58.488 91.608ZM67.728 92.688H70.056V101.04H67.728V92.688ZM58.176 94.512H79.92V96.552H58.176V94.512ZM67.632 78.624L69.816 79.296C69.4 80.192 68.904 81.08 68.328 81.96C67.752 82.824 67.136 83.632 66.48 84.384C65.824 85.136 65.168 85.792 64.512 86.352C64.384 86.208 64.208 86.04 63.984 85.848C63.776 85.64 63.56 85.44 63.336 85.248C63.112 85.056 62.912 84.896 62.736 84.768C63.712 84.032 64.64 83.12 65.52 82.032C66.4 80.944 67.104 79.808 67.632 78.624ZM65.832 83.04L68.04 81.36V91.416H65.832V83.04ZM67.08 81.312H78.864V83.136H65.976L67.08 81.312ZM65.832 90.84H79.488V92.664H65.832V90.84ZM66.72 84.6H78.12V86.232H66.72V84.6ZM66.72 87.672H78.144V89.328H66.72V87.672ZM71.472 82.056H73.632V91.536H71.472V82.056ZM72.768 78.768L75.24 79.2C74.856 79.824 74.464 80.448 74.064 81.072C73.68 81.68 73.32 82.2 72.984 82.632L71.112 82.176C71.432 81.68 71.744 81.112 72.048 80.472C72.352 79.832 72.592 79.264 72.768 78.768ZM91.512 80.304C91.448 80.544 91.384 80.816 91.32 81.12C91.272 81.424 91.216 81.704 91.152 81.96C91.104 82.28 91.032 82.68 90.936 83.16C90.84 83.624 90.744 84.112 90.648 84.624C90.568 85.12 90.472 85.6 90.36 86.064C90.2 86.736 90 87.512 89.76 88.392C89.52 89.272 89.24 90.216 88.92 91.224C88.616 92.216 88.264 93.232 87.864 94.272C87.48 95.296 87.056 96.304 86.592 97.296C86.144 98.272 85.656 99.184 85.128 100.032L82.656 99.048C83.216 98.312 83.736 97.48 84.216 96.552C84.696 95.624 85.136 94.672 85.536 93.696C85.936 92.704 86.296 91.728 86.616 90.768C86.936 89.808 87.208 88.92 87.432 88.104C87.656 87.272 87.832 86.56 87.96 85.968C88.184 84.944 88.36 83.92 88.488 82.896C88.632 81.872 88.704 80.912 88.704 80.016L91.512 80.304ZM99.768 82.92C100.136 83.416 100.528 84.04 100.944 84.792C101.376 85.528 101.792 86.312 102.192 87.144C102.592 87.976 102.96 88.784 103.296 89.568C103.632 90.336 103.896 91 104.088 91.56L101.712 92.688C101.536 92.048 101.296 91.328 100.992 90.528C100.704 89.728 100.368 88.92 99.984 88.104C99.616 87.272 99.216 86.488 98.784 85.752C98.368 85.016 97.952 84.4 97.536 83.904L99.768 82.92ZM82.392 85.416C82.792 85.432 83.176 85.44 83.544 85.44C83.912 85.44 84.304 85.432 84.72 85.416C85.088 85.4 85.552 85.376 86.112 85.344C86.688 85.296 87.296 85.248 87.936 85.2C88.592 85.136 89.24 85.08 89.88 85.032C90.52 84.968 91.112 84.92 91.656 84.888C92.216 84.856 92.664 84.84 93 84.84C93.768 84.84 94.456 84.968 95.064 85.224C95.688 85.464 96.176 85.896 96.528 86.52C96.896 87.144 97.08 88.016 97.08 89.136C97.08 90.08 97.032 91.104 96.936 92.208C96.856 93.296 96.712 94.344 96.504 95.352C96.312 96.344 96.048 97.176 95.712 97.848C95.328 98.68 94.824 99.24 94.2 99.528C93.576 99.816 92.848 99.96 92.016 99.96C91.552 99.96 91.056 99.92 90.528 99.84C90.016 99.776 89.56 99.696 89.16 99.6L88.752 97.104C89.088 97.2 89.44 97.288 89.808 97.368C90.176 97.432 90.528 97.488 90.864 97.536C91.2 97.568 91.48 97.584 91.704 97.584C92.12 97.584 92.496 97.512 92.832 97.368C93.168 97.208 93.448 96.904 93.672 96.456C93.912 95.944 94.104 95.296 94.248 94.512C94.408 93.728 94.528 92.888 94.608 91.992C94.688 91.096 94.728 90.232 94.728 89.4C94.728 88.696 94.632 88.176 94.44 87.84C94.248 87.504 93.968 87.28 93.6 87.168C93.232 87.04 92.792 86.976 92.28 86.976C91.896 86.976 91.368 87.008 90.696 87.072C90.04 87.12 89.336 87.184 88.584 87.264C87.848 87.344 87.152 87.424 86.496 87.504C85.856 87.568 85.36 87.624 85.008 87.672C84.704 87.704 84.312 87.752 83.832 87.816C83.368 87.88 82.968 87.944 82.632 88.008L82.392 85.416ZM99.72 79.488C99.928 79.776 100.152 80.12 100.392 80.52C100.632 80.92 100.864 81.32 101.088 81.72C101.312 82.12 101.504 82.48 101.664 82.8L100.08 83.472C99.936 83.152 99.752 82.792 99.528 82.392C99.304 81.992 99.072 81.592 98.832 81.192C98.608 80.792 98.384 80.44 98.16 80.136L99.72 79.488ZM102.456 78.48C102.664 78.784 102.896 79.136 103.152 79.536C103.408 79.936 103.648 80.336 103.872 80.736C104.112 81.12 104.304 81.456 104.448 81.744L102.888 82.44C102.632 81.928 102.32 81.36 101.952 80.736C101.6 80.112 101.248 79.576 100.896 79.128L102.456 78.48ZM111.432 88.152V96.816H109.224V90.264H106.128V88.152H111.432ZM111.432 95.832C111.976 96.664 112.728 97.288 113.688 97.704C114.664 98.104 115.816 98.328 117.144 98.376C117.832 98.408 118.648 98.432 119.592 98.448C120.536 98.448 121.536 98.44 122.592 98.424C123.648 98.392 124.672 98.36 125.664 98.328C126.656 98.296 127.528 98.248 128.28 98.184C128.184 98.36 128.088 98.592 127.992 98.88C127.896 99.152 127.808 99.432 127.728 99.72C127.648 100.008 127.584 100.272 127.536 100.512C126.848 100.544 126.048 100.568 125.136 100.584C124.24 100.6 123.304 100.608 122.328 100.608C121.368 100.624 120.432 100.624 119.52 100.608C118.608 100.608 117.808 100.592 117.12 100.56C115.6 100.496 114.296 100.248 113.208 99.816C112.136 99.4 111.208 98.72 110.424 97.776C109.88 98.272 109.312 98.768 108.72 99.264C108.144 99.76 107.528 100.272 106.872 100.8L105.72 98.448C106.28 98.096 106.88 97.688 107.52 97.224C108.176 96.76 108.792 96.296 109.368 95.832H111.432ZM106.272 80.688L107.952 79.32C108.464 79.64 108.984 80.016 109.512 80.448C110.056 80.88 110.552 81.32 111 81.768C111.448 82.216 111.816 82.632 112.104 83.016L110.304 84.504C110.048 84.12 109.696 83.704 109.248 83.256C108.816 82.792 108.336 82.336 107.808 81.888C107.296 81.44 106.784 81.04 106.272 80.688ZM115.008 81.192H125.592V87.696H115.008V85.8H123.408V83.064H115.008V81.192ZM118.584 78.672L121.248 79.056C120.992 79.664 120.728 80.264 120.456 80.856C120.2 81.432 119.968 81.928 119.76 82.344L117.648 81.936C117.824 81.456 118 80.912 118.176 80.304C118.368 79.696 118.504 79.152 118.584 78.672ZM113.904 81.192H116.112V96.672H113.904V81.192ZM115.152 89.664H126.552V96.672H115.152V94.752H124.32V91.584H115.152V89.664ZM134.736 82.08C134.688 82.304 134.648 82.576 134.616 82.896C134.584 83.216 134.552 83.536 134.52 83.856C134.504 84.176 134.496 84.448 134.496 84.672C134.496 85.168 134.496 85.72 134.496 86.328C134.512 86.936 134.528 87.56 134.544 88.2C134.56 88.824 134.6 89.448 134.664 90.072C134.792 91.336 134.984 92.44 135.24 93.384C135.496 94.328 135.824 95.064 136.224 95.592C136.624 96.12 137.088 96.384 137.616 96.384C137.92 96.384 138.208 96.24 138.48 95.952C138.752 95.664 139.008 95.28 139.248 94.8C139.488 94.32 139.704 93.8 139.896 93.24C140.104 92.664 140.28 92.112 140.424 91.584L142.32 93.816C141.808 95.176 141.296 96.264 140.784 97.08C140.288 97.88 139.776 98.456 139.248 98.808C138.72 99.16 138.16 99.336 137.568 99.336C136.768 99.336 136 99.064 135.264 98.52C134.544 97.96 133.92 97.048 133.392 95.784C132.864 94.52 132.488 92.832 132.264 90.72C132.184 90.016 132.12 89.256 132.072 88.44C132.04 87.624 132.016 86.848 132 86.112C132 85.376 132 84.768 132 84.288C132 83.984 131.984 83.616 131.952 83.184C131.936 82.736 131.888 82.352 131.808 82.032L134.736 82.08ZM147.024 82.68C147.456 83.24 147.872 83.896 148.272 84.648C148.688 85.384 149.064 86.184 149.4 87.048C149.736 87.912 150.032 88.792 150.288 89.688C150.56 90.584 150.784 91.472 150.96 92.352C151.136 93.232 151.256 94.064 151.32 94.848L148.848 95.808C148.752 94.768 148.592 93.68 148.368 92.544C148.144 91.408 147.856 90.288 147.504 89.184C147.152 88.064 146.736 87.016 146.256 86.04C145.792 85.048 145.256 84.192 144.648 83.472L147.024 82.68ZM154.56 86.184C154.992 86.104 155.448 86 155.928 85.872C156.424 85.744 156.896 85.616 157.344 85.488C157.824 85.344 158.456 85.144 159.24 84.888C160.04 84.616 160.912 84.352 161.856 84.096C162.816 83.824 163.792 83.6 164.784 83.424C165.776 83.248 166.712 83.16 167.592 83.16C168.968 83.16 170.208 83.416 171.312 83.928C172.432 84.44 173.32 85.184 173.976 86.16C174.648 87.136 174.984 88.328 174.984 89.736C174.984 90.872 174.776 91.896 174.36 92.808C173.944 93.72 173.344 94.536 172.56 95.256C171.776 95.976 170.832 96.592 169.728 97.104C168.64 97.6 167.408 98 166.032 98.304C164.672 98.592 163.208 98.776 161.64 98.856L160.56 96.36C162.16 96.312 163.664 96.152 165.072 95.88C166.48 95.608 167.728 95.208 168.816 94.68C169.904 94.152 170.76 93.48 171.384 92.664C172.008 91.832 172.32 90.848 172.32 89.712C172.32 88.896 172.136 88.168 171.768 87.528C171.4 86.888 170.848 86.376 170.112 85.992C169.392 85.608 168.52 85.416 167.496 85.416C166.744 85.416 165.92 85.512 165.024 85.704C164.144 85.88 163.24 86.104 162.312 86.376C161.4 86.648 160.512 86.944 159.648 87.264C158.8 87.584 158.024 87.888 157.32 88.176C156.632 88.448 156.072 88.68 155.64 88.872L154.56 86.184ZM187.752 80.184C187.704 80.424 187.648 80.696 187.584 81C187.52 81.304 187.464 81.584 187.416 81.84C187.352 82.16 187.272 82.56 187.176 83.04C187.096 83.504 187.008 83.992 186.912 84.504C186.816 85 186.712 85.48 186.6 85.944C186.44 86.616 186.24 87.392 186 88.272C185.76 89.152 185.48 90.096 185.16 91.104C184.856 92.096 184.504 93.112 184.104 94.152C183.72 95.176 183.296 96.184 182.832 97.176C182.384 98.152 181.896 99.064 181.368 99.912L178.896 98.928C179.456 98.176 179.976 97.344 180.456 96.432C180.936 95.504 181.376 94.552 181.776 93.576C182.176 92.584 182.536 91.608 182.856 90.648C183.176 89.688 183.448 88.8 183.672 87.984C183.912 87.152 184.096 86.44 184.224 85.848C184.448 84.824 184.624 83.8 184.752 82.776C184.896 81.752 184.96 80.792 184.944 79.896L187.752 80.184ZM196.032 82.608C196.4 83.104 196.792 83.728 197.208 84.48C197.624 85.232 198.032 86.032 198.432 86.88C198.848 87.728 199.216 88.544 199.536 89.328C199.872 90.112 200.136 90.784 200.328 91.344L197.952 92.448C197.792 91.808 197.56 91.088 197.256 90.288C196.968 89.472 196.632 88.648 196.248 87.816C195.88 86.984 195.48 86.2 195.048 85.464C194.632 84.712 194.216 84.08 193.8 83.568L196.032 82.608ZM178.632 85.296C179.032 85.312 179.416 85.32 179.784 85.32C180.168 85.32 180.56 85.312 180.96 85.296C181.344 85.28 181.816 85.256 182.376 85.224C182.936 85.176 183.536 85.128 184.176 85.08C184.832 85.016 185.48 84.96 186.12 84.912C186.776 84.848 187.376 84.8 187.92 84.768C188.464 84.736 188.904 84.72 189.24 84.72C190.024 84.72 190.72 84.848 191.328 85.104C191.936 85.344 192.416 85.776 192.768 86.4C193.136 87.024 193.32 87.896 193.32 89.016C193.32 89.96 193.28 90.984 193.2 92.088C193.12 93.176 192.976 94.224 192.768 95.232C192.576 96.224 192.304 97.056 191.952 97.728C191.568 98.56 191.064 99.112 190.44 99.384C189.832 99.672 189.104 99.816 188.256 99.816C187.808 99.816 187.32 99.784 186.792 99.72C186.264 99.656 185.8 99.576 185.4 99.48L185.016 96.984C185.336 97.064 185.68 97.144 186.048 97.224C186.432 97.304 186.792 97.368 187.128 97.416C187.464 97.448 187.736 97.464 187.944 97.464C188.376 97.464 188.752 97.392 189.072 97.248C189.408 97.088 189.688 96.776 189.912 96.312C190.152 95.816 190.352 95.176 190.512 94.392C190.672 93.608 190.792 92.768 190.872 91.872C190.952 90.976 190.992 90.112 190.992 89.28C190.992 88.576 190.888 88.056 190.68 87.72C190.488 87.384 190.208 87.16 189.84 87.048C189.472 86.92 189.04 86.856 188.544 86.856C188.16 86.856 187.632 86.888 186.96 86.952C186.304 87 185.6 87.064 184.848 87.144C184.096 87.224 183.4 87.304 182.76 87.384C182.12 87.448 181.616 87.504 181.248 87.552C180.944 87.584 180.552 87.632 180.072 87.696C179.608 87.76 179.208 87.824 178.872 87.888L178.632 85.296ZM203.184 83.616C203.664 83.664 204.168 83.704 204.696 83.736C205.24 83.752 205.752 83.76 206.232 83.76C207.16 83.76 208.104 83.72 209.064 83.64C210.04 83.544 211 83.408 211.944 83.232C212.904 83.04 213.816 82.808 214.68 82.536L214.752 84.744C214.016 84.952 213.176 85.144 212.232 85.32C211.288 85.496 210.304 85.64 209.28 85.752C208.256 85.864 207.24 85.92 206.232 85.92C205.784 85.92 205.312 85.912 204.816 85.896C204.32 85.88 203.832 85.864 203.352 85.848L203.184 83.616ZM212.04 79.824C211.944 80.224 211.816 80.728 211.656 81.336C211.512 81.944 211.344 82.584 211.152 83.256C210.976 83.928 210.792 84.576 210.6 85.2C210.216 86.352 209.736 87.576 209.16 88.872C208.584 90.152 207.96 91.4 207.288 92.616C206.616 93.832 205.936 94.896 205.248 95.808L202.944 94.632C203.488 93.976 204.024 93.248 204.552 92.448C205.08 91.632 205.576 90.792 206.04 89.928C206.52 89.048 206.952 88.2 207.336 87.384C207.72 86.552 208.032 85.792 208.272 85.104C208.544 84.304 208.792 83.4 209.016 82.392C209.24 81.384 209.368 80.44 209.4 79.56L212.04 79.824ZM217.68 87.264C217.664 87.76 217.656 88.232 217.656 88.68C217.656 89.128 217.664 89.592 217.68 90.072C217.696 90.44 217.712 90.92 217.728 91.512C217.76 92.088 217.792 92.704 217.824 93.36C217.856 94.016 217.88 94.64 217.896 95.232C217.928 95.824 217.944 96.304 217.944 96.672C217.944 97.344 217.792 97.96 217.488 98.52C217.2 99.08 216.736 99.528 216.096 99.864C215.456 100.2 214.608 100.368 213.552 100.368C212.624 100.368 211.776 100.232 211.008 99.96C210.256 99.688 209.648 99.28 209.184 98.736C208.736 98.192 208.512 97.504 208.512 96.672C208.512 95.92 208.72 95.256 209.136 94.68C209.568 94.104 210.16 93.656 210.912 93.336C211.664 93 212.536 92.832 213.528 92.832C214.904 92.832 216.168 93.032 217.32 93.432C218.472 93.816 219.504 94.304 220.416 94.896C221.344 95.472 222.144 96.056 222.816 96.648L221.544 98.688C221.08 98.272 220.568 97.84 220.008 97.392C219.448 96.928 218.824 96.504 218.136 96.12C217.464 95.72 216.728 95.392 215.928 95.136C215.144 94.88 214.304 94.752 213.408 94.752C212.608 94.752 211.96 94.912 211.464 95.232C210.984 95.552 210.744 95.96 210.744 96.456C210.744 96.968 210.952 97.384 211.368 97.704C211.8 98.024 212.424 98.184 213.24 98.184C213.848 98.184 214.328 98.088 214.68 97.896C215.048 97.688 215.304 97.408 215.448 97.056C215.592 96.704 215.664 96.312 215.664 95.88C215.664 95.464 215.648 94.904 215.616 94.2C215.6 93.496 215.568 92.736 215.52 91.92C215.488 91.104 215.448 90.288 215.4 89.472C215.368 88.64 215.344 87.904 215.328 87.264H217.68ZM222.192 88.176C221.744 87.808 221.184 87.416 220.512 87C219.84 86.568 219.152 86.16 218.448 85.776C217.744 85.376 217.12 85.056 216.576 84.816L217.8 82.968C218.232 83.16 218.72 83.392 219.264 83.664C219.808 83.936 220.352 84.224 220.896 84.528C221.44 84.832 221.944 85.136 222.408 85.44C222.872 85.728 223.256 85.976 223.56 86.184L222.192 88.176ZM230.736 82.08C230.688 82.304 230.648 82.576 230.616 82.896C230.584 83.216 230.552 83.536 230.52 83.856C230.504 84.176 230.496 84.448 230.496 84.672C230.496 85.168 230.496 85.72 230.496 86.328C230.512 86.936 230.528 87.56 230.544 88.2C230.56 88.824 230.6 89.448 230.664 90.072C230.792 91.336 230.984 92.44 231.24 93.384C231.496 94.328 231.824 95.064 232.224 95.592C232.624 96.12 233.088 96.384 233.616 96.384C233.92 96.384 234.208 96.24 234.48 95.952C234.752 95.664 235.008 95.28 235.248 94.8C235.488 94.32 235.704 93.8 235.896 93.24C236.104 92.664 236.28 92.112 236.424 91.584L238.32 93.816C237.808 95.176 237.296 96.264 236.784 97.08C236.288 97.88 235.776 98.456 235.248 98.808C234.72 99.16 234.16 99.336 233.568 99.336C232.768 99.336 232 99.064 231.264 98.52C230.544 97.96 229.92 97.048 229.392 95.784C228.864 94.52 228.488 92.832 228.264 90.72C228.184 90.016 228.12 89.256 228.072 88.44C228.04 87.624 228.016 86.848 228 86.112C228 85.376 228 84.768 228 84.288C228 83.984 227.984 83.616 227.952 83.184C227.936 82.736 227.888 82.352 227.808 82.032L230.736 82.08ZM243.024 82.68C243.456 83.24 243.872 83.896 244.272 84.648C244.688 85.384 245.064 86.184 245.4 87.048C245.736 87.912 246.032 88.792 246.288 89.688C246.56 90.584 246.784 91.472 246.96 92.352C247.136 93.232 247.256 94.064 247.32 94.848L244.848 95.808C244.752 94.768 244.592 93.68 244.368 92.544C244.144 91.408 243.856 90.288 243.504 89.184C243.152 88.064 242.736 87.016 242.256 86.04C241.792 85.048 241.256 84.192 240.648 83.472L243.024 82.68Z" fill="white"/>
<mask id="mask0_279_2" style="mask-type:alpha" maskUnits="userSpaceOnUse" x="35" y="115" width="218" height="167">
<rect x="35" y="115" width="218" height="167" fill="#D9D9D9"/>
</mask>
<g mask="url(#mask0_279_2)">
<path d="M149.721 257.09C149.721 257.09 142.568 256.221 140.404 256.439C138.24 256.656 126.429 259.793 126.429 259.793L121.336 265.964L134.338 268.128C134.338 268.128 138.023 266.39 144.524 266.607C151.024 266.824 149.721 257.073 149.721 257.073V257.09Z" fill="#FCE4D6" stroke="#727171" stroke-width="0.3" stroke-linecap="round" stroke-linejoin="round"/>
<path d="M132.287 321.508C133.261 304.778 141.387 298.138 147.557 293.584C153.728 289.039 166.408 273.438 166.408 273.438L207.351 313.73L206.048 321.508" fill="#C7B69D"/>
<path d="M148.366 194.802C148.366 194.802 146.905 193.664 145.437 195.124C143.977 196.584 139.431 203.571 138.779 204.223C138.128 204.875 138.458 209.264 138.458 209.264C138.458 209.264 134.556 217.06 134.069 217.39C133.582 217.72 131.635 217.877 131.635 217.877C131.635 217.877 127.081 222.266 124.978 225.516C122.866 228.766 112.307 245.34 112.307 245.34L122.379 266.138C122.379 266.138 132.452 257.038 136.676 254.118C140.9 251.198 146.914 244.854 149.999 244.367C153.085 243.88 159.751 244.202 159.751 244.202L148.374 194.811L148.366 194.802Z" fill="#D1BFA5"/>
<path d="M190.656 158.943C189.057 180.662 202.476 183.434 202.476 183.434C202.476 183.434 180.383 212.792 178.749 214.522C177.124 216.251 169.267 197.07 169.65 192.429C170.163 186.233 167.703 181.574 167.703 181.574C167.703 181.574 169.65 161.342 176.472 159.882C183.295 158.422 190.647 158.952 190.647 158.952L190.656 158.943Z" fill="#FCE4D6" stroke="#727171" stroke-width="0.3" stroke-linecap="round" stroke-linejoin="round"/>
<path d="M168.354 181.374C168.354 181.374 171.388 190.578 169.658 196.106C167.92 201.633 176.159 213.331 178.427 213.331C180.696 213.331 189.265 205.422 191.099 199.356C192.941 193.29 195.323 184.19 195.323 184.19C195.323 184.19 188.396 193.724 183.842 192.751C179.296 191.778 174.638 182.139 173.013 179.428C171.388 176.716 168.354 181.374 168.354 181.374Z" fill="#FBDAC8"/>
<path d="M195.323 321.508C195.323 321.508 192.072 312.105 184.928 305.612C176.255 297.73 167.381 295.54 164.131 293.914C160.88 292.289 163.974 278.314 163.644 275.715C163.644 275.715 160.559 265.477 158.282 260.767C156.005 256.056 149.182 244.193 147.07 238.188C144.959 232.174 141.221 215.113 141.543 211.054C141.864 206.996 146.253 194.646 146.253 194.646C146.253 194.646 156.326 191.23 158.108 190.744C159.898 190.257 168.181 186.52 168.181 186.52C168.181 186.52 167.207 195.619 170.128 201.633C173.048 207.648 178.575 212.193 178.575 212.193C178.575 212.193 183.451 204.884 186.215 201.79C188.978 198.704 200.842 180.184 200.842 180.184C200.842 180.184 205.543 183.947 211.723 186.198C218.875 188.797 228.618 188.632 232.355 191.074C236.092 193.507 226.506 222.752 226.341 231.696C226.176 240.63 227.966 246.479 228.774 249.243C229.591 252.006 226.663 257.69 226.663 257.69C226.663 257.69 226.497 264.513 228.123 269.875C229.748 275.237 230.235 279.296 232.998 285.475C234.354 288.5 238.126 294.905 240.473 301.728C240.473 301.728 246 311.453 246 321.526" fill="#DBC8AC"/>
<path d="M164.774 194.48C164.774 194.48 164.122 244.523 164.774 250.372C164.774 250.372 169.65 267.268 171.275 266.294C172.9 265.321 198.895 191.56 198.895 191.56L177.124 213.653L164.774 194.48Z" fill="white" stroke="#727171" stroke-width="0.3" stroke-linecap="round" stroke-linejoin="round"/>
<path d="M209.133 301.554C209.133 301.554 216.12 292.289 218.232 281.573C220.344 270.848 226.68 257.69 226.68 257.69C226.68 257.69 224.724 264.513 223.916 270.848C223.099 277.184 222.778 281.573 221.639 283.85C221.639 283.85 218.519 290.82 209.133 301.562V301.554Z" fill="#D1BFA5"/>
<path d="M173.386 267.754C171.596 261.253 168.997 233.633 168.354 218.685C167.703 203.736 169.006 188.466 169.006 188.466L165.756 189.118C165.756 189.118 157.308 196.758 150.807 208.456L159.742 212.193L149.017 210.246C149.017 210.246 147.878 216.582 150.477 229.418C153.076 242.255 157.786 253.788 161.036 261.262C164.287 268.736 170.623 280.6 170.623 280.6" fill="#EDD8BA"/>
<path d="M171.605 270.031C171.284 254.11 178.271 232.173 182.652 219.172C187.041 206.179 197.279 180.827 197.279 180.827L205.405 183.591C205.405 183.591 206.543 202.111 207.682 206.014L194.845 211.211L209.463 206.5C209.463 206.5 200.042 230.218 195.167 239.161C190.291 248.095 184.772 257.36 182.495 260.767C180.218 264.182 174.213 275.715 174.213 275.715" fill="#EDD8BA"/>
<path d="M194.515 177.429C194.515 177.429 190.612 191.23 188.822 196.271C188.822 196.271 184.763 198.061 184.433 199.035C184.112 200.008 177.124 213.662 177.124 213.662C177.124 213.662 187.518 204.397 194.35 201.964L194.836 197.905C194.836 197.905 198.739 199.852 200.52 199.852C202.302 199.852 212.87 199.043 212.87 199.043C212.87 199.043 207.021 188.319 206.369 185.72C205.717 183.121 204.336 182.226 204.336 182.226C204.336 182.226 195.801 174.726 195.349 174.352C194.376 173.544 192.829 174.483 192.829 174.483C192.829 174.483 193.672 176.734 194.506 177.446L194.515 177.429Z" fill="white"/>
<path d="M188.821 196.271C188.821 196.271 186.71 200.008 184.598 201.955" stroke="#727171" stroke-width="0.3" stroke-linecap="round" stroke-linejoin="round"/>
<path d="M194.514 177.429C194.514 177.429 195.018 175.586 194.045 174.691" stroke="#727171" stroke-width="0.3" stroke-linecap="round" stroke-linejoin="round"/>
<path d="M177.775 216.252C176.967 213.653 169.98 208.291 167.051 205.527C164.122 202.763 161.367 201.79 160.715 201.459C160.063 201.138 160.228 199.999 160.228 199.999C160.228 199.999 159.907 200.321 158.603 200.486C157.299 200.651 151.294 199.678 151.294 199.678C151.294 199.678 160.454 192.082 162.184 190.5C165.026 187.902 167.868 180.836 167.868 180.836L170.301 180.514L170.727 193.959C170.727 193.959 177.124 206.83 179.731 219.18" fill="white"/>
<path d="M170.727 193.959C170.727 193.959 168.276 188.962 168.354 184.573" stroke="#727171" stroke-width="0.3" stroke-linecap="round" stroke-linejoin="round"/>
<path d="M164.618 190.578C164.618 190.578 161.533 197.079 160.881 198.539" stroke="#727171" stroke-width="0.3" stroke-linecap="round" stroke-linejoin="round"/>
<path d="M115.061 306.577C159.278 306.577 195.123 297.488 195.123 286.275C195.123 275.062 159.278 265.973 115.061 265.973C70.8447 265.973 35 275.062 35 286.275C35 297.488 70.8447 306.577 115.061 306.577Z" fill="#E6E6E6"/>
<path d="M38.0336 285.371C38.0336 282.268 41.0146 279.339 46.2987 276.732C39.8066 279.47 36.0781 282.616 36.0781 285.979C36.0781 296.426 71.9198 304.891 116.14 304.891C116.592 304.891 117.035 304.891 117.478 304.891C73.545 304.813 38.0249 296.104 38.0249 285.38L38.0336 285.371Z" fill="white"/>
<path d="M115.062 301.632C157.361 301.632 191.655 293.645 191.655 283.798C191.655 273.951 157.361 265.964 115.062 265.964C72.7625 265.964 38.4678 273.951 38.4678 283.798C38.4678 293.645 72.7625 301.632 115.062 301.632Z" fill="#FFFEEE"/>
<path d="M227.653 189.77C227.653 189.77 223.673 191.169 221.639 193.829C216.442 200.651 212.705 212.679 212.218 214.14C211.731 215.6 212.053 218.042 212.053 218.042C212.053 218.042 210.593 222.917 209.62 224.212C208.646 225.516 205.882 229.896 205.882 229.896C205.882 229.896 202.145 233.799 199.877 238.344C197.6 242.889 194.193 249.225 194.193 249.225C194.193 249.225 190.134 251.989 190.778 254.909C190.778 254.909 187.692 255.561 186.875 256.213C186.067 256.864 181.191 257.03 181.191 257.03C181.191 257.03 180.54 255.726 179.079 256.056C177.619 256.378 174.369 258.333 170.467 258.003C166.564 257.681 149.669 255.404 149.669 255.404C149.669 255.404 144.472 255.57 142.36 260.767C140.248 265.964 140.248 272.952 140.248 272.952C140.248 272.952 152.111 274.412 157.143 275.229C162.184 276.046 178.271 276.854 182.165 277.506C186.067 278.157 190.665 279.835 190.665 279.835C190.665 279.835 193.698 282.651 196.731 284.163C199.13 285.362 205.717 278.635 209.785 274.412C213.843 270.188 224.403 250.198 226.524 247.113C228.635 244.028 230.582 243.054 230.582 241.586C230.582 240.117 230.904 235.737 230.904 235.737C230.904 235.737 233.502 231.348 233.502 227.776C233.502 224.204 233.989 222.248 233.989 222.248C233.989 222.248 236.266 221.275 236.101 219.328C235.936 217.381 235.84 213.74 236.266 209.742C236.918 203.571 236.753 197.557 236.266 195.61C235.78 193.664 233.346 188.301 227.653 189.761V189.77Z" fill="#DBC8AC"/>
<path d="M219.205 222.587C229.93 219.337 231.877 220.31 233.18 220.64C234.484 220.962 233.989 222.266 233.989 222.266C233.989 222.266 230.086 220.805 222.447 222.431C214.816 224.056 209.61 226.655 209.61 226.655C209.61 226.655 216.511 223.23 219.197 222.596L219.205 222.587Z" fill="#D1BFA5"/>
<path d="M194.185 249.234C194.185 249.234 207.021 244.193 209.785 241.273C212.549 238.353 212.549 237.536 210.437 238.674C208.325 239.813 203.614 242.733 203.614 242.733C203.614 242.733 198.513 247.044 194.193 249.234H194.185Z" fill="#D1BFA5"/>
<path d="M190.777 254.918C190.777 254.918 193.054 256.543 196.305 257.516C199.555 258.49 203.449 258.82 202.962 258.168C202.475 257.516 199.555 255.57 198.252 255.239C196.948 254.918 192.889 254.431 192.889 254.431L190.777 254.918Z" fill="#D1BFA5"/>
<path d="M190.613 255.891C190.613 255.891 190.126 258.003 190.126 259.307C190.126 260.61 192.238 266.129 196.792 268.893C196.792 268.893 191.36 261.801 190.621 255.891H190.613Z" fill="#D1BFA5"/>
<path d="M190.664 279.835C190.664 279.835 194.132 281.139 197.599 280.269C199.963 279.678 202.797 277.506 202.797 277.506" stroke="#727171" stroke-width="0.3" stroke-linecap="round" stroke-linejoin="round"/>
<path d="M198.947 137.528C198.947 137.528 201.624 140.596 203.353 143.725C205.091 146.854 205.439 150.504 203.692 154.45C201.954 158.404 200.398 161.142 197.374 162.645C194.349 164.149 192.229 164.036 190.404 162.637C188.587 161.237 191.394 149.957 193.871 145.498C196.348 141.04 198.947 137.528 198.947 137.528Z" fill="#6F6059" stroke="#727171" stroke-width="0.3" stroke-linecap="round" stroke-linejoin="round"/>
<path d="M199.355 138.519C199.355 138.519 200.477 140.84 201.302 143.221C202.128 145.602 202.502 148.531 201.267 151.017C200.033 153.502 199.347 150.217 199.234 149.174C199.121 148.131 199.347 138.519 199.347 138.519H199.355Z" fill="#655650" stroke="#727171" stroke-width="0.3" stroke-linecap="round" stroke-linejoin="round"/>
<path d="M201.302 143.221C201.302 143.221 204.665 152.451 199.659 157.657" stroke="#727171" stroke-width="0.3" stroke-linecap="round" stroke-linejoin="round"/>
<path d="M193.35 156.405C193.35 156.405 194.601 165.522 201.728 158.682" stroke="#727171" stroke-width="0.3" stroke-linecap="round" stroke-linejoin="round"/>
<path d="M195.975 135.721C195.975 135.721 197.722 135.165 198.721 135.417C199.721 135.677 201.589 138.319 201.737 140.753C202.198 148.566 197.957 152.703 197.957 152.703L195.575 147.063L195.975 135.712V135.721Z" fill="#DBC8AC" stroke="#727171" stroke-width="0.3" stroke-linecap="round" stroke-linejoin="round"/>
<path d="M159.689 121.789C159.689 121.789 156.274 123.388 154.718 125.205C153.163 127.021 149.738 132.827 148.939 135.529C148.139 138.232 148.191 141.518 150.581 146.532C152.971 151.547 158.594 148.931 158.594 148.931L159.689 121.789Z" fill="#6F6059" stroke="#727171" stroke-width="0.3" stroke-linecap="round" stroke-linejoin="round"/>
<path d="M185.589 167.921C183.425 172.875 179.766 177.385 177.132 179.263C172.57 182.522 168.911 183.008 166.512 182.192C164.113 181.383 162.966 177.768 161.367 175.247C159.594 172.458 156.9 169.607 154.805 166.522C153.354 164.384 152.98 160.76 152.763 157.892C152.511 154.615 151.468 154.259 150.764 152.547C150.069 150.834 150.086 144.672 150.216 143.03C150.347 141.379 153.562 133.435 153.562 133.435C153.562 133.435 158.49 127.786 163.722 127.786C168.954 127.786 179.635 130.124 184.754 133.461C189.873 136.798 193.767 139.467 194.21 141.587C194.653 143.699 192.541 152.381 191.646 153.824" fill="#FCE4D6"/>
<path d="M179.306 143.821C179.306 143.821 185.537 150.382 186.536 153.059C187.536 155.727 189.1 150.495 189.648 148.383C190.204 146.271 192.316 143.264 192.316 143.264L179.297 143.821H179.306Z" fill="#796A62"/>
<path d="M151.259 159.404L150.173 159.986" stroke="#727171" stroke-width="0.3" stroke-linecap="round" stroke-linejoin="round"/>
<path d="M191.16 145.046C189.734 146.35 189.769 148.94 188.1 149.722C187.431 150.035 185.849 149.435 181.478 146.054C177.115 142.665 169.441 141.457 169.441 141.457C185.797 147.758 181.886 161.333 181.886 161.333C182.217 152.312 176.22 146.724 159.863 141.631C147.896 137.902 152.433 131.28 152.433 131.28C152.433 131.28 154.379 128.716 155.405 126.613C156.43 124.509 160.237 120.129 163.348 118.652C166.46 117.174 176.854 113.507 185.311 118.652C193.758 123.797 195.392 125.335 197.86 132.001C199.703 136.998 200.303 140.04 199.851 145.185C199.216 152.451 198.842 152.399 193.341 161.411C191.864 163.827 190.951 168.069 190.951 168.069C190.951 168.069 190.108 164.227 190.334 157.735C190.43 154.971 191.168 145.046 191.168 145.046H191.16Z" fill="#796A62" stroke="#727171" stroke-width="0.3" stroke-linecap="round" stroke-linejoin="round"/>
<path d="M169.433 141.448C169.433 141.448 159.507 137.598 157.569 133.583" stroke="#727171" stroke-width="0.3" stroke-linecap="round" stroke-linejoin="round"/>
<path d="M172.709 136.781C172.709 136.781 181.713 144.985 191.986 145.22C191.986 145.22 184.868 144.42 179.149 138.528" stroke="#727171" stroke-width="0.3" stroke-linecap="round" stroke-linejoin="round"/>
<path d="M182.495 135.399C182.495 135.399 194.689 149.009 199.886 143.942C199.886 143.942 195.001 146.106 191.317 139.814" stroke="#727171" stroke-width="0.3" stroke-linecap="round" stroke-linejoin="round"/>
<path d="M199.59 144.16C199.59 144.16 200.764 148.705 196.696 151.669" stroke="#727171" stroke-width="0.3" stroke-linecap="round" stroke-linejoin="round"/>
<path d="M189.648 147.836C189.648 147.836 191.029 144.777 192.046 144.655C193.063 144.534 195.531 144.56 196.018 148.792C196.253 150.843 195.618 154.372 194.714 156.336C193.811 158.3 192.351 160.586 190.578 161.203C189.569 161.559 188.274 160.203 188.274 160.203" fill="#FCE4D6"/>
<path d="M189.648 147.836C189.648 147.836 191.029 144.777 192.046 144.655C193.063 144.534 195.531 144.56 196.018 148.792C196.253 150.843 195.618 154.372 194.714 156.336C193.811 158.3 192.351 160.586 190.578 161.203C189.569 161.559 188.274 160.203 188.274 160.203" stroke="#727171" stroke-width="0.3" stroke-linecap="round" stroke-linejoin="round"/>
<path d="M188.648 158.378C188.648 158.378 188.718 158.248 190.465 157.413C192.212 156.57 194.132 155.693 194.602 153.39C195.071 151.086 194.628 147.793 194.054 147.149C193.481 146.515 192.229 146.358 191.664 146.923C191.099 147.497 190.613 149.687 190.552 150.469C190.491 151.252 190.63 152.095 190.63 152.095" fill="#FBDAC8"/>
<path d="M188.648 158.378C188.648 158.378 188.718 158.248 190.465 157.413C192.212 156.57 194.132 155.693 194.602 153.39C195.071 151.086 194.628 147.793 194.054 147.149C193.481 146.515 192.229 146.358 191.664 146.923C191.099 147.497 190.613 149.687 190.552 150.469C190.491 151.252 190.63 152.095 190.63 152.095" stroke="#727171" stroke-width="0.3" stroke-linecap="round" stroke-linejoin="round"/>
<path d="M191.134 150.017C191.134 150.017 193.02 151.782 193.324 153.024C193.619 154.276 191.49 156.188 191.49 156.188" stroke="#727171" stroke-width="0.3" stroke-linecap="round" stroke-linejoin="round"/>
<path d="M189.812 152.851C189.812 152.851 190.499 154.78 190.212 155.284C189.917 155.788 188.317 156.927 188.317 156.927" fill="#FCE4D6"/>
<path d="M189.812 152.851C189.812 152.851 190.499 154.78 190.212 155.284C189.917 155.788 188.317 156.927 188.317 156.927" stroke="#727171" stroke-width="0.3" stroke-linecap="round" stroke-linejoin="round"/>
<path d="M151.599 133.861C151.599 133.861 149.261 139.875 159.447 143.543C168.198 146.697 174.134 150.052 174.638 154.893C174.638 154.893 175.047 148.505 163.618 143.212C158.134 140.666 158.612 138.876 158.612 138.876" fill="#796A62"/>
<path d="M151.599 133.861C151.599 133.861 149.261 139.875 159.447 143.543C168.198 146.697 174.134 150.052 174.638 154.893C174.638 154.893 175.047 148.505 163.618 143.212C158.134 140.666 158.612 138.876 158.612 138.876" stroke="#727171" stroke-width="0.3" stroke-linecap="round" stroke-linejoin="round"/>
<path d="M107.266 219.337C107.266 219.337 107.431 218.85 110.029 217.06C112.628 215.27 130.01 209.42 129.202 216.408C128.393 223.396 114.74 224.047 114.74 224.047C114.74 224.047 106.944 224.047 107.266 219.337Z" fill="#B3A48D" stroke="#727171" stroke-width="0.3" stroke-linecap="round" stroke-linejoin="round"/>
<path d="M113.002 221.822C113.002 221.822 120.728 198.235 120.928 196.123C121.128 194.011 121.797 192.725 122.953 191.613C124.109 190.491 124.961 188.562 125.482 186.129C126.012 183.704 127.594 176.907 127.95 175.282C128.307 173.666 128.698 170.467 129.515 169.624C131.67 167.391 133.104 164.731 133.852 163.445C134.686 161.994 135.181 161.759 137.137 161.637C137.137 161.637 141.578 158.552 142.56 158.074C143.542 157.605 144.681 157.544 145.498 157.561C146.306 157.579 147.775 157.605 147.775 157.605C147.775 157.605 149.495 156.77 150.486 156.301C151.468 155.832 154.336 154.311 154.814 154.806C155.292 155.302 155.431 156.449 154.762 157.248C153.65 158.578 152.676 158.656 152.676 158.656C152.676 158.656 154.623 158.978 152.824 161.351C151.851 162.628 149.295 163.48 148.626 164.123C147.966 164.766 145.984 166.513 145.654 166.991C145.324 167.469 143.803 170.858 143.803 170.858C143.803 170.858 142.238 176.516 142.395 177.012C142.551 177.498 143.507 178.333 143.507 178.333C143.507 178.333 145.054 173.483 145.715 172.849C145.715 172.849 145.428 170.728 145.445 169.433C145.471 168.13 146.94 165.366 147.853 166.548C149.122 168.199 149.304 171.936 149.452 172.753C149.6 173.57 148.757 175.343 148.565 176.803C148.383 178.263 147.427 181.574 146.914 182.869C146.401 184.164 143.003 188.084 141.508 190.005C140.013 191.925 137.71 193.351 136.05 195.271C134.39 197.192 130.679 204.762 130.132 208.169C129.584 211.576 127.811 219.989 127.811 219.989C127.811 219.989 114.027 227.541 112.993 221.84L113.002 221.822Z" fill="#FCE4D6"/>
<path d="M137.137 161.637C137.137 161.637 140.474 161.368 142.178 161.237C143.89 161.107 146.41 160.985 146.966 161.489C147.523 161.985 146.601 163.68 145.054 164.053C143.507 164.436 141.239 163.906 141.239 163.906C141.239 163.906 138.945 165.166 136.824 165.287C136.824 165.287 135.407 167.538 134.981 168.503" stroke="#727171" stroke-width="0.3" stroke-linecap="round" stroke-linejoin="round"/>
<path d="M133.355 168.964C133.355 168.964 136.05 168.277 137.101 168.547C138.153 168.807 138.396 168.816 139.761 169.65C141.125 170.485 143.063 171.415 143.063 171.415" stroke="#727171" stroke-width="0.3" stroke-linecap="round" stroke-linejoin="round"/>
<path d="M147.774 157.604C147.774 157.604 152.328 157.604 152.398 158.256C152.467 158.908 151.876 160.281 149.834 160.733C147.791 161.185 145.532 160.655 145.532 160.655L144.715 160.968" stroke="#727171" stroke-width="0.3" stroke-linecap="round" stroke-linejoin="round"/>
<path d="M141.891 164.079C141.891 164.079 139.484 166.8 139.232 167.286C138.979 167.773 138.806 168.494 138.806 168.494" stroke="#727171" stroke-width="0.3" stroke-linecap="round" stroke-linejoin="round"/>
<path d="M148.931 160.951L147.123 162.063" stroke="#727171" stroke-width="0.3" stroke-linecap="round" stroke-linejoin="round"/>
<path d="M144.733 164.131C144.733 164.131 143.403 165.974 142.56 167.26C141.726 168.546 141.378 169.755 141.378 169.755" stroke="#727171" stroke-width="0.3" stroke-linecap="round" stroke-linejoin="round"/>
<path d="M143.507 178.324C143.507 178.324 145.428 179.984 145.567 181.444" stroke="#727171" stroke-width="0.3" stroke-linecap="round" stroke-linejoin="round"/>
<path d="M134.625 170.78C134.625 170.78 133.938 172.718 132.704 173.918C132.704 173.918 133.573 179.784 133.46 181.809C133.339 183.843 132.557 187.076 132.557 187.076" stroke="#727171" stroke-width="0.3" stroke-linecap="round" stroke-linejoin="round"/>
<path d="M140.344 178.028C140.344 178.028 137.372 180.497 135.851 183.799" stroke="#727171" stroke-width="0.3" stroke-linecap="round" stroke-linejoin="round"/>
<path d="M124.161 258.655C124.482 257.351 124.813 252.971 124.813 252.971C124.813 252.971 127.741 246.149 128.063 243.385C128.385 240.621 127.411 234.937 127.411 232.173C127.411 229.41 129.202 216.417 129.202 216.417C128.88 218.207 115.878 220.154 111.654 220.806C107.431 221.457 107.265 219.345 107.265 219.345C107.265 219.345 107.752 231.365 107.587 232.017C107.422 232.669 105.154 233.964 105.154 235.919C105.154 237.875 103.528 250.381 102.876 253.466C102.225 256.552 100.93 263.861 105.475 265.164C110.02 266.468 117.173 267.111 119.772 267.111C119.772 267.111 123.344 266.625 123.83 265.808C124.317 264.999 125.291 261.584 125.291 261.584" fill="#DBC8AC"/>
<path d="M107.587 232.008C107.587 232.008 107.752 242.246 106.779 248.904C106.779 248.904 106.379 236.762 106.535 235.485C106.692 234.207 107.587 232.008 107.587 232.008Z" fill="#D1BFA5"/>
<path d="M124.813 252.971C124.813 252.971 121.562 256.221 117.017 258.168C112.463 260.115 111.168 260.602 111.168 260.602C111.168 260.602 115.722 260.923 120.267 257.682C120.267 257.682 123.648 255.318 124.813 252.971Z" fill="#D1BFA5"/>
<path d="M160.228 280.912V278.479L114.87 288.474V290.907L160.228 280.912Z" fill="#808080" stroke="#727171" stroke-width="0.3" stroke-linecap="round" stroke-linejoin="round"/>
<path d="M158.282 280.695V279.965L144.585 282.981V283.711L158.282 280.695Z" fill="#4D4D4D" stroke="#727171" stroke-width="0.3" stroke-linecap="round" stroke-linejoin="round"/>
<path d="M160.229 278.479L99.9568 267.589L61.7686 275.498L114.871 288.474L160.229 278.479Z" fill="#666666" stroke="#727171" stroke-width="0.3" stroke-linecap="round" stroke-linejoin="round"/>
<path d="M73.5791 275.707L114.905 285.806L139.77 280.322L93.5336 271.491L73.5791 275.707Z" fill="#9E959A" stroke="#727171" stroke-width="0.3" stroke-linecap="round" stroke-linejoin="round"/>
<path d="M112.784 273.682L125.343 275.881L131.922 274.49L119.685 272.291L112.784 273.682Z" fill="#999999" stroke="#727171" stroke-width="0.3" stroke-linecap="round" stroke-linejoin="round"/>
<path d="M114.87 290.907V288.474L63.7236 275.55V277.81L114.87 290.907Z" fill="#4D4D4D" stroke="#727171" stroke-width="0.3" stroke-linecap="round" stroke-linejoin="round"/>
<path d="M135.633 281.234L90.4482 272.1" stroke="#727171" stroke-width="0.3" stroke-linecap="round" stroke-linejoin="round"/>
<path d="M131.488 282.147L87.1201 272.795" stroke="#727171" stroke-width="0.3" stroke-linecap="round" stroke-linejoin="round"/>
<path d="M127.341 283.059L83.7822 273.482" stroke="#727171" stroke-width="0.3" stroke-linecap="round" stroke-linejoin="round"/>
<path d="M123.196 283.98L80.4541 274.177" stroke="#727171" stroke-width="0.3" stroke-linecap="round" stroke-linejoin="round"/>
<path d="M119.05 284.893L77.125 274.864" stroke="#727171" stroke-width="0.3" stroke-linecap="round" stroke-linejoin="round"/>
<path d="M109.777 284.528L129.923 280.104" stroke="#727171" stroke-width="0.3" stroke-linecap="round" stroke-linejoin="round"/>
<path d="M107.205 283.893L131.105 278.67" stroke="#727171" stroke-width="0.3" stroke-linecap="round" stroke-linejoin="round"/>
<path d="M104.649 283.259L128.211 278.114" stroke="#727171" stroke-width="0.3" stroke-linecap="round" stroke-linejoin="round"/>
<path d="M102.077 282.625L121.484 278.401" stroke="#727171" stroke-width="0.3" stroke-linecap="round" stroke-linejoin="round"/>
<path d="M99.5137 281.99L122.432 277.01" stroke="#727171" stroke-width="0.3" stroke-linecap="round" stroke-linejoin="round"/>
<path d="M96.9492 281.356L116.087 277.21" stroke="#727171" stroke-width="0.3" stroke-linecap="round" stroke-linejoin="round"/>
<path d="M94.3857 280.721L113.341 276.628" stroke="#727171" stroke-width="0.3" stroke-linecap="round" stroke-linejoin="round"/>
<path d="M91.8213 280.087L113.766 275.359" stroke="#727171" stroke-width="0.3" stroke-linecap="round" stroke-linejoin="round"/>
<path d="M110.759 289.013C110.264 288.891 110.055 288.031 110.29 287.101C110.524 286.171 111.115 285.51 111.602 285.632L66.5219 274.429C66.0265 274.307 65.4355 274.777 65.2096 275.707C64.9749 276.637 65.1835 277.497 65.6789 277.619L110.759 289.013Z" fill="#808080" stroke="#727171" stroke-width="0.3" stroke-linecap="round" stroke-linejoin="round"/>
<path d="M92.3696 236.562L93.9426 235.285L40.4061 226.194L38.833 227.463L92.3696 236.562Z" fill="#666666" stroke="#727171" stroke-width="0.3" stroke-linecap="round" stroke-linejoin="round"/>
<path d="M116.443 287.196L93.9422 235.285L92.3691 236.562L114.87 288.474L116.443 287.196Z" fill="#808080" stroke="#727171" stroke-width="0.3" stroke-linecap="round" stroke-linejoin="round"/>
<path d="M114.871 288.474L92.3696 236.562L38.833 227.463L61.7686 275.498L114.871 288.474Z" fill="#404040" stroke="#727171" stroke-width="0.3" stroke-linecap="round" stroke-linejoin="round"/>
</g>
<defs>
<linearGradient id="paint0_linear_279_2" x1="144" y1="-30" x2="144" y2="187.75" gradientUnits="userSpaceOnUse">
<stop stop-color="#383838"/>
<stop offset="1" stop-color="#9E9E9E"/>
</linearGradient>
</defs>
</svg>
