<svg width="343" height="31" viewBox="0 0 343 31" fill="none" xmlns="http://www.w3.org/2000/svg">
<path d="M136.772 0.694286H99.2695V30.3018H136.772V0.694286Z" fill="#95FF00"/>
<path d="M58.5024 19.2294C58.2444 19.2294 58.0372 19.0186 58.0372 18.7641V7.76811C58.0372 7.51003 57.8263 7.30283 57.5719 7.30283H53.2934C53.0353 7.30283 52.8281 7.51366 52.8281 7.76811V23.2316C52.8281 23.4897 53.039 23.6969 53.2934 23.6969H69.3276C69.5857 23.6969 69.7929 23.4861 69.7929 23.2316V19.6984C69.7929 19.4403 69.5821 19.2331 69.3276 19.2331H58.5061L58.5024 19.2294Z" fill="white"/>
<path d="M92.5592 11.7667C92.8173 11.7667 93.0245 11.5558 93.0245 11.3014V7.76811C93.0245 7.51003 92.8137 7.30283 92.5592 7.30283H74.3803C74.1222 7.30283 73.915 7.51366 73.915 7.76811V23.2316C73.915 23.4897 74.1259 23.6969 74.3803 23.6969H92.5592C92.8173 23.6969 93.0245 23.4861 93.0245 23.2316V19.6984C93.0245 19.4403 92.8137 19.2331 92.5592 19.2331H79.593C79.3349 19.2331 79.1277 19.0222 79.1277 18.7678V17.8299C79.1277 17.5719 79.3385 17.3647 79.593 17.3647H89.4222C89.6803 17.3647 89.8875 17.1538 89.8875 16.8994V14.1113C89.8875 13.8532 89.6766 13.646 89.4222 13.646H79.593C79.3349 13.646 79.1277 13.4352 79.1277 13.1807V12.2429C79.1277 11.9848 79.3385 11.7776 79.593 11.7776H92.5592V11.7667Z" fill="white"/>
<path d="M21.7594 7.76811C21.7594 7.51002 21.5486 7.30283 21.2941 7.30283H17.0157C16.7576 7.30283 16.5504 7.51366 16.5504 7.76811V16.0815C16.5504 16.3396 16.3832 16.4232 16.176 16.2669L4.63106 7.57909C4.42749 7.42642 4.04945 7.29919 3.79136 7.29919H0.465287C0.207198 7.29919 0 7.51002 0 7.76448V23.228C0 23.4861 0.210833 23.6933 0.465287 23.6933H4.74374C5.00183 23.6933 5.20903 23.4824 5.20903 23.228V15.06C5.20903 14.8019 5.37624 14.7183 5.58344 14.871L17.0411 23.417C17.2483 23.5697 17.6264 23.6969 17.8808 23.6969H21.2905C21.5486 23.6969 21.7558 23.4861 21.7558 23.2316V7.76811H21.7594Z" fill="white"/>
<path d="M44.1228 7.31373C43.8647 7.31373 43.523 7.47731 43.3631 7.67724L37.8778 14.5111C37.7179 14.7111 37.4561 14.7111 37.2962 14.5111L31.84 7.66633C31.68 7.46641 31.3383 7.30283 31.0839 7.30283H25.3478C25.0897 7.30283 25.0134 7.46641 25.1733 7.66633L33.9447 18.6696C34.1046 18.8696 34.1046 19.1967 33.9447 19.3966L30.7749 23.3334C30.615 23.5333 30.6913 23.6969 30.9494 23.6969H36.7073C36.9654 23.6969 37.3071 23.5333 37.467 23.3334L50.0589 7.67724C50.2188 7.47731 50.1425 7.31373 49.8844 7.31373H44.1265H44.1228Z" fill="white"/>
<path d="M158.75 0.694286C159.928 0.694286 161.029 0.883309 162.065 1.25772C163.097 1.63576 163.999 2.16648 164.762 2.85714C165.529 3.5478 166.133 4.3875 166.58 5.3726C167.023 6.3577 167.245 7.46639 167.245 8.69504C167.245 10.4181 166.94 11.9629 166.333 13.3334C165.726 14.7001 164.886 15.8597 163.817 16.8121C162.752 17.7645 161.498 18.4879 160.062 18.9859C158.626 19.4839 157.089 19.7347 155.446 19.7347H148.059L145.824 30.3018H142.047L148.346 0.694286H158.75ZM148.757 16.4522H155.22C156.438 16.4522 157.55 16.2887 158.554 15.9615C159.561 15.6344 160.422 15.1545 161.138 14.5257C161.858 13.8968 162.41 13.1189 162.799 12.1956C163.188 11.2723 163.385 10.2145 163.385 9.02583C163.385 8.23338 163.243 7.52091 162.963 6.89205C162.683 6.26319 162.287 5.73247 161.774 5.2999C161.262 4.86733 160.64 4.54017 159.906 4.3148C159.175 4.08943 158.357 3.97674 157.452 3.97674H151.418L148.75 16.4522H148.757Z" fill="white"/>
<path d="M183.145 21.8285H171.265L166.503 30.3018H162.545L179.884 0.694286H183.312L187.95 30.3018H184.341L183.152 21.8285H183.145ZM173.028 18.6878H182.734L180.786 5.53618H180.458L173.032 18.6878H173.028Z" fill="white"/>
<path d="M197.478 0.694286H207.717C209.059 0.694286 210.273 0.879674 211.36 1.24681C212.447 1.61759 213.377 2.14104 214.152 2.82806C214.922 3.51145 215.518 4.33661 215.936 5.2999C216.354 6.26319 216.562 7.3428 216.562 8.53146C216.562 9.72012 216.373 10.767 215.998 11.7957C215.62 12.8208 215.089 13.7441 214.399 14.5656C213.708 15.3872 212.872 16.0924 211.894 16.6885C210.916 17.2847 209.826 17.7245 208.623 18.0117L212.868 30.3018H208.848L204.991 18.586H197.441L194.958 30.3018H191.182L197.478 0.694286ZM198.135 15.3036H205.275C206.354 15.3036 207.35 15.1473 208.259 14.831C209.168 14.5148 209.949 14.0749 210.596 13.5078C211.247 12.9408 211.752 12.2647 212.116 11.4759C212.479 10.6907 212.661 9.82554 212.661 8.88042C212.661 8.12797 212.545 7.45185 212.312 6.84843C212.08 6.24501 211.745 5.73247 211.305 5.3108C210.865 4.8855 210.338 4.55835 209.713 4.3257C209.092 4.09306 208.39 3.97674 207.608 3.97674H200.549L198.128 15.3036H198.135Z" fill="white"/>
<path d="M223.712 30.3018L229.291 4.01672H219.793L220.491 0.694286H243.268L242.57 4.01672H233.072L227.492 30.3018H223.715H223.712Z" fill="white"/>
<path d="M241.688 30.3018L247.987 0.694286H251.618L262.575 24.3512H262.902L267.929 0.694286H271.662L265.363 30.3018H261.691L250.753 6.70666H250.426L245.421 30.3018H241.688Z" fill="white"/>
<path d="M288.885 30.3018H270.499L276.799 0.694286H295.185L294.465 4.01672H279.877L277.827 13.5151H291.677L290.979 16.7976H277.148L274.974 26.9757H289.583L288.885 30.2982V30.3018Z" fill="white"/>
<path d="M299.434 0.694286H309.674C311.015 0.694286 312.229 0.879674 313.316 1.24681C314.403 1.61759 315.333 2.14104 316.108 2.82806C316.878 3.51145 317.474 4.33661 317.892 5.2999C318.31 6.26319 318.518 7.3428 318.518 8.53146C318.518 9.72012 318.329 10.767 317.954 11.7957C317.576 12.8208 317.045 13.7441 316.355 14.5656C315.664 15.3872 314.828 16.0924 313.85 16.6885C312.872 17.2847 311.782 17.7245 310.579 18.0117L314.824 30.3018H310.804L306.947 18.586H299.397L296.915 30.3018H293.138L299.434 0.694286ZM300.092 15.3036H307.231C308.31 15.3036 309.306 15.1473 310.215 14.831C311.124 14.5148 311.905 14.0749 312.553 13.5078C313.203 12.9408 313.708 12.2647 314.072 11.4759C314.435 10.6907 314.617 9.82554 314.617 8.88042C314.617 8.12797 314.501 7.45185 314.268 6.84843C314.036 6.24501 313.701 5.73247 313.261 5.3108C312.822 4.8855 312.294 4.55835 311.669 4.3257C311.048 4.09306 310.346 3.97674 309.564 3.97674H302.505L300.084 15.3036H300.092Z" fill="white"/>
<path d="M322.251 22.0938C322.429 22.9408 322.742 23.7114 323.186 24.4021C323.629 25.0928 324.185 25.678 324.847 26.1578C325.512 26.6377 326.268 27.0048 327.126 27.2665C327.98 27.5282 328.907 27.6555 329.907 27.6555C330.906 27.6555 331.866 27.5282 332.709 27.2774C333.549 27.023 334.272 26.6704 334.876 26.2124C335.479 25.7543 335.945 25.1982 336.272 24.5511C336.599 23.9041 336.762 23.188 336.762 22.4065C336.762 21.1887 336.337 20.1636 335.49 19.3276C334.643 18.4951 333.266 17.7391 331.364 17.0702L328.554 16.0851C326.53 15.3726 324.959 14.3585 323.847 13.0389C322.731 11.7194 322.175 10.2036 322.175 8.49512C322.175 7.27737 322.437 6.15414 322.964 5.11815C323.491 4.0858 324.222 3.18794 325.159 2.43185C326.097 1.67212 327.202 1.07598 328.475 0.647039C329.747 0.214468 331.128 0 332.618 0C334.029 0 335.338 0.210833 336.548 0.636134C337.758 1.06144 338.827 1.65031 339.75 2.41004C340.674 3.16977 341.419 4.07853 341.986 5.13996C342.553 6.2014 342.891 7.36098 343 8.61871H339.285C338.903 6.95022 338.107 5.65251 336.904 4.7292C335.701 3.8059 334.196 3.34425 332.389 3.34425C331.473 3.34425 330.626 3.4642 329.856 3.70412C329.082 3.94403 328.416 4.27846 327.857 4.71103C327.297 5.1436 326.857 5.65251 326.544 6.24138C326.228 6.83026 326.072 7.47367 326.072 8.1716C326.072 9.22576 326.457 10.1418 327.231 10.9197C328.006 11.6976 329.205 12.3846 330.834 12.9699L333.502 13.9332C335.937 14.8237 337.744 15.9215 338.918 17.2265C340.096 18.5315 340.681 20.1018 340.681 21.9375C340.681 23.2789 340.412 24.5039 339.87 25.6089C339.329 26.7176 338.569 27.67 337.591 28.4734C336.613 29.2731 335.443 29.8947 334.083 30.3418C332.72 30.7853 331.226 31.007 329.601 31.007C328.082 31.007 326.686 30.8034 325.417 30.3927C324.145 29.9819 323.033 29.393 322.084 28.6297C321.132 27.8627 320.354 26.9321 319.747 25.827C319.14 24.7256 318.733 23.4861 318.525 22.1011H322.259L322.251 22.0938Z" fill="white"/>
<path d="M115.285 3.97675H110.752L103.438 27.0193H107.07L108.695 21.654H117.226L118.811 27.0193H122.217L115.289 3.97675H115.285ZM109.444 18.855L112.937 7.21921L116.339 18.855H109.444ZM129.705 6.88115V24.1149V27.0193H126.183V24.1149V6.88115V3.97675H129.705V6.88115Z" fill="black"/>
</svg>
