<svg width="460" height="80" viewBox="0 0 460 80" fill="none" xmlns="http://www.w3.org/2000/svg">
<rect width="460" height="80" rx="10" fill="#93FF00"/>
<path d="M138.02 27.49H141.23C141.19 28.31 141.12 29.37 141.02 30.67C140.92 31.97 140.73 33.43 140.45 35.05C140.19 36.65 139.79 38.32 139.25 40.06C138.71 41.8 137.97 43.54 137.03 45.28C136.09 47 134.9 48.64 133.46 50.2C132.02 51.74 130.27 53.1 128.21 54.28C127.95 53.9 127.61 53.51 127.19 53.11C126.77 52.71 126.32 52.35 125.84 52.03C127.88 50.95 129.59 49.7 130.97 48.28C132.35 46.84 133.48 45.32 134.36 43.72C135.24 42.1 135.92 40.48 136.4 38.86C136.9 37.22 137.26 35.66 137.48 34.18C137.7 32.7 137.84 31.38 137.9 30.22C137.96 29.06 138 28.15 138.02 27.49ZM141.11 28.18C141.13 28.54 141.17 29.14 141.23 29.98C141.31 30.8 141.44 31.79 141.62 32.95C141.82 34.11 142.11 35.37 142.49 36.73C142.87 38.09 143.37 39.49 143.99 40.93C144.61 42.35 145.39 43.75 146.33 45.13C147.27 46.49 148.39 47.75 149.69 48.91C151.01 50.05 152.56 51.03 154.34 51.85C153.9 52.19 153.48 52.58 153.08 53.02C152.7 53.46 152.39 53.87 152.15 54.25C150.33 53.37 148.73 52.3 147.35 51.04C145.99 49.78 144.82 48.41 143.84 46.93C142.88 45.45 142.07 43.94 141.41 42.4C140.77 40.86 140.25 39.35 139.85 37.87C139.47 36.39 139.18 35.02 138.98 33.76C138.78 32.48 138.64 31.38 138.56 30.46C138.48 29.54 138.42 28.87 138.38 28.45L141.11 28.18ZM169.28 33.01H183.86V35.74H169.28V33.01ZM177.86 26.71H180.86V50.86C180.86 51.76 180.74 52.43 180.5 52.87C180.28 53.33 179.9 53.67 179.36 53.89C178.8 54.13 178.06 54.28 177.14 54.34C176.22 54.42 175.12 54.46 173.84 54.46C173.76 54.06 173.62 53.57 173.42 52.99C173.24 52.43 173.05 51.95 172.85 51.55C173.75 51.57 174.62 51.59 175.46 51.61C176.3 51.61 176.85 51.6 177.11 51.58C177.39 51.58 177.58 51.53 177.68 51.43C177.8 51.33 177.86 51.14 177.86 50.86V26.71ZM177.62 34.3L179.9 35.68C179.34 37 178.67 38.33 177.89 39.67C177.11 41.01 176.24 42.31 175.28 43.57C174.34 44.83 173.35 46 172.31 47.08C171.29 48.16 170.26 49.1 169.22 49.9C168.98 49.52 168.67 49.11 168.29 48.67C167.91 48.21 167.54 47.84 167.18 47.56C168.22 46.88 169.25 46.05 170.27 45.07C171.29 44.07 172.26 42.98 173.18 41.8C174.1 40.6 174.94 39.37 175.7 38.11C176.46 36.83 177.1 35.56 177.62 34.3ZM156.62 33.01H168.29V35.71H156.62V33.01ZM161.45 26.68H164.3V54.49H161.45V26.68ZM161.33 34.75L163.25 35.44C162.97 36.66 162.61 37.92 162.17 39.22C161.73 40.52 161.25 41.79 160.73 43.03C160.21 44.27 159.65 45.43 159.05 46.51C158.45 47.59 157.82 48.51 157.16 49.27C157.02 48.85 156.79 48.38 156.47 47.86C156.17 47.32 155.9 46.86 155.66 46.48C156.26 45.8 156.84 45.01 157.4 44.11C157.98 43.21 158.52 42.24 159.02 41.2C159.52 40.14 159.97 39.06 160.37 37.96C160.77 36.86 161.09 35.79 161.33 34.75ZM164.09 36.31C164.29 36.47 164.56 36.73 164.9 37.09C165.24 37.45 165.62 37.86 166.04 38.32C166.46 38.76 166.87 39.21 167.27 39.67C167.69 40.11 168.06 40.52 168.38 40.9C168.72 41.26 168.96 41.53 169.1 41.71L167.39 44.14C167.15 43.74 166.82 43.25 166.4 42.67C165.98 42.07 165.53 41.46 165.05 40.84C164.59 40.2 164.14 39.61 163.7 39.07C163.26 38.51 162.9 38.06 162.62 37.72L164.09 36.31ZM186.26 38.74H213.86V41.86H186.26V38.74ZM224.24 28.12H235.07V30.61H224.24V28.12ZM227.24 34.45H232.7V36.94H226.46L227.24 34.45ZM225.44 41.89L226.67 39.76C227.15 40.08 227.65 40.44 228.17 40.84C228.69 41.22 229.17 41.6 229.61 41.98C230.07 42.36 230.43 42.71 230.69 43.03L229.46 45.46C229.2 45.1 228.84 44.71 228.38 44.29C227.94 43.87 227.46 43.45 226.94 43.03C226.44 42.61 225.94 42.23 225.44 41.89ZM235.07 30.1H237.59V47.53H235.07V30.1ZM240.35 27.19H242.99V51.16C242.99 51.96 242.89 52.57 242.69 52.99C242.51 53.43 242.17 53.77 241.67 54.01C241.19 54.23 240.55 54.37 239.75 54.43C238.95 54.51 237.95 54.55 236.75 54.55C236.69 54.19 236.57 53.73 236.39 53.17C236.23 52.63 236.06 52.16 235.88 51.76C236.74 51.8 237.52 51.82 238.22 51.82C238.94 51.82 239.43 51.82 239.69 51.82C239.93 51.8 240.1 51.75 240.2 51.67C240.3 51.57 240.35 51.4 240.35 51.16V27.19ZM226.88 28.99L229.58 29.38C229.38 30.72 229.12 32.1 228.8 33.52C228.5 34.94 228.13 36.34 227.69 37.72C227.25 39.1 226.72 40.41 226.1 41.65C225.48 42.89 224.76 44 223.94 44.98C223.82 44.78 223.65 44.56 223.43 44.32C223.23 44.06 223.02 43.81 222.8 43.57C222.6 43.33 222.41 43.14 222.23 43C222.95 42.12 223.57 41.12 224.09 40C224.61 38.88 225.05 37.69 225.41 36.43C225.79 35.17 226.09 33.91 226.31 32.65C226.55 31.37 226.74 30.15 226.88 28.99ZM231.62 34.45H232.13L232.61 34.33L234.23 34.84C233.67 39.72 232.61 43.81 231.05 47.11C229.49 50.41 227.55 52.9 225.23 54.58C225.11 54.34 224.94 54.08 224.72 53.8C224.5 53.52 224.27 53.25 224.03 52.99C223.81 52.73 223.61 52.53 223.43 52.39C225.61 50.89 227.4 48.69 228.8 45.79C230.22 42.87 231.16 39.28 231.62 35.02V34.45ZM221.69 26.77L224.3 27.52C223.74 29.24 223.07 30.97 222.29 32.71C221.53 34.43 220.69 36.06 219.77 37.6C218.85 39.14 217.89 40.5 216.89 41.68C216.81 41.44 216.68 41.14 216.5 40.78C216.34 40.4 216.16 40.02 215.96 39.64C215.78 39.24 215.61 38.92 215.45 38.68C216.31 37.7 217.12 36.58 217.88 35.32C218.66 34.04 219.37 32.67 220.01 31.21C220.67 29.75 221.23 28.27 221.69 26.77ZM219.29 34.54L221.84 31.96L221.9 32.02V54.52H219.29V34.54ZM259.16 28.12C259.04 28.7 258.87 29.41 258.65 30.25C258.45 31.07 258.15 32 257.75 33.04C257.41 33.88 256.99 34.74 256.49 35.62C256.01 36.5 255.51 37.3 254.99 38.02C255.33 37.82 255.72 37.66 256.16 37.54C256.62 37.4 257.08 37.3 257.54 37.24C258.02 37.16 258.45 37.12 258.83 37.12C260.03 37.12 261.04 37.47 261.86 38.17C262.68 38.85 263.09 39.84 263.09 41.14C263.09 41.54 263.09 42.03 263.09 42.61C263.09 43.19 263.1 43.8 263.12 44.44C263.14 45.08 263.15 45.71 263.15 46.33C263.17 46.95 263.18 47.49 263.18 47.95H260.33C260.35 47.57 260.37 47.13 260.39 46.63C260.41 46.11 260.42 45.57 260.42 45.01C260.44 44.45 260.45 43.91 260.45 43.39C260.45 42.87 260.45 42.41 260.45 42.01C260.43 41.11 260.16 40.46 259.64 40.06C259.12 39.66 258.51 39.46 257.81 39.46C256.91 39.46 256.01 39.67 255.11 40.09C254.23 40.51 253.47 41.02 252.83 41.62C252.41 42.04 251.97 42.52 251.51 43.06C251.07 43.6 250.6 44.19 250.1 44.83L247.52 42.91C248.9 41.61 250.07 40.37 251.03 39.19C251.99 38.01 252.78 36.89 253.4 35.83C254.04 34.75 254.54 33.73 254.9 32.77C255.22 31.95 255.48 31.12 255.68 30.28C255.88 29.42 256 28.62 256.04 27.88L259.16 28.12ZM248.42 31.15C249.22 31.27 250.1 31.36 251.06 31.42C252.02 31.46 252.86 31.48 253.58 31.48C254.92 31.48 256.37 31.45 257.93 31.39C259.49 31.33 261.06 31.23 262.64 31.09C264.24 30.95 265.75 30.75 267.17 30.49V33.28C266.11 33.42 264.98 33.55 263.78 33.67C262.58 33.79 261.36 33.89 260.12 33.97C258.88 34.03 257.69 34.08 256.55 34.12C255.41 34.14 254.37 34.15 253.43 34.15C253.01 34.15 252.51 34.15 251.93 34.15C251.37 34.13 250.78 34.1 250.16 34.06C249.56 34.02 248.98 33.99 248.42 33.97V31.15ZM271.73 38.95C271.45 39.05 271.12 39.16 270.74 39.28C270.38 39.4 270.02 39.53 269.66 39.67C269.3 39.81 268.97 39.94 268.67 40.06C267.65 40.46 266.46 40.94 265.1 41.5C263.76 42.06 262.38 42.71 260.96 43.45C260 43.95 259.17 44.45 258.47 44.95C257.77 45.45 257.22 45.97 256.82 46.51C256.44 47.05 256.25 47.64 256.25 48.28C256.25 48.8 256.37 49.22 256.61 49.54C256.85 49.86 257.18 50.11 257.6 50.29C258.04 50.45 258.56 50.57 259.16 50.65C259.78 50.71 260.47 50.74 261.23 50.74C262.43 50.74 263.79 50.67 265.31 50.53C266.83 50.39 268.25 50.2 269.57 49.96L269.48 52.99C268.76 53.07 267.92 53.15 266.96 53.23C266 53.33 265.01 53.4 263.99 53.44C262.99 53.5 262.04 53.53 261.14 53.53C259.64 53.53 258.29 53.39 257.09 53.11C255.89 52.83 254.94 52.35 254.24 51.67C253.54 50.97 253.19 50 253.19 48.76C253.19 47.78 253.41 46.9 253.85 46.12C254.31 45.32 254.9 44.6 255.62 43.96C256.36 43.32 257.18 42.73 258.08 42.19C258.98 41.65 259.87 41.16 260.75 40.72C261.69 40.22 262.56 39.79 263.36 39.43C264.18 39.05 264.94 38.71 265.64 38.41C266.36 38.11 267.03 37.81 267.65 37.51C268.17 37.29 268.66 37.08 269.12 36.88C269.58 36.66 270.04 36.43 270.5 36.19L271.73 38.95ZM283.16 35.08V37.63H296.84V35.08H283.16ZM283.16 39.97V42.55H296.84V39.97H283.16ZM283.16 30.19V32.71H296.84V30.19H283.16ZM280.4 27.67H299.72V45.07H280.4V27.67ZM291.68 43.18H294.59V50.53C294.59 50.99 294.67 51.29 294.83 51.43C295.01 51.55 295.41 51.61 296.03 51.61C296.15 51.61 296.38 51.61 296.72 51.61C297.08 51.61 297.47 51.61 297.89 51.61C298.31 51.61 298.7 51.61 299.06 51.61C299.44 51.61 299.72 51.61 299.9 51.61C300.3 51.61 300.59 51.52 300.77 51.34C300.97 51.14 301.11 50.74 301.19 50.14C301.27 49.54 301.33 48.64 301.37 47.44C301.57 47.6 301.82 47.76 302.12 47.92C302.44 48.06 302.77 48.19 303.11 48.31C303.45 48.43 303.75 48.52 304.01 48.58C303.91 50.1 303.73 51.27 303.47 52.09C303.21 52.91 302.82 53.48 302.3 53.8C301.78 54.12 301.07 54.28 300.17 54.28C300.03 54.28 299.8 54.28 299.48 54.28C299.18 54.28 298.84 54.28 298.46 54.28C298.08 54.28 297.7 54.28 297.32 54.28C296.94 54.28 296.6 54.28 296.3 54.28C296.02 54.28 295.81 54.28 295.67 54.28C294.63 54.28 293.81 54.17 293.21 53.95C292.63 53.73 292.23 53.34 292.01 52.78C291.79 52.24 291.68 51.5 291.68 50.56V43.18ZM284.42 44.08H287.48C287.32 45.42 287.07 46.65 286.73 47.77C286.41 48.87 285.9 49.85 285.2 50.71C284.5 51.57 283.54 52.32 282.32 52.96C281.12 53.62 279.57 54.16 277.67 54.58C277.59 54.34 277.46 54.06 277.28 53.74C277.1 53.44 276.9 53.13 276.68 52.81C276.46 52.51 276.25 52.27 276.05 52.09C277.73 51.75 279.09 51.34 280.13 50.86C281.19 50.38 282.01 49.82 282.59 49.18C283.17 48.52 283.59 47.77 283.85 46.93C284.11 46.09 284.3 45.14 284.42 44.08ZM311.9 29.56C312.28 29.6 312.68 29.63 313.1 29.65C313.54 29.67 313.94 29.68 314.3 29.68C314.6 29.68 315.08 29.68 315.74 29.68C316.42 29.66 317.18 29.64 318.02 29.62C318.88 29.6 319.73 29.58 320.57 29.56C321.41 29.52 322.16 29.48 322.82 29.44C323.5 29.4 324 29.37 324.32 29.35C324.86 29.31 325.27 29.27 325.55 29.23C325.85 29.19 326.08 29.14 326.24 29.08L327.89 31.24C327.59 31.44 327.28 31.64 326.96 31.84C326.64 32.04 326.32 32.27 326 32.53C325.62 32.81 325.12 33.2 324.5 33.7C323.9 34.18 323.25 34.72 322.55 35.32C321.85 35.9 321.16 36.47 320.48 37.03C319.8 37.59 319.19 38.09 318.65 38.53C319.25 38.33 319.85 38.2 320.45 38.14C321.05 38.06 321.65 38.02 322.25 38.02C323.91 38.02 325.4 38.34 326.72 38.98C328.04 39.62 329.08 40.48 329.84 41.56C330.6 42.64 330.98 43.89 330.98 45.31C330.98 46.89 330.56 48.3 329.72 49.54C328.9 50.78 327.7 51.75 326.12 52.45C324.56 53.15 322.66 53.5 320.42 53.5C319.04 53.5 317.83 53.31 316.79 52.93C315.75 52.55 314.94 52.02 314.36 51.34C313.8 50.64 313.52 49.84 313.52 48.94C313.52 48.2 313.72 47.51 314.12 46.87C314.54 46.21 315.12 45.69 315.86 45.31C316.62 44.91 317.49 44.71 318.47 44.71C319.83 44.71 320.96 44.99 321.86 45.55C322.78 46.09 323.48 46.81 323.96 47.71C324.46 48.61 324.73 49.59 324.77 50.65L322.04 51.04C321.98 49.84 321.63 48.86 320.99 48.1C320.37 47.34 319.53 46.96 318.47 46.96C317.83 46.96 317.3 47.13 316.88 47.47C316.48 47.81 316.28 48.21 316.28 48.67C316.28 49.33 316.61 49.85 317.27 50.23C317.95 50.61 318.82 50.8 319.88 50.8C321.58 50.8 323.03 50.59 324.23 50.17C325.43 49.73 326.34 49.1 326.96 48.28C327.58 47.44 327.89 46.43 327.89 45.25C327.89 44.31 327.61 43.47 327.05 42.73C326.49 41.99 325.72 41.42 324.74 41.02C323.76 40.6 322.64 40.39 321.38 40.39C320.18 40.39 319.08 40.53 318.08 40.81C317.1 41.07 316.18 41.46 315.32 41.98C314.46 42.48 313.61 43.11 312.77 43.87C311.95 44.61 311.1 45.46 310.22 46.42L308.03 44.2C308.63 43.72 309.29 43.18 310.01 42.58C310.73 41.98 311.45 41.38 312.17 40.78C312.91 40.16 313.6 39.58 314.24 39.04C314.9 38.48 315.45 38.02 315.89 37.66C316.31 37.32 316.82 36.91 317.42 36.43C318.02 35.93 318.64 35.41 319.28 34.87C319.92 34.33 320.53 33.82 321.11 33.34C321.69 32.84 322.17 32.42 322.55 32.08C322.23 32.1 321.79 32.12 321.23 32.14C320.67 32.16 320.05 32.19 319.37 32.23C318.71 32.25 318.04 32.28 317.36 32.32C316.68 32.34 316.06 32.37 315.5 32.41C314.94 32.43 314.51 32.45 314.21 32.47C313.85 32.49 313.47 32.52 313.07 32.56C312.69 32.58 312.33 32.61 311.99 32.65L311.9 29.56Z" fill="black"/>
</svg>
