<svg width="350" height="60" viewBox="0 0 350 60" fill="none" xmlns="http://www.w3.org/2000/svg">
<rect width="350" height="60" rx="10" fill="#93FF00"/>
<path d="M83.02 15.49H86.23C86.19 16.31 86.12 17.37 86.02 18.67C85.92 19.97 85.73 21.43 85.45 23.05C85.19 24.65 84.79 26.32 84.25 28.06C83.71 29.8 82.97 31.54 82.03 33.28C81.09 35 79.9 36.64 78.46 38.2C77.02 39.74 75.27 41.1 73.21 42.28C72.95 41.9 72.61 41.51 72.19 41.11C71.77 40.71 71.32 40.35 70.84 40.03C72.88 38.95 74.59 37.7 75.97 36.28C77.35 34.84 78.48 33.32 79.36 31.72C80.24 30.1 80.92 28.48 81.4 26.86C81.9 25.22 82.26 23.66 82.48 22.18C82.7 20.7 82.84 19.38 82.9 18.22C82.96 17.06 83 16.15 83.02 15.49ZM86.11 16.18C86.13 16.54 86.17 17.14 86.23 17.98C86.31 18.8 86.44 19.79 86.62 20.95C86.82 22.11 87.11 23.37 87.49 24.73C87.87 26.09 88.37 27.49 88.99 28.93C89.61 30.35 90.39 31.75 91.33 33.13C92.27 34.49 93.39 35.75 94.69 36.91C96.01 38.05 97.56 39.03 99.34 39.85C98.9 40.19 98.48 40.58 98.08 41.02C97.7 41.46 97.39 41.87 97.15 42.25C95.33 41.37 93.73 40.3 92.35 39.04C90.99 37.78 89.82 36.41 88.84 34.93C87.88 33.45 87.07 31.94 86.41 30.4C85.77 28.86 85.25 27.35 84.85 25.87C84.47 24.39 84.18 23.02 83.98 21.76C83.78 20.48 83.64 19.38 83.56 18.46C83.48 17.54 83.42 16.87 83.38 16.45L86.11 16.18ZM114.28 21.01H128.86V23.74H114.28V21.01ZM122.86 14.71H125.86V38.86C125.86 39.76 125.74 40.43 125.5 40.87C125.28 41.33 124.9 41.67 124.36 41.89C123.8 42.13 123.06 42.28 122.14 42.34C121.22 42.42 120.12 42.46 118.84 42.46C118.76 42.06 118.62 41.57 118.42 40.99C118.24 40.43 118.05 39.95 117.85 39.55C118.75 39.57 119.62 39.59 120.46 39.61C121.3 39.61 121.85 39.6 122.11 39.58C122.39 39.58 122.58 39.53 122.68 39.43C122.8 39.33 122.86 39.14 122.86 38.86V14.71ZM122.62 22.3L124.9 23.68C124.34 25 123.67 26.33 122.89 27.67C122.11 29.01 121.24 30.31 120.28 31.57C119.34 32.83 118.35 34 117.31 35.08C116.29 36.16 115.26 37.1 114.22 37.9C113.98 37.52 113.67 37.11 113.29 36.67C112.91 36.21 112.54 35.84 112.18 35.56C113.22 34.88 114.25 34.05 115.27 33.07C116.29 32.07 117.26 30.98 118.18 29.8C119.1 28.6 119.94 27.37 120.7 26.11C121.46 24.83 122.1 23.56 122.62 22.3ZM101.62 21.01H113.29V23.71H101.62V21.01ZM106.45 14.68H109.3V42.49H106.45V14.68ZM106.33 22.75L108.25 23.44C107.97 24.66 107.61 25.92 107.17 27.22C106.73 28.52 106.25 29.79 105.73 31.03C105.21 32.27 104.65 33.43 104.05 34.51C103.45 35.59 102.82 36.51 102.16 37.27C102.02 36.85 101.79 36.38 101.47 35.86C101.17 35.32 100.9 34.86 100.66 34.48C101.26 33.8 101.84 33.01 102.4 32.11C102.98 31.21 103.52 30.24 104.02 29.2C104.52 28.14 104.97 27.06 105.37 25.96C105.77 24.86 106.09 23.79 106.33 22.75ZM109.09 24.31C109.29 24.47 109.56 24.73 109.9 25.09C110.24 25.45 110.62 25.86 111.04 26.32C111.46 26.76 111.87 27.21 112.27 27.67C112.69 28.11 113.06 28.52 113.38 28.9C113.72 29.26 113.96 29.53 114.1 29.71L112.39 32.14C112.15 31.74 111.82 31.25 111.4 30.67C110.98 30.07 110.53 29.46 110.05 28.84C109.59 28.2 109.14 27.61 108.7 27.07C108.26 26.51 107.9 26.06 107.62 25.72L109.09 24.31ZM131.26 26.74H158.86V29.86H131.26V26.74ZM169.24 16.12H180.07V18.61H169.24V16.12ZM172.24 22.45H177.7V24.94H171.46L172.24 22.45ZM170.44 29.89L171.67 27.76C172.15 28.08 172.65 28.44 173.17 28.84C173.69 29.22 174.17 29.6 174.61 29.98C175.07 30.36 175.43 30.71 175.69 31.03L174.46 33.46C174.2 33.1 173.84 32.71 173.38 32.29C172.94 31.87 172.46 31.45 171.94 31.03C171.44 30.61 170.94 30.23 170.44 29.89ZM180.07 18.1H182.59V35.53H180.07V18.1ZM185.35 15.19H187.99V39.16C187.99 39.96 187.89 40.57 187.69 40.99C187.51 41.43 187.17 41.77 186.67 42.01C186.19 42.23 185.55 42.37 184.75 42.43C183.95 42.51 182.95 42.55 181.75 42.55C181.69 42.19 181.57 41.73 181.39 41.17C181.23 40.63 181.06 40.16 180.88 39.76C181.74 39.8 182.52 39.82 183.22 39.82C183.94 39.82 184.43 39.82 184.69 39.82C184.93 39.8 185.1 39.75 185.2 39.67C185.3 39.57 185.35 39.4 185.35 39.16V15.19ZM171.88 16.99L174.58 17.38C174.38 18.72 174.12 20.1 173.8 21.52C173.5 22.94 173.13 24.34 172.69 25.72C172.25 27.1 171.72 28.41 171.1 29.65C170.48 30.89 169.76 32 168.94 32.98C168.82 32.78 168.65 32.56 168.43 32.32C168.23 32.06 168.02 31.81 167.8 31.57C167.6 31.33 167.41 31.14 167.23 31C167.95 30.12 168.57 29.12 169.09 28C169.61 26.88 170.05 25.69 170.41 24.43C170.79 23.17 171.09 21.91 171.31 20.65C171.55 19.37 171.74 18.15 171.88 16.99ZM176.62 22.45H177.13L177.61 22.33L179.23 22.84C178.67 27.72 177.61 31.81 176.05 35.11C174.49 38.41 172.55 40.9 170.23 42.58C170.11 42.34 169.94 42.08 169.72 41.8C169.5 41.52 169.27 41.25 169.03 40.99C168.81 40.73 168.61 40.53 168.43 40.39C170.61 38.89 172.4 36.69 173.8 33.79C175.22 30.87 176.16 27.28 176.62 23.02V22.45ZM166.69 14.77L169.3 15.52C168.74 17.24 168.07 18.97 167.29 20.71C166.53 22.43 165.69 24.06 164.77 25.6C163.85 27.14 162.89 28.5 161.89 29.68C161.81 29.44 161.68 29.14 161.5 28.78C161.34 28.4 161.16 28.02 160.96 27.64C160.78 27.24 160.61 26.92 160.45 26.68C161.31 25.7 162.12 24.58 162.88 23.32C163.66 22.04 164.37 20.67 165.01 19.21C165.67 17.75 166.23 16.27 166.69 14.77ZM164.29 22.54L166.84 19.96L166.9 20.02V42.52H164.29V22.54ZM204.16 16.12C204.04 16.7 203.87 17.41 203.65 18.25C203.45 19.07 203.15 20 202.75 21.04C202.41 21.88 201.99 22.74 201.49 23.62C201.01 24.5 200.51 25.3 199.99 26.02C200.33 25.82 200.72 25.66 201.16 25.54C201.62 25.4 202.08 25.3 202.54 25.24C203.02 25.16 203.45 25.12 203.83 25.12C205.03 25.12 206.04 25.47 206.86 26.17C207.68 26.85 208.09 27.84 208.09 29.14C208.09 29.54 208.09 30.03 208.09 30.61C208.09 31.19 208.1 31.8 208.12 32.44C208.14 33.08 208.15 33.71 208.15 34.33C208.17 34.95 208.18 35.49 208.18 35.95H205.33C205.35 35.57 205.37 35.13 205.39 34.63C205.41 34.11 205.42 33.57 205.42 33.01C205.44 32.45 205.45 31.91 205.45 31.39C205.45 30.87 205.45 30.41 205.45 30.01C205.43 29.11 205.16 28.46 204.64 28.06C204.12 27.66 203.51 27.46 202.81 27.46C201.91 27.46 201.01 27.67 200.11 28.09C199.23 28.51 198.47 29.02 197.83 29.62C197.41 30.04 196.97 30.52 196.51 31.06C196.07 31.6 195.6 32.19 195.1 32.83L192.52 30.91C193.9 29.61 195.07 28.37 196.03 27.19C196.99 26.01 197.78 24.89 198.4 23.83C199.04 22.75 199.54 21.73 199.9 20.77C200.22 19.95 200.48 19.12 200.68 18.28C200.88 17.42 201 16.62 201.04 15.88L204.16 16.12ZM193.42 19.15C194.22 19.27 195.1 19.36 196.06 19.42C197.02 19.46 197.86 19.48 198.58 19.48C199.92 19.48 201.37 19.45 202.93 19.39C204.49 19.33 206.06 19.23 207.64 19.09C209.24 18.95 210.75 18.75 212.17 18.49V21.28C211.11 21.42 209.98 21.55 208.78 21.67C207.58 21.79 206.36 21.89 205.12 21.97C203.88 22.03 202.69 22.08 201.55 22.12C200.41 22.14 199.37 22.15 198.43 22.15C198.01 22.15 197.51 22.15 196.93 22.15C196.37 22.13 195.78 22.1 195.16 22.06C194.56 22.02 193.98 21.99 193.42 21.97V19.15ZM216.73 26.95C216.45 27.05 216.12 27.16 215.74 27.28C215.38 27.4 215.02 27.53 214.66 27.67C214.3 27.81 213.97 27.94 213.67 28.06C212.65 28.46 211.46 28.94 210.1 29.5C208.76 30.06 207.38 30.71 205.96 31.45C205 31.95 204.17 32.45 203.47 32.95C202.77 33.45 202.22 33.97 201.82 34.51C201.44 35.05 201.25 35.64 201.25 36.28C201.25 36.8 201.37 37.22 201.61 37.54C201.85 37.86 202.18 38.11 202.6 38.29C203.04 38.45 203.56 38.57 204.16 38.65C204.78 38.71 205.47 38.74 206.23 38.74C207.43 38.74 208.79 38.67 210.31 38.53C211.83 38.39 213.25 38.2 214.57 37.96L214.48 40.99C213.76 41.07 212.92 41.15 211.96 41.23C211 41.33 210.01 41.4 208.99 41.44C207.99 41.5 207.04 41.53 206.14 41.53C204.64 41.53 203.29 41.39 202.09 41.11C200.89 40.83 199.94 40.35 199.24 39.67C198.54 38.97 198.19 38 198.19 36.76C198.19 35.78 198.41 34.9 198.85 34.12C199.31 33.32 199.9 32.6 200.62 31.96C201.36 31.32 202.18 30.73 203.08 30.19C203.98 29.65 204.87 29.16 205.75 28.72C206.69 28.22 207.56 27.79 208.36 27.43C209.18 27.05 209.94 26.71 210.64 26.41C211.36 26.11 212.03 25.81 212.65 25.51C213.17 25.29 213.66 25.08 214.12 24.88C214.58 24.66 215.04 24.43 215.5 24.19L216.73 26.95ZM228.16 23.08V25.63H241.84V23.08H228.16ZM228.16 27.97V30.55H241.84V27.97H228.16ZM228.16 18.19V20.71H241.84V18.19H228.16ZM225.4 15.67H244.72V33.07H225.4V15.67ZM236.68 31.18H239.59V38.53C239.59 38.99 239.67 39.29 239.83 39.43C240.01 39.55 240.41 39.61 241.03 39.61C241.15 39.61 241.38 39.61 241.72 39.61C242.08 39.61 242.47 39.61 242.89 39.61C243.31 39.61 243.7 39.61 244.06 39.61C244.44 39.61 244.72 39.61 244.9 39.61C245.3 39.61 245.59 39.52 245.77 39.34C245.97 39.14 246.11 38.74 246.19 38.14C246.27 37.54 246.33 36.64 246.37 35.44C246.57 35.6 246.82 35.76 247.12 35.92C247.44 36.06 247.77 36.19 248.11 36.31C248.45 36.43 248.75 36.52 249.01 36.58C248.91 38.1 248.73 39.27 248.47 40.09C248.21 40.91 247.82 41.48 247.3 41.8C246.78 42.12 246.07 42.28 245.17 42.28C245.03 42.28 244.8 42.28 244.48 42.28C244.18 42.28 243.84 42.28 243.46 42.28C243.08 42.28 242.7 42.28 242.32 42.28C241.94 42.28 241.6 42.28 241.3 42.28C241.02 42.28 240.81 42.28 240.67 42.28C239.63 42.28 238.81 42.17 238.21 41.95C237.63 41.73 237.23 41.34 237.01 40.78C236.79 40.24 236.68 39.5 236.68 38.56V31.18ZM229.42 32.08H232.48C232.32 33.42 232.07 34.65 231.73 35.77C231.41 36.87 230.9 37.85 230.2 38.71C229.5 39.57 228.54 40.32 227.32 40.96C226.12 41.62 224.57 42.16 222.67 42.58C222.59 42.34 222.46 42.06 222.28 41.74C222.1 41.44 221.9 41.13 221.68 40.81C221.46 40.51 221.25 40.27 221.05 40.09C222.73 39.75 224.09 39.34 225.13 38.86C226.19 38.38 227.01 37.82 227.59 37.18C228.17 36.52 228.59 35.77 228.85 34.93C229.11 34.09 229.3 33.14 229.42 32.08ZM256.9 17.56C257.28 17.6 257.68 17.63 258.1 17.65C258.54 17.67 258.94 17.68 259.3 17.68C259.6 17.68 260.08 17.68 260.74 17.68C261.42 17.66 262.18 17.64 263.02 17.62C263.88 17.6 264.73 17.58 265.57 17.56C266.41 17.52 267.16 17.48 267.82 17.44C268.5 17.4 269 17.37 269.32 17.35C269.86 17.31 270.27 17.27 270.55 17.23C270.85 17.19 271.08 17.14 271.24 17.08L272.89 19.24C272.59 19.44 272.28 19.64 271.96 19.84C271.64 20.04 271.32 20.27 271 20.53C270.62 20.81 270.12 21.2 269.5 21.7C268.9 22.18 268.25 22.72 267.55 23.32C266.85 23.9 266.16 24.47 265.48 25.03C264.8 25.59 264.19 26.09 263.65 26.53C264.25 26.33 264.85 26.2 265.45 26.14C266.05 26.06 266.65 26.02 267.25 26.02C268.91 26.02 270.4 26.34 271.72 26.98C273.04 27.62 274.08 28.48 274.84 29.56C275.6 30.64 275.98 31.89 275.98 33.31C275.98 34.89 275.56 36.3 274.72 37.54C273.9 38.78 272.7 39.75 271.12 40.45C269.56 41.15 267.66 41.5 265.42 41.5C264.04 41.5 262.83 41.31 261.79 40.93C260.75 40.55 259.94 40.02 259.36 39.34C258.8 38.64 258.52 37.84 258.52 36.94C258.52 36.2 258.72 35.51 259.12 34.87C259.54 34.21 260.12 33.69 260.86 33.31C261.62 32.91 262.49 32.71 263.47 32.71C264.83 32.71 265.96 32.99 266.86 33.55C267.78 34.09 268.48 34.81 268.96 35.71C269.46 36.61 269.73 37.59 269.77 38.65L267.04 39.04C266.98 37.84 266.63 36.86 265.99 36.1C265.37 35.34 264.53 34.96 263.47 34.96C262.83 34.96 262.3 35.13 261.88 35.47C261.48 35.81 261.28 36.21 261.28 36.67C261.28 37.33 261.61 37.85 262.27 38.23C262.95 38.61 263.82 38.8 264.88 38.8C266.58 38.8 268.03 38.59 269.23 38.17C270.43 37.73 271.34 37.1 271.96 36.28C272.58 35.44 272.89 34.43 272.89 33.25C272.89 32.31 272.61 31.47 272.05 30.73C271.49 29.99 270.72 29.42 269.74 29.02C268.76 28.6 267.64 28.39 266.38 28.39C265.18 28.39 264.08 28.53 263.08 28.81C262.1 29.07 261.18 29.46 260.32 29.98C259.46 30.48 258.61 31.11 257.77 31.87C256.95 32.61 256.1 33.46 255.22 34.42L253.03 32.2C253.63 31.72 254.29 31.18 255.01 30.58C255.73 29.98 256.45 29.38 257.17 28.78C257.91 28.16 258.6 27.58 259.24 27.04C259.9 26.48 260.45 26.02 260.89 25.66C261.31 25.32 261.82 24.91 262.42 24.43C263.02 23.93 263.64 23.41 264.28 22.87C264.92 22.33 265.53 21.82 266.11 21.34C266.69 20.84 267.17 20.42 267.55 20.08C267.23 20.1 266.79 20.12 266.23 20.14C265.67 20.16 265.05 20.19 264.37 20.23C263.71 20.25 263.04 20.28 262.36 20.32C261.68 20.34 261.06 20.37 260.5 20.41C259.94 20.43 259.51 20.45 259.21 20.47C258.85 20.49 258.47 20.52 258.07 20.56C257.69 20.58 257.33 20.61 256.99 20.65L256.9 17.56Z" fill="black"/>
</svg>
