<?xml version="1.0" encoding="utf-8"?>
<!-- Generator: Adobe Illustrator 27.7.0, SVG Export Plug-In . SVG Version: 6.00 Build 0)  -->
<svg version="1.1" id="レイヤー_1" xmlns="http://www.w3.org/2000/svg" xmlns:xlink="http://www.w3.org/1999/xlink" x="0px"
	 y="0px" viewBox="0 0 150 150" style="enable-background:new 0 0 150 150;" xml:space="preserve">
<style type="text/css">
	.st0{fill:#FFFFFF;}
</style>
<path class="st0" d="M133.9,44.6c-1.2-6.5-6.5-11.4-12.9-12.3c-10.5-1.5-27.1-3.4-46.1-3.4c-19.1,0-36,1.8-46.1,3.4
	c-6.5,0.9-11.7,5.8-12.9,12.3c-1.2,7.1-2.5,17.5-2.5,30.4c0,12.9,1.2,23.4,2.5,30.4c1.2,6.5,6.5,11.4,12.9,12.3
	c10.5,1.5,27.4,3.4,46.1,3.4c19.1,0,36-1.8,46.1-3.4c6.5-0.9,11.7-5.8,12.9-12.3c1.2-7.1,2.5-17.5,2.8-30.4
	C136.7,62.1,135.1,51.6,133.9,44.6z M62.5,96.5V53.5L99.4,75L62.5,96.5z"/>
</svg>
