<svg width="363" height="158" viewBox="0 0 363 158" fill="none" xmlns="http://www.w3.org/2000/svg">
<mask id="path-1-outside-1_279_2" maskUnits="userSpaceOnUse" x="0" y="0" width="363" height="158" fill="black">
<rect fill="white" width="363" height="158"/>
<path d="M359 154H4V4H359V154Z"/>
</mask>
<path d="M359 154H4V4H359V154Z" fill="url(#paint0_linear_279_2)"/>
<path d="M359 154V158H363V154H359ZM4 154H0V158H4V154ZM4 4V0H0V4H4ZM359 4H363V0H359V4ZM359 154V150H4V154V158H359V154ZM4 154H8V4H4H0V154H4ZM4 4V8H359V4V0H4V4ZM359 4H355V154H359H363V4H359Z" fill="white" mask="url(#path-1-outside-1_279_2)"/>
<mask id="mask0_279_2" style="mask-type:alpha" maskUnits="userSpaceOnUse" x="221" y="28" width="134" height="126">
<rect x="221.091" y="28" width="133.636" height="126" fill="#D9D9D9"/>
</mask>
<g mask="url(#mask0_279_2)">
<path d="M246.994 172.082L242.873 157.772C242.873 157.772 235.776 100.075 236.232 98.4738C236.687 96.8723 240.125 95.2708 243.328 93.8971C245.304 93.0523 251.225 89.4307 252.944 88.6299C254.663 87.8292 261.304 84.0533 262.906 83.9358C264.507 83.8182 265.426 85.3095 265.426 85.3095C267.145 83.5905 269.436 83.2526 269.436 83.2526L296.169 87.2048C296.169 87.2048 302.009 89.607 310.075 93.9045C314.696 96.3654 313.337 95.2782 314.365 95.9614C315.394 96.6446 317.282 97.6804 319.001 98.5399C320.72 99.3994 326.083 101.757 328.272 103.69C331.188 106.268 332.224 111.587 332.393 112.446C332.562 113.306 333.598 118.286 333.598 118.286C333.598 118.286 338.064 122.576 338.747 123.781C339.43 124.986 341.84 136.145 343.037 140.266C344.242 144.387 346.982 150.227 348.363 152.46C349.737 154.694 348.194 157.096 348.194 157.096L325.524 172.097H246.994V172.082Z" fill="#E6E6E6"/>
<path d="M265.425 85.3094C265.425 85.3094 263.823 89.7759 265.307 93.7795C266.798 97.7832 269.201 101.677 269.201 101.677" fill="#DCDDDD"/>
<path d="M265.425 85.3094C265.425 85.3094 263.823 89.7759 265.307 93.7795C266.798 97.7832 269.201 101.677 269.201 101.677" stroke="#727171" stroke-width="0.3" stroke-linecap="round" stroke-linejoin="round"/>
<path d="M301.26 76.1561C300.694 77.0082 298.057 79.359 297.594 85.1992C297.175 90.5619 300.687 95.043 300.687 95.043C300.687 95.043 290.843 103.631 286.604 103.285C282.366 102.94 269.774 87.1459 269.774 87.1459C269.774 87.1459 271.721 78.786 270.575 68.5969C270.575 68.5969 288.088 69.7429 293.128 72.0276C298.167 74.3196 301.253 76.1487 301.253 76.1487L301.26 76.1561Z" fill="#F9D0BA"/>
<path d="M276.005 70.4189C276.005 70.4189 277.665 75.98 279.494 78.2132C281.757 80.968 284.181 83.7816 284.791 85.361C285.401 86.9404 289.199 89.4601 289.199 89.4601L297.867 79.9616L276.005 70.4189Z" fill="#F7BB9E"/>
<path d="M270.707 80.8061C270.707 80.8061 269.76 81.4893 269.077 82.3047C268.18 83.3772 266.461 88.9162 266.799 91.3184C267.1 93.4047 276.188 110.492 276.415 112.901C276.415 112.901 280.882 109.125 282.829 108.435C284.775 107.752 287.295 103.285 287.295 103.285C287.295 103.285 283.402 99.7371 279.398 95.9612C275.394 92.1852 270.48 86.7565 270.369 83.6711L270.715 80.8061H270.707Z" fill="#E6E6E6"/>
<path d="M281.911 130.474C281.911 130.474 284.49 130.642 285.606 128.843L286.209 127.381C286.209 127.381 287.237 128.586 286.554 129.614C285.863 130.642 283.116 135.278 283.116 135.278L281.911 130.466V130.474Z" stroke="#727171" stroke-width="0.3" stroke-linecap="round" stroke-linejoin="round"/>
<path d="M315.571 124.633C315.571 124.633 323.468 114.158 329.309 111.756L315.571 124.633Z" fill="#DCDDDD"/>
<path d="M315.571 124.633C315.571 124.633 323.468 114.158 329.309 111.756" stroke="#727171" stroke-width="0.3" stroke-linecap="round" stroke-linejoin="round"/>
<path d="M314.534 126.698C314.534 126.698 316.767 114.848 321.748 110.896L314.534 126.698Z" fill="#DCDDDD"/>
<path d="M313.336 96.1304C313.336 96.1304 311.103 98.8778 309.561 104.718" stroke="#727171" stroke-width="0.3" stroke-linecap="round" stroke-linejoin="round"/>
<path d="M323.122 134.249C323.122 134.249 331.533 127.381 335.486 127.212L323.122 134.249Z" fill="#DCDDDD"/>
<path d="M323.122 134.249C323.122 134.249 331.533 127.381 335.486 127.212" stroke="#727171" stroke-width="0.3" stroke-linecap="round" stroke-linejoin="round"/>
<path d="M289.352 112.439C289.352 112.439 293.245 125.03 294.391 131.671C295.537 138.312 296.455 172.082 296.455 172.082H277.679C277.679 172.082 277.451 147.237 278.362 140.831C279.28 134.418 285.23 109.691 285.23 109.691L289.352 112.439Z" fill="#7694BD"/>
<path d="M333.597 118.279C333.597 118.279 332.223 124.802 329.99 126.867C329.99 126.867 334.28 123.429 334.795 121.717" fill="#DCDDDD"/>
<path d="M276.158 72.4906C276.158 72.4906 279.89 76.3032 282.887 78.5438C285.48 80.4831 289.021 80.2407 290.556 79.9983C292.091 79.7559 294.486 79.7926 297.939 80.0497C301.032 80.2775 303.419 71.3593 303.889 69.0599C304.359 66.7606 304.235 65.5117 304.124 63.7854C303.963 61.2804 302.861 58.1876 304.301 54.2868C305.19 51.87 302.633 47.308 301.649 45.1482C300.76 43.2015 296.852 38.4339 296.852 38.4339C296.852 38.4339 294.685 37.2805 291.731 36.9206C288.778 36.5606 278.751 37.7654 275.328 39.9472C271.904 42.1216 267.658 47.9324 268.011 51.2015C268.363 54.4705 268.958 57.9746 268.958 57.9746C268.958 57.9746 268.841 57.6146 270.024 68.3767" fill="#F9D0BA"/>
<path d="M296.457 34.2832C296.104 34.4081 295.392 33.409 295.392 32.7846C295.392 32.1602 294.569 31.5357 293.974 32.285C293.386 33.0343 291.851 32.6597 291.851 32.6597C292.204 32.0353 291.968 31.286 291.968 31.286C291.733 32.4099 289.845 32.5348 289.845 32.5348C290.316 31.9104 290.08 31.0362 290.08 31.0362C289.845 32.4099 287.127 33.2768 287.127 33.2768C287.127 33.2768 287.597 32.2777 287.95 31.5284C288.303 30.7791 285.474 32.2777 285.474 32.2777V31.6533C284.409 31.5284 281.581 31.6533 280.163 32.2777C278.745 32.9021 278.275 33.1519 278.275 33.1519L278.745 32.1528C278.745 32.1528 275.792 33.6514 274.264 35.1427C272.729 36.6413 270.018 37.7579 268.365 39.0067C267.058 39.9911 266.83 41.7469 266.83 41.7469C263.884 43.9874 264.002 50.9663 264.112 54.8303C264.2 57.6953 265.647 63.0506 265.765 62.6833C265.882 62.316 267.418 59.5686 268.358 59.4437C269.298 59.3188 270.599 62.0589 270.951 62.5585C271.304 63.058 272.604 61.5594 272.604 61.5594C272.604 61.5594 272.839 58.5695 272.839 57.8202C272.839 57.0709 273.427 54.4557 274.61 52.9644C275.792 51.4658 276.968 46.8598 276.968 46.8598C276.968 46.8598 276.027 45.8607 275.315 45.6109C274.61 45.3612 274.492 45.1114 274.492 45.1114L275.91 44.2372L273.552 44.487L276.027 43.4879C276.027 43.4879 277.754 41.2694 278.466 40.6449C279.171 40.0205 282.631 38.4999 284.402 38.2501C286.172 38.0003 288.178 38.4999 289.831 38.7496C291.484 38.9994 294.547 39.1243 295.377 38.8745C295.377 38.8745 299.388 39.1243 300.453 37.1335C300.453 37.1335 299.506 37.7579 298.448 37.633C298.448 37.633 300.101 37.1335 300.218 35.7671C300.218 35.7671 298.565 36.3915 298.213 35.7671C297.86 35.1427 298.565 34.1436 298.095 34.1436C297.625 34.1436 296.442 34.2685 296.442 34.2685L296.457 34.2832Z" fill="#4F423C" stroke="#727171" stroke-width="0.3" stroke-linecap="round" stroke-linejoin="round"/>
<path d="M270.965 62.5659C270.965 62.5659 269.195 59.0545 267.659 59.1793C266.124 59.3042 264.589 61.7211 264.831 64.0204C265.066 66.3198 266.484 68.8615 267.072 69.9488C267.659 71.036 268.724 72.1232 270.495 72.4905C272.265 72.8505 274.036 73.3353 273.683 71.036" fill="#F9D0BA"/>
<path d="M272.737 68.979C272.737 68.979 272.384 68.1342 270.143 67.8918C267.903 67.6494 267.19 67.1645 266.603 65.8349C266.015 64.5052 265.42 61.8386 266.603 61.1187C267.785 60.3914 269.556 61.6035 269.556 61.6035" fill="#F8C5AC"/>
<path d="M272.737 68.979C272.737 68.979 272.384 68.1342 270.143 67.8918C267.903 67.6494 267.19 67.1645 266.603 65.8349C266.015 64.5052 265.42 61.8386 266.603 61.1187C267.785 60.3914 269.556 61.6035 269.556 61.6035" stroke="#727171" stroke-width="0.3" stroke-linecap="round" stroke-linejoin="round"/>
<path d="M269.548 63.4108C269.548 63.4108 267.425 62.1987 267.189 65.3502" stroke="#727171" stroke-width="0.3" stroke-linecap="round" stroke-linejoin="round"/>
<path d="M270.847 63.7779C270.847 63.7779 270.142 65.5924 270.73 66.4372C271.318 67.282 272.265 67.8917 272.265 67.8917" fill="#F9D0BA"/>
<path d="M270.847 63.7779C270.847 63.7779 270.142 65.5924 270.73 66.4372C271.318 67.282 272.265 67.8917 272.265 67.8917" stroke="#727171" stroke-width="0.3" stroke-linecap="round" stroke-linejoin="round"/>
<path d="M292.086 37.8975C292.086 37.8975 295.377 40.7405 300.431 38.8672C300.431 38.8672 297.221 39.6973 296.163 37.3833" fill="#4F423C"/>
<path d="M292.086 37.8975C292.086 37.8975 295.377 40.7405 300.431 38.8672C300.431 38.8672 297.221 39.6973 296.163 37.3833" stroke="#727171" stroke-width="0.3" stroke-linecap="round" stroke-linejoin="round"/>
<path d="M297.111 72.2628C297.111 72.2628 297.883 70.7201 298.654 71.4033C299.425 72.0938 300.028 76.0387 300.116 76.4721C300.204 76.8982 301.233 76.4721 301.49 77.934C301.747 79.3959 302.518 83.4289 302.694 84.7145C302.863 86.0001 302.863 87.1167 302.863 88.7475C302.863 90.3784 303.811 92.9569 303.98 94.5877C304.149 96.2186 304.237 99.7373 304.068 102.742C303.899 105.746 304.068 110.382 305.097 112.703C306.125 115.025 308.615 116.398 308.872 117.941C309.13 119.484 310.547 121.761 311.231 122.709C311.921 123.656 315.139 127.733 315.139 127.733L303.98 134.176C303.98 134.176 296.597 121.644 295.649 120.527C294.702 119.41 293.842 118.206 292.902 117.434C291.954 116.663 291.183 117.265 290.845 110.823C290.5 104.38 297.111 72.2702 297.111 72.2702V72.2628Z" fill="#F9D0BA"/>
<path d="M307.784 131.333C307.784 131.333 303.317 125.838 300.797 121.489C298.278 117.14 298.278 116.795 298.623 115.649C298.968 114.503 298.05 111.756 298.278 110.5C298.505 109.243 299.769 108.553 299.997 107.87C300.224 107.186 299.196 106.613 299.196 104.894C299.196 103.175 299.078 98.4813 299.651 96.5346C300.224 94.5878 300.452 90.3491 300.342 89.4382C300.224 88.5199 299.769 83.9433 300.114 82.1141C300.46 80.2849 299.196 77.9929 299.196 77.9929C299.196 77.9929 297.08 73.6734 296.882 74.8047C295.449 82.812 290.902 105.262 291.189 110.536C291.534 116.979 292.305 116.376 293.253 117.148C294.201 117.919 295.053 119.124 296 120.241C296.823 121.21 302.516 130.826 303.986 133.309L307.791 131.348L307.784 131.333Z" fill="#F8C5AC"/>
<path d="M296.109 116.678C296.109 116.678 299.312 117.596 301.604 115.076" stroke="#727171" stroke-width="0.3" stroke-linecap="round" stroke-linejoin="round"/>
<path d="M300.115 76.4645C300.115 76.4645 299.087 76.4645 299.168 79.3001C299.256 82.1358 298.822 84.2808 298.741 85.3093C298.653 86.3377 298.999 86.852 298.91 87.7996C298.822 88.7473 298.565 91.0613 298.484 91.4066" stroke="#727171" stroke-width="0.3" stroke-linecap="round" stroke-linejoin="round"/>
<path d="M297.536 91.5757C297.536 91.5757 298.219 91.4875 298.998 91.7446C299.769 92.0018 300.629 92.2589 301.143 92.6041" stroke="#727171" stroke-width="0.3" stroke-linecap="round" stroke-linejoin="round"/>
<path d="M269.805 124.891C269.805 124.891 277.93 115.532 279.076 112.439C280.222 109.346 282.139 99.7301 282.823 97.1002C283.506 94.4703 284.542 91.3775 285.225 88.6301C285.915 85.8826 286.114 85.0966 286.797 84.0681C287.48 83.0397 291.058 79.2491 291.058 79.2491C291.058 79.2491 292.27 75.9507 292.659 75.2454C293.401 73.9011 294.378 73.7542 294.378 73.7542C294.378 73.7542 295.23 70.8157 296.097 70.8892C297.052 70.9773 298.132 71.8736 297.926 75.6935C297.816 77.7578 297.008 79.3593 297.008 79.3593C297.008 79.3593 298.169 76.8542 299.072 77.4125C299.476 77.6623 300.321 78.9993 298.984 82.474C298.984 82.474 298.426 85.8239 297.912 86.8082C297.574 87.4474 297.522 90.9588 296.839 92.5603C296.839 92.5603 297.125 96.7549 296.78 99.7301C296.435 102.705 295.289 112.211 294.378 114.158C293.46 116.105 291.976 115.987 291.285 116.56C290.602 117.133 286.62 126.661 285.592 128.835C284.564 131.01 281.559 135.102 281.559 135.102L269.798 124.883L269.805 124.891Z" fill="#F9D0BA"/>
<path d="M297.02 79.3591C297.02 79.3591 295.647 81.438 295.301 82.3489C294.956 83.2672 293.928 86.1102 293.472 87.2562C293.017 88.4022 292.326 91.2598 292.098 91.9503C291.871 92.6409 291.525 92.9788 291.525 92.9788" stroke="#727171" stroke-width="0.3" stroke-linecap="round" stroke-linejoin="round"/>
<path d="M294.391 73.7468C294.391 73.7468 293.34 76.7514 292.643 78.1839C291.827 79.8588 291.643 80.9607 291.07 82.2169C290.497 83.4731 289.682 86.4777 288.999 87.9689C288.382 89.2986 287.992 90.092 287.412 90.6723" stroke="#727171" stroke-width="0.3" stroke-linecap="round" stroke-linejoin="round"/>
<path d="M291.072 79.2416C291.072 79.2416 289.008 83.4804 288.552 84.2811C288.097 85.0818 287.061 87.7117 286.606 88.63C286.15 89.5483 285.688 90.1213 285.688 90.1213" stroke="#727171" stroke-width="0.3" stroke-linecap="round" stroke-linejoin="round"/>
<path d="M345.279 154.856C345.279 154.856 343.391 151.594 342.017 149.361C340.644 147.127 334.289 141.464 332.401 139.576C330.513 137.688 327.766 135.969 325.878 135.454C323.99 134.94 321.066 133.052 321.066 133.052C321.066 133.052 314.881 124.465 314.029 123.091C313.169 121.717 310.326 121.284 310.326 121.284L312.655 124.634C312.655 124.634 309.562 128.064 309.048 130.128C309.048 130.128 303.171 130.297 301.797 130.474L300.255 127.858C300.255 127.858 298.925 129.622 299.608 130.65C300.299 131.678 305.794 142.154 305.963 142.845C305.963 142.845 305.617 147.311 306.132 149.882C306.646 152.461 311.112 163.619 312.31 166.198C313.515 168.776 317.974 171.348 322.616 173.412C327.252 175.469 332.923 175.469 335.839 174.786C338.756 174.102 343.736 169.981 345.455 166.198C347.174 162.422 348.203 157.096 348.203 157.096" fill="#E6E6E6"/>
<path d="M322.262 136.314C322.262 136.314 336.344 146.444 338.063 150.734C338.063 150.734 331.878 146.268 328.792 142.492" fill="#DCDDDD"/>
<path d="M309.041 130.128C309.041 130.128 306.984 135.454 308.358 136.997C309.731 138.54 313.507 141.978 314.367 143.52C315.226 145.063 316.255 149.361 317.114 151.417C317.974 153.482 322.954 165.324 322.954 165.324" stroke="#727171" stroke-width="0.3" stroke-linecap="round" stroke-linejoin="round"/>
<path d="M314.534 143.006C314.534 143.006 317.796 140.604 319.001 138.885C320.205 137.166 321.058 134.595 321.058 134.595" stroke="#727171" stroke-width="0.3" stroke-linecap="round" stroke-linejoin="round"/>
<path d="M305.953 142.323C305.953 142.323 309.391 144.725 311.962 143.866" stroke="#727171" stroke-width="0.3" stroke-linecap="round" stroke-linejoin="round"/>
<path d="M317.289 165.676C317.289 165.676 312.308 156.06 310.589 153.827C308.87 151.594 307.842 144.556 307.842 144.556C307.842 144.556 307.842 151.77 309.039 153.658C310.244 155.546 310.927 157.434 310.927 157.434" fill="#DCDDDD"/>
<path d="M321.748 139.399C321.748 139.399 324.327 144.725 324.841 149.874C325.355 155.024 322.953 144.034 322.953 144.034" fill="#DCDDDD"/>
<path d="M321.748 139.399C321.748 139.399 324.327 144.725 324.841 149.874C325.355 155.024 322.953 144.034 322.953 144.034" stroke="#727171" stroke-width="0.3" stroke-linecap="round" stroke-linejoin="round"/>
<path d="M311.463 137.173C312.073 137.269 312.676 136.659 312.822 135.792C312.962 134.933 312.58 134.154 311.97 134.058C311.361 133.956 310.751 134.573 310.619 135.44C310.479 136.299 310.861 137.078 311.463 137.173Z" fill="white" stroke="#727171" stroke-width="0.3" stroke-linecap="round" stroke-linejoin="round"/>
<path d="M320.737 154.349C321.347 154.444 321.957 153.827 322.096 152.967C322.236 152.108 321.854 151.329 321.252 151.234C320.642 151.138 320.032 151.755 319.9 152.615C319.76 153.474 320.142 154.253 320.745 154.356L320.737 154.349Z" fill="white" stroke="#727171" stroke-width="0.3" stroke-linecap="round" stroke-linejoin="round"/>
<path d="M236.233 98.4738C239.149 99.1643 246.708 105.225 248.082 107.12C249.456 109.008 253.408 120.174 253.408 120.174C253.408 120.174 253.922 120.857 255.465 122.231C257.008 123.605 255.465 126.867 255.465 126.867C255.465 126.867 257.353 128.409 258.558 130.474C259.763 132.538 256.156 134.426 256.156 134.426C256.156 134.426 260.446 134.08 261.482 134.08C262.517 134.08 264.06 131.333 264.06 131.333C265.265 129.614 271.957 120.343 271.957 120.343C272.64 119.484 272.905 119.998 272.905 119.998C272.905 119.998 277.974 124.376 280.288 126.264C282.609 128.152 284.064 130.731 284.409 132.185C284.754 133.647 284.578 134.764 283.38 136.563C282.176 138.363 281.404 140.339 280.288 142.227C279.171 144.115 278.488 144.718 278.488 144.718C278.488 144.718 278.488 146.517 277.459 148.068C276.431 149.61 274.624 152.446 273.081 154.767C271.538 157.081 268.446 161.805 267.16 164.64C265.875 167.476 260.637 174.859 258.404 176.402C256.17 177.944 255.311 177.004 255.311 177.004C255.311 177.004 253.423 177.004 251.88 177.173C250.337 177.342 245.18 175.63 244.409 175.542C244.409 175.542 244.497 176.482 242.521 175.711C240.545 174.94 236.857 172.875 234.712 170.987C232.567 169.1 228.439 162.804 228.013 158.279C227.755 155.531 228.013 154.157 229.041 153.812C230.07 153.467 227.153 143.682 226.639 139.561C226.125 135.44 226.294 126.683 226.639 125.309C226.984 123.935 227.844 124.45 228.182 122.907C228.527 121.364 226.463 116.553 227.322 113.636C228.182 110.72 229.901 104.365 231.098 101.956C232.303 99.5537 236.248 98.4664 236.248 98.4664L236.233 98.4738Z" fill="#E6E6E6"/>
<path d="M253.408 120.167C253.408 120.167 242.419 111.41 240.016 107.289C237.614 103.168 237.614 102.308 237.614 102.308" fill="#DCDDDD"/>
<path d="M253.408 120.167C253.408 120.167 242.419 111.41 240.016 107.289C237.614 103.168 237.614 102.308 237.614 102.308" stroke="#727171" stroke-width="0.3" stroke-linecap="round" stroke-linejoin="round"/>
<path d="M255.463 126.866C255.463 126.866 244.128 119.483 240.866 115.7L255.463 126.866Z" fill="#DCDDDD"/>
<path d="M256.155 134.418C256.155 134.418 253.922 134.764 252.38 136.821C251.865 137.504 247.575 140.942 247.575 140.942L247.406 143.689C247.406 143.689 245.518 146.606 244.49 147.296C241.03 149.603 238.628 154.216 237.452 156.567C235.733 159.998 235.733 167.902 237.797 170.65" stroke="#727171" stroke-width="0.3" stroke-linecap="round" stroke-linejoin="round"/>
<path d="M255.766 136.527C255.766 136.527 260.915 137.041 264.522 134.984C264.522 134.984 262.12 137.217 260.57 137.562C259.027 137.908 256.963 137.394 256.963 137.394" fill="#DCDDDD"/>
<path d="M259.763 142.837C259.763 142.837 265.258 138.202 267.836 137.173L263.884 141.295" fill="#DCDDDD"/>
<path d="M278.48 144.725C278.48 144.725 272.816 141.978 271.78 140.09C270.752 138.202 265.257 134.595 265.257 134.595" stroke="#727171" stroke-width="0.3" stroke-linecap="round" stroke-linejoin="round"/>
<path d="M244.996 148.846C244.996 148.846 240.185 162.238 240.185 164.986C240.185 167.733 241.558 172.545 244.306 174.602C244.306 174.602 241.727 169.621 241.727 166.528" fill="#DCDDDD"/>
<path d="M229.195 153.312C229.195 153.312 236.409 146.613 239.495 139.575L229.195 153.312Z" fill="#DCDDDD"/>
<path d="M229.195 153.312C229.195 153.312 236.409 146.613 239.495 139.575" stroke="#727171" stroke-width="0.3" stroke-linecap="round" stroke-linejoin="round"/>
<path d="M227.99 123.429C227.99 123.429 232.111 119.822 234.859 120.167" stroke="#727171" stroke-width="0.3" stroke-linecap="round" stroke-linejoin="round"/>
<path d="M267.829 138.885C267.829 138.885 270.577 145.754 270.577 148.501L267.829 138.885Z" fill="#DCDDDD"/>
<path d="M267.829 138.885C267.829 138.885 270.577 145.754 270.577 148.501" stroke="#727171" stroke-width="0.3" stroke-linecap="round" stroke-linejoin="round"/>
<path d="M280.802 137.019C281.536 137.019 282.139 136.321 282.146 135.447C282.146 134.573 281.558 133.867 280.824 133.86C280.089 133.86 279.487 134.558 279.479 135.432C279.479 136.306 280.067 137.011 280.802 137.019Z" fill="white" stroke="#727171" stroke-width="0.3" stroke-linecap="round" stroke-linejoin="round"/>
<path d="M270.237 154.855C270.972 154.855 271.574 154.157 271.582 153.283C271.582 152.409 270.994 151.704 270.259 151.697C269.525 151.697 268.922 152.394 268.915 153.269C268.915 154.143 269.503 154.848 270.237 154.855Z" fill="white" stroke="#727171" stroke-width="0.3" stroke-linecap="round" stroke-linejoin="round"/>
</g>
<path d="M44.768 59.112H58.376V61.344H44.768V59.112ZM45.728 47.4H57.848V49.608H45.728V47.4ZM50.624 39.936H52.952V60.192H50.624V39.936ZM36.272 44.232H44.192V46.296H36.272V44.232ZM39.92 51.84L42.176 49.152V62.04H39.92V51.84ZM39.92 39.744H42.176V45.216H39.92V39.744ZM41.936 49.776C42.16 49.92 42.464 50.16 42.848 50.496C43.248 50.832 43.672 51.2 44.12 51.6C44.584 51.984 45 52.344 45.368 52.68C45.752 53 46.032 53.24 46.208 53.4L44.816 55.248C44.592 54.96 44.304 54.624 43.952 54.24C43.6 53.84 43.216 53.432 42.8 53.016C42.4 52.6 42.008 52.208 41.624 51.84C41.256 51.456 40.944 51.152 40.688 50.928L41.936 49.776ZM43.376 44.232H43.808L44.24 44.136L45.512 44.976C44.904 46.48 44.12 47.92 43.16 49.296C42.2 50.672 41.144 51.92 39.992 53.04C38.856 54.144 37.704 55.064 36.536 55.8C36.472 55.592 36.368 55.352 36.224 55.08C36.096 54.808 35.96 54.544 35.816 54.288C35.672 54.032 35.536 53.84 35.408 53.712C36.512 53.088 37.584 52.304 38.624 51.36C39.664 50.4 40.6 49.344 41.432 48.192C42.264 47.024 42.912 45.848 43.376 44.664V44.232ZM69.68 49.896L71.408 48.648C71.968 49.16 72.568 49.712 73.208 50.304C73.864 50.896 74.496 51.496 75.104 52.104C75.728 52.712 76.304 53.304 76.832 53.88C77.376 54.44 77.832 54.944 78.2 55.392L76.328 56.88C75.992 56.416 75.56 55.896 75.032 55.32C74.52 54.728 73.96 54.12 73.352 53.496C72.76 52.856 72.144 52.232 71.504 51.624C70.864 51 70.256 50.424 69.68 49.896ZM69.848 39.744H72.2V44.904C72.2 45.688 72.152 46.504 72.056 47.352C71.96 48.2 71.784 49.064 71.528 49.944C71.272 50.824 70.888 51.696 70.376 52.56C69.88 53.408 69.232 54.232 68.432 55.032C67.632 55.832 66.648 56.576 65.48 57.264C65.384 57.104 65.24 56.92 65.048 56.712C64.856 56.488 64.656 56.272 64.448 56.064C64.24 55.856 64.04 55.688 63.848 55.56C64.984 54.952 65.92 54.304 66.656 53.616C67.392 52.912 67.976 52.192 68.408 51.456C68.84 50.704 69.16 49.952 69.368 49.2C69.576 48.432 69.704 47.688 69.752 46.968C69.816 46.232 69.848 45.536 69.848 44.88V39.744ZM61.256 43.8H79.568V46.032H63.536V62.064H61.256V43.8ZM78.56 43.8H80.792V59.256C80.792 59.912 80.704 60.424 80.528 60.792C80.368 61.16 80.056 61.44 79.592 61.632C79.144 61.808 78.536 61.912 77.768 61.944C77.016 61.992 76.104 62.016 75.032 62.016C75 61.808 74.944 61.56 74.864 61.272C74.784 61 74.688 60.728 74.576 60.456C74.48 60.184 74.376 59.944 74.264 59.736C74.792 59.752 75.304 59.768 75.8 59.784C76.312 59.8 76.76 59.808 77.144 59.808C77.528 59.792 77.8 59.784 77.96 59.784C78.184 59.768 78.336 59.72 78.416 59.64C78.512 59.56 78.56 59.416 78.56 59.208V43.8ZM93.848 43.536C94.552 43.648 95.344 43.728 96.224 43.776C97.12 43.824 98.04 43.84 98.984 43.824C99.928 43.808 100.832 43.776 101.696 43.728C102.56 43.68 103.304 43.616 103.928 43.536V45.984C103.24 46.048 102.464 46.104 101.6 46.152C100.736 46.184 99.84 46.2 98.912 46.2C98 46.2 97.104 46.184 96.224 46.152C95.344 46.104 94.56 46.048 93.872 45.984L93.848 43.536ZM95.216 53.52C95.12 53.936 95.04 54.312 94.976 54.648C94.928 54.984 94.904 55.32 94.904 55.656C94.904 55.928 94.96 56.184 95.072 56.424C95.2 56.664 95.4 56.872 95.672 57.048C95.96 57.224 96.344 57.368 96.824 57.48C97.32 57.576 97.928 57.624 98.648 57.624C99.736 57.624 100.752 57.576 101.696 57.48C102.656 57.368 103.632 57.2 104.624 56.976L104.672 59.544C103.92 59.688 103.04 59.808 102.032 59.904C101.04 59.984 99.896 60.024 98.6 60.024C96.568 60.024 95.064 59.696 94.088 59.04C93.128 58.368 92.648 57.448 92.648 56.28C92.648 55.848 92.68 55.4 92.744 54.936C92.808 54.456 92.912 53.92 93.056 53.328L95.216 53.52ZM89.672 41.808C89.624 41.952 89.56 42.144 89.48 42.384C89.416 42.608 89.352 42.84 89.288 43.08C89.24 43.304 89.2 43.488 89.168 43.632C89.088 44.032 88.992 44.52 88.88 45.096C88.784 45.656 88.68 46.272 88.568 46.944C88.472 47.6 88.376 48.272 88.28 48.96C88.2 49.632 88.128 50.288 88.064 50.928C88.016 51.568 87.992 52.152 87.992 52.68C87.992 53.096 88 53.52 88.016 53.952C88.048 54.368 88.088 54.8 88.136 55.248C88.28 54.928 88.424 54.592 88.568 54.24C88.712 53.872 88.856 53.512 89 53.16C89.144 52.808 89.28 52.488 89.408 52.2L90.608 53.16C90.4 53.752 90.176 54.408 89.936 55.128C89.696 55.848 89.48 56.536 89.288 57.192C89.112 57.832 88.984 58.352 88.904 58.752C88.872 58.912 88.84 59.104 88.808 59.328C88.776 59.536 88.768 59.712 88.784 59.856C88.784 59.968 88.784 60.104 88.784 60.264C88.8 60.44 88.816 60.6 88.832 60.744L86.648 60.888C86.408 60.056 86.2 58.96 86.024 57.6C85.848 56.24 85.76 54.752 85.76 53.136C85.76 52.24 85.8 51.336 85.88 50.424C85.96 49.496 86.056 48.6 86.168 47.736C86.28 46.872 86.392 46.08 86.504 45.36C86.632 44.64 86.728 44.04 86.792 43.56C86.84 43.256 86.88 42.928 86.912 42.576C86.96 42.224 86.992 41.888 87.008 41.568L89.672 41.808ZM112.904 39.648H120.632V41.712H115.136V55.08H112.904V39.648ZM121.4 60L127.256 42.312H130.472L136.328 60H133.376L130.52 50.4C130.232 49.44 129.952 48.472 129.68 47.496C129.408 46.504 129.136 45.512 128.864 44.52H128.768C128.512 45.528 128.24 46.52 127.952 47.496C127.68 48.472 127.4 49.44 127.112 50.4L124.256 60H121.4ZM124.712 54.984V52.776H132.968V54.984H124.712ZM138.658 60V42.312H141.442V60H138.658ZM148.944 46.776H162.456V48.936H148.944V46.776ZM148.944 52.392H162.456V54.552H148.944V52.392ZM148.944 58.032H162.456V60.264H148.944V58.032ZM147.336 41.136H163.992V61.824H161.616V43.368H149.616V61.824H147.336V41.136ZM168.864 46.92H180.336V49.032H168.864V46.92ZM181.752 42.624H183.936V55.968H181.752V42.624ZM173.712 41.904H175.92V61.992H173.712V41.904ZM187.536 40.2H189.792V59.136C189.792 59.856 189.704 60.4 189.528 60.768C189.352 61.136 189.048 61.408 188.616 61.584C188.168 61.776 187.568 61.896 186.816 61.944C186.08 62.008 185.16 62.032 184.056 62.016C184.024 61.808 183.96 61.56 183.864 61.272C183.784 61 183.688 60.72 183.576 60.432C183.48 60.144 183.368 59.896 183.24 59.688C184.072 59.72 184.832 59.744 185.52 59.76C186.208 59.76 186.672 59.752 186.912 59.736C187.136 59.736 187.296 59.696 187.392 59.616C187.488 59.52 187.536 59.36 187.536 59.136V40.2ZM178.512 39.864L180.144 41.592C179.184 41.976 178.096 42.328 176.88 42.648C175.664 42.952 174.408 43.216 173.112 43.44C171.816 43.664 170.552 43.864 169.32 44.04C169.288 43.768 169.2 43.464 169.056 43.128C168.912 42.776 168.776 42.488 168.648 42.264C169.528 42.12 170.424 41.968 171.336 41.808C172.248 41.632 173.144 41.448 174.024 41.256C174.904 41.048 175.728 40.832 176.496 40.608C177.264 40.368 177.936 40.12 178.512 39.864ZM173.664 47.904L175.224 48.6C174.92 49.496 174.56 50.424 174.144 51.384C173.728 52.344 173.264 53.28 172.752 54.192C172.256 55.104 171.736 55.96 171.192 56.76C170.648 57.56 170.088 58.248 169.512 58.824C169.432 58.6 169.32 58.36 169.176 58.104C169.032 57.832 168.888 57.568 168.744 57.312C168.6 57.056 168.456 56.832 168.312 56.64C168.84 56.128 169.368 55.536 169.896 54.864C170.424 54.192 170.92 53.464 171.384 52.68C171.864 51.88 172.296 51.08 172.68 50.28C173.08 49.464 173.408 48.672 173.664 47.904ZM175.608 50.376C175.848 50.536 176.184 50.792 176.616 51.144C177.064 51.496 177.536 51.888 178.032 52.32C178.528 52.736 178.984 53.12 179.4 53.472C179.832 53.824 180.136 54.08 180.312 54.24L179.016 56.184C178.76 55.896 178.432 55.544 178.032 55.128C177.632 54.696 177.208 54.256 176.76 53.808C176.312 53.36 175.88 52.936 175.464 52.536C175.048 52.136 174.696 51.816 174.408 51.576L175.608 50.376ZM195.888 43.224C197.6 43.416 199.208 43.528 200.712 43.56C202.216 43.592 203.592 43.56 204.84 43.464C205.864 43.368 206.864 43.224 207.84 43.032C208.832 42.84 209.792 42.592 210.72 42.288L211.032 44.472C210.216 44.712 209.312 44.928 208.32 45.12C207.328 45.296 206.336 45.432 205.344 45.528C204.112 45.624 202.688 45.672 201.072 45.672C199.472 45.656 197.792 45.568 196.032 45.408L195.888 43.224ZM195.432 48.192C196.84 48.32 198.2 48.408 199.512 48.456C200.84 48.504 202.096 48.504 203.28 48.456C204.464 48.408 205.528 48.328 206.472 48.216C207.672 48.104 208.736 47.944 209.664 47.736C210.608 47.528 211.416 47.32 212.088 47.112L212.472 49.368C211.784 49.544 211 49.72 210.12 49.896C209.24 50.056 208.304 50.192 207.312 50.304C206.32 50.416 205.176 50.504 203.88 50.568C202.584 50.616 201.224 50.632 199.8 50.616C198.376 50.584 196.96 50.52 195.552 50.424L195.432 48.192ZM203.544 43.32C203.448 42.92 203.336 42.528 203.208 42.144C203.08 41.744 202.944 41.344 202.8 40.944L205.368 40.656C205.448 41.36 205.568 42.08 205.728 42.816C205.904 43.536 206.096 44.24 206.304 44.928C206.512 45.6 206.712 46.232 206.904 46.824C207.112 47.416 207.368 48.064 207.672 48.768C207.976 49.472 208.312 50.168 208.68 50.856C209.048 51.544 209.424 52.184 209.808 52.776C209.952 52.984 210.104 53.184 210.264 53.376C210.424 53.552 210.6 53.728 210.792 53.904L209.592 55.68C209.144 55.568 208.6 55.472 207.96 55.392C207.336 55.296 206.688 55.208 206.016 55.128C205.36 55.048 204.744 54.984 204.168 54.936L204.36 53.112C204.936 53.16 205.544 53.216 206.184 53.28C206.824 53.344 207.328 53.4 207.696 53.448C207.04 52.408 206.472 51.352 205.992 50.28C205.512 49.208 205.104 48.208 204.768 47.28C204.576 46.72 204.408 46.216 204.264 45.768C204.12 45.32 203.992 44.904 203.88 44.52C203.768 44.12 203.656 43.72 203.544 43.32ZM199.416 53.52C199.128 53.936 198.88 54.36 198.672 54.792C198.48 55.208 198.384 55.68 198.384 56.208C198.384 57.152 198.816 57.856 199.68 58.32C200.544 58.768 201.856 58.992 203.616 58.992C204.736 58.992 205.776 58.952 206.736 58.872C207.696 58.776 208.608 58.64 209.472 58.464L209.352 60.888C208.52 61.016 207.608 61.12 206.616 61.2C205.64 61.28 204.648 61.32 203.64 61.32C202.056 61.32 200.704 61.152 199.584 60.816C198.464 60.496 197.6 60 196.992 59.328C196.384 58.64 196.072 57.752 196.056 56.664C196.056 55.944 196.152 55.304 196.344 54.744C196.536 54.168 196.776 53.608 197.064 53.064L199.416 53.52ZM224.232 62.112H216.504V60.048H222V46.68H224.232V62.112ZM36.608 72.4H57.392V74.704H36.608V72.4ZM48.296 79.84L50.024 78.376C50.712 78.84 51.432 79.344 52.184 79.888C52.952 80.432 53.712 81 54.464 81.592C55.216 82.168 55.912 82.736 56.552 83.296C57.208 83.856 57.752 84.368 58.184 84.832L56.288 86.584C55.888 86.104 55.376 85.584 54.752 85.024C54.128 84.448 53.448 83.856 52.712 83.248C51.992 82.64 51.248 82.048 50.48 81.472C49.728 80.88 49 80.336 48.296 79.84ZM47.624 73.216L50.12 74.128C49.224 75.776 48.136 77.392 46.856 78.976C45.592 80.56 44.168 82.024 42.584 83.368C41.016 84.696 39.32 85.84 37.496 86.8C37.384 86.608 37.232 86.392 37.04 86.152C36.848 85.896 36.656 85.648 36.464 85.408C36.288 85.152 36.112 84.944 35.936 84.784C37.248 84.144 38.488 83.392 39.656 82.528C40.824 81.664 41.912 80.728 42.92 79.72C43.944 78.696 44.848 77.632 45.632 76.528C46.432 75.424 47.096 74.32 47.624 73.216ZM45.752 78.448L48.224 76V76.024V92.968H45.752V78.448ZM60.416 74.296H81.608V76.48H60.416V74.296ZM68.024 81.976H80.648V84.064H68.024V81.976ZM67.088 90.328H81.584V92.44H67.088V90.328ZM73.232 77.608H75.512V91.456H73.232V77.608ZM68.168 70.72L70.544 71.296C69.968 73.168 69.24 75.024 68.36 76.864C67.496 78.688 66.448 80.392 65.216 81.976C63.984 83.544 62.544 84.912 60.896 86.08C60.816 85.856 60.704 85.616 60.56 85.36C60.432 85.104 60.296 84.848 60.152 84.592C60.008 84.32 59.88 84.096 59.768 83.92C60.856 83.184 61.84 82.32 62.72 81.328C63.616 80.32 64.408 79.232 65.096 78.064C65.8 76.896 66.408 75.688 66.92 74.44C67.432 73.192 67.848 71.952 68.168 70.72ZM63.416 80.704H65.696V92.944H63.416V80.704ZM84.8 74.92C85.264 74.904 85.688 74.888 86.072 74.872C86.472 74.84 86.792 74.816 87.032 74.8C87.464 74.752 88.04 74.696 88.76 74.632C89.496 74.552 90.328 74.472 91.256 74.392C92.184 74.312 93.176 74.224 94.232 74.128C95.288 74.032 96.368 73.936 97.472 73.84C98.32 73.776 99.144 73.72 99.944 73.672C100.76 73.608 101.52 73.56 102.224 73.528C102.928 73.48 103.552 73.448 104.096 73.432V75.856C103.648 75.84 103.136 75.84 102.56 75.856C102 75.872 101.44 75.904 100.88 75.952C100.336 76 99.848 76.08 99.416 76.192C98.632 76.432 97.912 76.808 97.256 77.32C96.6 77.832 96.032 78.424 95.552 79.096C95.088 79.768 94.728 80.48 94.472 81.232C94.232 81.984 94.112 82.712 94.112 83.416C94.112 84.296 94.256 85.064 94.544 85.72C94.848 86.36 95.264 86.912 95.792 87.376C96.32 87.824 96.928 88.2 97.616 88.504C98.304 88.792 99.032 89.008 99.8 89.152C100.584 89.296 101.368 89.384 102.152 89.416L101.288 91.984C100.344 91.936 99.408 91.792 98.48 91.552C97.552 91.328 96.68 91.008 95.864 90.592C95.048 90.16 94.32 89.624 93.68 88.984C93.056 88.344 92.56 87.608 92.192 86.776C91.84 85.944 91.664 85 91.664 83.944C91.664 82.728 91.864 81.608 92.264 80.584C92.68 79.56 93.2 78.672 93.824 77.92C94.448 77.152 95.088 76.56 95.744 76.144C95.264 76.192 94.672 76.256 93.968 76.336C93.264 76.4 92.504 76.48 91.688 76.576C90.888 76.672 90.08 76.776 89.264 76.888C88.448 76.984 87.672 77.088 86.936 77.2C86.216 77.312 85.584 77.424 85.04 77.536L84.8 74.92ZM100.64 78.52C100.832 78.792 101.048 79.128 101.288 79.528C101.528 79.912 101.768 80.312 102.008 80.728C102.248 81.128 102.448 81.496 102.608 81.832L101.12 82.504C100.832 81.896 100.528 81.312 100.208 80.752C99.904 80.192 99.568 79.656 99.2 79.144L100.64 78.52ZM103.304 77.488C103.496 77.76 103.72 78.088 103.976 78.472C104.232 78.84 104.48 79.224 104.72 79.624C104.96 80.024 105.168 80.4 105.344 80.752L103.88 81.448C103.56 80.84 103.24 80.272 102.92 79.744C102.6 79.2 102.248 78.664 101.864 78.136L103.304 77.488ZM116.408 83.512H128.648V92.896H126.488V85.576H118.496V92.992H116.408V83.512ZM127.328 70.792L129.08 72.568C127.96 72.968 126.688 73.328 125.264 73.648C123.856 73.952 122.392 74.208 120.872 74.416C119.352 74.624 117.888 74.792 116.48 74.92C116.432 74.648 116.336 74.32 116.192 73.936C116.064 73.552 115.936 73.24 115.808 73C116.848 72.888 117.904 72.76 118.976 72.616C120.048 72.456 121.096 72.288 122.12 72.112C123.144 71.92 124.096 71.72 124.976 71.512C125.872 71.288 126.656 71.048 127.328 70.792ZM121.496 73.144H123.656V84.712H121.496V73.144ZM114.776 77.752H130.064V79.936H114.776V77.752ZM117.872 89.92H127.424V91.984H117.872V89.92ZM109.088 72.664L110.384 71.056C110.848 71.264 111.36 71.52 111.92 71.824C112.496 72.128 113.048 72.424 113.576 72.712C114.104 73 114.536 73.264 114.872 73.504L113.552 75.328C113.216 75.088 112.792 74.816 112.28 74.512C111.768 74.192 111.232 73.872 110.672 73.552C110.112 73.216 109.584 72.92 109.088 72.664ZM107.936 79.288L109.184 77.632C109.648 77.84 110.16 78.096 110.72 78.4C111.28 78.688 111.824 78.976 112.352 79.264C112.896 79.536 113.336 79.792 113.672 80.032L112.4 81.904C112.08 81.664 111.656 81.392 111.128 81.088C110.616 80.784 110.072 80.472 109.496 80.152C108.936 79.832 108.416 79.544 107.936 79.288ZM108.416 91.192C108.848 90.584 109.328 89.856 109.856 89.008C110.384 88.16 110.92 87.264 111.464 86.32C112.008 85.36 112.512 84.424 112.976 83.512L114.632 85.024C114.216 85.856 113.76 86.728 113.264 87.64C112.784 88.536 112.296 89.416 111.8 90.28C111.304 91.144 110.808 91.96 110.312 92.728L108.416 91.192ZM135.848 72.4H151.04V74.56H135.848V72.4ZM135.848 77.968H151.04V80.08H135.848V77.968ZM135.752 83.656H151.112V85.816H135.752V83.656ZM134.552 72.4H136.808V81.064C136.808 81.992 136.76 82.992 136.664 84.064C136.584 85.136 136.432 86.224 136.208 87.328C135.984 88.416 135.648 89.464 135.2 90.472C134.768 91.464 134.184 92.36 133.448 93.16C133.336 93 133.168 92.824 132.944 92.632C132.736 92.44 132.512 92.256 132.272 92.08C132.048 91.904 131.848 91.768 131.672 91.672C132.344 90.92 132.872 90.112 133.256 89.248C133.64 88.368 133.92 87.464 134.096 86.536C134.288 85.592 134.408 84.656 134.456 83.728C134.52 82.784 134.552 81.888 134.552 81.04V72.4ZM150.176 72.4H152.432V90.16C152.432 90.816 152.344 91.32 152.168 91.672C151.992 92.04 151.688 92.32 151.256 92.512C150.824 92.688 150.24 92.792 149.504 92.824C148.768 92.872 147.832 92.888 146.696 92.872C146.664 92.584 146.568 92.224 146.408 91.792C146.264 91.36 146.112 90.992 145.952 90.688C146.464 90.72 146.968 90.744 147.464 90.76C147.96 90.76 148.392 90.76 148.76 90.76C149.144 90.744 149.408 90.736 149.552 90.736C149.792 90.736 149.952 90.696 150.032 90.616C150.128 90.52 150.176 90.36 150.176 90.136V72.4ZM142.04 73.24H144.32V92.776H142.04V73.24ZM36.8 105.92C37.264 105.904 37.688 105.888 38.072 105.872C38.472 105.84 38.792 105.816 39.032 105.8C39.464 105.752 40.04 105.696 40.76 105.632C41.496 105.552 42.328 105.472 43.256 105.392C44.184 105.312 45.176 105.224 46.232 105.128C47.288 105.032 48.368 104.936 49.472 104.84C50.32 104.776 51.144 104.72 51.944 104.672C52.76 104.608 53.52 104.56 54.224 104.528C54.928 104.48 55.552 104.448 56.096 104.432V106.856C55.648 106.84 55.136 106.84 54.56 106.856C54 106.872 53.44 106.904 52.88 106.952C52.336 107 51.848 107.08 51.416 107.192C50.632 107.432 49.912 107.808 49.256 108.32C48.6 108.832 48.032 109.424 47.552 110.096C47.088 110.768 46.728 111.48 46.472 112.232C46.232 112.984 46.112 113.712 46.112 114.416C46.112 115.296 46.256 116.064 46.544 116.72C46.848 117.36 47.264 117.912 47.792 118.376C48.32 118.824 48.928 119.2 49.616 119.504C50.304 119.792 51.032 120.008 51.8 120.152C52.584 120.296 53.368 120.384 54.152 120.416L53.288 122.984C52.344 122.936 51.408 122.792 50.48 122.552C49.552 122.328 48.68 122.008 47.864 121.592C47.048 121.16 46.32 120.624 45.68 119.984C45.056 119.344 44.56 118.608 44.192 117.776C43.84 116.944 43.664 116 43.664 114.944C43.664 113.728 43.864 112.608 44.264 111.584C44.68 110.56 45.2 109.672 45.824 108.92C46.448 108.152 47.088 107.56 47.744 107.144C47.264 107.192 46.672 107.256 45.968 107.336C45.264 107.4 44.504 107.48 43.688 107.576C42.888 107.672 42.08 107.776 41.264 107.888C40.448 107.984 39.672 108.088 38.936 108.2C38.216 108.312 37.584 108.424 37.04 108.536L36.8 105.92ZM52.64 109.52C52.832 109.792 53.048 110.128 53.288 110.528C53.528 110.912 53.768 111.312 54.008 111.728C54.248 112.128 54.448 112.496 54.608 112.832L53.12 113.504C52.832 112.896 52.528 112.312 52.208 111.752C51.904 111.192 51.568 110.656 51.2 110.144L52.64 109.52ZM55.304 108.488C55.496 108.76 55.72 109.088 55.976 109.472C56.232 109.84 56.48 110.224 56.72 110.624C56.96 111.024 57.168 111.4 57.344 111.752L55.88 112.448C55.56 111.84 55.24 111.272 54.92 110.744C54.6 110.2 54.248 109.664 53.864 109.136L55.304 108.488ZM63.152 105.224C64.864 105.416 66.472 105.528 67.976 105.56C69.48 105.592 70.856 105.56 72.104 105.464C73.128 105.368 74.128 105.224 75.104 105.032C76.096 104.84 77.056 104.592 77.984 104.288L78.296 106.472C77.48 106.712 76.576 106.928 75.584 107.12C74.592 107.296 73.6 107.432 72.608 107.528C71.376 107.624 69.952 107.672 68.336 107.672C66.736 107.656 65.056 107.568 63.296 107.408L63.152 105.224ZM62.696 110.192C64.104 110.32 65.464 110.408 66.776 110.456C68.104 110.504 69.36 110.504 70.544 110.456C71.728 110.408 72.792 110.328 73.736 110.216C74.936 110.104 76 109.944 76.928 109.736C77.872 109.528 78.68 109.32 79.352 109.112L79.736 111.368C79.048 111.544 78.264 111.72 77.384 111.896C76.504 112.056 75.568 112.192 74.576 112.304C73.584 112.416 72.44 112.504 71.144 112.568C69.848 112.616 68.488 112.632 67.064 112.616C65.64 112.584 64.224 112.52 62.816 112.424L62.696 110.192ZM70.808 105.32C70.712 104.92 70.6 104.528 70.472 104.144C70.344 103.744 70.208 103.344 70.064 102.944L72.632 102.656C72.712 103.36 72.832 104.08 72.992 104.816C73.168 105.536 73.36 106.24 73.568 106.928C73.776 107.6 73.976 108.232 74.168 108.824C74.376 109.416 74.632 110.064 74.936 110.768C75.24 111.472 75.576 112.168 75.944 112.856C76.312 113.544 76.688 114.184 77.072 114.776C77.216 114.984 77.368 115.184 77.528 115.376C77.688 115.552 77.864 115.728 78.056 115.904L76.856 117.68C76.408 117.568 75.864 117.472 75.224 117.392C74.6 117.296 73.952 117.208 73.28 117.128C72.624 117.048 72.008 116.984 71.432 116.936L71.624 115.112C72.2 115.16 72.808 115.216 73.448 115.28C74.088 115.344 74.592 115.4 74.96 115.448C74.304 114.408 73.736 113.352 73.256 112.28C72.776 111.208 72.368 110.208 72.032 109.28C71.84 108.72 71.672 108.216 71.528 107.768C71.384 107.32 71.256 106.904 71.144 106.52C71.032 106.12 70.92 105.72 70.808 105.32ZM66.68 115.52C66.392 115.936 66.144 116.36 65.936 116.792C65.744 117.208 65.648 117.68 65.648 118.208C65.648 119.152 66.08 119.856 66.944 120.32C67.808 120.768 69.12 120.992 70.88 120.992C72 120.992 73.04 120.952 74 120.872C74.96 120.776 75.872 120.64 76.736 120.464L76.616 122.888C75.784 123.016 74.872 123.12 73.88 123.2C72.904 123.28 71.912 123.32 70.904 123.32C69.32 123.32 67.968 123.152 66.848 122.816C65.728 122.496 64.864 122 64.256 121.328C63.648 120.64 63.336 119.752 63.32 118.664C63.32 117.944 63.416 117.304 63.608 116.744C63.8 116.168 64.04 115.608 64.328 115.064L66.68 115.52ZM85.184 106.616C85.664 106.664 86.168 106.704 86.696 106.736C87.24 106.752 87.752 106.76 88.232 106.76C89.16 106.76 90.104 106.72 91.064 106.64C92.04 106.544 93 106.408 93.944 106.232C94.904 106.04 95.816 105.808 96.68 105.536L96.752 107.744C96.016 107.952 95.176 108.144 94.232 108.32C93.288 108.496 92.304 108.64 91.28 108.752C90.256 108.864 89.24 108.92 88.232 108.92C87.784 108.92 87.312 108.912 86.816 108.896C86.32 108.88 85.832 108.864 85.352 108.848L85.184 106.616ZM94.04 102.824C93.944 103.224 93.816 103.728 93.656 104.336C93.512 104.944 93.344 105.584 93.152 106.256C92.976 106.928 92.792 107.576 92.6 108.2C92.216 109.352 91.736 110.576 91.16 111.872C90.584 113.152 89.96 114.4 89.288 115.616C88.616 116.832 87.936 117.896 87.248 118.808L84.944 117.632C85.488 116.976 86.024 116.248 86.552 115.448C87.08 114.632 87.576 113.792 88.04 112.928C88.52 112.048 88.952 111.2 89.336 110.384C89.72 109.552 90.032 108.792 90.272 108.104C90.544 107.304 90.792 106.4 91.016 105.392C91.24 104.384 91.368 103.44 91.4 102.56L94.04 102.824ZM99.68 110.264C99.664 110.76 99.656 111.232 99.656 111.68C99.656 112.128 99.664 112.592 99.68 113.072C99.696 113.44 99.712 113.92 99.728 114.512C99.76 115.088 99.792 115.704 99.824 116.36C99.856 117.016 99.88 117.64 99.896 118.232C99.928 118.824 99.944 119.304 99.944 119.672C99.944 120.344 99.792 120.96 99.488 121.52C99.2 122.08 98.736 122.528 98.096 122.864C97.456 123.2 96.608 123.368 95.552 123.368C94.624 123.368 93.776 123.232 93.008 122.96C92.256 122.688 91.648 122.28 91.184 121.736C90.736 121.192 90.512 120.504 90.512 119.672C90.512 118.92 90.72 118.256 91.136 117.68C91.568 117.104 92.16 116.656 92.912 116.336C93.664 116 94.536 115.832 95.528 115.832C96.904 115.832 98.168 116.032 99.32 116.432C100.472 116.816 101.504 117.304 102.416 117.896C103.344 118.472 104.144 119.056 104.816 119.648L103.544 121.688C103.08 121.272 102.568 120.84 102.008 120.392C101.448 119.928 100.824 119.504 100.136 119.12C99.464 118.72 98.728 118.392 97.928 118.136C97.144 117.88 96.304 117.752 95.408 117.752C94.608 117.752 93.96 117.912 93.464 118.232C92.984 118.552 92.744 118.96 92.744 119.456C92.744 119.968 92.952 120.384 93.368 120.704C93.8 121.024 94.424 121.184 95.24 121.184C95.848 121.184 96.328 121.088 96.68 120.896C97.048 120.688 97.304 120.408 97.448 120.056C97.592 119.704 97.664 119.312 97.664 118.88C97.664 118.464 97.648 117.904 97.616 117.2C97.6 116.496 97.568 115.736 97.52 114.92C97.488 114.104 97.448 113.288 97.4 112.472C97.368 111.64 97.344 110.904 97.328 110.264H99.68ZM104.192 111.176C103.744 110.808 103.184 110.416 102.512 110C101.84 109.568 101.152 109.16 100.448 108.776C99.744 108.376 99.12 108.056 98.576 107.816L99.8 105.968C100.232 106.16 100.72 106.392 101.264 106.664C101.808 106.936 102.352 107.224 102.896 107.528C103.44 107.832 103.944 108.136 104.408 108.44C104.872 108.728 105.256 108.976 105.56 109.184L104.192 111.176ZM112.736 105.08C112.688 105.304 112.648 105.576 112.616 105.896C112.584 106.216 112.552 106.536 112.52 106.856C112.504 107.176 112.496 107.448 112.496 107.672C112.496 108.168 112.496 108.72 112.496 109.328C112.512 109.936 112.528 110.56 112.544 111.2C112.56 111.824 112.6 112.448 112.664 113.072C112.792 114.336 112.984 115.44 113.24 116.384C113.496 117.328 113.824 118.064 114.224 118.592C114.624 119.12 115.088 119.384 115.616 119.384C115.92 119.384 116.208 119.24 116.48 118.952C116.752 118.664 117.008 118.28 117.248 117.8C117.488 117.32 117.704 116.8 117.896 116.24C118.104 115.664 118.28 115.112 118.424 114.584L120.32 116.816C119.808 118.176 119.296 119.264 118.784 120.08C118.288 120.88 117.776 121.456 117.248 121.808C116.72 122.16 116.16 122.336 115.568 122.336C114.768 122.336 114 122.064 113.264 121.52C112.544 120.96 111.92 120.048 111.392 118.784C110.864 117.52 110.488 115.832 110.264 113.72C110.184 113.016 110.12 112.256 110.072 111.44C110.04 110.624 110.016 109.848 110 109.112C110 108.376 110 107.768 110 107.288C110 106.984 109.984 106.616 109.952 106.184C109.936 105.736 109.888 105.352 109.808 105.032L112.736 105.08ZM125.024 105.68C125.456 106.24 125.872 106.896 126.272 107.648C126.688 108.384 127.064 109.184 127.4 110.048C127.736 110.912 128.032 111.792 128.288 112.688C128.56 113.584 128.784 114.472 128.96 115.352C129.136 116.232 129.256 117.064 129.32 117.848L126.848 118.808C126.752 117.768 126.592 116.68 126.368 115.544C126.144 114.408 125.856 113.288 125.504 112.184C125.152 111.064 124.736 110.016 124.256 109.04C123.792 108.048 123.256 107.192 122.648 106.472L125.024 105.68Z" fill="white"/>
<defs>
<linearGradient id="paint0_linear_279_2" x1="203.688" y1="-11.373" x2="203.688" y2="87.0821" gradientUnits="userSpaceOnUse">
<stop stop-color="#383838"/>
<stop offset="1" stop-color="#9E9E9E"/>
</linearGradient>
</defs>
</svg>
