<svg width="363" height="158" viewBox="0 0 363 158" fill="none" xmlns="http://www.w3.org/2000/svg">
<mask id="path-1-outside-1_279_2" maskUnits="userSpaceOnUse" x="0" y="0" width="363" height="158" fill="black">
<rect fill="white" width="363" height="158"/>
<path d="M359 154H4V4H359V154Z"/>
</mask>
<path d="M359 154H4V4H359V154Z" fill="url(#paint0_linear_279_2)"/>
<path d="M359 154V158H363V154H359ZM4 154H0V158H4V154ZM4 4V0H0V4H4ZM359 4H363V0H359V4ZM359 154V150H4V154V158H359V154ZM4 154H8V4H4H0V154H4ZM4 4V8H359V4V0H4V4ZM359 4H355V154H359H363V4H359Z" fill="white" mask="url(#path-1-outside-1_279_2)"/>
<mask id="mask0_279_2" style="mask-type:alpha" maskUnits="userSpaceOnUse" x="229" y="28" width="125" height="127">
<rect x="229.258" y="28" width="124.509" height="126.056" fill="#D9D9D9"/>
</mask>
<g mask="url(#mask0_279_2)">
<path d="M261.065 88.0457C261.065 88.0457 270.201 90.6942 272.411 93.3501C274.62 95.9986 281.249 111.175 281.249 111.175C281.249 111.175 283.607 116.331 285.668 112.358C287.729 108.378 289.202 98.3644 290.526 95.1207C291.85 91.8771 294.796 87.019 294.796 87.019L288.465 67.8696L261.065 88.0531V88.0457Z" fill="#FBDAC8" stroke="#727171" stroke-width="0.3" stroke-linecap="round" stroke-linejoin="round"/>
<path d="M265.485 87.8969L260.329 101.593L281.688 115.885C281.688 115.885 272.999 87.1603 265.485 87.8969Z" fill="white" stroke="#727171" stroke-width="0.3" stroke-linecap="round" stroke-linejoin="round"/>
<path d="M250.897 93.3501C250.897 93.3501 252.518 92.7624 254.869 93.6477C257.228 94.533 263.559 98.9521 264.154 99.5398C264.742 100.128 265.329 101.898 265.329 101.898C265.329 101.898 262.971 107.203 260.174 108.378C257.376 109.561 250.011 109.412 249.126 106.905C248.241 104.398 250.897 93.3501 250.897 93.3501Z" fill="#4D4D4D" stroke="#727171" stroke-width="0.3" stroke-linecap="round" stroke-linejoin="round"/>
<path d="M249.385 99.6738C249.385 99.6738 252.681 94.1834 252.994 92.8071C253.299 91.4308 252.718 90.0247 252.131 88.6261C251.55 87.22 250.144 83.8722 249.839 81.9751C249.534 80.0855 249.021 76.76 248.768 75.7631C248.507 74.7662 248.47 73.799 249.266 73.3675C250.055 72.936 252.971 71.4853 254.578 71.0761C256.185 70.667 266.05 89.6899 266.05 89.6899C266.05 89.6899 266.727 92.636 265.834 94.8605C264.547 98.052 261.222 99.8078 259.488 107.508L258.224 111.451L246.357 106.087L249.393 99.6738H249.385Z" fill="#FBDAC8"/>
<path d="M254.771 73.2559C254.771 73.2559 253.224 75.0861 251.729 75.2125C251.729 75.2125 252.368 76.7674 252.443 78.0396" stroke="#727171" stroke-width="0.3" stroke-linecap="round" stroke-linejoin="round"/>
<path d="M251.819 78.3446C251.819 78.3446 253.493 77.3477 255.123 77.3849" stroke="#727171" stroke-width="0.3" stroke-linecap="round" stroke-linejoin="round"/>
<path d="M252.912 78.5379C252.912 78.5379 256.409 82.1387 258.789 84.8467C260.716 87.0488 261.854 90.2999 260.843 93.4914" stroke="#727171" stroke-width="0.3" stroke-linecap="round" stroke-linejoin="round"/>
<path d="M291.479 73.8657C291.479 73.8657 294.976 76.4398 296.122 76.8564C298.554 77.7417 302.602 77.9575 302.602 77.9575C302.602 77.9575 298.629 84.8093 295.973 94.0865C293.324 103.364 288.31 117.655 285.513 119.567C282.716 121.479 282.128 120.155 282.128 120.155C282.128 120.155 284.047 107.783 284.047 103.066C284.047 98.3493 287.879 92.0183 289.203 90.5452C290.527 89.0722 291.122 82.4435 291.122 82.4435L291.494 73.8583L291.479 73.8657Z" fill="white"/>
<path d="M290.966 101.154C290.966 101.154 288.905 89.9576 288.905 88.7821C288.905 87.6067 295.095 84.2143 297.156 82.1535C299.217 80.0927 295.98 96.2961 290.966 101.154Z" fill="#E6E6E6"/>
<path d="M295.088 172.522C295.088 172.522 278.736 121.189 282.277 118.831C285.811 116.472 288.467 113.675 288.467 112.939C288.467 112.202 289.94 99.2423 290.379 98.357C290.818 97.4716 294.211 84.1399 296.42 79.944C298.072 76.812 300.251 75.6737 300.251 75.6737C300.251 75.6737 312.036 76.1126 315.428 76.7078C318.813 77.2955 323.381 78.6198 324.118 80.5392C324.118 80.5392 326.03 85.8436 326.915 89.0798C327.8 92.3235 331.036 100.276 332.956 103.959C334.875 107.642 337.375 119.723 337.375 119.723C337.375 119.723 338.848 121.345 339.882 122.521C340.909 123.696 340.767 125.318 341.355 128.413C341.943 131.508 346.659 146.089 346.659 146.089C346.659 146.089 350.64 152.867 351.666 154.779C352.7 156.691 360.728 172.529 360.728 172.529H295.103L295.088 172.522Z" fill="#808080"/>
<path d="M288.607 113.385C288.607 113.385 287.573 121.189 286.249 124.284" stroke="#727171" stroke-width="0.3" stroke-linecap="round" stroke-linejoin="round"/>
<path d="M283.898 75.8076C283.898 75.8076 281.257 79.5645 278.415 82.5106C275.573 85.4567 272.218 87.5844 268.364 88.4995C264.51 89.4145 261.639 88.7078 260.017 87.8969C258.395 87.0859 256.996 82.4065 256.587 80.7846C256.178 79.1628 254.861 75.7108 254.355 73.1665C253.849 70.6296 254.556 67.5794 254.965 65.8534C255.375 64.1274 254.861 62.6023 254.66 60.7796C254.46 58.9495 254.765 54.6866 255.776 50.9296C256.788 47.1727 262.784 41.9947 262.784 41.9947C262.784 41.9947 268.773 37.9327 274.866 37.6277C280.959 37.3227 286.539 42.0914 289.485 45.7517C292.431 49.4045 292.736 63.5174 291.925 65.3475" fill="#FCE4D6"/>
<path d="M299.194 51.0115C299.194 51.0115 301.708 53.2136 302.497 55.5719C303.286 57.9303 302.497 63.7555 301.552 65.3252C300.607 66.9024 295.891 67.0586 295.891 67.0586L299.194 51.0115Z" fill="#6F6059" stroke="#727171" stroke-width="0.3" stroke-linecap="round" stroke-linejoin="round"/>
<path d="M299.039 56.673C299.039 56.673 302.342 61.5534 302.342 64.068C302.342 66.5825 301.241 67.8473 299.507 69.1046C297.774 70.3618 293.846 70.2056 293.846 70.2056C293.846 70.2056 296.524 58.5627 299.039 56.673Z" fill="#655650" stroke="#727171" stroke-width="0.3" stroke-linecap="round" stroke-linejoin="round"/>
<path d="M296.516 60.7648C296.516 60.7648 299.351 66.27 299.194 68.0035C299.038 69.7369 298.726 70.8379 297.617 71.4629C296.516 72.0878 292.901 72.0878 292.901 72.0878C292.901 72.0878 292.276 63.4356 296.516 60.7573V60.7648Z" fill="#6F6059" stroke="#727171" stroke-width="0.3" stroke-linecap="round" stroke-linejoin="round"/>
<path d="M261.765 43.7283C261.765 43.7283 256.587 47.3811 255.575 51.949C255.575 51.949 255.977 47.6861 256.594 45.7593C257.204 43.8324 261.162 40.8864 262.992 40.8864C264.823 40.8864 261.772 43.7283 261.772 43.7283H261.765Z" fill="#655650" stroke="#727171" stroke-width="0.3" stroke-linecap="round" stroke-linejoin="round"/>
<path d="M282.478 55.7505C282.478 55.7505 285.305 62.952 285.022 64.1498C284.36 66.9099 285.907 67.1331 285.907 67.1331C285.907 67.1331 287.827 60.8913 290.669 61.4269C293.51 61.97 282.485 55.7505 282.485 55.7505H282.478Z" fill="#796A62"/>
<path d="M291.979 74.6396C291.607 72.2366 298.399 69.3873 299.344 63.2943C299.932 59.5001 300.624 52.9756 297.975 47.3438C294.858 40.7077 288.668 36.616 284.577 34.89C280.686 33.2533 271.007 33.9749 268.872 35.3959C266.737 36.8168 262.779 38.952 261.559 39.7629C260.339 40.5738 258.263 40.6854 258.851 42.8801C260.882 50.4238 269.988 54.3891 269.988 54.3891C263.59 49.3153 262.102 43.1553 262.102 43.1553C262.102 43.1553 267.919 55.877 284.845 62.7809C284.845 62.7809 275.061 56.621 269.482 49.107C269.482 49.107 280.344 59.567 287.247 62.8107C287.247 62.8107 283.29 59.6638 280.544 56.5168C280.544 56.5168 288.363 62.5057 288.497 63.7257C288.631 64.9458 291.339 63.1827 291.205 64.9458C291.071 66.709 290.499 70.9645 290.499 71.7084C290.499 72.4524 290.484 74.5131 291.972 74.647L291.979 74.6396Z" fill="#796A62" stroke="#727171" stroke-width="0.3" stroke-linecap="round" stroke-linejoin="round"/>
<path d="M269.481 49.107C269.481 49.107 267.346 46.2502 266.349 44.1522" stroke="#727171" stroke-width="0.3" stroke-linecap="round" stroke-linejoin="round"/>
<path d="M272.866 46.027C272.866 46.027 276.512 56.5242 289.434 62.3791C289.434 62.3791 283.802 58.5106 280.261 51.7703" stroke="#727171" stroke-width="0.3" stroke-linecap="round" stroke-linejoin="round"/>
<path d="M286.02 51.9935C286.02 51.9935 295.855 69.0078 299.277 63.0412C299.277 63.0412 296.405 64.1423 294.523 57.8484" stroke="#727171" stroke-width="0.3" stroke-linecap="round" stroke-linejoin="round"/>
<path d="M299.268 63.0414C299.268 63.0414 297.721 69.2311 292.64 67.2373" stroke="#727171" stroke-width="0.3" stroke-linecap="round" stroke-linejoin="round"/>
<path d="M287.961 63.22C287.961 63.22 289.992 60.6831 291.108 60.7872C292.224 60.8914 294.359 63.525 294.664 65.4593C294.969 67.3861 293.243 70.5331 291.926 72.1623C290.609 73.7842 287.663 75.8152 286.547 76.1202C285.431 76.4252 284.315 74.5951 284.315 74.5951" fill="#FBDAC8"/>
<path d="M287.961 63.22C287.961 63.22 289.992 60.6831 291.108 60.7872C292.224 60.8914 294.359 63.525 294.664 65.4593C294.969 67.3861 293.243 70.5331 291.926 72.1623C290.609 73.7842 287.663 75.8152 286.547 76.1202C285.431 76.4252 284.315 74.5951 284.315 74.5951" stroke="#727171" stroke-width="0.3" stroke-linecap="round" stroke-linejoin="round"/>
<path d="M285.016 72.7647C285.016 72.7647 285.112 72.668 287.143 72.2588C289.174 71.8496 291.406 71.4479 292.321 69.4169C293.236 67.3859 293.341 64.239 292.827 63.5322C292.321 62.818 290.997 62.4163 290.29 62.818C289.576 63.2197 288.668 65.154 288.46 65.8608C288.259 66.575 288.259 67.3859 288.259 67.3859" stroke="#727171" stroke-width="0.3" stroke-linecap="round" stroke-linejoin="round"/>
<path d="M289.181 65.5559C289.181 65.5559 290.907 67.5869 291.012 68.807C291.116 70.0271 288.475 71.3439 288.475 71.3439" stroke="#727171" stroke-width="0.3" stroke-linecap="round" stroke-linejoin="round"/>
<path d="M287.247 67.8919C287.247 67.8919 287.656 69.8188 287.247 70.2279C286.838 70.6371 284.911 71.3439 284.911 71.3439" stroke="#727171" stroke-width="0.3" stroke-linecap="round" stroke-linejoin="round"/>
<path d="M239.559 154.481C239.559 154.481 247.809 154.779 250.167 154.184C252.526 153.596 258.567 147.406 259.891 146.231C261.215 145.055 262.398 142.697 263.574 141.514C264.749 140.338 274.621 130.615 274.621 130.615L272.263 99.0935C272.263 99.0935 264.6 103.215 263.722 103.952C262.837 104.688 246.634 120.743 246.634 120.743L239.566 154.474L239.559 154.481Z" fill="#737373" stroke="#727171" stroke-width="0.3" stroke-linecap="round" stroke-linejoin="round"/>
<path d="M248.249 150.211C248.249 150.211 252.965 145.94 254.141 144.467C255.316 142.994 259.147 137.251 258.857 135.042C258.567 132.832 258.857 122.96 258.857 122.96C258.857 122.96 261.364 118.689 262.54 116.77C263.715 114.858 265.337 101.891 265.337 101.891C265.337 101.891 263.128 104.1 261.655 104.688C260.182 105.276 259.148 104.986 256.945 103.952C254.736 102.917 252.377 102.776 252.377 102.776C252.377 102.776 251.79 96.7352 251.202 95.5597C250.614 94.3843 250.904 93.3502 250.904 93.3502C250.904 93.3502 243.1 105.722 242.654 107.046C242.215 108.371 242.215 114.999 242.215 114.999C242.215 114.999 239.12 117.358 238.971 118.384C238.823 119.411 237.201 127.661 237.201 127.661C237.201 127.661 233.369 138.121 232.93 140.331C232.492 142.541 233.816 147.845 235.14 150.932C236.464 154.027 237.788 154.615 239.559 154.466C241.33 154.317 242.654 154.466 244.417 153.432" fill="#808080"/>
<path d="M242.208 114.999C242.208 114.999 241.471 125.31 239.998 132.088L242.208 114.999Z" fill="#737373"/>
<path d="M258.856 122.959C258.856 122.959 252.525 128.413 249.869 135.48L258.856 122.959Z" fill="#737373"/>
<path d="M266.579 112.611C266.579 112.611 266.498 99.9563 266.431 97.4492C266.356 94.942 265.999 90.9693 266.074 89.7492C266.148 88.5291 267.078 87.2421 269.444 85.092C271.81 82.942 275.611 79.0734 276.898 78.999C276.898 78.999 278.26 77.0647 278.832 76.4919C278.832 76.4919 278.833 74.8478 279.123 74.2675C279.413 73.6946 280.558 72.7647 281.057 72.6159C281.555 72.4745 283.78 72.973 283.78 72.973C283.78 72.973 285 72.1844 285.855 72.1844C286.711 72.1844 287.217 72.3257 288.005 72.6828C288.794 73.0399 288.794 73.397 288.794 73.397C288.794 73.397 289.293 72.9655 289.798 73.1069C290.297 73.2482 291.16 74.0368 291.517 74.6841C291.658 74.9445 291.443 76.7597 291.443 76.7597C291.443 76.7597 292.09 77.3326 292.306 77.9798C292.521 78.6271 291.733 81.4243 291.443 83.2098C291.16 85.0028 290.438 86.3642 289.002 87.0114C287.567 87.6587 284.985 89.6599 282.909 91.0288C280.834 92.3903 277.746 94.0418 276.958 95.1875C276.169 96.3332 279.033 105.729 279.033 105.729L266.572 112.604L266.579 112.611Z" fill="#FCE4D6"/>
<path d="M278.823 76.4919C278.823 76.4919 279.686 74.9891 279.902 74.4163" stroke="#727171" stroke-width="0.3" stroke-linecap="round" stroke-linejoin="round"/>
<path d="M283.771 72.9805C283.771 72.9805 284.419 73.412 284.27 74.2006C284.128 74.9892 283.05 77.8535 282.767 78.5751C282.477 79.2893 282.269 80.2936 282.269 80.2936" stroke="#727171" stroke-width="0.3" stroke-linecap="round" stroke-linejoin="round"/>
<path d="M288.793 73.4121C288.793 73.4121 288.934 74.1263 288.577 75.4208C288.22 76.7153 287.29 79.148 287 80.078C286.71 81.0079 286.643 82.4437 286.643 82.4437" stroke="#727171" stroke-width="0.3" stroke-linecap="round" stroke-linejoin="round"/>
<path d="M291.442 76.7822C291.442 76.7822 290.438 80.2937 290.297 80.9409C290.155 81.5882 290.297 83.3067 290.371 83.5225" stroke="#727171" stroke-width="0.3" stroke-linecap="round" stroke-linejoin="round"/>
<path d="M256.79 117.358C256.79 117.358 255.02 115.736 256.054 114.85C257.088 113.965 260.912 112.492 263.121 110.878C265.331 109.256 275.344 97.7692 280.061 102.776C280.061 102.776 281.534 107.493 282.419 109.992C283.305 112.5 283.744 114.709 283.744 115.587C283.744 116.465 285.953 120.594 285.953 120.594C285.953 120.594 288.163 120.594 288.46 121.479C288.758 122.364 289.933 125.162 289.933 125.162C289.933 125.162 288.758 122.067 291.109 119.857C293.467 117.648 295.967 115.587 295.967 115.587C295.967 115.587 295.669 110.87 296.265 110.58C296.86 110.29 298.623 108.371 298.623 108.371C298.623 108.371 298.035 101.303 299.798 100.12C301.569 98.9446 305.988 93.6402 308.049 91.1331C308.049 91.1331 310.407 82.7338 312.765 81.2608C315.124 79.7877 321.604 80.673 323.226 80.673C324.847 80.673 325.881 84.058 327.057 87.7406C328.232 91.4232 332.659 104.829 333.247 107.478C333.834 110.126 332.8 112.931 331.774 116.018C330.739 119.113 321.901 130.31 318.806 133.248C315.712 136.195 298.035 150.925 294.65 153.432C291.265 155.939 286.11 158.149 283.305 157.263C280.508 156.378 278.737 154.02 277.852 151.074C277.852 151.074 276.676 149.013 273.284 143.709C269.899 138.404 267.979 134.58 265.919 131.188C263.858 127.803 256.783 117.343 256.783 117.343L256.79 117.358Z" fill="#808080"/>
<path d="M285.958 120.601C285.958 120.601 283.31 121.338 281.242 122.811C279.181 124.284 276.674 126.932 276.674 126.932C276.674 126.932 281.391 120.601 283.005 119.716L285.951 120.601H285.958Z" fill="#737373"/>
<path d="M291.405 128.703C291.405 128.703 293.912 132.237 294.648 134.007C295.385 135.778 298.033 141.373 298.033 141.373C298.033 141.373 296.858 133.42 294.202 130.913C291.553 128.405 289.932 125.169 289.932 125.169L291.405 128.703Z" fill="#737373"/>
<path d="M290.379 124.872C290.379 124.872 293.623 124.135 294.649 124.723C295.683 125.31 297.744 128.405 297.744 128.405" stroke="#727171" stroke-width="0.3" stroke-linecap="round" stroke-linejoin="round"/>
<path d="M298.629 108.37C298.629 108.37 309.677 102.478 316.893 101.742C324.109 101.005 313.062 103.803 307.906 105.127L298.629 108.37Z" fill="#737373"/>
<path d="M295.973 115.594C295.973 115.594 299.804 122.223 300.689 122.811C301.575 123.398 305.272 123.57 305.696 123.696C307.757 124.284 302.311 122.96 300.838 121.635L295.98 115.594H295.973Z" fill="#737373"/>
</g>
<path d="M55.712 40.008L57.248 41.784C56.384 42.04 55.424 42.272 54.368 42.48C53.312 42.672 52.2 42.84 51.032 42.984C49.88 43.128 48.72 43.256 47.552 43.368C46.384 43.464 45.248 43.544 44.144 43.608C44.112 43.336 44.032 43.024 43.904 42.672C43.792 42.32 43.672 42.016 43.544 41.76C44.616 41.696 45.712 41.608 46.832 41.496C47.968 41.384 49.072 41.256 50.144 41.112C51.232 40.968 52.256 40.808 53.216 40.632C54.176 40.44 55.008 40.232 55.712 40.008ZM43.88 44.832L45.704 44.328C46.088 45.032 46.44 45.808 46.76 46.656C47.096 47.504 47.32 48.232 47.432 48.84L45.512 49.44C45.416 48.832 45.216 48.096 44.912 47.232C44.608 46.352 44.264 45.552 43.88 44.832ZM48.656 44.112L50.576 43.752C50.88 44.456 51.136 45.216 51.344 46.032C51.568 46.848 51.696 47.552 51.728 48.144L49.712 48.576C49.68 48 49.568 47.296 49.376 46.464C49.184 45.616 48.944 44.832 48.656 44.112ZM55.808 43.392L57.944 44.184C57.608 44.856 57.248 45.552 56.864 46.272C56.48 46.976 56.096 47.656 55.712 48.312C55.328 48.952 54.96 49.52 54.608 50.016L52.856 49.272C53.208 48.76 53.56 48.16 53.912 47.472C54.28 46.784 54.632 46.088 54.968 45.384C55.304 44.664 55.584 44 55.808 43.392ZM43.736 51.672H57.848V53.64H43.736V51.672ZM49.664 49.08H51.824V61.872H49.664V49.08ZM48.872 52.776L50.648 53.4C50.168 54.424 49.568 55.4 48.848 56.328C48.128 57.256 47.336 58.104 46.472 58.872C45.608 59.624 44.72 60.248 43.808 60.744C43.696 60.552 43.552 60.344 43.376 60.12C43.2 59.912 43.016 59.704 42.824 59.496C42.632 59.288 42.456 59.112 42.296 58.968C43.176 58.568 44.032 58.048 44.864 57.408C45.712 56.752 46.48 56.032 47.168 55.248C47.856 54.448 48.424 53.624 48.872 52.776ZM52.592 52.872C53.008 53.656 53.536 54.44 54.176 55.224C54.816 56.008 55.512 56.72 56.264 57.36C57.016 58 57.776 58.528 58.544 58.944C58.384 59.072 58.208 59.24 58.016 59.448C57.824 59.64 57.64 59.84 57.464 60.048C57.304 60.272 57.16 60.472 57.032 60.648C56.248 60.136 55.472 59.504 54.704 58.752C53.936 58 53.216 57.168 52.544 56.256C51.888 55.344 51.328 54.424 50.864 53.496L52.592 52.872ZM35.6 52.032C36.544 51.776 37.68 51.464 39.008 51.096C40.336 50.712 41.68 50.312 43.04 49.896L43.328 51.96C42.096 52.36 40.848 52.76 39.584 53.16C38.32 53.544 37.168 53.896 36.128 54.216L35.6 52.032ZM35.96 44.448H43.256V46.56H35.96V44.448ZM38.744 39.768H40.856V59.52C40.856 60.08 40.792 60.52 40.664 60.84C40.536 61.16 40.304 61.416 39.968 61.608C39.648 61.784 39.232 61.896 38.72 61.944C38.224 62.008 37.584 62.04 36.8 62.04C36.784 61.752 36.712 61.4 36.584 60.984C36.472 60.584 36.344 60.232 36.2 59.928C36.68 59.944 37.12 59.952 37.52 59.952C37.92 59.952 38.192 59.944 38.336 59.928C38.48 59.928 38.584 59.904 38.648 59.856C38.712 59.792 38.744 59.68 38.744 59.52V39.768ZM63.848 41.4H79.04V43.56H63.848V41.4ZM63.848 46.968H79.04V49.08H63.848V46.968ZM63.752 52.656H79.112V54.816H63.752V52.656ZM62.552 41.4H64.808V50.064C64.808 50.992 64.76 51.992 64.664 53.064C64.584 54.136 64.432 55.224 64.208 56.328C63.984 57.416 63.648 58.464 63.2 59.472C62.768 60.464 62.184 61.36 61.448 62.16C61.336 62 61.168 61.824 60.944 61.632C60.736 61.44 60.512 61.256 60.272 61.08C60.048 60.904 59.848 60.768 59.672 60.672C60.344 59.92 60.872 59.112 61.256 58.248C61.64 57.368 61.92 56.464 62.096 55.536C62.288 54.592 62.408 53.656 62.456 52.728C62.52 51.784 62.552 50.888 62.552 50.04V41.4ZM78.176 41.4H80.432V59.16C80.432 59.816 80.344 60.32 80.168 60.672C79.992 61.04 79.688 61.32 79.256 61.512C78.824 61.688 78.24 61.792 77.504 61.824C76.768 61.872 75.832 61.888 74.696 61.872C74.664 61.584 74.568 61.224 74.408 60.792C74.264 60.36 74.112 59.992 73.952 59.688C74.464 59.72 74.968 59.744 75.464 59.76C75.96 59.76 76.392 59.76 76.76 59.76C77.144 59.744 77.408 59.736 77.552 59.736C77.792 59.736 77.952 59.696 78.032 59.616C78.128 59.52 78.176 59.36 78.176 59.136V41.4ZM70.04 42.24H72.32V61.776H70.04V42.24ZM93.728 39.624H96.152V44.304H93.728V39.624ZM93.752 45H96.104V62.064H93.752V45ZM84.128 42.936H105.92V45.144H84.128V42.936ZM86.528 48.096H102.296V50.304H88.808V59.088H86.528V48.096ZM101.432 48.096H103.784V56.424C103.784 57.016 103.704 57.488 103.544 57.84C103.4 58.192 103.104 58.464 102.656 58.656C102.192 58.816 101.616 58.92 100.928 58.968C100.24 59.016 99.392 59.04 98.384 59.04C98.352 58.688 98.256 58.304 98.096 57.888C97.936 57.472 97.776 57.104 97.616 56.784C98.096 56.8 98.56 56.816 99.008 56.832C99.472 56.848 99.872 56.856 100.208 56.856C100.544 56.84 100.776 56.832 100.904 56.832C101.112 56.832 101.248 56.8 101.312 56.736C101.392 56.672 101.432 56.56 101.432 56.4V48.096ZM115.016 49.512H130.16V51.456H115.016V49.512ZM117.68 52.896H127.88V54.72H117.68V52.896ZM118.736 50.232L120.704 50.736C120.096 52.096 119.28 53.344 118.256 54.48C117.248 55.616 116.176 56.56 115.04 57.312C114.944 57.184 114.8 57.032 114.608 56.856C114.416 56.68 114.224 56.504 114.032 56.328C113.84 56.152 113.664 56.016 113.504 55.92C114.624 55.28 115.648 54.464 116.576 53.472C117.504 52.48 118.224 51.4 118.736 50.232ZM127.496 52.896H129.608C129.608 52.896 129.6 53.008 129.584 53.232C129.584 53.44 129.576 53.616 129.56 53.76C129.448 55.36 129.32 56.672 129.176 57.696C129.048 58.704 128.904 59.48 128.744 60.024C128.584 60.584 128.392 60.984 128.168 61.224C127.944 61.464 127.712 61.632 127.472 61.728C127.248 61.824 126.984 61.888 126.68 61.92C126.408 61.936 126.056 61.944 125.624 61.944C125.208 61.96 124.76 61.96 124.28 61.944C124.264 61.656 124.208 61.336 124.112 60.984C124.032 60.632 123.912 60.344 123.752 60.12C124.168 60.152 124.544 60.168 124.88 60.168C125.232 60.184 125.496 60.192 125.672 60.192C125.832 60.192 125.968 60.176 126.08 60.144C126.192 60.112 126.288 60.04 126.368 59.928C126.528 59.768 126.672 59.456 126.8 58.992C126.928 58.512 127.048 57.808 127.16 56.88C127.288 55.952 127.4 54.736 127.496 53.232V52.896ZM119.288 45.144V46.728H126.368V45.144H119.288ZM119.288 42.024V43.608H126.368V42.024H119.288ZM117.248 40.416H128.456V48.36H117.248V40.416ZM108.176 44.88H115.4V47.04H108.176V44.88ZM110.816 39.984H112.952V54.816H110.816V39.984ZM107.696 55.56C108.304 55.32 109.016 55.032 109.832 54.696C110.648 54.344 111.512 53.968 112.424 53.568C113.336 53.152 114.248 52.744 115.16 52.344L115.664 54.312C114.448 54.92 113.216 55.536 111.968 56.16C110.72 56.784 109.584 57.344 108.56 57.84L107.696 55.56ZM124.568 53.28L126.128 54.12C125.824 55.112 125.408 56.12 124.88 57.144C124.368 58.152 123.784 59.096 123.128 59.976C122.472 60.84 121.776 61.552 121.04 62.112C120.848 61.904 120.6 61.68 120.296 61.44C119.992 61.2 119.696 61 119.408 60.84C120.16 60.344 120.872 59.688 121.544 58.872C122.232 58.056 122.832 57.16 123.344 56.184C123.872 55.208 124.28 54.24 124.568 53.28ZM120.872 53.304L122.384 54.192C121.968 55.056 121.432 55.92 120.776 56.784C120.136 57.648 119.424 58.456 118.64 59.208C117.872 59.944 117.104 60.56 116.336 61.056C116.16 60.832 115.928 60.592 115.64 60.336C115.368 60.08 115.096 59.864 114.824 59.688C115.624 59.272 116.408 58.72 117.176 58.032C117.96 57.344 118.672 56.592 119.312 55.776C119.952 54.944 120.472 54.12 120.872 53.304ZM141.848 43.536C142.552 43.648 143.344 43.728 144.224 43.776C145.12 43.824 146.04 43.84 146.984 43.824C147.928 43.808 148.832 43.776 149.696 43.728C150.56 43.68 151.304 43.616 151.928 43.536V45.984C151.24 46.048 150.464 46.104 149.6 46.152C148.736 46.184 147.84 46.2 146.912 46.2C146 46.2 145.104 46.184 144.224 46.152C143.344 46.104 142.56 46.048 141.872 45.984L141.848 43.536ZM143.216 53.52C143.12 53.936 143.04 54.312 142.976 54.648C142.928 54.984 142.904 55.32 142.904 55.656C142.904 55.928 142.96 56.184 143.072 56.424C143.2 56.664 143.4 56.872 143.672 57.048C143.96 57.224 144.344 57.368 144.824 57.48C145.32 57.576 145.928 57.624 146.648 57.624C147.736 57.624 148.752 57.576 149.696 57.48C150.656 57.368 151.632 57.2 152.624 56.976L152.672 59.544C151.92 59.688 151.04 59.808 150.032 59.904C149.04 59.984 147.896 60.024 146.6 60.024C144.568 60.024 143.064 59.696 142.088 59.04C141.128 58.368 140.648 57.448 140.648 56.28C140.648 55.848 140.68 55.4 140.744 54.936C140.808 54.456 140.912 53.92 141.056 53.328L143.216 53.52ZM137.672 41.808C137.624 41.952 137.56 42.144 137.48 42.384C137.416 42.608 137.352 42.84 137.288 43.08C137.24 43.304 137.2 43.488 137.168 43.632C137.088 44.032 136.992 44.52 136.88 45.096C136.784 45.656 136.68 46.272 136.568 46.944C136.472 47.6 136.376 48.272 136.28 48.96C136.2 49.632 136.128 50.288 136.064 50.928C136.016 51.568 135.992 52.152 135.992 52.68C135.992 53.096 136 53.52 136.016 53.952C136.048 54.368 136.088 54.8 136.136 55.248C136.28 54.928 136.424 54.592 136.568 54.24C136.712 53.872 136.856 53.512 137 53.16C137.144 52.808 137.28 52.488 137.408 52.2L138.608 53.16C138.4 53.752 138.176 54.408 137.936 55.128C137.696 55.848 137.48 56.536 137.288 57.192C137.112 57.832 136.984 58.352 136.904 58.752C136.872 58.912 136.84 59.104 136.808 59.328C136.776 59.536 136.768 59.712 136.784 59.856C136.784 59.968 136.784 60.104 136.784 60.264C136.8 60.44 136.816 60.6 136.832 60.744L134.648 60.888C134.408 60.056 134.2 58.96 134.024 57.6C133.848 56.24 133.76 54.752 133.76 53.136C133.76 52.24 133.8 51.336 133.88 50.424C133.96 49.496 134.056 48.6 134.168 47.736C134.28 46.872 134.392 46.08 134.504 45.36C134.632 44.64 134.728 44.04 134.792 43.56C134.84 43.256 134.88 42.928 134.912 42.576C134.96 42.224 134.992 41.888 135.008 41.568L137.672 41.808ZM36.344 78.616H57.68V80.608H36.344V78.616ZM53.312 70.672L55.208 71.92C54.152 72.64 52.96 73.304 51.632 73.912C50.32 74.504 48.928 75.048 47.456 75.544C45.984 76.04 44.496 76.488 42.992 76.888C41.488 77.272 40.032 77.608 38.624 77.896C38.512 77.72 38.36 77.512 38.168 77.272C37.992 77.032 37.808 76.8 37.616 76.576C37.424 76.336 37.248 76.144 37.088 76C38.576 75.776 40.08 75.488 41.6 75.136C43.136 74.784 44.616 74.384 46.04 73.936C47.48 73.472 48.816 72.968 50.048 72.424C51.296 71.88 52.384 71.296 53.312 70.672ZM46.736 81.112H48.944V93.016H46.736V81.112ZM40.328 83.32H54.512V85.336H42.584V91.696H40.328V83.32ZM53.504 83.32H55.784V89.224C55.784 89.768 55.712 90.192 55.568 90.496C55.44 90.784 55.176 91.016 54.776 91.192C54.392 91.336 53.896 91.424 53.288 91.456C52.68 91.504 51.944 91.528 51.08 91.528C51.032 91.208 50.936 90.872 50.792 90.52C50.664 90.152 50.528 89.832 50.384 89.56C50.992 89.576 51.544 89.584 52.04 89.584C52.552 89.584 52.896 89.584 53.072 89.584C53.232 89.584 53.344 89.56 53.408 89.512C53.472 89.448 53.504 89.344 53.504 89.2V83.32ZM38.648 72.448L40.208 71.08C41.472 71.384 42.824 71.752 44.264 72.184C45.704 72.6 47.144 73.048 48.584 73.528C50.024 74.008 51.376 74.496 52.64 74.992C53.92 75.488 55.032 75.96 55.976 76.408L54.248 78.016C53.384 77.584 52.336 77.112 51.104 76.6C49.888 76.088 48.568 75.584 47.144 75.088C45.72 74.576 44.272 74.096 42.8 73.648C41.344 73.184 39.96 72.784 38.648 72.448ZM44.576 75.784L46.88 76.408C46.272 77.944 45.504 79.432 44.576 80.872C43.648 82.312 42.568 83.64 41.336 84.856C40.12 86.056 38.752 87.088 37.232 87.952C37.104 87.776 36.952 87.584 36.776 87.376C36.6 87.152 36.416 86.944 36.224 86.752C36.032 86.544 35.864 86.368 35.72 86.224C37.16 85.456 38.456 84.52 39.608 83.416C40.776 82.296 41.776 81.08 42.608 79.768C43.456 78.456 44.112 77.128 44.576 75.784ZM61.88 83.512H80.288V85.384H61.88V83.512ZM59.888 73.168H71.384V75.112H59.888V73.168ZM73.496 71.536H80V73.192H73.496V71.536ZM73.664 74.584H80.168V76.096H73.664V74.584ZM73.424 77.536H79.976V79.072H73.424V77.536ZM62.912 87.064H79.136V88.912H62.912V87.064ZM60.32 90.64H81.68V92.536H60.32V90.64ZM69.824 84.376H72.104V91.816H69.824V84.376ZM64.616 70.768H66.752V73.984H64.616V70.768ZM61.64 74.248H63.728V78.76C63.728 79.112 63.776 79.36 63.872 79.504C63.984 79.648 64.192 79.72 64.496 79.72C64.64 79.72 64.88 79.72 65.216 79.72C65.568 79.72 65.944 79.72 66.344 79.72C66.744 79.72 67.12 79.72 67.472 79.72C67.824 79.72 68.064 79.72 68.192 79.72C68.48 79.72 68.808 79.712 69.176 79.696C69.56 79.664 69.864 79.624 70.088 79.576C70.12 79.848 70.152 80.176 70.184 80.56C70.232 80.928 70.272 81.232 70.304 81.472C70.096 81.536 69.8 81.584 69.416 81.616C69.032 81.632 68.648 81.64 68.264 81.64C68.136 81.64 67.936 81.64 67.664 81.64C67.408 81.64 67.12 81.64 66.8 81.64C66.48 81.64 66.16 81.64 65.84 81.64C65.52 81.64 65.24 81.64 65 81.64C64.76 81.64 64.592 81.64 64.496 81.64C63.744 81.64 63.16 81.544 62.744 81.352C62.328 81.16 62.04 80.856 61.88 80.44C61.72 80.008 61.64 79.432 61.64 78.712V74.248ZM79.328 71.536H81.392C81.392 71.536 81.392 71.592 81.392 71.704C81.392 71.816 81.392 71.944 81.392 72.088C81.392 72.216 81.392 72.32 81.392 72.4C81.312 74.496 81.232 76.176 81.152 77.44C81.072 78.704 80.968 79.664 80.84 80.32C80.712 80.96 80.544 81.408 80.336 81.664C80.144 81.92 79.92 82.104 79.664 82.216C79.424 82.328 79.144 82.4 78.824 82.432C78.552 82.48 78.192 82.504 77.744 82.504C77.296 82.504 76.824 82.488 76.328 82.456C76.312 82.2 76.256 81.912 76.16 81.592C76.064 81.256 75.952 80.968 75.824 80.728C76.256 80.76 76.656 80.784 77.024 80.8C77.392 80.816 77.656 80.824 77.816 80.824C78.136 80.824 78.376 80.72 78.536 80.512C78.664 80.352 78.776 79.976 78.872 79.384C78.968 78.792 79.048 77.896 79.112 76.696C79.192 75.496 79.264 73.896 79.328 71.896V71.536ZM72.848 71.536H74.912C74.864 73.28 74.744 74.88 74.552 76.336C74.36 77.776 74 79.056 73.472 80.176C72.96 81.296 72.176 82.232 71.12 82.984C70.992 82.744 70.8 82.472 70.544 82.168C70.288 81.864 70.048 81.632 69.824 81.472C70.704 80.832 71.352 80.032 71.768 79.072C72.184 78.096 72.456 76.984 72.584 75.736C72.728 74.472 72.816 73.072 72.848 71.536ZM98.336 71.848C98.32 71.944 98.296 72.112 98.264 72.352C98.248 72.592 98.232 72.832 98.216 73.072C98.2 73.312 98.192 73.488 98.192 73.6C98.176 73.904 98.16 74.328 98.144 74.872C98.144 75.4 98.144 75.984 98.144 76.624C98.144 77.264 98.144 77.912 98.144 78.568C98.16 79.208 98.168 79.816 98.168 80.392C98.184 80.952 98.192 81.424 98.192 81.808L95.864 80.848C95.864 80.592 95.864 80.232 95.864 79.768C95.864 79.288 95.856 78.752 95.84 78.16C95.84 77.552 95.832 76.952 95.816 76.36C95.816 75.768 95.808 75.224 95.792 74.728C95.792 74.232 95.784 73.856 95.768 73.6C95.736 73.216 95.696 72.856 95.648 72.52C95.616 72.184 95.592 71.96 95.576 71.848H98.336ZM85.208 75.04C85.896 75.024 86.664 75.008 87.512 74.992C88.376 74.976 89.288 74.96 90.248 74.944C91.208 74.912 92.16 74.888 93.104 74.872C94.064 74.84 94.976 74.824 95.84 74.824C96.704 74.808 97.472 74.8 98.144 74.8C98.832 74.8 99.536 74.8 100.256 74.8C100.976 74.8 101.664 74.8 102.32 74.8C102.976 74.8 103.568 74.8 104.096 74.8C104.64 74.8 105.064 74.8 105.368 74.8L105.32 77.056C104.632 77.024 103.696 77 102.512 76.984C101.344 76.952 99.872 76.936 98.096 76.936C97.04 76.936 95.952 76.944 94.832 76.96C93.712 76.976 92.584 77.008 91.448 77.056C90.328 77.088 89.24 77.128 88.184 77.176C87.144 77.224 86.176 77.28 85.28 77.344L85.208 75.04ZM97.976 82.048C97.976 83.232 97.816 84.216 97.496 85C97.192 85.768 96.752 86.352 96.176 86.752C95.6 87.136 94.904 87.328 94.088 87.328C93.592 87.328 93.104 87.24 92.624 87.064C92.16 86.888 91.728 86.624 91.328 86.272C90.944 85.904 90.632 85.464 90.392 84.952C90.168 84.424 90.056 83.824 90.056 83.152C90.056 82.304 90.256 81.56 90.656 80.92C91.072 80.264 91.616 79.752 92.288 79.384C92.976 79.016 93.72 78.832 94.52 78.832C95.512 78.832 96.336 79.056 96.992 79.504C97.664 79.952 98.168 80.56 98.504 81.328C98.84 82.08 99.008 82.936 99.008 83.896C99.008 84.68 98.888 85.496 98.648 86.344C98.408 87.176 98.008 87.984 97.448 88.768C96.888 89.552 96.128 90.272 95.168 90.928C94.224 91.568 93.04 92.096 91.616 92.512L89.576 90.496C90.648 90.272 91.616 89.976 92.48 89.608C93.344 89.224 94.088 88.76 94.712 88.216C95.336 87.656 95.816 87 96.152 86.248C96.504 85.48 96.68 84.592 96.68 83.584C96.68 82.624 96.464 81.928 96.032 81.496C95.616 81.064 95.104 80.848 94.496 80.848C94.128 80.848 93.776 80.936 93.44 81.112C93.104 81.288 92.832 81.544 92.624 81.88C92.416 82.216 92.312 82.624 92.312 83.104C92.312 83.776 92.528 84.304 92.96 84.688C93.408 85.056 93.92 85.24 94.496 85.24C94.96 85.24 95.352 85.112 95.672 84.856C96.008 84.584 96.24 84.168 96.368 83.608C96.496 83.032 96.464 82.304 96.272 81.424L97.976 82.048ZM112.52 73.048C112.824 73.08 113.144 73.104 113.48 73.12C113.832 73.136 114.152 73.144 114.44 73.144C114.68 73.144 115.064 73.144 115.592 73.144C116.136 73.128 116.744 73.112 117.416 73.096C118.104 73.08 118.784 73.064 119.456 73.048C120.128 73.016 120.728 72.984 121.256 72.952C121.8 72.92 122.2 72.896 122.456 72.88C122.888 72.848 123.216 72.816 123.44 72.784C123.68 72.752 123.864 72.712 123.992 72.664L125.312 74.392C125.072 74.552 124.824 74.712 124.568 74.872C124.312 75.032 124.056 75.216 123.8 75.424C123.496 75.648 123.096 75.96 122.6 76.36C122.12 76.744 121.6 77.176 121.04 77.656C120.48 78.12 119.928 78.576 119.384 79.024C118.84 79.472 118.352 79.872 117.92 80.224C118.4 80.064 118.88 79.96 119.36 79.912C119.84 79.848 120.32 79.816 120.8 79.816C122.128 79.816 123.32 80.072 124.376 80.584C125.432 81.096 126.264 81.784 126.872 82.648C127.48 83.512 127.784 84.512 127.784 85.648C127.784 86.912 127.448 88.04 126.776 89.032C126.12 90.024 125.16 90.8 123.896 91.36C122.648 91.92 121.128 92.2 119.336 92.2C118.232 92.2 117.264 92.048 116.432 91.744C115.6 91.44 114.952 91.016 114.488 90.472C114.04 89.912 113.816 89.272 113.816 88.552C113.816 87.96 113.976 87.408 114.296 86.896C114.632 86.368 115.096 85.952 115.688 85.648C116.296 85.328 116.992 85.168 117.776 85.168C118.864 85.168 119.768 85.392 120.488 85.84C121.224 86.272 121.784 86.848 122.168 87.568C122.568 88.288 122.784 89.072 122.816 89.92L120.632 90.232C120.584 89.272 120.304 88.488 119.792 87.88C119.296 87.272 118.624 86.968 117.776 86.968C117.264 86.968 116.84 87.104 116.504 87.376C116.184 87.648 116.024 87.968 116.024 88.336C116.024 88.864 116.288 89.28 116.816 89.584C117.36 89.888 118.056 90.04 118.904 90.04C120.264 90.04 121.424 89.872 122.384 89.536C123.344 89.184 124.072 88.68 124.568 88.024C125.064 87.352 125.312 86.544 125.312 85.6C125.312 84.848 125.088 84.176 124.64 83.584C124.192 82.992 123.576 82.536 122.792 82.216C122.008 81.88 121.112 81.712 120.104 81.712C119.144 81.712 118.264 81.824 117.464 82.048C116.68 82.256 115.944 82.568 115.256 82.984C114.568 83.384 113.888 83.888 113.216 84.496C112.56 85.088 111.88 85.768 111.176 86.536L109.424 84.76C109.904 84.376 110.432 83.944 111.008 83.464C111.584 82.984 112.16 82.504 112.736 82.024C113.328 81.528 113.88 81.064 114.392 80.632C114.92 80.184 115.36 79.816 115.712 79.528C116.048 79.256 116.456 78.928 116.936 78.544C117.416 78.144 117.912 77.728 118.424 77.296C118.936 76.864 119.424 76.456 119.888 76.072C120.352 75.672 120.736 75.336 121.04 75.064C120.784 75.08 120.432 75.096 119.984 75.112C119.536 75.128 119.04 75.152 118.496 75.184C117.968 75.2 117.432 75.224 116.888 75.256C116.344 75.272 115.848 75.296 115.4 75.328C114.952 75.344 114.608 75.36 114.368 75.376C114.08 75.392 113.776 75.416 113.456 75.448C113.152 75.464 112.864 75.488 112.592 75.52L112.52 73.048ZM141.416 71.392H143.984C143.952 72.048 143.896 72.896 143.816 73.936C143.736 74.976 143.584 76.144 143.36 77.44C143.152 78.72 142.832 80.056 142.4 81.448C141.968 82.84 141.376 84.232 140.624 85.624C139.872 87 138.92 88.312 137.768 89.56C136.616 90.792 135.216 91.88 133.568 92.824C133.36 92.52 133.088 92.208 132.752 91.888C132.416 91.568 132.056 91.28 131.672 91.024C133.304 90.16 134.672 89.16 135.776 88.024C136.88 86.872 137.784 85.656 138.488 84.376C139.192 83.08 139.736 81.784 140.12 80.488C140.52 79.176 140.808 77.928 140.984 76.744C141.16 75.56 141.272 74.504 141.32 73.576C141.368 72.648 141.4 71.92 141.416 71.392ZM143.888 71.944C143.904 72.232 143.936 72.712 143.984 73.384C144.048 74.04 144.152 74.832 144.296 75.76C144.456 76.688 144.688 77.696 144.992 78.784C145.296 79.872 145.696 80.992 146.192 82.144C146.688 83.28 147.312 84.4 148.064 85.504C148.816 86.592 149.712 87.6 150.752 88.528C151.808 89.44 153.048 90.224 154.472 90.88C154.12 91.152 153.784 91.464 153.464 91.816C153.16 92.168 152.912 92.496 152.72 92.8C151.264 92.096 149.984 91.24 148.88 90.232C147.792 89.224 146.856 88.128 146.072 86.944C145.304 85.76 144.656 84.552 144.128 83.32C143.616 82.088 143.2 80.88 142.88 79.696C142.576 78.512 142.344 77.416 142.184 76.408C142.024 75.384 141.912 74.504 141.848 73.768C141.784 73.032 141.736 72.496 141.704 72.16L143.888 71.944ZM166.424 75.808H178.088V77.992H166.424V75.808ZM173.288 70.768H175.688V90.088C175.688 90.808 175.592 91.344 175.4 91.696C175.224 92.064 174.92 92.336 174.488 92.512C174.04 92.704 173.448 92.824 172.712 92.872C171.976 92.936 171.096 92.968 170.072 92.968C170.008 92.648 169.896 92.256 169.736 91.792C169.592 91.344 169.44 90.96 169.28 90.64C170 90.656 170.696 90.672 171.368 90.688C172.04 90.688 172.48 90.68 172.688 90.664C172.912 90.664 173.064 90.624 173.144 90.544C173.24 90.464 173.288 90.312 173.288 90.088V70.768ZM173.096 76.84L174.92 77.944C174.472 79 173.936 80.064 173.312 81.136C172.688 82.208 171.992 83.248 171.224 84.256C170.472 85.264 169.68 86.2 168.848 87.064C168.032 87.928 167.208 88.68 166.376 89.32C166.184 89.016 165.936 88.688 165.632 88.336C165.328 87.968 165.032 87.672 164.744 87.448C165.576 86.904 166.4 86.24 167.216 85.456C168.032 84.656 168.808 83.784 169.544 82.84C170.28 81.88 170.952 80.896 171.56 79.888C172.168 78.864 172.68 77.848 173.096 76.84ZM156.296 75.808H165.632V77.968H156.296V75.808ZM160.16 70.744H162.44V92.992H160.16V70.744ZM160.064 77.2L161.6 77.752C161.376 78.728 161.088 79.736 160.736 80.776C160.384 81.816 160 82.832 159.584 83.824C159.168 84.816 158.72 85.744 158.24 86.608C157.76 87.472 157.256 88.208 156.728 88.816C156.616 88.48 156.432 88.104 156.176 87.688C155.936 87.256 155.72 86.888 155.528 86.584C156.008 86.04 156.472 85.408 156.92 84.688C157.384 83.968 157.816 83.192 158.216 82.36C158.616 81.512 158.976 80.648 159.296 79.768C159.616 78.888 159.872 78.032 160.064 77.2ZM162.272 78.448C162.432 78.576 162.648 78.784 162.92 79.072C163.192 79.36 163.496 79.688 163.832 80.056C164.168 80.408 164.496 80.768 164.816 81.136C165.152 81.488 165.448 81.816 165.704 82.12C165.976 82.408 166.168 82.624 166.28 82.768L164.912 84.712C164.72 84.392 164.456 84 164.12 83.536C163.784 83.056 163.424 82.568 163.04 82.072C162.672 81.56 162.312 81.088 161.96 80.656C161.608 80.208 161.32 79.848 161.096 79.576L162.272 78.448ZM189.512 72.304C189.448 72.544 189.384 72.816 189.32 73.12C189.272 73.424 189.216 73.704 189.152 73.96C189.104 74.28 189.032 74.68 188.936 75.16C188.84 75.624 188.744 76.112 188.648 76.624C188.568 77.12 188.472 77.6 188.36 78.064C188.2 78.736 188 79.512 187.76 80.392C187.52 81.272 187.24 82.216 186.92 83.224C186.616 84.216 186.264 85.232 185.864 86.272C185.48 87.296 185.056 88.304 184.592 89.296C184.144 90.272 183.656 91.184 183.128 92.032L180.656 91.048C181.216 90.312 181.736 89.48 182.216 88.552C182.696 87.624 183.136 86.672 183.536 85.696C183.936 84.704 184.296 83.728 184.616 82.768C184.936 81.808 185.208 80.92 185.432 80.104C185.656 79.272 185.832 78.56 185.96 77.968C186.184 76.944 186.36 75.92 186.488 74.896C186.632 73.872 186.704 72.912 186.704 72.016L189.512 72.304ZM197.768 74.92C198.136 75.416 198.528 76.04 198.944 76.792C199.376 77.528 199.792 78.312 200.192 79.144C200.592 79.976 200.96 80.784 201.296 81.568C201.632 82.336 201.896 83 202.088 83.56L199.712 84.688C199.536 84.048 199.296 83.328 198.992 82.528C198.704 81.728 198.368 80.92 197.984 80.104C197.616 79.272 197.216 78.488 196.784 77.752C196.368 77.016 195.952 76.4 195.536 75.904L197.768 74.92ZM180.392 77.416C180.792 77.432 181.176 77.44 181.544 77.44C181.912 77.44 182.304 77.432 182.72 77.416C183.088 77.4 183.552 77.376 184.112 77.344C184.688 77.296 185.296 77.248 185.936 77.2C186.592 77.136 187.24 77.08 187.88 77.032C188.52 76.968 189.112 76.92 189.656 76.888C190.216 76.856 190.664 76.84 191 76.84C191.768 76.84 192.456 76.968 193.064 77.224C193.688 77.464 194.176 77.896 194.528 78.52C194.896 79.144 195.08 80.016 195.08 81.136C195.08 82.08 195.032 83.104 194.936 84.208C194.856 85.296 194.712 86.344 194.504 87.352C194.312 88.344 194.048 89.176 193.712 89.848C193.328 90.68 192.824 91.24 192.2 91.528C191.576 91.816 190.848 91.96 190.016 91.96C189.552 91.96 189.056 91.92 188.528 91.84C188.016 91.776 187.56 91.696 187.16 91.6L186.752 89.104C187.088 89.2 187.44 89.288 187.808 89.368C188.176 89.432 188.528 89.488 188.864 89.536C189.2 89.568 189.48 89.584 189.704 89.584C190.12 89.584 190.496 89.512 190.832 89.368C191.168 89.208 191.448 88.904 191.672 88.456C191.912 87.944 192.104 87.296 192.248 86.512C192.408 85.728 192.528 84.888 192.608 83.992C192.688 83.096 192.728 82.232 192.728 81.4C192.728 80.696 192.632 80.176 192.44 79.84C192.248 79.504 191.968 79.28 191.6 79.168C191.232 79.04 190.792 78.976 190.28 78.976C189.896 78.976 189.368 79.008 188.696 79.072C188.04 79.12 187.336 79.184 186.584 79.264C185.848 79.344 185.152 79.424 184.496 79.504C183.856 79.568 183.36 79.624 183.008 79.672C182.704 79.704 182.312 79.752 181.832 79.816C181.368 79.88 180.968 79.944 180.632 80.008L180.392 77.416ZM197.72 71.488C197.928 71.776 198.152 72.12 198.392 72.52C198.632 72.92 198.864 73.32 199.088 73.72C199.312 74.12 199.504 74.48 199.664 74.8L198.08 75.472C197.936 75.152 197.752 74.792 197.528 74.392C197.304 73.992 197.072 73.592 196.832 73.192C196.608 72.792 196.384 72.44 196.16 72.136L197.72 71.488ZM200.456 70.48C200.664 70.784 200.896 71.136 201.152 71.536C201.408 71.936 201.648 72.336 201.872 72.736C202.112 73.12 202.304 73.456 202.448 73.744L200.888 74.44C200.632 73.928 200.32 73.36 199.952 72.736C199.6 72.112 199.248 71.576 198.896 71.128L200.456 70.48ZM40.736 105.08C40.688 105.304 40.648 105.576 40.616 105.896C40.584 106.216 40.552 106.536 40.52 106.856C40.504 107.176 40.496 107.448 40.496 107.672C40.496 108.168 40.496 108.72 40.496 109.328C40.512 109.936 40.528 110.56 40.544 111.2C40.56 111.824 40.6 112.448 40.664 113.072C40.792 114.336 40.984 115.44 41.24 116.384C41.496 117.328 41.824 118.064 42.224 118.592C42.624 119.12 43.088 119.384 43.616 119.384C43.92 119.384 44.208 119.24 44.48 118.952C44.752 118.664 45.008 118.28 45.248 117.8C45.488 117.32 45.704 116.8 45.896 116.24C46.104 115.664 46.28 115.112 46.424 114.584L48.32 116.816C47.808 118.176 47.296 119.264 46.784 120.08C46.288 120.88 45.776 121.456 45.248 121.808C44.72 122.16 44.16 122.336 43.568 122.336C42.768 122.336 42 122.064 41.264 121.52C40.544 120.96 39.92 120.048 39.392 118.784C38.864 117.52 38.488 115.832 38.264 113.72C38.184 113.016 38.12 112.256 38.072 111.44C38.04 110.624 38.016 109.848 38 109.112C38 108.376 38 107.768 38 107.288C38 106.984 37.984 106.616 37.952 106.184C37.936 105.736 37.888 105.352 37.808 105.032L40.736 105.08ZM53.024 105.68C53.456 106.24 53.872 106.896 54.272 107.648C54.688 108.384 55.064 109.184 55.4 110.048C55.736 110.912 56.032 111.792 56.288 112.688C56.56 113.584 56.784 114.472 56.96 115.352C57.136 116.232 57.256 117.064 57.32 117.848L54.848 118.808C54.752 117.768 54.592 116.68 54.368 115.544C54.144 114.408 53.856 113.288 53.504 112.184C53.152 111.064 52.736 110.016 52.256 109.04C51.792 108.048 51.256 107.192 50.648 106.472L53.024 105.68ZM61.184 106.616C61.664 106.664 62.168 106.704 62.696 106.736C63.24 106.752 63.752 106.76 64.232 106.76C65.16 106.76 66.104 106.72 67.064 106.64C68.04 106.544 69 106.408 69.944 106.232C70.904 106.04 71.816 105.808 72.68 105.536L72.752 107.744C72.016 107.952 71.176 108.144 70.232 108.32C69.288 108.496 68.304 108.64 67.28 108.752C66.256 108.864 65.24 108.92 64.232 108.92C63.784 108.92 63.312 108.912 62.816 108.896C62.32 108.88 61.832 108.864 61.352 108.848L61.184 106.616ZM70.04 102.824C69.944 103.224 69.816 103.728 69.656 104.336C69.512 104.944 69.344 105.584 69.152 106.256C68.976 106.928 68.792 107.576 68.6 108.2C68.216 109.352 67.736 110.576 67.16 111.872C66.584 113.152 65.96 114.4 65.288 115.616C64.616 116.832 63.936 117.896 63.248 118.808L60.944 117.632C61.488 116.976 62.024 116.248 62.552 115.448C63.08 114.632 63.576 113.792 64.04 112.928C64.52 112.048 64.952 111.2 65.336 110.384C65.72 109.552 66.032 108.792 66.272 108.104C66.544 107.304 66.792 106.4 67.016 105.392C67.24 104.384 67.368 103.44 67.4 102.56L70.04 102.824ZM75.68 110.264C75.664 110.76 75.656 111.232 75.656 111.68C75.656 112.128 75.664 112.592 75.68 113.072C75.696 113.44 75.712 113.92 75.728 114.512C75.76 115.088 75.792 115.704 75.824 116.36C75.856 117.016 75.88 117.64 75.896 118.232C75.928 118.824 75.944 119.304 75.944 119.672C75.944 120.344 75.792 120.96 75.488 121.52C75.2 122.08 74.736 122.528 74.096 122.864C73.456 123.2 72.608 123.368 71.552 123.368C70.624 123.368 69.776 123.232 69.008 122.96C68.256 122.688 67.648 122.28 67.184 121.736C66.736 121.192 66.512 120.504 66.512 119.672C66.512 118.92 66.72 118.256 67.136 117.68C67.568 117.104 68.16 116.656 68.912 116.336C69.664 116 70.536 115.832 71.528 115.832C72.904 115.832 74.168 116.032 75.32 116.432C76.472 116.816 77.504 117.304 78.416 117.896C79.344 118.472 80.144 119.056 80.816 119.648L79.544 121.688C79.08 121.272 78.568 120.84 78.008 120.392C77.448 119.928 76.824 119.504 76.136 119.12C75.464 118.72 74.728 118.392 73.928 118.136C73.144 117.88 72.304 117.752 71.408 117.752C70.608 117.752 69.96 117.912 69.464 118.232C68.984 118.552 68.744 118.96 68.744 119.456C68.744 119.968 68.952 120.384 69.368 120.704C69.8 121.024 70.424 121.184 71.24 121.184C71.848 121.184 72.328 121.088 72.68 120.896C73.048 120.688 73.304 120.408 73.448 120.056C73.592 119.704 73.664 119.312 73.664 118.88C73.664 118.464 73.648 117.904 73.616 117.2C73.6 116.496 73.568 115.736 73.52 114.92C73.488 114.104 73.448 113.288 73.4 112.472C73.368 111.64 73.344 110.904 73.328 110.264H75.68ZM80.192 111.176C79.744 110.808 79.184 110.416 78.512 110C77.84 109.568 77.152 109.16 76.448 108.776C75.744 108.376 75.12 108.056 74.576 107.816L75.8 105.968C76.232 106.16 76.72 106.392 77.264 106.664C77.808 106.936 78.352 107.224 78.896 107.528C79.44 107.832 79.944 108.136 80.408 108.44C80.872 108.728 81.256 108.976 81.56 109.184L80.192 111.176ZM88.736 105.08C88.688 105.304 88.648 105.576 88.616 105.896C88.584 106.216 88.552 106.536 88.52 106.856C88.504 107.176 88.496 107.448 88.496 107.672C88.496 108.168 88.496 108.72 88.496 109.328C88.512 109.936 88.528 110.56 88.544 111.2C88.56 111.824 88.6 112.448 88.664 113.072C88.792 114.336 88.984 115.44 89.24 116.384C89.496 117.328 89.824 118.064 90.224 118.592C90.624 119.12 91.088 119.384 91.616 119.384C91.92 119.384 92.208 119.24 92.48 118.952C92.752 118.664 93.008 118.28 93.248 117.8C93.488 117.32 93.704 116.8 93.896 116.24C94.104 115.664 94.28 115.112 94.424 114.584L96.32 116.816C95.808 118.176 95.296 119.264 94.784 120.08C94.288 120.88 93.776 121.456 93.248 121.808C92.72 122.16 92.16 122.336 91.568 122.336C90.768 122.336 90 122.064 89.264 121.52C88.544 120.96 87.92 120.048 87.392 118.784C86.864 117.52 86.488 115.832 86.264 113.72C86.184 113.016 86.12 112.256 86.072 111.44C86.04 110.624 86.016 109.848 86 109.112C86 108.376 86 107.768 86 107.288C86 106.984 85.984 106.616 85.952 106.184C85.936 105.736 85.888 105.352 85.808 105.032L88.736 105.08ZM101.024 105.68C101.456 106.24 101.872 106.896 102.272 107.648C102.688 108.384 103.064 109.184 103.4 110.048C103.736 110.912 104.032 111.792 104.288 112.688C104.56 113.584 104.784 114.472 104.96 115.352C105.136 116.232 105.256 117.064 105.32 117.848L102.848 118.808C102.752 117.768 102.592 116.68 102.368 115.544C102.144 114.408 101.856 113.288 101.504 112.184C101.152 111.064 100.736 110.016 100.256 109.04C99.792 108.048 99.256 107.192 98.648 106.472L101.024 105.68Z" fill="white"/>
<defs>
<linearGradient id="paint0_linear_279_2" x1="203.688" y1="-11.373" x2="203.688" y2="87.0821" gradientUnits="userSpaceOnUse">
<stop stop-color="#383838"/>
<stop offset="1" stop-color="#9E9E9E"/>
</linearGradient>
</defs>
</svg>
