<svg width="363" height="158" viewBox="0 0 363 158" fill="none" xmlns="http://www.w3.org/2000/svg">
<mask id="path-1-outside-1_279_2" maskUnits="userSpaceOnUse" x="0" y="0" width="363" height="158" fill="black">
<rect fill="white" width="363" height="158"/>
<path d="M359 154H4V4H359V154Z"/>
</mask>
<path d="M359 154H4V4H359V154Z" fill="url(#paint0_linear_279_2)"/>
<path d="M359 154V158H363V154H359ZM4 154H0V158H4V154ZM4 4V0H0V4H4ZM359 4H363V0H359V4ZM359 154V150H4V154V158H359V154ZM4 154H8V4H4H0V154H4ZM4 4V8H359V4V0H4V4ZM359 4H355V154H359H363V4H359Z" fill="white" mask="url(#path-1-outside-1_279_2)"/>
<mask id="mask0_279_2" style="mask-type:alpha" maskUnits="userSpaceOnUse" x="194" y="32" width="160" height="122">
<rect x="194" y="32" width="159.257" height="122" fill="#D9D9D9"/>
</mask>
<g mask="url(#mask0_279_2)">
<path d="M277.808 135.803C277.808 135.803 272.582 135.168 271.001 135.326C269.42 135.485 260.792 137.777 260.792 137.777L257.071 142.285L266.57 143.866C266.57 143.866 269.262 142.596 274.011 142.755C278.76 142.914 277.808 135.79 277.808 135.79V135.803Z" fill="#FCE4D6" stroke="#727171" stroke-width="0.3" stroke-linecap="round" stroke-linejoin="round"/>
<path d="M265.071 182.862C265.782 170.64 271.719 165.789 276.227 162.462C280.735 159.142 289.998 147.745 289.998 147.745L319.909 177.18L318.956 182.862" fill="#C7B69D"/>
<path d="M276.817 90.2986C276.817 90.2986 275.75 89.4669 274.677 90.5336C273.611 91.6002 270.29 96.7049 269.814 97.1811C269.338 97.6573 269.579 100.864 269.579 100.864C269.579 100.864 266.728 106.559 266.373 106.8C266.017 107.041 264.595 107.156 264.595 107.156C264.595 107.156 261.268 110.362 259.732 112.736C258.189 115.111 250.475 127.219 250.475 127.219L257.833 142.412C257.833 142.412 265.192 135.765 268.278 133.631C271.363 131.498 275.757 126.863 278.011 126.508C280.265 126.152 285.134 126.387 285.134 126.387L276.823 90.305L276.817 90.2986Z" fill="#D1BFA5"/>
<path d="M307.711 64.1021C306.543 79.9685 316.346 81.9939 316.346 81.9939C316.346 81.9939 300.207 103.441 299.013 104.705C297.826 105.968 292.086 91.9557 292.366 88.5652C292.74 84.0383 290.943 80.6352 290.943 80.6352C290.943 80.6352 292.366 65.8545 297.35 64.7878C302.334 63.7212 307.705 64.1085 307.705 64.1085L307.711 64.1021Z" fill="#FCE4D6" stroke="#727171" stroke-width="0.3" stroke-linecap="round" stroke-linejoin="round"/>
<path d="M291.42 80.489C291.42 80.489 293.636 87.2127 292.372 91.2507C291.102 95.2888 297.121 103.835 298.779 103.835C300.436 103.835 306.696 98.057 308.036 93.6253C309.382 89.1936 311.121 82.5461 311.121 82.5461C311.121 82.5461 306.061 89.5111 302.734 88.8C299.413 88.0889 296.01 81.0477 294.823 79.0668C293.636 77.0859 291.42 80.489 291.42 80.489Z" fill="#FBDAC8"/>
<path d="M311.121 182.862C311.121 182.862 308.746 175.993 303.527 171.25C297.191 165.491 290.709 163.891 288.334 162.704C285.959 161.517 288.22 151.307 287.978 149.409C287.978 149.409 285.724 141.93 284.061 138.488C282.398 135.047 277.413 126.381 275.871 121.993C274.328 117.6 271.598 105.136 271.833 102.171C272.068 99.2064 275.274 90.1843 275.274 90.1843C275.274 90.1843 282.632 87.6891 283.934 87.3336C285.242 86.978 291.293 84.2479 291.293 84.2479C291.293 84.2479 290.582 90.8954 292.715 95.289C294.848 99.6826 298.886 103.003 298.886 103.003C298.886 103.003 302.448 97.6636 304.467 95.4033C306.486 93.1493 315.153 79.6194 315.153 79.6194C315.153 79.6194 318.587 82.3685 323.102 84.013C328.327 85.9114 335.444 85.7907 338.174 87.5748C340.905 89.3526 333.902 110.717 333.781 117.251C333.66 123.777 334.968 128.05 335.559 130.069C336.155 132.088 334.016 136.241 334.016 136.241C334.016 136.241 333.895 141.225 335.082 145.142C336.27 149.06 336.625 152.025 338.644 156.539C339.635 158.748 342.39 163.428 344.105 168.412C344.105 168.412 348.143 175.516 348.143 182.875" fill="#DBC8AC"/>
<path d="M288.803 90.0636C288.803 90.0636 288.327 126.622 288.803 130.895C288.803 130.895 292.365 143.237 293.553 142.526C294.74 141.815 313.73 87.9303 313.73 87.9303L297.825 104.07L288.803 90.0636Z" fill="white" stroke="#727171" stroke-width="0.3" stroke-linecap="round" stroke-linejoin="round"/>
<path d="M321.21 168.285C321.21 168.285 326.315 161.517 327.858 153.688C329.4 145.853 334.029 136.241 334.029 136.241C334.029 136.241 332.6 141.225 332.01 145.853C331.413 150.482 331.178 153.688 330.346 155.352C330.346 155.352 328.067 160.444 321.21 168.291V168.285Z" fill="#D1BFA5"/>
<path d="M295.097 143.593C293.789 138.844 291.89 118.666 291.42 107.746C290.944 96.8254 291.897 85.67 291.897 85.67L289.522 86.1462C289.522 86.1462 283.351 91.7271 278.602 100.273L285.128 103.003L277.294 101.581C277.294 101.581 276.462 106.209 278.36 115.587C280.259 124.965 283.7 133.39 286.075 138.85C288.449 144.31 293.078 152.977 293.078 152.977" fill="#EDD8BA"/>
<path d="M293.795 145.257C293.56 133.625 298.665 117.6 301.865 108.102C305.071 98.6096 312.55 80.0892 312.55 80.0892L318.487 82.1083C318.487 82.1083 319.318 95.6382 320.15 98.489L310.772 102.286L321.452 98.8445C321.452 98.8445 314.569 116.171 311.007 122.704C307.446 129.231 303.414 136 301.75 138.488C300.087 140.984 295.7 149.409 295.7 149.409" fill="#EDD8BA"/>
<path d="M310.531 77.6068C310.531 77.6068 307.68 87.6892 306.372 91.3717C306.372 91.3717 303.407 92.6796 303.166 93.3907C302.931 94.1018 297.826 104.076 297.826 104.076C297.826 104.076 305.42 97.3081 310.41 95.5303L310.766 92.5653C310.766 92.5653 313.616 93.9875 314.918 93.9875C316.22 93.9875 323.94 93.397 323.94 93.397C323.94 93.397 319.667 85.5622 319.191 83.6639C318.715 81.7655 317.705 81.1115 317.705 81.1115C317.705 81.1115 311.47 75.6322 311.14 75.3592C310.429 74.7687 309.299 75.4544 309.299 75.4544C309.299 75.4544 309.915 77.0989 310.524 77.6195L310.531 77.6068Z" fill="white"/>
<path d="M306.373 91.3717C306.373 91.3717 304.83 94.1018 303.287 95.524" stroke="#727171" stroke-width="0.3" stroke-linecap="round" stroke-linejoin="round"/>
<path d="M310.531 77.6067C310.531 77.6067 310.9 76.2606 310.188 75.6067" stroke="#727171" stroke-width="0.3" stroke-linecap="round" stroke-linejoin="round"/>
<path d="M298.303 105.968C297.712 104.07 292.608 100.152 290.468 98.1335C288.328 96.1144 286.316 95.4033 285.839 95.1621C285.363 94.9272 285.484 94.0954 285.484 94.0954C285.484 94.0954 285.249 94.3303 284.297 94.451C283.344 94.5716 278.957 93.8605 278.957 93.8605C278.957 93.8605 285.649 88.3114 286.912 87.1559C288.989 85.2575 291.065 80.0956 291.065 80.0956L292.843 79.8607L293.154 89.6828C293.154 89.6828 297.827 99.0858 299.731 108.108" fill="white"/>
<path d="M293.154 89.6826C293.154 89.6826 291.363 86.0319 291.42 82.8256" stroke="#727171" stroke-width="0.3" stroke-linecap="round" stroke-linejoin="round"/>
<path d="M288.69 87.2129C288.69 87.2129 286.436 91.962 285.96 93.0287" stroke="#727171" stroke-width="0.3" stroke-linecap="round" stroke-linejoin="round"/>
<path d="M252.488 171.955C284.79 171.955 310.976 165.314 310.976 157.123C310.976 148.932 284.79 142.292 252.488 142.292C220.186 142.292 194 148.932 194 157.123C194 165.314 220.186 171.955 252.488 171.955Z" fill="#E6E6E6"/>
<path d="M196.216 156.463C196.216 154.196 198.393 152.056 202.254 150.152C197.511 152.152 194.787 154.45 194.787 156.907C194.787 164.539 220.971 170.723 253.275 170.723C253.605 170.723 253.929 170.723 254.253 170.723C222.158 170.666 196.209 164.304 196.209 156.469L196.216 156.463Z" fill="white"/>
<path d="M252.488 168.342C283.389 168.342 308.443 162.507 308.443 155.314C308.443 148.12 283.389 142.285 252.488 142.285C221.587 142.285 196.533 148.12 196.533 155.314C196.533 162.507 221.587 168.342 252.488 168.342Z" fill="#FFFEEE"/>
<path d="M334.74 86.6225C334.74 86.6225 331.832 87.6447 330.346 89.5875C326.549 94.5716 323.819 103.359 323.464 104.425C323.108 105.492 323.343 107.276 323.343 107.276C323.343 107.276 322.276 110.838 321.565 111.784C320.854 112.736 318.835 115.936 318.835 115.936C318.835 115.936 316.105 118.787 314.448 122.108C312.785 125.428 310.296 130.057 310.296 130.057C310.296 130.057 307.331 132.076 307.8 134.209C307.8 134.209 305.547 134.685 304.95 135.161C304.359 135.638 300.797 135.758 300.797 135.758C300.797 135.758 300.321 134.806 299.255 135.047C298.188 135.282 295.813 136.711 292.963 136.469C290.112 136.234 277.769 134.571 277.769 134.571C277.769 134.571 273.972 134.692 272.43 138.488C270.887 142.285 270.887 147.39 270.887 147.39C270.887 147.39 279.553 148.456 283.229 149.053C286.912 149.65 298.664 150.241 301.509 150.717C304.359 151.193 307.718 152.418 307.718 152.418C307.718 152.418 309.934 154.475 312.15 155.58C313.902 156.456 318.715 151.542 321.686 148.456C324.651 145.371 332.365 130.768 333.914 128.514C335.457 126.26 336.879 125.549 336.879 124.476C336.879 123.403 337.114 120.203 337.114 120.203C337.114 120.203 339.013 116.997 339.013 114.387C339.013 111.778 339.368 110.349 339.368 110.349C339.368 110.349 341.032 109.638 340.911 108.216C340.79 106.794 340.721 104.133 341.032 101.213C341.508 96.7049 341.387 92.3113 341.032 90.8891C340.676 89.4669 338.898 85.5495 334.74 86.6161V86.6225Z" fill="#DBC8AC"/>
<path d="M328.568 110.596C336.403 108.222 337.825 108.933 338.777 109.174C339.73 109.409 339.368 110.362 339.368 110.362C339.368 110.362 336.517 109.295 330.936 110.482C325.362 111.669 321.559 113.568 321.559 113.568C321.559 113.568 326.6 111.066 328.562 110.603L328.568 110.596Z" fill="#D1BFA5"/>
<path d="M310.29 130.063C310.29 130.063 319.668 126.381 321.687 124.247C323.706 122.114 323.706 121.517 322.163 122.349C320.62 123.181 317.179 125.314 317.179 125.314C317.179 125.314 313.452 128.463 310.296 130.063H310.29Z" fill="#D1BFA5"/>
<path d="M307.8 134.215C307.8 134.215 309.463 135.403 311.838 136.114C314.212 136.825 317.057 137.066 316.701 136.59C316.346 136.114 314.212 134.691 313.26 134.45C312.308 134.215 309.343 133.86 309.343 133.86L307.8 134.215Z" fill="#D1BFA5"/>
<path d="M307.681 134.926C307.681 134.926 307.325 136.469 307.325 137.422C307.325 138.374 308.868 142.406 312.195 144.425C312.195 144.425 308.227 139.244 307.687 134.926H307.681Z" fill="#D1BFA5"/>
<path d="M307.718 152.418C307.718 152.418 310.251 153.371 312.784 152.736C314.511 152.304 316.581 150.717 316.581 150.717" stroke="#727171" stroke-width="0.3" stroke-linecap="round" stroke-linejoin="round"/>
<path d="M313.77 48.4579C313.77 48.4579 315.725 50.6991 316.989 52.9848C318.258 55.2705 318.512 57.9371 317.236 60.8196C315.966 63.7085 314.83 65.7084 312.62 66.8068C310.411 67.9052 308.862 67.8227 307.528 66.8005C306.201 65.7783 308.252 57.5371 310.062 54.28C311.871 51.0229 313.77 48.4579 313.77 48.4579Z" fill="#6F6059" stroke="#727171" stroke-width="0.3" stroke-linecap="round" stroke-linejoin="round"/>
<path d="M314.067 49.1816C314.067 49.1816 314.886 50.8769 315.489 52.6165C316.092 54.3562 316.365 56.4958 315.464 58.3117C314.562 60.1275 314.061 57.7275 313.978 56.9657C313.896 56.2038 314.061 49.1816 314.061 49.1816H314.067Z" fill="#655650" stroke="#727171" stroke-width="0.3" stroke-linecap="round" stroke-linejoin="round"/>
<path d="M315.489 52.6167C315.489 52.6167 317.946 59.3595 314.289 63.1626" stroke="#727171" stroke-width="0.3" stroke-linecap="round" stroke-linejoin="round"/>
<path d="M309.68 62.2483C309.68 62.2483 310.594 68.9085 315.8 63.9118" stroke="#727171" stroke-width="0.3" stroke-linecap="round" stroke-linejoin="round"/>
<path d="M311.598 47.1373C311.598 47.1373 312.874 46.7309 313.604 46.9151C314.334 47.1055 315.699 49.0357 315.807 50.8134C316.144 56.5213 313.045 59.5434 313.045 59.5434L311.306 55.4229L311.598 47.1309V47.1373Z" fill="#DBC8AC" stroke="#727171" stroke-width="0.3" stroke-linecap="round" stroke-linejoin="round"/>
<path d="M285.09 36.9596C285.09 36.9596 282.594 38.1278 281.458 39.4548C280.321 40.7818 277.82 45.023 277.236 46.9975C276.652 48.9721 276.69 51.3721 278.436 55.0355C280.182 58.699 284.29 56.7879 284.29 56.7879L285.09 36.9596Z" fill="#6F6059" stroke="#727171" stroke-width="0.3" stroke-linecap="round" stroke-linejoin="round"/>
<path d="M304.011 70.6608C302.43 74.2798 299.757 77.575 297.833 78.9464C294.5 81.3273 291.827 81.6828 290.074 81.086C288.322 80.4955 287.484 77.8543 286.316 76.0131C285.021 73.975 283.052 71.8925 281.522 69.6386C280.462 68.0767 280.189 65.4291 280.03 63.3339C279.846 60.9403 279.084 60.68 278.57 59.4292C278.062 58.1784 278.075 53.6769 278.17 52.4769C278.265 51.2706 280.614 45.4675 280.614 45.4675C280.614 45.4675 284.214 41.3406 288.036 41.3406C291.859 41.3406 299.662 43.0485 303.401 45.4865C307.141 47.9246 309.985 49.8738 310.309 51.423C310.633 52.9658 309.09 59.3086 308.436 60.3625" fill="#FCE4D6"/>
<path d="M299.42 53.0547C299.42 53.0547 303.973 57.8482 304.703 59.8038C305.433 61.7529 306.576 57.9308 306.976 56.3879C307.382 54.8451 308.925 52.6483 308.925 52.6483L299.414 53.0547H299.42Z" fill="#796A62"/>
<path d="M278.931 64.4386L278.138 64.864" stroke="#727171" stroke-width="0.3" stroke-linecap="round" stroke-linejoin="round"/>
<path d="M308.079 53.9499C307.038 54.9023 307.063 56.7943 305.844 57.3657C305.355 57.5943 304.2 57.1562 301.006 54.6864C297.819 52.2102 292.212 51.3277 292.212 51.3277C304.161 55.9308 301.304 65.8481 301.304 65.8481C301.546 59.2577 297.165 55.1753 285.216 51.4547C276.473 48.7309 279.787 43.8929 279.787 43.8929C279.787 43.8929 281.209 42.0199 281.959 40.4834C282.708 38.9469 285.489 35.747 287.762 34.6676C290.035 33.5883 297.628 30.909 303.806 34.6676C309.977 38.4263 311.171 39.5501 312.974 44.4199C314.32 48.0706 314.758 50.2928 314.428 54.0515C313.964 59.3593 313.691 59.3212 309.672 65.9053C308.593 67.6703 307.926 70.7687 307.926 70.7687C307.926 70.7687 307.311 67.9624 307.476 63.2196C307.546 61.2006 308.085 53.9499 308.085 53.9499H308.079Z" fill="#796A62" stroke="#727171" stroke-width="0.3" stroke-linecap="round" stroke-linejoin="round"/>
<path d="M292.208 51.3214C292.208 51.3214 284.957 48.5087 283.541 45.5754" stroke="#727171" stroke-width="0.3" stroke-linecap="round" stroke-linejoin="round"/>
<path d="M294.601 47.9119C294.601 47.9119 301.178 53.9054 308.683 54.0769C308.683 54.0769 303.483 53.4927 299.305 49.188" stroke="#727171" stroke-width="0.3" stroke-linecap="round" stroke-linejoin="round"/>
<path d="M301.75 46.9025C301.75 46.9025 310.658 56.8452 314.455 53.1436C314.455 53.1436 310.886 54.7246 308.194 50.1278" stroke="#727171" stroke-width="0.3" stroke-linecap="round" stroke-linejoin="round"/>
<path d="M314.238 53.3022C314.238 53.3022 315.095 56.6228 312.124 58.7879" stroke="#727171" stroke-width="0.3" stroke-linecap="round" stroke-linejoin="round"/>
<path d="M306.975 55.9881C306.975 55.9881 307.984 53.7532 308.727 53.6643C309.47 53.5754 311.273 53.5945 311.629 56.6865C311.8 58.1849 311.337 60.7626 310.676 62.1975C310.016 63.6324 308.949 65.3022 307.654 65.753C306.918 66.0134 305.972 65.0229 305.972 65.0229" fill="#FCE4D6"/>
<path d="M306.975 55.9881C306.975 55.9881 307.984 53.7532 308.727 53.6643C309.47 53.5754 311.273 53.5945 311.629 56.6865C311.8 58.1849 311.337 60.7626 310.676 62.1975C310.016 63.6324 308.949 65.3022 307.654 65.753C306.918 66.0134 305.972 65.0229 305.972 65.0229" stroke="#727171" stroke-width="0.3" stroke-linecap="round" stroke-linejoin="round"/>
<path d="M306.245 63.6894C306.245 63.6894 306.296 63.5942 307.572 62.9847C308.848 62.3688 310.251 61.7276 310.594 60.045C310.937 58.3625 310.613 55.9562 310.194 55.4864C309.775 55.0229 308.861 54.9086 308.448 55.3213C308.036 55.7403 307.68 57.3403 307.636 57.9117C307.591 58.4832 307.693 59.099 307.693 59.099" fill="#FBDAC8"/>
<path d="M306.245 63.6894C306.245 63.6894 306.296 63.5942 307.572 62.9847C308.848 62.3688 310.251 61.7276 310.594 60.045C310.937 58.3625 310.613 55.9562 310.194 55.4864C309.775 55.0229 308.861 54.9086 308.448 55.3213C308.036 55.7403 307.68 57.3403 307.636 57.9117C307.591 58.4832 307.693 59.099 307.693 59.099" stroke="#727171" stroke-width="0.3" stroke-linecap="round" stroke-linejoin="round"/>
<path d="M308.062 57.5815C308.062 57.5815 309.439 58.8704 309.662 59.7783C309.877 60.6926 308.322 62.0894 308.322 62.0894" stroke="#727171" stroke-width="0.3" stroke-linecap="round" stroke-linejoin="round"/>
<path d="M307.095 59.6512C307.095 59.6512 307.597 61.0607 307.387 61.429C307.171 61.7972 306.003 62.629 306.003 62.629" fill="#FCE4D6"/>
<path d="M307.095 59.6512C307.095 59.6512 307.597 61.0607 307.387 61.429C307.171 61.7972 306.003 62.629 306.003 62.629" stroke="#727171" stroke-width="0.3" stroke-linecap="round" stroke-linejoin="round"/>
<path d="M279.179 45.7786C279.179 45.7786 277.471 50.1721 284.912 52.8515C291.306 55.1562 295.642 57.607 296.01 61.1434C296.01 61.1434 296.309 56.4768 287.96 52.6102C283.953 50.7499 284.303 49.442 284.303 49.442" fill="#796A62"/>
<path d="M279.179 45.7786C279.179 45.7786 277.471 50.1721 284.912 52.8515C291.306 55.1562 295.642 57.607 296.01 61.1434C296.01 61.1434 296.309 56.4768 287.96 52.6102C283.953 50.7499 284.303 49.442 284.303 49.442" stroke="#727171" stroke-width="0.3" stroke-linecap="round" stroke-linejoin="round"/>
<path d="M246.792 108.222C246.792 108.222 246.913 107.867 248.811 106.559C250.71 105.251 263.408 100.978 262.817 106.083C262.227 111.187 252.252 111.663 252.252 111.663C252.252 111.663 246.557 111.663 246.792 108.222Z" fill="#B3A48D" stroke="#727171" stroke-width="0.3" stroke-linecap="round" stroke-linejoin="round"/>
<path d="M250.983 110.038C250.983 110.038 256.627 92.8065 256.773 91.2637C256.919 89.7208 257.408 88.7812 258.253 87.9685C259.097 87.1494 259.719 85.7399 260.1 83.9622C260.488 82.1908 261.643 77.2258 261.903 76.0385C262.164 74.8576 262.449 72.5211 263.046 71.9052C264.621 70.2735 265.668 68.3307 266.214 67.391C266.824 66.3307 267.186 66.1593 268.614 66.0704C268.614 66.0704 271.859 63.8165 272.576 63.4673C273.294 63.1244 274.125 63.08 274.722 63.0927C275.313 63.1054 276.386 63.1244 276.386 63.1244C276.386 63.1244 277.643 62.5149 278.367 62.172C279.084 61.8292 281.179 60.7181 281.528 61.08C281.878 61.4419 281.979 62.28 281.49 62.8641C280.678 63.8355 279.967 63.8926 279.967 63.8926C279.967 63.8926 281.389 64.1276 280.075 65.8609C279.363 66.7942 277.497 67.4164 277.008 67.8862C276.525 68.3561 275.078 69.6322 274.837 69.9814C274.595 70.3306 273.484 72.8068 273.484 72.8068C273.484 72.8068 272.341 76.9401 272.456 77.302C272.57 77.6575 273.268 78.267 273.268 78.267C273.268 78.267 274.398 74.7242 274.881 74.2607C274.881 74.2607 274.671 72.7116 274.684 71.7655C274.703 70.8132 275.776 68.7942 276.443 69.6576C277.37 70.864 277.503 73.5941 277.611 74.1909C277.719 74.7877 277.103 76.0829 276.963 77.1496C276.83 78.2162 276.132 80.6352 275.757 81.5813C275.383 82.5273 272.9 85.3907 271.808 86.7939C270.716 88.197 269.033 89.2383 267.821 90.6414C266.608 92.0446 263.897 97.5747 263.497 100.064C263.097 102.552 261.802 108.698 261.802 108.698C261.802 108.698 251.732 114.216 250.977 110.051L250.983 110.038Z" fill="#FCE4D6"/>
<path d="M268.614 66.0703C268.614 66.0703 271.052 65.8735 272.296 65.7782C273.547 65.683 275.388 65.5941 275.795 65.9624C276.201 66.3242 275.528 67.5623 274.398 67.8353C273.268 68.1147 271.61 67.7274 271.61 67.7274C271.61 67.7274 269.934 68.648 268.385 68.7369C268.385 68.7369 267.35 70.3813 267.039 71.0861" stroke="#727171" stroke-width="0.3" stroke-linecap="round" stroke-linejoin="round"/>
<path d="M265.852 71.4227C265.852 71.4227 267.82 70.9211 268.588 71.1179C269.356 71.3084 269.534 71.3147 270.531 71.9243C271.528 72.5338 272.944 73.2131 272.944 73.2131" stroke="#727171" stroke-width="0.3" stroke-linecap="round" stroke-linejoin="round"/>
<path d="M276.384 63.1243C276.384 63.1243 279.711 63.1243 279.762 63.6005C279.813 64.0766 279.381 65.0798 277.889 65.41C276.397 65.7401 274.746 65.3528 274.746 65.3528L274.149 65.5814" stroke="#727171" stroke-width="0.3" stroke-linecap="round" stroke-linejoin="round"/>
<path d="M272.087 67.8545C272.087 67.8545 270.328 69.8418 270.144 70.1973C269.96 70.5529 269.833 71.0798 269.833 71.0798" stroke="#727171" stroke-width="0.3" stroke-linecap="round" stroke-linejoin="round"/>
<path d="M277.23 65.5688L275.909 66.3815" stroke="#727171" stroke-width="0.3" stroke-linecap="round" stroke-linejoin="round"/>
<path d="M274.163 67.8926C274.163 67.8926 273.191 69.2386 272.575 70.1783C271.966 71.1179 271.712 72.0005 271.712 72.0005" stroke="#727171" stroke-width="0.3" stroke-linecap="round" stroke-linejoin="round"/>
<path d="M273.269 78.2606C273.269 78.2606 274.672 79.4733 274.773 80.5399" stroke="#727171" stroke-width="0.3" stroke-linecap="round" stroke-linejoin="round"/>
<path d="M266.78 72.7498C266.78 72.7498 266.278 74.1656 265.376 75.0418C265.376 75.0418 266.011 79.3274 265.929 80.8068C265.84 82.2925 265.269 84.6543 265.269 84.6543" stroke="#727171" stroke-width="0.3" stroke-linecap="round" stroke-linejoin="round"/>
<path d="M270.957 78.0447C270.957 78.0447 268.786 79.8478 267.675 82.2605" stroke="#727171" stroke-width="0.3" stroke-linecap="round" stroke-linejoin="round"/>
<path d="M259.134 136.946C259.369 135.993 259.61 132.793 259.61 132.793C259.61 132.793 261.75 127.809 261.985 125.79C262.22 123.771 261.509 119.619 261.509 117.6C261.509 115.581 262.817 106.089 262.817 106.089C262.582 107.397 253.084 108.819 249.998 109.295C246.912 109.771 246.792 108.229 246.792 108.229C246.792 108.229 247.147 117.009 247.026 117.486C246.906 117.962 245.249 118.908 245.249 120.336C245.249 121.765 244.061 130.901 243.585 133.155C243.109 135.409 242.163 140.749 245.484 141.701C248.804 142.653 254.03 143.123 255.928 143.123C255.928 143.123 258.537 142.768 258.893 142.171C259.248 141.58 259.96 139.085 259.96 139.085" fill="#DBC8AC"/>
<path d="M247.027 117.479C247.027 117.479 247.148 124.958 246.437 129.822C246.437 129.822 246.145 120.952 246.259 120.019C246.373 119.085 247.027 117.479 247.027 117.479Z" fill="#D1BFA5"/>
<path d="M259.612 132.793C259.612 132.793 257.237 135.168 253.916 136.59C250.59 138.012 249.644 138.368 249.644 138.368C249.644 138.368 252.97 138.603 256.291 136.235C256.291 136.235 258.761 134.508 259.612 132.793Z" fill="#D1BFA5"/>
<path d="M285.483 153.206V151.428L252.347 158.729V160.507L285.483 153.206Z" fill="#808080" stroke="#727171" stroke-width="0.3" stroke-linecap="round" stroke-linejoin="round"/>
<path d="M284.062 153.047V152.513L274.056 154.717V155.25L284.062 153.047Z" fill="#4D4D4D" stroke="#727171" stroke-width="0.3" stroke-linecap="round" stroke-linejoin="round"/>
<path d="M285.484 151.428L241.453 143.472L213.555 149.25L252.348 158.729L285.484 151.428Z" fill="#666666" stroke="#727171" stroke-width="0.3" stroke-linecap="round" stroke-linejoin="round"/>
<path d="M222.184 149.402L252.374 156.78L270.538 152.774L236.761 146.323L222.184 149.402Z" fill="#9E959A" stroke="#727171" stroke-width="0.3" stroke-linecap="round" stroke-linejoin="round"/>
<path d="M250.823 147.923L259.998 149.53L264.804 148.514L255.864 146.907L250.823 147.923Z" fill="#999999" stroke="#727171" stroke-width="0.3" stroke-linecap="round" stroke-linejoin="round"/>
<path d="M252.348 160.507V158.729L214.983 149.288V150.939L252.348 160.507Z" fill="#4D4D4D" stroke="#727171" stroke-width="0.3" stroke-linecap="round" stroke-linejoin="round"/>
<path d="M267.515 153.441L234.506 146.768" stroke="#727171" stroke-width="0.3" stroke-linecap="round" stroke-linejoin="round"/>
<path d="M264.486 154.107L232.074 147.275" stroke="#727171" stroke-width="0.3" stroke-linecap="round" stroke-linejoin="round"/>
<path d="M261.458 154.774L229.637 147.777" stroke="#727171" stroke-width="0.3" stroke-linecap="round" stroke-linejoin="round"/>
<path d="M258.43 155.447L227.205 148.285" stroke="#727171" stroke-width="0.3" stroke-linecap="round" stroke-linejoin="round"/>
<path d="M255.402 156.113L224.773 148.787" stroke="#727171" stroke-width="0.3" stroke-linecap="round" stroke-linejoin="round"/>
<path d="M248.628 155.847L263.345 152.615" stroke="#727171" stroke-width="0.3" stroke-linecap="round" stroke-linejoin="round"/>
<path d="M246.747 155.383L264.207 151.568" stroke="#727171" stroke-width="0.3" stroke-linecap="round" stroke-linejoin="round"/>
<path d="M244.882 154.92L262.094 151.161" stroke="#727171" stroke-width="0.3" stroke-linecap="round" stroke-linejoin="round"/>
<path d="M243.002 154.456L257.18 151.371" stroke="#727171" stroke-width="0.3" stroke-linecap="round" stroke-linejoin="round"/>
<path d="M241.129 153.993L257.872 150.355" stroke="#727171" stroke-width="0.3" stroke-linecap="round" stroke-linejoin="round"/>
<path d="M239.256 153.529L253.237 150.501" stroke="#727171" stroke-width="0.3" stroke-linecap="round" stroke-linejoin="round"/>
<path d="M237.383 153.066L251.23 150.076" stroke="#727171" stroke-width="0.3" stroke-linecap="round" stroke-linejoin="round"/>
<path d="M235.51 152.603L251.541 149.149" stroke="#727171" stroke-width="0.3" stroke-linecap="round" stroke-linejoin="round"/>
<path d="M249.344 159.123C248.982 159.034 248.83 158.406 249.001 157.726C249.173 157.047 249.604 156.564 249.96 156.653L217.027 148.469C216.665 148.38 216.233 148.723 216.068 149.402C215.897 150.082 216.049 150.71 216.411 150.799L249.344 159.123Z" fill="#808080" stroke="#727171" stroke-width="0.3" stroke-linecap="round" stroke-linejoin="round"/>
<path d="M235.91 120.806L237.06 119.873L197.949 113.232L196.8 114.159L235.91 120.806Z" fill="#666666" stroke="#727171" stroke-width="0.3" stroke-linecap="round" stroke-linejoin="round"/>
<path d="M253.496 157.796L237.058 119.873L235.909 120.806L252.347 158.729L253.496 157.796Z" fill="#808080" stroke="#727171" stroke-width="0.3" stroke-linecap="round" stroke-linejoin="round"/>
<path d="M252.348 158.729L235.91 120.806L196.8 114.159L213.555 149.25L252.348 158.729Z" fill="#404040" stroke="#727171" stroke-width="0.3" stroke-linecap="round" stroke-linejoin="round"/>
</g>
<path d="M47.144 45.368H60.464V47.48H47.144V45.368ZM47.6 50.768H58.064V52.832H47.6V50.768ZM52.592 41.744H54.848V51.896H52.592V41.744ZM50.288 52.352C51.184 54.736 52.56 56.784 54.416 58.496C56.288 60.192 58.6 61.392 61.352 62.096C61.192 62.24 61.016 62.424 60.824 62.648C60.632 62.888 60.456 63.128 60.296 63.368C60.136 63.624 60 63.848 59.888 64.04C57.008 63.192 54.616 61.824 52.712 59.936C50.808 58.048 49.32 55.72 48.248 52.952L50.288 52.352ZM57.848 50.768H58.256L58.664 50.672L60.128 51.296C59.616 53.04 58.928 54.6 58.064 55.976C57.216 57.336 56.216 58.536 55.064 59.576C53.928 60.616 52.672 61.496 51.296 62.216C49.936 62.952 48.496 63.544 46.976 63.992C46.912 63.784 46.808 63.552 46.664 63.296C46.536 63.056 46.392 62.808 46.232 62.552C46.072 62.296 45.92 62.096 45.776 61.952C47.168 61.6 48.504 61.112 49.784 60.488C51.08 59.848 52.256 59.08 53.312 58.184C54.384 57.272 55.304 56.232 56.072 55.064C56.856 53.88 57.448 52.568 57.848 51.128V50.768ZM38.792 54.224C39.464 54.064 40.232 53.88 41.096 53.672C41.976 53.448 42.896 53.208 43.856 52.952C44.832 52.68 45.792 52.424 46.736 52.184L47.024 54.248C45.712 54.632 44.384 55.016 43.04 55.4C41.712 55.768 40.496 56.104 39.392 56.408L38.792 54.224ZM39.08 46.472H46.808V48.584H39.08V46.472ZM42.056 41.744H44.288V61.4C44.288 61.992 44.216 62.448 44.072 62.768C43.928 63.088 43.68 63.336 43.328 63.512C42.976 63.688 42.52 63.8 41.96 63.848C41.4 63.912 40.704 63.936 39.872 63.92C39.824 63.632 39.736 63.288 39.608 62.888C39.48 62.504 39.344 62.16 39.2 61.856C39.728 61.872 40.216 61.88 40.664 61.88C41.128 61.88 41.44 61.872 41.6 61.856C41.904 61.856 42.056 61.704 42.056 61.4V41.744ZM69.752 51.704L71.624 51.968C71.544 53.088 71.424 54.192 71.264 55.28C71.12 56.368 70.928 57.392 70.688 58.352C70.464 59.296 70.184 60.136 69.848 60.872C69.736 60.76 69.584 60.64 69.392 60.512C69.216 60.384 69.024 60.256 68.816 60.128C68.608 59.984 68.432 59.872 68.288 59.792C68.608 59.136 68.864 58.376 69.056 57.512C69.248 56.632 69.4 55.704 69.512 54.728C69.624 53.736 69.704 52.728 69.752 51.704ZM69.296 46.952H78.296V49.064H69.296V46.952ZM72.752 42.104H74.864V63.656H72.752V42.104ZM75.728 52.088L77.432 51.752C77.624 52.52 77.8 53.336 77.96 54.2C78.12 55.048 78.264 55.88 78.392 56.696C78.52 57.512 78.6 58.248 78.632 58.904L76.832 59.264C76.8 58.608 76.728 57.872 76.616 57.056C76.504 56.224 76.368 55.376 76.208 54.512C76.064 53.648 75.904 52.84 75.728 52.088ZM79.04 43.088H84.776V45.128H79.04V43.088ZM78.464 49.784H85.136V51.824H78.464V49.784ZM75.32 43.016L76.832 42.344C77.216 42.856 77.584 43.424 77.936 44.048C78.304 44.656 78.56 45.184 78.704 45.632L77.144 46.376C76.984 45.928 76.728 45.392 76.376 44.768C76.04 44.128 75.688 43.544 75.32 43.016ZM80.936 50.384H83.096V61.472C83.096 62.032 83.032 62.48 82.904 62.816C82.792 63.168 82.544 63.432 82.16 63.608C81.776 63.784 81.296 63.896 80.72 63.944C80.16 63.992 79.464 64.016 78.632 64.016C78.6 63.696 78.52 63.328 78.392 62.912C78.28 62.496 78.152 62.128 78.008 61.808C78.568 61.824 79.08 61.84 79.544 61.856C80.024 61.856 80.352 61.848 80.528 61.832C80.688 61.832 80.792 61.808 80.84 61.76C80.904 61.696 80.936 61.592 80.936 61.448V50.384ZM66.848 41.744L68.912 42.488C68.496 43.16 68.016 43.848 67.472 44.552C66.928 45.24 66.344 45.896 65.72 46.52C65.112 47.144 64.496 47.696 63.872 48.176C63.792 48.016 63.672 47.832 63.512 47.624C63.368 47.416 63.216 47.208 63.056 47C62.912 46.792 62.776 46.616 62.648 46.472C63.192 46.072 63.728 45.608 64.256 45.08C64.8 44.552 65.296 44 65.744 43.424C66.192 42.832 66.56 42.272 66.848 41.744ZM65.456 51.632L67.256 49.832L67.544 49.928V64.04H65.456V51.632ZM67.472 46.688L69.512 47.36C69.048 48.368 68.496 49.376 67.856 50.384C67.216 51.376 66.536 52.312 65.816 53.192C65.096 54.056 64.36 54.816 63.608 55.472C63.544 55.312 63.432 55.104 63.272 54.848C63.128 54.592 62.968 54.336 62.792 54.08C62.632 53.808 62.48 53.592 62.336 53.432C63.344 52.616 64.304 51.608 65.216 50.408C66.144 49.208 66.896 47.968 67.472 46.688ZM99.824 45.584C99.664 46.816 99.456 48.12 99.2 49.496C98.96 50.856 98.632 52.208 98.216 53.552C97.736 55.184 97.192 56.568 96.584 57.704C95.992 58.824 95.344 59.68 94.64 60.272C93.936 60.864 93.192 61.16 92.408 61.16C91.608 61.16 90.864 60.888 90.176 60.344C89.488 59.784 88.928 59.008 88.496 58.016C88.064 57.008 87.848 55.84 87.848 54.512C87.848 53.168 88.12 51.896 88.664 50.696C89.224 49.496 89.992 48.432 90.968 47.504C91.944 46.576 93.08 45.848 94.376 45.32C95.672 44.792 97.072 44.528 98.576 44.528C100.016 44.528 101.312 44.76 102.464 45.224C103.632 45.688 104.624 46.336 105.44 47.168C106.272 47.984 106.904 48.944 107.336 50.048C107.768 51.152 107.984 52.328 107.984 53.576C107.984 55.256 107.632 56.752 106.928 58.064C106.24 59.36 105.224 60.424 103.88 61.256C102.536 62.072 100.888 62.624 98.936 62.912L97.52 60.656C97.936 60.608 98.32 60.56 98.672 60.512C99.024 60.448 99.352 60.384 99.656 60.32C100.424 60.144 101.152 59.872 101.84 59.504C102.544 59.136 103.168 58.672 103.712 58.112C104.256 57.536 104.68 56.864 104.984 56.096C105.304 55.328 105.464 54.464 105.464 53.504C105.464 52.544 105.312 51.656 105.008 50.84C104.704 50.008 104.256 49.288 103.664 48.68C103.072 48.072 102.344 47.6 101.48 47.264C100.616 46.912 99.64 46.736 98.552 46.736C97.24 46.736 96.072 46.968 95.048 47.432C94.024 47.896 93.152 48.512 92.432 49.28C91.728 50.032 91.192 50.848 90.824 51.728C90.456 52.608 90.272 53.456 90.272 54.272C90.272 55.184 90.384 55.944 90.608 56.552C90.832 57.144 91.112 57.584 91.448 57.872C91.784 58.16 92.128 58.304 92.48 58.304C92.832 58.304 93.192 58.128 93.56 57.776C93.928 57.408 94.296 56.832 94.664 56.048C95.048 55.264 95.424 54.264 95.792 53.048C96.16 51.896 96.464 50.672 96.704 49.376C96.96 48.064 97.144 46.784 97.256 45.536L99.824 45.584ZM116.12 51.152V59.816H113.936V53.264H111.032V51.152H116.12ZM116.12 58.904C116.632 59.752 117.36 60.376 118.304 60.776C119.264 61.176 120.416 61.408 121.76 61.472C122.448 61.488 123.28 61.504 124.256 61.52C125.248 61.52 126.28 61.52 127.352 61.52C128.44 61.504 129.496 61.48 130.52 61.448C131.544 61.4 132.44 61.352 133.208 61.304C133.128 61.464 133.04 61.68 132.944 61.952C132.848 62.208 132.76 62.472 132.68 62.744C132.6 63.032 132.536 63.288 132.488 63.512C131.784 63.544 130.96 63.568 130.016 63.584C129.088 63.616 128.12 63.632 127.112 63.632C126.104 63.648 125.128 63.648 124.184 63.632C123.256 63.616 122.44 63.6 121.736 63.584C120.216 63.52 118.92 63.272 117.848 62.84C116.792 62.424 115.896 61.744 115.16 60.8C114.648 61.296 114.12 61.792 113.576 62.288C113.048 62.784 112.48 63.296 111.872 63.824L110.768 61.568C111.28 61.2 111.832 60.784 112.424 60.32C113.016 59.856 113.584 59.384 114.128 58.904H116.12ZM111.2 43.616L112.928 42.344C113.408 42.712 113.896 43.128 114.392 43.592C114.904 44.04 115.368 44.496 115.784 44.96C116.2 45.408 116.536 45.832 116.792 46.232L114.92 47.648C114.696 47.248 114.376 46.816 113.96 46.352C113.56 45.872 113.112 45.392 112.616 44.912C112.136 44.432 111.664 44 111.2 43.616ZM126.416 41.984L128.888 42.488C128.52 43.272 128.128 44.072 127.712 44.888C127.312 45.704 126.944 46.392 126.608 46.952L124.736 46.424C124.944 46.024 125.152 45.568 125.36 45.056C125.584 44.528 125.784 44 125.96 43.472C126.152 42.928 126.304 42.432 126.416 41.984ZM121.232 45.368H132.224V47.288H121.232V58.4H119.024V47.072L120.728 45.368H121.232ZM120.248 49.376H131.6V51.248H120.248V49.376ZM120.248 53.36H131.528V55.232H120.248V53.36ZM119.024 57.416H132.632V59.36H119.024V57.416ZM124.952 46.208H127.136V58.232H124.952V46.208ZM121.04 41.816L123.32 42.464C122.856 43.584 122.296 44.68 121.64 45.752C121 46.824 120.304 47.824 119.552 48.752C118.816 49.664 118.048 50.464 117.248 51.152C117.136 50.992 116.976 50.8 116.768 50.576C116.576 50.352 116.368 50.128 116.144 49.904C115.92 49.68 115.72 49.504 115.544 49.376C116.696 48.48 117.752 47.368 118.712 46.04C119.688 44.696 120.464 43.288 121.04 41.816ZM144.896 51.032H147.176V56.336C147.176 56.88 147.104 57.312 146.96 57.632C146.816 57.936 146.528 58.176 146.096 58.352C145.68 58.496 145.16 58.584 144.536 58.616C143.912 58.648 143.144 58.664 142.232 58.664C142.2 58.36 142.112 58.016 141.968 57.632C141.824 57.248 141.68 56.904 141.536 56.6C141.952 56.616 142.36 56.632 142.76 56.648C143.16 56.648 143.512 56.648 143.816 56.648C144.12 56.648 144.328 56.648 144.44 56.648C144.616 56.632 144.736 56.6 144.8 56.552C144.864 56.504 144.896 56.416 144.896 56.288V51.032ZM139.976 51.8L142.328 52.544C141.912 53.232 141.424 53.92 140.864 54.608C140.32 55.296 139.752 55.944 139.16 56.552C138.568 57.144 137.976 57.664 137.384 58.112C137.24 57.968 137.04 57.808 136.784 57.632C136.544 57.44 136.296 57.256 136.04 57.08C135.784 56.904 135.552 56.768 135.344 56.672C136.24 56.064 137.104 55.328 137.936 54.464C138.768 53.6 139.448 52.712 139.976 51.8ZM150.176 52.904L152 51.752C152.608 52.232 153.216 52.776 153.824 53.384C154.448 53.976 155.024 54.576 155.552 55.184C156.08 55.776 156.496 56.32 156.8 56.816L154.832 58.136C154.544 57.64 154.144 57.088 153.632 56.48C153.136 55.856 152.584 55.232 151.976 54.608C151.368 53.984 150.768 53.416 150.176 52.904ZM150.656 55.208L152.984 55.904C152.44 57.216 151.728 58.352 150.848 59.312C149.984 60.256 148.944 61.048 147.728 61.688C146.512 62.328 145.12 62.848 143.552 63.248C142 63.664 140.248 63.984 138.296 64.208C138.216 63.84 138.072 63.448 137.864 63.032C137.656 62.632 137.44 62.296 137.216 62.024C139.6 61.816 141.68 61.472 143.456 60.992C145.248 60.496 146.736 59.784 147.92 58.856C149.12 57.928 150.032 56.712 150.656 55.208ZM135.272 49.112H156.776V51.248H135.272V49.112ZM146.264 44.312H154.448V46.376H146.264V44.312ZM144.896 41.744H147.224V50.264H144.896V41.744ZM138.704 43.52H140.984V49.928H138.704V43.52ZM168.848 45.536C169.552 45.648 170.344 45.728 171.224 45.776C172.12 45.824 173.04 45.84 173.984 45.824C174.928 45.808 175.832 45.776 176.696 45.728C177.56 45.68 178.304 45.616 178.928 45.536V47.984C178.24 48.048 177.464 48.104 176.6 48.152C175.736 48.184 174.84 48.2 173.912 48.2C173 48.2 172.104 48.184 171.224 48.152C170.344 48.104 169.56 48.048 168.872 47.984L168.848 45.536ZM170.216 55.52C170.12 55.936 170.04 56.312 169.976 56.648C169.928 56.984 169.904 57.32 169.904 57.656C169.904 57.928 169.96 58.184 170.072 58.424C170.2 58.664 170.4 58.872 170.672 59.048C170.96 59.224 171.344 59.368 171.824 59.48C172.32 59.576 172.928 59.624 173.648 59.624C174.736 59.624 175.752 59.576 176.696 59.48C177.656 59.368 178.632 59.2 179.624 58.976L179.672 61.544C178.92 61.688 178.04 61.808 177.032 61.904C176.04 61.984 174.896 62.024 173.6 62.024C171.568 62.024 170.064 61.696 169.088 61.04C168.128 60.368 167.648 59.448 167.648 58.28C167.648 57.848 167.68 57.4 167.744 56.936C167.808 56.456 167.912 55.92 168.056 55.328L170.216 55.52ZM164.672 43.808C164.624 43.952 164.56 44.144 164.48 44.384C164.416 44.608 164.352 44.84 164.288 45.08C164.24 45.304 164.2 45.488 164.168 45.632C164.088 46.032 163.992 46.52 163.88 47.096C163.784 47.656 163.68 48.272 163.568 48.944C163.472 49.6 163.376 50.272 163.28 50.96C163.2 51.632 163.128 52.288 163.064 52.928C163.016 53.568 162.992 54.152 162.992 54.68C162.992 55.096 163 55.52 163.016 55.952C163.048 56.368 163.088 56.8 163.136 57.248C163.28 56.928 163.424 56.592 163.568 56.24C163.712 55.872 163.856 55.512 164 55.16C164.144 54.808 164.28 54.488 164.408 54.2L165.608 55.16C165.4 55.752 165.176 56.408 164.936 57.128C164.696 57.848 164.48 58.536 164.288 59.192C164.112 59.832 163.984 60.352 163.904 60.752C163.872 60.912 163.84 61.104 163.808 61.328C163.776 61.536 163.768 61.712 163.784 61.856C163.784 61.968 163.784 62.104 163.784 62.264C163.8 62.44 163.816 62.6 163.832 62.744L161.648 62.888C161.408 62.056 161.2 60.96 161.024 59.6C160.848 58.24 160.76 56.752 160.76 55.136C160.76 54.24 160.8 53.336 160.88 52.424C160.96 51.496 161.056 50.6 161.168 49.736C161.28 48.872 161.392 48.08 161.504 47.36C161.632 46.64 161.728 46.04 161.792 45.56C161.84 45.256 161.88 44.928 161.912 44.576C161.96 44.224 161.992 43.888 162.008 43.568L164.672 43.808ZM58.712 73.008L60.248 74.784C59.384 75.04 58.424 75.272 57.368 75.48C56.312 75.672 55.2 75.84 54.032 75.984C52.88 76.128 51.72 76.256 50.552 76.368C49.384 76.464 48.248 76.544 47.144 76.608C47.112 76.336 47.032 76.024 46.904 75.672C46.792 75.32 46.672 75.016 46.544 74.76C47.616 74.696 48.712 74.608 49.832 74.496C50.968 74.384 52.072 74.256 53.144 74.112C54.232 73.968 55.256 73.808 56.216 73.632C57.176 73.44 58.008 73.232 58.712 73.008ZM46.88 77.832L48.704 77.328C49.088 78.032 49.44 78.808 49.76 79.656C50.096 80.504 50.32 81.232 50.432 81.84L48.512 82.44C48.416 81.832 48.216 81.096 47.912 80.232C47.608 79.352 47.264 78.552 46.88 77.832ZM51.656 77.112L53.576 76.752C53.88 77.456 54.136 78.216 54.344 79.032C54.568 79.848 54.696 80.552 54.728 81.144L52.712 81.576C52.68 81 52.568 80.296 52.376 79.464C52.184 78.616 51.944 77.832 51.656 77.112ZM58.808 76.392L60.944 77.184C60.608 77.856 60.248 78.552 59.864 79.272C59.48 79.976 59.096 80.656 58.712 81.312C58.328 81.952 57.96 82.52 57.608 83.016L55.856 82.272C56.208 81.76 56.56 81.16 56.912 80.472C57.28 79.784 57.632 79.088 57.968 78.384C58.304 77.664 58.584 77 58.808 76.392ZM46.736 84.672H60.848V86.64H46.736V84.672ZM52.664 82.08H54.824V94.872H52.664V82.08ZM51.872 85.776L53.648 86.4C53.168 87.424 52.568 88.4 51.848 89.328C51.128 90.256 50.336 91.104 49.472 91.872C48.608 92.624 47.72 93.248 46.808 93.744C46.696 93.552 46.552 93.344 46.376 93.12C46.2 92.912 46.016 92.704 45.824 92.496C45.632 92.288 45.456 92.112 45.296 91.968C46.176 91.568 47.032 91.048 47.864 90.408C48.712 89.752 49.48 89.032 50.168 88.248C50.856 87.448 51.424 86.624 51.872 85.776ZM55.592 85.872C56.008 86.656 56.536 87.44 57.176 88.224C57.816 89.008 58.512 89.72 59.264 90.36C60.016 91 60.776 91.528 61.544 91.944C61.384 92.072 61.208 92.24 61.016 92.448C60.824 92.64 60.64 92.84 60.464 93.048C60.304 93.272 60.16 93.472 60.032 93.648C59.248 93.136 58.472 92.504 57.704 91.752C56.936 91 56.216 90.168 55.544 89.256C54.888 88.344 54.328 87.424 53.864 86.496L55.592 85.872ZM38.6 85.032C39.544 84.776 40.68 84.464 42.008 84.096C43.336 83.712 44.68 83.312 46.04 82.896L46.328 84.96C45.096 85.36 43.848 85.76 42.584 86.16C41.32 86.544 40.168 86.896 39.128 87.216L38.6 85.032ZM38.96 77.448H46.256V79.56H38.96V77.448ZM41.744 72.768H43.856V92.52C43.856 93.08 43.792 93.52 43.664 93.84C43.536 94.16 43.304 94.416 42.968 94.608C42.648 94.784 42.232 94.896 41.72 94.944C41.224 95.008 40.584 95.04 39.8 95.04C39.784 94.752 39.712 94.4 39.584 93.984C39.472 93.584 39.344 93.232 39.2 92.928C39.68 92.944 40.12 92.952 40.52 92.952C40.92 92.952 41.192 92.944 41.336 92.928C41.48 92.928 41.584 92.904 41.648 92.856C41.712 92.792 41.744 92.68 41.744 92.52V72.768ZM66.848 74.4H82.04V76.56H66.848V74.4ZM66.848 79.968H82.04V82.08H66.848V79.968ZM66.752 85.656H82.112V87.816H66.752V85.656ZM65.552 74.4H67.808V83.064C67.808 83.992 67.76 84.992 67.664 86.064C67.584 87.136 67.432 88.224 67.208 89.328C66.984 90.416 66.648 91.464 66.2 92.472C65.768 93.464 65.184 94.36 64.448 95.16C64.336 95 64.168 94.824 63.944 94.632C63.736 94.44 63.512 94.256 63.272 94.08C63.048 93.904 62.848 93.768 62.672 93.672C63.344 92.92 63.872 92.112 64.256 91.248C64.64 90.368 64.92 89.464 65.096 88.536C65.288 87.592 65.408 86.656 65.456 85.728C65.52 84.784 65.552 83.888 65.552 83.04V74.4ZM81.176 74.4H83.432V92.16C83.432 92.816 83.344 93.32 83.168 93.672C82.992 94.04 82.688 94.32 82.256 94.512C81.824 94.688 81.24 94.792 80.504 94.824C79.768 94.872 78.832 94.888 77.696 94.872C77.664 94.584 77.568 94.224 77.408 93.792C77.264 93.36 77.112 92.992 76.952 92.688C77.464 92.72 77.968 92.744 78.464 92.76C78.96 92.76 79.392 92.76 79.76 92.76C80.144 92.744 80.408 92.736 80.552 92.736C80.792 92.736 80.952 92.696 81.032 92.616C81.128 92.52 81.176 92.36 81.176 92.136V74.4ZM73.04 75.24H75.32V94.776H73.04V75.24ZM88.136 74.832H107.96V76.704H88.136V74.832ZM88.952 92.472H107.216V94.368H88.952V92.472ZM92.984 78.072H102.968V79.704H92.984V78.072ZM92.984 81.12H102.968V82.752H92.984V81.12ZM86.96 84.192H109.04V86.088H86.96V84.192ZM92.168 88.512H103.856V90.36H92.168V88.512ZM91.664 72.744H93.92V85.224H91.664V72.744ZM102.152 72.768H104.456V85.248H102.152V72.768ZM96.8 86.736H99.104V93.552H96.8V86.736ZM93.008 84.72L94.904 85.44C94.424 86.272 93.824 87.072 93.104 87.84C92.384 88.592 91.6 89.272 90.752 89.88C89.92 90.488 89.064 90.992 88.184 91.392C88.088 91.216 87.952 91.024 87.776 90.816C87.6 90.608 87.416 90.4 87.224 90.192C87.048 89.984 86.88 89.808 86.72 89.664C87.552 89.344 88.36 88.936 89.144 88.44C89.944 87.928 90.68 87.352 91.352 86.712C92.024 86.056 92.576 85.392 93.008 84.72ZM103.088 84.72C103.52 85.376 104.064 86.008 104.72 86.616C105.376 87.208 106.104 87.744 106.904 88.224C107.704 88.704 108.512 89.096 109.328 89.4C109.184 89.528 109.008 89.696 108.8 89.904C108.608 90.112 108.424 90.328 108.248 90.552C108.088 90.776 107.952 90.976 107.84 91.152C106.992 90.784 106.152 90.304 105.32 89.712C104.504 89.104 103.752 88.432 103.064 87.696C102.376 86.96 101.792 86.2 101.312 85.416L103.088 84.72ZM112.616 74.352L113.768 72.816C114.2 72.96 114.656 73.136 115.136 73.344C115.632 73.552 116.096 73.768 116.528 73.992C116.96 74.216 117.32 74.432 117.608 74.64L116.384 76.392C116.112 76.184 115.76 75.952 115.328 75.696C114.896 75.44 114.44 75.2 113.96 74.976C113.496 74.736 113.048 74.528 112.616 74.352ZM110.84 78.336L111.968 76.752C112.4 76.88 112.856 77.048 113.336 77.256C113.832 77.448 114.296 77.648 114.728 77.856C115.176 78.064 115.544 78.264 115.832 78.456L114.656 80.184C114.384 79.992 114.032 79.784 113.6 79.56C113.168 79.32 112.704 79.096 112.208 78.888C111.728 78.664 111.272 78.48 110.84 78.336ZM111.488 85.608C111.936 85.224 112.424 84.768 112.952 84.24C113.496 83.696 114.056 83.12 114.632 82.512C115.224 81.904 115.776 81.296 116.288 80.688L117.512 82.2C116.824 83.048 116.096 83.92 115.328 84.816C114.576 85.696 113.824 86.536 113.072 87.336L111.488 85.608ZM120.728 86.688H123.056V95.04H120.728V86.688ZM111.176 88.512H132.92V90.552H111.176V88.512ZM120.632 72.624L122.816 73.296C122.4 74.192 121.904 75.08 121.328 75.96C120.752 76.824 120.136 77.632 119.48 78.384C118.824 79.136 118.168 79.792 117.512 80.352C117.384 80.208 117.208 80.04 116.984 79.848C116.776 79.64 116.56 79.44 116.336 79.248C116.112 79.056 115.912 78.896 115.736 78.768C116.712 78.032 117.64 77.12 118.52 76.032C119.4 74.944 120.104 73.808 120.632 72.624ZM118.832 77.04L121.04 75.36V85.416H118.832V77.04ZM120.08 75.312H131.864V77.136H118.976L120.08 75.312ZM118.832 84.84H132.488V86.664H118.832V84.84ZM119.72 78.6H131.12V80.232H119.72V78.6ZM119.72 81.672H131.144V83.328H119.72V81.672ZM124.472 76.056H126.632V85.536H124.472V76.056ZM125.768 72.768L128.24 73.2C127.856 73.824 127.464 74.448 127.064 75.072C126.68 75.68 126.32 76.2 125.984 76.632L124.112 76.176C124.432 75.68 124.744 75.112 125.048 74.472C125.352 73.832 125.592 73.264 125.768 72.768ZM144.512 74.304C144.448 74.544 144.384 74.816 144.32 75.12C144.272 75.424 144.216 75.704 144.152 75.96C144.104 76.28 144.032 76.68 143.936 77.16C143.84 77.624 143.744 78.112 143.648 78.624C143.568 79.12 143.472 79.6 143.36 80.064C143.2 80.736 143 81.512 142.76 82.392C142.52 83.272 142.24 84.216 141.92 85.224C141.616 86.216 141.264 87.232 140.864 88.272C140.48 89.296 140.056 90.304 139.592 91.296C139.144 92.272 138.656 93.184 138.128 94.032L135.656 93.048C136.216 92.312 136.736 91.48 137.216 90.552C137.696 89.624 138.136 88.672 138.536 87.696C138.936 86.704 139.296 85.728 139.616 84.768C139.936 83.808 140.208 82.92 140.432 82.104C140.656 81.272 140.832 80.56 140.96 79.968C141.184 78.944 141.36 77.92 141.488 76.896C141.632 75.872 141.704 74.912 141.704 74.016L144.512 74.304ZM152.768 76.92C153.136 77.416 153.528 78.04 153.944 78.792C154.376 79.528 154.792 80.312 155.192 81.144C155.592 81.976 155.96 82.784 156.296 83.568C156.632 84.336 156.896 85 157.088 85.56L154.712 86.688C154.536 86.048 154.296 85.328 153.992 84.528C153.704 83.728 153.368 82.92 152.984 82.104C152.616 81.272 152.216 80.488 151.784 79.752C151.368 79.016 150.952 78.4 150.536 77.904L152.768 76.92ZM135.392 79.416C135.792 79.432 136.176 79.44 136.544 79.44C136.912 79.44 137.304 79.432 137.72 79.416C138.088 79.4 138.552 79.376 139.112 79.344C139.688 79.296 140.296 79.248 140.936 79.2C141.592 79.136 142.24 79.08 142.88 79.032C143.52 78.968 144.112 78.92 144.656 78.888C145.216 78.856 145.664 78.84 146 78.84C146.768 78.84 147.456 78.968 148.064 79.224C148.688 79.464 149.176 79.896 149.528 80.52C149.896 81.144 150.08 82.016 150.08 83.136C150.08 84.08 150.032 85.104 149.936 86.208C149.856 87.296 149.712 88.344 149.504 89.352C149.312 90.344 149.048 91.176 148.712 91.848C148.328 92.68 147.824 93.24 147.2 93.528C146.576 93.816 145.848 93.96 145.016 93.96C144.552 93.96 144.056 93.92 143.528 93.84C143.016 93.776 142.56 93.696 142.16 93.6L141.752 91.104C142.088 91.2 142.44 91.288 142.808 91.368C143.176 91.432 143.528 91.488 143.864 91.536C144.2 91.568 144.48 91.584 144.704 91.584C145.12 91.584 145.496 91.512 145.832 91.368C146.168 91.208 146.448 90.904 146.672 90.456C146.912 89.944 147.104 89.296 147.248 88.512C147.408 87.728 147.528 86.888 147.608 85.992C147.688 85.096 147.728 84.232 147.728 83.4C147.728 82.696 147.632 82.176 147.44 81.84C147.248 81.504 146.968 81.28 146.6 81.168C146.232 81.04 145.792 80.976 145.28 80.976C144.896 80.976 144.368 81.008 143.696 81.072C143.04 81.12 142.336 81.184 141.584 81.264C140.848 81.344 140.152 81.424 139.496 81.504C138.856 81.568 138.36 81.624 138.008 81.672C137.704 81.704 137.312 81.752 136.832 81.816C136.368 81.88 135.968 81.944 135.632 82.008L135.392 79.416ZM152.72 73.488C152.928 73.776 153.152 74.12 153.392 74.52C153.632 74.92 153.864 75.32 154.088 75.72C154.312 76.12 154.504 76.48 154.664 76.8L153.08 77.472C152.936 77.152 152.752 76.792 152.528 76.392C152.304 75.992 152.072 75.592 151.832 75.192C151.608 74.792 151.384 74.44 151.16 74.136L152.72 73.488ZM155.456 72.48C155.664 72.784 155.896 73.136 156.152 73.536C156.408 73.936 156.648 74.336 156.872 74.736C157.112 75.12 157.304 75.456 157.448 75.744L155.888 76.44C155.632 75.928 155.32 75.36 154.952 74.736C154.6 74.112 154.248 73.576 153.896 73.128L155.456 72.48ZM44.432 113.152V121.816H42.224V115.264H39.128V113.152H44.432ZM44.432 120.832C44.976 121.664 45.728 122.288 46.688 122.704C47.664 123.104 48.816 123.328 50.144 123.376C50.832 123.408 51.648 123.432 52.592 123.448C53.536 123.448 54.536 123.44 55.592 123.424C56.648 123.392 57.672 123.36 58.664 123.328C59.656 123.296 60.528 123.248 61.28 123.184C61.184 123.36 61.088 123.592 60.992 123.88C60.896 124.152 60.808 124.432 60.728 124.72C60.648 125.008 60.584 125.272 60.536 125.512C59.848 125.544 59.048 125.568 58.136 125.584C57.24 125.6 56.304 125.608 55.328 125.608C54.368 125.624 53.432 125.624 52.52 125.608C51.608 125.608 50.808 125.592 50.12 125.56C48.6 125.496 47.296 125.248 46.208 124.816C45.136 124.4 44.208 123.72 43.424 122.776C42.88 123.272 42.312 123.768 41.72 124.264C41.144 124.76 40.528 125.272 39.872 125.8L38.72 123.448C39.28 123.096 39.88 122.688 40.52 122.224C41.176 121.76 41.792 121.296 42.368 120.832H44.432ZM39.272 105.688L40.952 104.32C41.464 104.64 41.984 105.016 42.512 105.448C43.056 105.88 43.552 106.32 44 106.768C44.448 107.216 44.816 107.632 45.104 108.016L43.304 109.504C43.048 109.12 42.696 108.704 42.248 108.256C41.816 107.792 41.336 107.336 40.808 106.888C40.296 106.44 39.784 106.04 39.272 105.688ZM48.008 106.192H58.592V112.696H48.008V110.8H56.408V108.064H48.008V106.192ZM51.584 103.672L54.248 104.056C53.992 104.664 53.728 105.264 53.456 105.856C53.2 106.432 52.968 106.928 52.76 107.344L50.648 106.936C50.824 106.456 51 105.912 51.176 105.304C51.368 104.696 51.504 104.152 51.584 103.672ZM46.904 106.192H49.112V121.672H46.904V106.192ZM48.152 114.664H59.552V121.672H48.152V119.752H57.32V116.584H48.152V114.664ZM67.736 107.08C67.688 107.304 67.648 107.576 67.616 107.896C67.584 108.216 67.552 108.536 67.52 108.856C67.504 109.176 67.496 109.448 67.496 109.672C67.496 110.168 67.496 110.72 67.496 111.328C67.512 111.936 67.528 112.56 67.544 113.2C67.56 113.824 67.6 114.448 67.664 115.072C67.792 116.336 67.984 117.44 68.24 118.384C68.496 119.328 68.824 120.064 69.224 120.592C69.624 121.12 70.088 121.384 70.616 121.384C70.92 121.384 71.208 121.24 71.48 120.952C71.752 120.664 72.008 120.28 72.248 119.8C72.488 119.32 72.704 118.8 72.896 118.24C73.104 117.664 73.28 117.112 73.424 116.584L75.32 118.816C74.808 120.176 74.296 121.264 73.784 122.08C73.288 122.88 72.776 123.456 72.248 123.808C71.72 124.16 71.16 124.336 70.568 124.336C69.768 124.336 69 124.064 68.264 123.52C67.544 122.96 66.92 122.048 66.392 120.784C65.864 119.52 65.488 117.832 65.264 115.72C65.184 115.016 65.12 114.256 65.072 113.44C65.04 112.624 65.016 111.848 65 111.112C65 110.376 65 109.768 65 109.288C65 108.984 64.984 108.616 64.952 108.184C64.936 107.736 64.888 107.352 64.808 107.032L67.736 107.08ZM80.024 107.68C80.456 108.24 80.872 108.896 81.272 109.648C81.688 110.384 82.064 111.184 82.4 112.048C82.736 112.912 83.032 113.792 83.288 114.688C83.56 115.584 83.784 116.472 83.96 117.352C84.136 118.232 84.256 119.064 84.32 119.848L81.848 120.808C81.752 119.768 81.592 118.68 81.368 117.544C81.144 116.408 80.856 115.288 80.504 114.184C80.152 113.064 79.736 112.016 79.256 111.04C78.792 110.048 78.256 109.192 77.648 108.472L80.024 107.68ZM87.56 111.184C87.992 111.104 88.448 111 88.928 110.872C89.424 110.744 89.896 110.616 90.344 110.488C90.824 110.344 91.456 110.144 92.24 109.888C93.04 109.616 93.912 109.352 94.856 109.096C95.816 108.824 96.792 108.6 97.784 108.424C98.776 108.248 99.712 108.16 100.592 108.16C101.968 108.16 103.208 108.416 104.312 108.928C105.432 109.44 106.32 110.184 106.976 111.16C107.648 112.136 107.984 113.328 107.984 114.736C107.984 115.872 107.776 116.896 107.36 117.808C106.944 118.72 106.344 119.536 105.56 120.256C104.776 120.976 103.832 121.592 102.728 122.104C101.64 122.6 100.408 123 99.032 123.304C97.672 123.592 96.208 123.776 94.64 123.856L93.56 121.36C95.16 121.312 96.664 121.152 98.072 120.88C99.48 120.608 100.728 120.208 101.816 119.68C102.904 119.152 103.76 118.48 104.384 117.664C105.008 116.832 105.32 115.848 105.32 114.712C105.32 113.896 105.136 113.168 104.768 112.528C104.4 111.888 103.848 111.376 103.112 110.992C102.392 110.608 101.52 110.416 100.496 110.416C99.744 110.416 98.92 110.512 98.024 110.704C97.144 110.88 96.24 111.104 95.312 111.376C94.4 111.648 93.512 111.944 92.648 112.264C91.8 112.584 91.024 112.888 90.32 113.176C89.632 113.448 89.072 113.68 88.64 113.872L87.56 111.184ZM120.752 105.184C120.704 105.424 120.648 105.696 120.584 106C120.52 106.304 120.464 106.584 120.416 106.84C120.352 107.16 120.272 107.56 120.176 108.04C120.096 108.504 120.008 108.992 119.912 109.504C119.816 110 119.712 110.48 119.6 110.944C119.44 111.616 119.24 112.392 119 113.272C118.76 114.152 118.48 115.096 118.16 116.104C117.856 117.096 117.504 118.112 117.104 119.152C116.72 120.176 116.296 121.184 115.832 122.176C115.384 123.152 114.896 124.064 114.368 124.912L111.896 123.928C112.456 123.176 112.976 122.344 113.456 121.432C113.936 120.504 114.376 119.552 114.776 118.576C115.176 117.584 115.536 116.608 115.856 115.648C116.176 114.688 116.448 113.8 116.672 112.984C116.912 112.152 117.096 111.44 117.224 110.848C117.448 109.824 117.624 108.8 117.752 107.776C117.896 106.752 117.96 105.792 117.944 104.896L120.752 105.184ZM129.032 107.608C129.4 108.104 129.792 108.728 130.208 109.48C130.624 110.232 131.032 111.032 131.432 111.88C131.848 112.728 132.216 113.544 132.536 114.328C132.872 115.112 133.136 115.784 133.328 116.344L130.952 117.448C130.792 116.808 130.56 116.088 130.256 115.288C129.968 114.472 129.632 113.648 129.248 112.816C128.88 111.984 128.48 111.2 128.048 110.464C127.632 109.712 127.216 109.08 126.8 108.568L129.032 107.608ZM111.632 110.296C112.032 110.312 112.416 110.32 112.784 110.32C113.168 110.32 113.56 110.312 113.96 110.296C114.344 110.28 114.816 110.256 115.376 110.224C115.936 110.176 116.536 110.128 117.176 110.08C117.832 110.016 118.48 109.96 119.12 109.912C119.776 109.848 120.376 109.8 120.92 109.768C121.464 109.736 121.904 109.72 122.24 109.72C123.024 109.72 123.72 109.848 124.328 110.104C124.936 110.344 125.416 110.776 125.768 111.4C126.136 112.024 126.32 112.896 126.32 114.016C126.32 114.96 126.28 115.984 126.2 117.088C126.12 118.176 125.976 119.224 125.768 120.232C125.576 121.224 125.304 122.056 124.952 122.728C124.568 123.56 124.064 124.112 123.44 124.384C122.832 124.672 122.104 124.816 121.256 124.816C120.808 124.816 120.32 124.784 119.792 124.72C119.264 124.656 118.8 124.576 118.4 124.48L118.016 121.984C118.336 122.064 118.68 122.144 119.048 122.224C119.432 122.304 119.792 122.368 120.128 122.416C120.464 122.448 120.736 122.464 120.944 122.464C121.376 122.464 121.752 122.392 122.072 122.248C122.408 122.088 122.688 121.776 122.912 121.312C123.152 120.816 123.352 120.176 123.512 119.392C123.672 118.608 123.792 117.768 123.872 116.872C123.952 115.976 123.992 115.112 123.992 114.28C123.992 113.576 123.888 113.056 123.68 112.72C123.488 112.384 123.208 112.16 122.84 112.048C122.472 111.92 122.04 111.856 121.544 111.856C121.16 111.856 120.632 111.888 119.96 111.952C119.304 112 118.6 112.064 117.848 112.144C117.096 112.224 116.4 112.304 115.76 112.384C115.12 112.448 114.616 112.504 114.248 112.552C113.944 112.584 113.552 112.632 113.072 112.696C112.608 112.76 112.208 112.824 111.872 112.888L111.632 110.296ZM136.184 108.616C136.664 108.664 137.168 108.704 137.696 108.736C138.24 108.752 138.752 108.76 139.232 108.76C140.16 108.76 141.104 108.72 142.064 108.64C143.04 108.544 144 108.408 144.944 108.232C145.904 108.04 146.816 107.808 147.68 107.536L147.752 109.744C147.016 109.952 146.176 110.144 145.232 110.32C144.288 110.496 143.304 110.64 142.28 110.752C141.256 110.864 140.24 110.92 139.232 110.92C138.784 110.92 138.312 110.912 137.816 110.896C137.32 110.88 136.832 110.864 136.352 110.848L136.184 108.616ZM145.04 104.824C144.944 105.224 144.816 105.728 144.656 106.336C144.512 106.944 144.344 107.584 144.152 108.256C143.976 108.928 143.792 109.576 143.6 110.2C143.216 111.352 142.736 112.576 142.16 113.872C141.584 115.152 140.96 116.4 140.288 117.616C139.616 118.832 138.936 119.896 138.248 120.808L135.944 119.632C136.488 118.976 137.024 118.248 137.552 117.448C138.08 116.632 138.576 115.792 139.04 114.928C139.52 114.048 139.952 113.2 140.336 112.384C140.72 111.552 141.032 110.792 141.272 110.104C141.544 109.304 141.792 108.4 142.016 107.392C142.24 106.384 142.368 105.44 142.4 104.56L145.04 104.824ZM150.68 112.264C150.664 112.76 150.656 113.232 150.656 113.68C150.656 114.128 150.664 114.592 150.68 115.072C150.696 115.44 150.712 115.92 150.728 116.512C150.76 117.088 150.792 117.704 150.824 118.36C150.856 119.016 150.88 119.64 150.896 120.232C150.928 120.824 150.944 121.304 150.944 121.672C150.944 122.344 150.792 122.96 150.488 123.52C150.2 124.08 149.736 124.528 149.096 124.864C148.456 125.2 147.608 125.368 146.552 125.368C145.624 125.368 144.776 125.232 144.008 124.96C143.256 124.688 142.648 124.28 142.184 123.736C141.736 123.192 141.512 122.504 141.512 121.672C141.512 120.92 141.72 120.256 142.136 119.68C142.568 119.104 143.16 118.656 143.912 118.336C144.664 118 145.536 117.832 146.528 117.832C147.904 117.832 149.168 118.032 150.32 118.432C151.472 118.816 152.504 119.304 153.416 119.896C154.344 120.472 155.144 121.056 155.816 121.648L154.544 123.688C154.08 123.272 153.568 122.84 153.008 122.392C152.448 121.928 151.824 121.504 151.136 121.12C150.464 120.72 149.728 120.392 148.928 120.136C148.144 119.88 147.304 119.752 146.408 119.752C145.608 119.752 144.96 119.912 144.464 120.232C143.984 120.552 143.744 120.96 143.744 121.456C143.744 121.968 143.952 122.384 144.368 122.704C144.8 123.024 145.424 123.184 146.24 123.184C146.848 123.184 147.328 123.088 147.68 122.896C148.048 122.688 148.304 122.408 148.448 122.056C148.592 121.704 148.664 121.312 148.664 120.88C148.664 120.464 148.648 119.904 148.616 119.2C148.6 118.496 148.568 117.736 148.52 116.92C148.488 116.104 148.448 115.288 148.4 114.472C148.368 113.64 148.344 112.904 148.328 112.264H150.68ZM155.192 113.176C154.744 112.808 154.184 112.416 153.512 112C152.84 111.568 152.152 111.16 151.448 110.776C150.744 110.376 150.12 110.056 149.576 109.816L150.8 107.968C151.232 108.16 151.72 108.392 152.264 108.664C152.808 108.936 153.352 109.224 153.896 109.528C154.44 109.832 154.944 110.136 155.408 110.44C155.872 110.728 156.256 110.976 156.56 111.184L155.192 113.176ZM163.736 107.08C163.688 107.304 163.648 107.576 163.616 107.896C163.584 108.216 163.552 108.536 163.52 108.856C163.504 109.176 163.496 109.448 163.496 109.672C163.496 110.168 163.496 110.72 163.496 111.328C163.512 111.936 163.528 112.56 163.544 113.2C163.56 113.824 163.6 114.448 163.664 115.072C163.792 116.336 163.984 117.44 164.24 118.384C164.496 119.328 164.824 120.064 165.224 120.592C165.624 121.12 166.088 121.384 166.616 121.384C166.92 121.384 167.208 121.24 167.48 120.952C167.752 120.664 168.008 120.28 168.248 119.8C168.488 119.32 168.704 118.8 168.896 118.24C169.104 117.664 169.28 117.112 169.424 116.584L171.32 118.816C170.808 120.176 170.296 121.264 169.784 122.08C169.288 122.88 168.776 123.456 168.248 123.808C167.72 124.16 167.16 124.336 166.568 124.336C165.768 124.336 165 124.064 164.264 123.52C163.544 122.96 162.92 122.048 162.392 120.784C161.864 119.52 161.488 117.832 161.264 115.72C161.184 115.016 161.12 114.256 161.072 113.44C161.04 112.624 161.016 111.848 161 111.112C161 110.376 161 109.768 161 109.288C161 108.984 160.984 108.616 160.952 108.184C160.936 107.736 160.888 107.352 160.808 107.032L163.736 107.08ZM176.024 107.68C176.456 108.24 176.872 108.896 177.272 109.648C177.688 110.384 178.064 111.184 178.4 112.048C178.736 112.912 179.032 113.792 179.288 114.688C179.56 115.584 179.784 116.472 179.96 117.352C180.136 118.232 180.256 119.064 180.32 119.848L177.848 120.808C177.752 119.768 177.592 118.68 177.368 117.544C177.144 116.408 176.856 115.288 176.504 114.184C176.152 113.064 175.736 112.016 175.256 111.04C174.792 110.048 174.256 109.192 173.648 108.472L176.024 107.68Z" fill="white"/>
<defs>
<linearGradient id="paint0_linear_279_2" x1="203.688" y1="-11.373" x2="203.688" y2="87.0821" gradientUnits="userSpaceOnUse">
<stop stop-color="#383838"/>
<stop offset="1" stop-color="#9E9E9E"/>
</linearGradient>
</defs>
</svg>
