<svg width="328" height="30" viewBox="0 0 328 30" fill="none" xmlns="http://www.w3.org/2000/svg">
<path d="M55.7663 18.6071C55.5203 18.6071 55.3228 18.4031 55.3228 18.1569V7.51671C55.3228 7.26697 55.1218 7.06648 54.8793 7.06648H50.8009C50.5549 7.06648 50.3574 7.27049 50.3574 7.51671V22.4798C50.3574 22.7295 50.5584 22.93 50.8009 22.93H66.0852C66.3312 22.93 66.5287 22.726 66.5287 22.4798V19.0609C66.5287 18.8111 66.3278 18.6106 66.0852 18.6106H55.7698L55.7663 18.6071Z" fill="white"/>
<path d="M88.2302 11.3859C88.4762 11.3859 88.6737 11.1818 88.6737 10.9356V7.51671C88.6737 7.26697 88.4727 7.06648 88.2302 7.06648H70.9015C70.6555 7.06648 70.458 7.27049 70.458 7.51671V22.4798C70.458 22.7295 70.659 22.93 70.9015 22.93H88.2302C88.4762 22.93 88.6737 22.726 88.6737 22.4798V19.0609C88.6737 18.8111 88.4727 18.6106 88.2302 18.6106H75.8704C75.6244 18.6106 75.4269 18.4066 75.4269 18.1604V17.2529C75.4269 17.0032 75.6278 16.8027 75.8704 16.8027H85.2398C85.4859 16.8027 85.6834 16.5987 85.6834 16.3524V13.6546C85.6834 13.4049 85.4824 13.2044 85.2398 13.2044H75.8704C75.6244 13.2044 75.4269 13.0004 75.4269 12.7541V11.8466C75.4269 11.5969 75.6278 11.3964 75.8704 11.3964H88.2302V11.3859Z" fill="white"/>
<path d="M20.7417 7.51671C20.7417 7.26697 20.5407 7.06648 20.2982 7.06648H16.2198C15.9738 7.06648 15.7763 7.27049 15.7763 7.51671V15.561C15.7763 15.8108 15.6169 15.8917 15.4194 15.7404L4.41445 7.3338C4.22041 7.18607 3.86005 7.06296 3.61403 7.06296H0.443524C0.197507 7.06296 0 7.26697 0 7.51319V22.4763C0 22.726 0.200972 22.9265 0.443524 22.9265H4.52187C4.76788 22.9265 4.96539 22.7225 4.96539 22.4763V14.5726C4.96539 14.3229 5.12478 14.242 5.32229 14.3897L16.2441 22.6592C16.4416 22.8069 16.8019 22.93 17.0445 22.93H20.2947C20.5407 22.93 20.7382 22.726 20.7382 22.4798V7.51671H20.7417Z" fill="white"/>
<path d="M42.0585 7.07703C41.8125 7.07703 41.4868 7.23531 41.3343 7.42877L36.1056 14.0415C35.9531 14.235 35.7037 14.235 35.5512 14.0415L30.3502 7.41822C30.1977 7.22476 29.872 7.06648 29.6295 7.06648H24.1616C23.9156 7.06648 23.8429 7.22476 23.9953 7.41822L32.3564 18.0654C32.5089 18.2589 32.5089 18.5754 32.3564 18.7689L29.3349 22.5783C29.1825 22.7717 29.2552 22.93 29.5013 22.93H34.9899C35.2359 22.93 35.5616 22.7717 35.7141 22.5783L47.7169 7.42877C47.8694 7.23531 47.7966 7.07703 47.5506 7.07703H42.062H42.0585Z" fill="white"/>
<path d="M152.371 0.671825C153.494 0.671825 154.544 0.854731 155.531 1.21702C156.515 1.58283 157.375 2.09638 158.102 2.76469C158.834 3.43299 159.409 4.24552 159.835 5.19873C160.258 6.15195 160.469 7.22476 160.469 8.41365C160.469 10.0809 160.178 11.5758 159.599 12.9019C159.021 14.2244 158.22 15.3465 157.202 16.268C156.186 17.1896 154.991 17.8896 153.622 18.3714C152.253 18.8533 150.788 19.096 149.222 19.096H142.181L140.05 29.3211H136.449L142.454 0.671825H152.371ZM142.846 15.9198H149.007C150.168 15.9198 151.228 15.7615 152.184 15.445C153.144 15.1284 153.965 14.6641 154.648 14.0556C155.334 13.4471 155.861 12.6943 156.231 11.8009C156.602 10.9075 156.789 9.88393 156.789 8.73373C156.789 7.96694 156.654 7.27752 156.387 6.66901C156.12 6.0605 155.743 5.54696 155.254 5.12839C154.766 4.70981 154.173 4.39325 153.473 4.17517C152.777 3.95709 151.997 3.84805 151.134 3.84805H145.382L142.839 15.9198H142.846Z" fill="white"/>
<path d="M175.625 21.1221H164.301L159.762 29.3211H155.989L172.517 0.671825H175.785L180.206 29.3211H176.765L175.632 21.1221H175.625ZM165.982 18.083H175.234L173.376 5.35702H173.064L165.985 18.083H165.982Z" fill="white"/>
<path d="M189.288 0.671825H199.049C200.327 0.671825 201.485 0.851213 202.521 1.20647C203.557 1.56525 204.444 2.07176 205.182 2.73655C205.917 3.39782 206.485 4.19627 206.883 5.12839C207.282 6.0605 207.479 7.10517 207.479 8.25536C207.479 9.40556 207.299 10.4186 206.942 11.414C206.582 12.4059 206.076 13.2993 205.418 14.0943C204.759 14.8892 203.962 15.5716 203.03 16.1484C202.098 16.7253 201.059 17.1509 199.912 17.4288L203.959 29.3211H200.126L196.45 17.9845H189.253L186.887 29.3211H183.286L189.288 0.671825ZM189.912 14.8083H196.717C197.746 14.8083 198.695 14.6571 199.562 14.351C200.428 14.045 201.173 13.6194 201.79 13.0707C202.41 12.522 202.892 11.8677 203.238 11.1045C203.585 10.3447 203.758 9.50756 203.758 8.59304C203.758 7.86493 203.647 7.21069 203.425 6.6268C203.203 6.04291 202.885 5.54696 202.465 5.13894C202.046 4.7274 201.544 4.41083 200.948 4.18572C200.355 3.9606 199.686 3.84805 198.941 3.84805H192.212L189.905 14.8083H189.912Z" fill="white"/>
<path d="M214.291 29.3211L219.61 3.88674H210.556L211.221 0.671825H232.933L232.268 3.88674H223.214L217.895 29.3211H214.295H214.291Z" fill="white"/>
<path d="M231.43 29.3211L237.435 0.671825H240.896L251.34 23.5631H251.652L256.444 0.671825H260.002L253.997 29.3211H250.498L240.071 6.48962H239.76L234.988 29.3211H231.43Z" fill="white"/>
<path d="M276.419 29.3211H258.893L264.898 0.671825H282.424L281.738 3.88674H267.833L265.879 13.0777H279.081L278.415 16.254H265.231L263.159 26.1027H277.085L276.419 29.3176V29.3211Z" fill="white"/>
<path d="M286.475 0.671825H296.236C297.515 0.671825 298.672 0.851213 299.708 1.20647C300.744 1.56525 301.631 2.07176 302.369 2.73655C303.104 3.39782 303.672 4.19627 304.07 5.12839C304.469 6.0605 304.666 7.10517 304.666 8.25536C304.666 9.40556 304.486 10.4186 304.129 11.414C303.769 12.4059 303.263 13.2993 302.605 14.0943C301.946 14.8892 301.149 15.5716 300.217 16.1484C299.285 16.7253 298.246 17.1509 297.099 17.4288L301.146 29.3211H297.314L293.637 17.9845H286.44L284.074 29.3211H280.474L286.475 0.671825ZM287.099 14.8083H293.904C294.933 14.8083 295.883 14.6571 296.749 14.351C297.615 14.045 298.36 13.6194 298.977 13.0707C299.597 12.522 300.079 11.8677 300.425 11.1045C300.772 10.3447 300.945 9.50756 300.945 8.59304C300.945 7.86493 300.834 7.21069 300.612 6.6268C300.391 6.04291 300.072 5.54696 299.653 5.13894C299.233 4.7274 298.731 4.41083 298.135 4.18572C297.542 3.9606 296.874 3.84805 296.129 3.84805H289.4L287.092 14.8083H287.099Z" fill="white"/>
<path d="M308.225 21.3788C308.395 22.1984 308.693 22.9441 309.115 23.6124C309.538 24.2807 310.068 24.847 310.699 25.3113C311.333 25.7756 312.054 26.1308 312.872 26.3841C313.686 26.6374 314.569 26.7605 315.522 26.7605C316.475 26.7605 317.39 26.6374 318.194 26.3947C318.994 26.1484 319.684 25.8072 320.259 25.3641C320.834 24.9209 321.278 24.3827 321.59 23.7566C321.901 23.1305 322.057 22.4376 322.057 21.6813C322.057 20.503 321.652 19.5111 320.845 18.7021C320.037 17.8966 318.724 17.165 316.912 16.5178L314.233 15.5645C312.303 14.8751 310.806 13.8938 309.746 12.617C308.682 11.3401 308.152 9.87337 308.152 8.22019C308.152 7.04186 308.402 5.95498 308.904 4.95252C309.407 3.95357 310.103 3.08477 310.997 2.35315C311.891 1.61801 312.944 1.04115 314.157 0.626099C315.37 0.207527 316.687 0 318.107 0C319.452 0 320.699 0.20401 321.853 0.615547C323.007 1.02708 324.026 1.5969 324.906 2.33204C325.786 3.06718 326.496 3.94654 327.037 4.97362C327.577 6.0007 327.899 7.12276 328.003 8.33978H324.462C324.098 6.72529 323.339 5.46957 322.193 4.57615C321.046 3.68273 319.611 3.23602 317.889 3.23602C317.016 3.23602 316.208 3.35209 315.474 3.58424C314.736 3.81639 314.102 4.13999 313.568 4.55857C313.034 4.97714 312.615 5.46957 312.317 6.0394C312.016 6.60922 311.867 7.2318 311.867 7.90714C311.867 8.92719 312.234 9.81358 312.972 10.5663C313.71 11.319 314.854 11.9838 316.406 12.5501L318.949 13.4822C321.271 14.344 322.993 15.4063 324.112 16.669C325.235 17.9318 325.793 19.4513 325.793 21.2276C325.793 22.5255 325.536 23.7109 325.02 24.7802C324.504 25.853 323.78 26.7745 322.847 27.5519C321.915 28.3257 320.8 28.9272 319.504 29.3598C318.204 29.789 316.78 30.0035 315.231 30.0035C313.783 30.0035 312.452 29.8065 311.243 29.4091C310.03 29.0116 308.97 28.4418 308.066 27.7031C307.158 26.961 306.416 26.0605 305.838 24.9912C305.259 23.9254 304.871 22.726 304.673 21.3859H308.232L308.225 21.3788Z" fill="white"/>
<path d="M95.5518 29.3211L108.081 13.8305L114.613 17.0419L104.897 29.3211H95.5518Z" fill="#95FF00"/>
<path d="M115.829 15.6736L109.346 12.5853L118.546 0.425608H127.891L115.829 15.6736Z" fill="#95FF00"/>
<path d="M119.017 29.3211L108.833 16.5529L95.7874 0.858248H104.422L114.37 13.4646L127.655 29.3211H119.017Z" fill="white"/>
</svg>
