<svg width="12" height="12" viewBox="0 0 12 12" fill="none" xmlns="http://www.w3.org/2000/svg">
<g clip-path="url(#clip0_1284_5)">
<path d="M10.8332 3.41367C10.9429 3.30429 11.0046 3.15582 11.0048 3.00091C11.0051 2.84601 10.9437 2.69736 10.8344 2.58767C10.725 2.47798 10.5765 2.41624 10.4216 2.41602C10.2667 2.4158 10.1181 2.47712 10.0084 2.5865L4.64636 7.9485L2.17186 5.47342C2.11805 5.41771 2.05368 5.37327 1.98252 5.34269C1.91135 5.31212 1.8348 5.29603 1.75735 5.29536C1.67989 5.29468 1.60308 5.30944 1.53139 5.33877C1.4597 5.3681 1.39457 5.41142 1.3398 5.46619C1.28503 5.52096 1.24171 5.58609 1.21238 5.65778C1.18305 5.72947 1.16829 5.80628 1.16897 5.88374C1.16964 5.96119 1.18573 6.03774 1.2163 6.10891C1.24688 6.18008 1.29132 6.24444 1.34703 6.29825L4.2637 9.21492C4.37309 9.32428 4.52143 9.38571 4.67611 9.38571C4.83079 9.38571 4.97914 9.32428 5.08853 9.21492L10.9219 3.38159L10.8332 3.41367Z" fill="white"/>
</g>
<defs>
<clipPath id="clip0_1284_5">
<rect width="12" height="12" fill="white"/>
</clipPath>
</defs>
</svg>
